<svg width="178" height="57" viewBox="0 0 178 57" fill="none" xmlns="http://www.w3.org/2000/svg">
<rect y="0.276367" width="178" height="56" rx="8" fill="#4451CA"/>
<path d="M41.568 34.2764V23.0764H48.624V24.7404H43.296V32.6124H48.624V34.2764H41.568ZM42.352 29.3644V27.7004H47.744V29.3644H42.352ZM56.5641 34.2764L53.8441 30.7404L53.6041 30.4364L50.0681 25.8764H52.1481L54.8201 29.3644L55.0921 29.7164L58.5801 34.2764H56.5641ZM50.0841 34.2764L53.3961 29.9564L54.3721 31.1244L52.0361 34.2764H50.0841ZM55.1881 30.2124L54.2761 29.0604L56.3401 25.8764H58.2921L55.1881 30.2124ZM59.9645 37.7964V25.8764H61.6285V27.7964L61.3725 27.6524C61.4365 27.3324 61.6178 27.0284 61.9165 26.7404C62.2152 26.4417 62.5778 26.2017 63.0045 26.0204C63.4418 25.8284 63.8898 25.7324 64.3485 25.7324C65.1058 25.7324 65.7778 25.919 66.3645 26.2924C66.9512 26.6657 67.4152 27.1777 67.7565 27.8284C68.0978 28.479 68.2685 29.2257 68.2685 30.0684C68.2685 30.9004 68.0978 31.647 67.7565 32.3084C67.4258 32.959 66.9672 33.4764 66.3805 33.8604C65.7938 34.2337 65.1325 34.4204 64.3965 34.4204C63.9058 34.4204 63.4312 34.3244 62.9725 34.1324C62.5138 33.9297 62.1245 33.6737 61.8045 33.3644C61.4845 33.055 61.2872 32.735 61.2125 32.4044L61.6285 32.1804V37.7964H59.9645ZM64.1245 32.9004C64.6152 32.9004 65.0525 32.7777 65.4365 32.5324C65.8205 32.287 66.1245 31.951 66.3485 31.5244C66.5725 31.0977 66.6845 30.6124 66.6845 30.0684C66.6845 29.5244 66.5725 29.0444 66.3485 28.6284C66.1352 28.2017 65.8365 27.8657 65.4525 27.6204C65.0685 27.375 64.6258 27.2524 64.1245 27.2524C63.6232 27.2524 63.1805 27.375 62.7965 27.6204C62.4125 27.855 62.1085 28.1857 61.8845 28.6124C61.6605 29.039 61.5485 29.5244 61.5485 30.0684C61.5485 30.6124 61.6605 31.0977 61.8845 31.5244C62.1085 31.951 62.4125 32.287 62.7965 32.5324C63.1805 32.7777 63.6232 32.9004 64.1245 32.9004ZM70.0903 34.2764V22.4364H71.7383V34.2764H70.0903ZM77.6936 34.4364C76.8723 34.4364 76.1363 34.2497 75.4856 33.8764C74.8456 33.4924 74.339 32.975 73.9656 32.3244C73.5923 31.663 73.4056 30.911 73.4056 30.0684C73.4056 29.2257 73.5923 28.479 73.9656 27.8284C74.339 27.167 74.8456 26.6497 75.4856 26.2764C76.1363 25.8924 76.8723 25.7004 77.6936 25.7004C78.5043 25.7004 79.2296 25.8924 79.8696 26.2764C80.5203 26.6497 81.0323 27.167 81.4056 27.8284C81.779 28.479 81.9656 29.2257 81.9656 30.0684C81.9656 30.911 81.779 31.663 81.4056 32.3244C81.0323 32.975 80.5203 33.4924 79.8696 33.8764C79.2296 34.2497 78.5043 34.4364 77.6936 34.4364ZM77.6936 32.9324C78.195 32.9324 78.643 32.8097 79.0376 32.5644C79.4323 32.3084 79.7416 31.967 79.9656 31.5404C80.1896 31.103 80.2963 30.6124 80.2856 30.0684C80.2963 29.5137 80.1896 29.023 79.9656 28.5964C79.7416 28.159 79.4323 27.8177 79.0376 27.5724C78.643 27.327 78.195 27.2044 77.6936 27.2044C77.1923 27.2044 76.739 27.3324 76.3336 27.5884C75.939 27.8337 75.6296 28.175 75.4056 28.6124C75.1816 29.039 75.075 29.5244 75.0856 30.0684C75.075 30.6124 75.1816 31.103 75.4056 31.5404C75.6296 31.967 75.939 32.3084 76.3336 32.5644C76.739 32.8097 77.1923 32.9324 77.6936 32.9324ZM83.7614 34.2764V25.8764H85.4254V28.5164L85.2654 27.8764C85.3827 27.471 85.58 27.103 85.8574 26.7724C86.1454 26.4417 86.4707 26.1804 86.8334 25.9884C87.2067 25.7964 87.5907 25.7004 87.9854 25.7004C88.1667 25.7004 88.3374 25.7164 88.4974 25.7484C88.668 25.7804 88.8014 25.8177 88.8974 25.8604L88.4654 27.6524C88.3374 27.599 88.1934 27.5564 88.0334 27.5244C87.884 27.4817 87.7347 27.4604 87.5854 27.4604C87.2974 27.4604 87.02 27.519 86.7534 27.6364C86.4974 27.743 86.268 27.8977 86.0654 28.1004C85.8734 28.2924 85.7187 28.5217 85.6014 28.7884C85.484 29.0444 85.4254 29.327 85.4254 29.6364V34.2764H83.7614ZM93.7751 34.4364C92.9111 34.4364 92.1431 34.255 91.4711 33.8924C90.8098 33.519 90.2871 33.0124 89.9031 32.3724C89.5298 31.7324 89.3431 30.9964 89.3431 30.1644C89.3431 29.503 89.4498 28.9004 89.6631 28.3564C89.8765 27.8124 90.1698 27.343 90.5431 26.9484C90.9271 26.543 91.3805 26.2337 91.9031 26.0204C92.4365 25.7964 93.0125 25.6844 93.6311 25.6844C94.1751 25.6844 94.6818 25.791 95.1511 26.0044C95.6205 26.207 96.0258 26.4897 96.3671 26.8524C96.7191 27.215 96.9858 27.647 97.1671 28.1484C97.3591 28.639 97.4498 29.1777 97.4391 29.7644L97.4231 30.4684H90.5591L90.1911 29.1564H95.9991L95.7591 29.4284V29.0444C95.7271 28.6924 95.6098 28.3777 95.4071 28.1004C95.2045 27.823 94.9485 27.6044 94.6391 27.4444C94.3298 27.2844 93.9938 27.2044 93.6311 27.2044C93.0551 27.2044 92.5698 27.3164 92.1751 27.5404C91.7805 27.7537 91.4818 28.0737 91.2791 28.5004C91.0765 28.9164 90.9751 29.4337 90.9751 30.0524C90.9751 30.639 91.0978 31.151 91.3431 31.5884C91.5885 32.015 91.9351 32.3457 92.3831 32.5804C92.8311 32.815 93.3485 32.9324 93.9351 32.9324C94.3511 32.9324 94.7351 32.863 95.0871 32.7244C95.4498 32.5857 95.8391 32.335 96.2551 31.9724L97.0871 33.1404C96.8311 33.3964 96.5165 33.6204 96.1431 33.8124C95.7805 34.0044 95.3911 34.159 94.9751 34.2764C94.5698 34.383 94.1698 34.4364 93.7751 34.4364ZM104.131 34.2764V23.0764H105.683L112.531 32.2444L112.275 32.3884C112.232 32.1217 112.195 31.8337 112.163 31.5244C112.131 31.2044 112.099 30.8684 112.067 30.5164C112.045 30.1537 112.024 29.775 112.003 29.3804C111.992 28.975 111.981 28.5537 111.97 28.1164C111.96 27.679 111.955 27.2257 111.955 26.7564V23.0764H113.683V34.2764H112.099L105.363 25.4444L105.539 25.2204C105.592 25.871 105.635 26.4257 105.667 26.8844C105.709 27.3324 105.741 27.7164 105.763 28.0364C105.795 28.3457 105.816 28.6017 105.827 28.8044C105.837 28.9964 105.843 29.1564 105.843 29.2844C105.853 29.4124 105.859 29.5244 105.859 29.6204V34.2764H104.131ZM120.178 34.4364C119.357 34.4364 118.621 34.2497 117.97 33.8764C117.33 33.4924 116.823 32.975 116.45 32.3244C116.077 31.663 115.89 30.911 115.89 30.0684C115.89 29.2257 116.077 28.479 116.45 27.8284C116.823 27.167 117.33 26.6497 117.97 26.2764C118.621 25.8924 119.357 25.7004 120.178 25.7004C120.989 25.7004 121.714 25.8924 122.354 26.2764C123.005 26.6497 123.517 27.167 123.89 27.8284C124.263 28.479 124.45 29.2257 124.45 30.0684C124.45 30.911 124.263 31.663 123.89 32.3244C123.517 32.975 123.005 33.4924 122.354 33.8764C121.714 34.2497 120.989 34.4364 120.178 34.4364ZM120.178 32.9324C120.679 32.9324 121.127 32.8097 121.522 32.5644C121.917 32.3084 122.226 31.967 122.45 31.5404C122.674 31.103 122.781 30.6124 122.77 30.0684C122.781 29.5137 122.674 29.023 122.45 28.5964C122.226 28.159 121.917 27.8177 121.522 27.5724C121.127 27.327 120.679 27.2044 120.178 27.2044C119.677 27.2044 119.223 27.3324 118.818 27.5884C118.423 27.8337 118.114 28.175 117.89 28.6124C117.666 29.039 117.559 29.5244 117.57 30.0684C117.559 30.6124 117.666 31.103 117.89 31.5404C118.114 31.967 118.423 32.3084 118.818 32.5644C119.223 32.8097 119.677 32.9324 120.178 32.9324ZM127.997 34.2764L125.133 25.8764L126.797 25.8604L128.845 32.1484L128.477 32.1164L130.701 27.2044H131.693L133.933 32.1324L133.501 32.1644L135.565 25.8764H137.229L134.397 34.2764H133.261L130.925 28.9324L131.293 28.9804L129.117 34.2764H127.997Z" fill="white"/>
</svg>
