<svg width="540" height="137" viewBox="0 0 540 137" fill="none" xmlns="http://www.w3.org/2000/svg">
<path d="M12.6016 52.2764V41.1884L1.75356 16.8524H7.89756L15.6736 35.1404L23.4496 16.8524H29.4496L18.5536 41.1884V52.2764H12.6016ZM40.9557 52.5164C38.9397 52.5164 37.1957 52.3084 35.7237 51.8924C34.2517 51.4764 33.0517 50.7724 32.1237 49.7804C31.1957 48.7884 30.5077 47.4444 30.0597 45.7484C29.6117 44.0524 29.3877 41.9244 29.3877 39.3644C29.3877 36.7084 29.6117 34.5324 30.0597 32.8364C30.5077 31.1084 31.1957 29.7644 32.1237 28.8044C33.0837 27.8124 34.2997 27.1404 35.7717 26.7884C37.2437 26.4044 38.9717 26.2124 40.9557 26.2124C43.0037 26.2124 44.7637 26.4204 46.2357 26.8364C47.7077 27.2204 48.9077 27.8924 49.8357 28.8524C50.7637 29.8124 51.4517 31.1564 51.8997 32.8844C52.3477 34.5804 52.5717 36.7404 52.5717 39.3644C52.5717 41.9564 52.3477 44.1164 51.8997 45.8444C51.4837 47.5404 50.8117 48.8844 49.8837 49.8764C48.9557 50.8364 47.7557 51.5244 46.2837 51.9404C44.8117 52.3244 43.0357 52.5164 40.9557 52.5164ZM40.9557 47.7644C41.9477 47.7644 42.7957 47.6844 43.4997 47.5244C44.2037 47.3324 44.7797 46.9644 45.2277 46.4204C45.7077 45.8444 46.0597 44.9964 46.2837 43.8764C46.5077 42.7244 46.6197 41.2044 46.6197 39.3164C46.6197 37.4604 46.5077 35.9724 46.2837 34.8524C46.0597 33.7324 45.7077 32.9004 45.2277 32.3564C44.7797 31.7804 44.2037 31.4124 43.4997 31.2524C42.7957 31.0604 41.9477 30.9644 40.9557 30.9644C39.9957 30.9644 39.1637 31.0604 38.4597 31.2524C37.7557 31.4124 37.1797 31.7804 36.7317 32.3564C36.2837 32.9004 35.9317 33.7324 35.6757 34.8524C35.4517 35.9724 35.3397 37.4604 35.3397 39.3164C35.3397 41.2044 35.4517 42.7244 35.6757 43.8764C35.9317 44.9964 36.2837 45.8444 36.7317 46.4204C37.1797 46.9644 37.7557 47.3324 38.4597 47.5244C39.1637 47.6844 39.9957 47.7644 40.9557 47.7644ZM65.2999 52.5644C62.9319 52.5644 61.0919 51.9084 59.7799 50.5964C58.4679 49.2524 57.8119 47.3004 57.8119 44.7404V26.5484H63.7639V43.0124C63.7639 44.7084 64.1479 45.8444 64.9159 46.4204C65.7159 46.9964 66.7879 47.2844 68.1319 47.2844C69.2519 47.2844 70.3399 47.1084 71.3959 46.7564C72.4519 46.4044 73.4439 45.8924 74.3719 45.2204V26.5484H80.3239V52.2764H75.4759L74.3719 49.5884C73.1559 50.3564 71.7639 51.0444 70.1959 51.6524C68.6599 52.2604 67.0279 52.5644 65.2999 52.5644ZM86.3131 52.2764V26.5484H90.9211L92.2651 30.6764C93.2891 29.4284 94.4251 28.3724 95.6731 27.5084C96.9211 26.6444 98.4091 26.2124 100.137 26.2124C100.489 26.2124 100.857 26.2444 101.241 26.3084C101.625 26.3404 101.977 26.4044 102.297 26.5004V32.5484C101.849 32.4844 101.369 32.4364 100.857 32.4044C100.345 32.3724 99.8491 32.3564 99.3691 32.3564C98.3771 32.3564 97.4651 32.4684 96.6331 32.6924C95.8331 32.9164 95.0811 33.2684 94.3771 33.7484C93.6731 34.1964 92.9691 34.7724 92.2651 35.4764V52.2764H86.3131Z" fill="#161616"/>
<rect x="110.5" y="0.276367" width="319" height="72" rx="8" fill="#4451CA"/>
<path d="M143.156 52.5644C140.788 52.5644 138.708 52.3404 136.916 51.8924C135.156 51.4124 133.668 50.5644 132.452 49.3484C131.268 48.1004 130.372 46.2924 129.764 43.9244C129.188 41.5564 128.9 38.4684 128.9 34.6604C128.9 30.8204 129.204 27.7164 129.812 25.3484C130.42 22.9484 131.316 21.1244 132.5 19.8764C133.716 18.5964 135.204 17.7164 136.964 17.2364C138.756 16.7564 140.82 16.5164 143.156 16.5164C145.556 16.5164 147.652 16.7564 149.444 17.2364C151.236 17.7164 152.724 18.5964 153.908 19.8764C155.092 21.1244 155.972 22.9484 156.548 25.3484C157.156 27.7164 157.46 30.8204 157.46 34.6604C157.46 38.4684 157.156 41.5564 156.548 43.9244C155.972 46.2924 155.076 48.1004 153.86 49.3484C152.676 50.5644 151.188 51.4124 149.396 51.8924C147.636 52.3404 145.556 52.5644 143.156 52.5644ZM143.156 47.2364C144.724 47.2364 146.036 47.0764 147.092 46.7564C148.18 46.4044 149.044 45.7964 149.684 44.9324C150.324 44.0364 150.788 42.7724 151.076 41.1404C151.364 39.4764 151.508 37.3164 151.508 34.6604C151.508 31.8444 151.348 29.6044 151.028 27.9404C150.74 26.2444 150.276 24.9644 149.636 24.1004C148.996 23.2044 148.148 22.6124 147.092 22.3244C146.036 22.0044 144.724 21.8444 143.156 21.8444C141.684 21.8444 140.42 22.0044 139.364 22.3244C138.308 22.6124 137.444 23.2044 136.772 24.1004C136.132 24.9644 135.652 26.2444 135.332 27.9404C135.012 29.6044 134.852 31.8444 134.852 34.6604C134.852 37.3164 134.98 39.4764 135.236 41.1404C135.524 42.7724 135.988 44.0364 136.628 44.9324C137.268 45.7964 138.116 46.4044 139.172 46.7564C140.26 47.0764 141.588 47.2364 143.156 47.2364ZM162.899 63.6524V26.5484H167.843L168.851 29.0924C169.459 28.6124 170.163 28.1484 170.963 27.7004C171.763 27.2524 172.627 26.9004 173.555 26.6444C174.483 26.3564 175.443 26.2124 176.435 26.2124C178.067 26.2124 179.459 26.5324 180.611 27.1724C181.795 27.8124 182.755 28.7244 183.491 29.9084C184.227 31.0604 184.755 32.4524 185.075 34.0844C185.427 35.6844 185.603 37.4604 185.603 39.4124C185.603 42.2284 185.299 44.6284 184.691 46.6124C184.115 48.5644 183.155 50.0524 181.811 51.0764C180.499 52.1004 178.707 52.6124 176.435 52.6124C175.155 52.6124 173.843 52.4364 172.499 52.0844C171.187 51.7324 169.971 51.2684 168.851 50.6924V63.6524H162.899ZM174.563 47.7164C175.491 47.7164 176.339 47.4764 177.107 46.9964C177.875 46.4844 178.483 45.6364 178.931 44.4524C179.411 43.2684 179.651 41.5884 179.651 39.4124C179.651 37.3324 179.427 35.6684 178.979 34.4204C178.531 33.1724 177.923 32.2924 177.155 31.7804C176.419 31.2684 175.571 31.0124 174.611 31.0124C173.427 31.0124 172.355 31.2044 171.395 31.5884C170.435 31.9404 169.587 32.3084 168.851 32.6924V46.1324C169.683 46.6124 170.595 46.9964 171.587 47.2844C172.579 47.5724 173.571 47.7164 174.563 47.7164ZM201.395 52.5164C198.611 52.5164 196.387 52.1324 194.723 51.3644C193.091 50.5964 191.907 49.2684 191.171 47.3804C190.435 45.4604 190.067 42.8044 190.067 39.4124C190.067 35.9564 190.419 33.2844 191.123 31.3964C191.827 29.4764 192.995 28.1324 194.627 27.3644C196.259 26.5964 198.467 26.2124 201.251 26.2124C203.715 26.2124 205.683 26.4684 207.155 26.9804C208.659 27.4604 209.747 28.3404 210.419 29.6204C211.123 30.8684 211.475 32.6444 211.475 34.9484C211.475 36.5804 211.155 37.8924 210.515 38.8844C209.875 39.8444 208.947 40.5324 207.731 40.9484C206.547 41.3644 205.139 41.5724 203.507 41.5724H195.971C196.035 43.1724 196.243 44.4524 196.595 45.4124C196.979 46.3404 197.651 47.0124 198.611 47.4284C199.603 47.8444 201.043 48.0524 202.931 48.0524H210.707V51.5564C209.395 51.8124 208.003 52.0364 206.531 52.2284C205.091 52.4204 203.379 52.5164 201.395 52.5164ZM195.923 37.9724H202.931C204.051 37.9724 204.867 37.7644 205.379 37.3484C205.923 36.9004 206.195 36.1004 206.195 34.9484C206.195 33.8284 206.035 32.9484 205.715 32.3084C205.395 31.6684 204.867 31.2204 204.131 30.9644C203.395 30.6764 202.435 30.5324 201.251 30.5324C199.907 30.5324 198.851 30.7404 198.083 31.1564C197.315 31.5724 196.755 32.3244 196.403 33.4124C196.083 34.4684 195.923 35.9884 195.923 37.9724ZM216.758 52.2764V26.5484H221.606L222.71 29.2364C223.766 28.4364 225.046 27.7164 226.55 27.0764C228.086 26.4364 229.67 26.1164 231.302 26.1164C233.318 26.1164 234.902 26.5324 236.054 27.3644C237.206 28.1644 238.022 29.2524 238.502 30.6284C239.014 32.0044 239.27 33.5084 239.27 35.1404V52.2764H233.318V35.8604C233.318 34.9324 233.142 34.1484 232.79 33.5084C232.438 32.8684 231.942 32.3724 231.302 32.0204C230.694 31.6684 229.942 31.4924 229.046 31.4924C228.214 31.4924 227.43 31.5724 226.694 31.7324C225.99 31.8924 225.318 32.1324 224.678 32.4524C224.038 32.7724 223.382 33.1564 222.71 33.6044V52.2764H216.758ZM243.292 40.7564V35.9564H257.788V40.7564H243.292ZM272.604 52.5644C271.74 52.5644 270.812 52.5324 269.82 52.4684C268.86 52.4364 267.868 52.3724 266.844 52.2764C265.852 52.1484 264.908 52.0364 264.012 51.9404C263.116 51.8124 262.316 51.6684 261.612 51.5084V46.8524C262.508 46.9164 263.548 46.9804 264.732 47.0444C265.948 47.1084 267.212 47.1564 268.524 47.1884C269.836 47.2204 271.1 47.2364 272.316 47.2364C273.596 47.2364 274.732 47.1244 275.724 46.9004C276.716 46.6444 277.484 46.2124 278.028 45.6044C278.572 44.9964 278.844 44.1324 278.844 43.0124V41.3324C278.844 40.0844 278.492 39.1244 277.788 38.4524C277.084 37.7804 276.044 37.4444 274.668 37.4444H271.356C268.124 37.4444 265.628 36.7404 263.868 35.3324C262.14 33.9244 261.276 31.5084 261.276 28.0844V26.2604C261.276 22.8364 262.22 20.3724 264.108 18.8684C266.028 17.3324 268.764 16.5644 272.316 16.5644C273.532 16.5644 274.78 16.6284 276.06 16.7564C277.372 16.8524 278.62 16.9804 279.804 17.1404C280.988 17.3004 281.996 17.4764 282.828 17.6684V22.3244C281.42 22.2284 279.804 22.1324 277.98 22.0364C276.188 21.9404 274.524 21.8924 272.988 21.8924C271.772 21.8924 270.7 22.0204 269.772 22.2764C268.844 22.5324 268.14 22.9964 267.66 23.6684C267.18 24.3084 266.94 25.2684 266.94 26.5484V27.7004C266.94 29.2044 267.34 30.2604 268.14 30.8684C268.972 31.4764 270.156 31.7804 271.692 31.7804H275.388C277.468 31.7804 279.18 32.1644 280.524 32.9324C281.868 33.7004 282.86 34.7564 283.5 36.1004C284.172 37.4124 284.508 38.9164 284.508 40.6124V42.8684C284.508 45.4924 283.996 47.5084 282.972 48.9164C281.948 50.3244 280.54 51.2844 278.748 51.7964C276.956 52.3084 274.908 52.5644 272.604 52.5644ZM300.682 52.5164C298.666 52.5164 296.922 52.3084 295.45 51.8924C293.978 51.4764 292.778 50.7724 291.85 49.7804C290.922 48.7884 290.234 47.4444 289.786 45.7484C289.338 44.0524 289.114 41.9244 289.114 39.3644C289.114 36.7084 289.338 34.5324 289.786 32.8364C290.234 31.1084 290.922 29.7644 291.85 28.8044C292.81 27.8124 294.026 27.1404 295.498 26.7884C296.97 26.4044 298.698 26.2124 300.682 26.2124C302.73 26.2124 304.49 26.4204 305.962 26.8364C307.434 27.2204 308.634 27.8924 309.562 28.8524C310.49 29.8124 311.178 31.1564 311.626 32.8844C312.074 34.5804 312.298 36.7404 312.298 39.3644C312.298 41.9564 312.074 44.1164 311.626 45.8444C311.21 47.5404 310.538 48.8844 309.61 49.8764C308.682 50.8364 307.482 51.5244 306.01 51.9404C304.538 52.3244 302.762 52.5164 300.682 52.5164ZM300.682 47.7644C301.674 47.7644 302.522 47.6844 303.226 47.5244C303.93 47.3324 304.506 46.9644 304.954 46.4204C305.434 45.8444 305.786 44.9964 306.01 43.8764C306.234 42.7244 306.346 41.2044 306.346 39.3164C306.346 37.4604 306.234 35.9724 306.01 34.8524C305.786 33.7324 305.434 32.9004 304.954 32.3564C304.506 31.7804 303.93 31.4124 303.226 31.2524C302.522 31.0604 301.674 30.9644 300.682 30.9644C299.722 30.9644 298.89 31.0604 298.186 31.2524C297.482 31.4124 296.906 31.7804 296.458 32.3564C296.01 32.9004 295.658 33.7324 295.402 34.8524C295.178 35.9724 295.066 37.4604 295.066 39.3164C295.066 41.2044 295.178 42.7244 295.402 43.8764C295.658 44.9964 296.01 45.8444 296.458 46.4204C296.906 46.9644 297.482 47.3324 298.186 47.5244C298.89 47.6844 299.722 47.7644 300.682 47.7644ZM325.027 52.5644C322.659 52.5644 320.819 51.9084 319.507 50.5964C318.195 49.2524 317.539 47.3004 317.539 44.7404V26.5484H323.491V43.0124C323.491 44.7084 323.875 45.8444 324.643 46.4204C325.443 46.9964 326.515 47.2844 327.859 47.2844C328.979 47.2844 330.067 47.1084 331.123 46.7564C332.179 46.4044 333.171 45.8924 334.099 45.2204V26.5484H340.051V52.2764H335.203L334.099 49.5884C332.883 50.3564 331.491 51.0444 329.923 51.6524C328.387 52.2604 326.755 52.5644 325.027 52.5644ZM346.04 52.2764V26.5484H350.648L351.992 30.6764C353.016 29.4284 354.152 28.3724 355.4 27.5084C356.648 26.6444 358.136 26.2124 359.864 26.2124C360.216 26.2124 360.584 26.2444 360.968 26.3084C361.352 26.3404 361.704 26.4044 362.024 26.5004V32.5484C361.576 32.4844 361.096 32.4364 360.584 32.4044C360.072 32.3724 359.576 32.3564 359.096 32.3564C358.104 32.3564 357.192 32.4684 356.36 32.6924C355.56 32.9164 354.808 33.2684 354.104 33.7484C353.4 34.1964 352.696 34.7724 351.992 35.4764V52.2764H346.04ZM375.989 52.5644C374.453 52.5644 373.029 52.3724 371.717 51.9884C370.437 51.5724 369.317 50.8844 368.357 49.9244C367.397 48.9324 366.645 47.5884 366.101 45.8924C365.589 44.1964 365.333 42.0684 365.333 39.5084C365.333 36.8844 365.573 34.7084 366.053 32.9804C366.565 31.2524 367.285 29.8924 368.213 28.9004C369.141 27.9084 370.261 27.2204 371.573 26.8364C372.917 26.4204 374.437 26.2124 376.133 26.2124C377.573 26.2124 379.029 26.2924 380.501 26.4524C381.973 26.5804 383.445 26.8364 384.917 27.2204V30.6284H377.909C376.373 30.6284 375.125 30.8684 374.165 31.3484C373.205 31.8284 372.485 32.7084 372.005 33.9884C371.525 35.2684 371.285 37.1084 371.285 39.5084C371.285 41.8764 371.525 43.6844 372.005 44.9324C372.485 46.1484 373.205 46.9804 374.165 47.4284C375.157 47.8444 376.421 48.0524 377.957 48.0524H385.301V51.4124C384.533 51.6364 383.637 51.8444 382.613 52.0364C381.589 52.1964 380.501 52.3244 379.349 52.4204C378.229 52.5164 377.109 52.5644 375.989 52.5644ZM400.192 52.5164C397.408 52.5164 395.184 52.1324 393.52 51.3644C391.888 50.5964 390.704 49.2684 389.968 47.3804C389.232 45.4604 388.864 42.8044 388.864 39.4124C388.864 35.9564 389.216 33.2844 389.92 31.3964C390.624 29.4764 391.792 28.1324 393.424 27.3644C395.056 26.5964 397.264 26.2124 400.048 26.2124C402.512 26.2124 404.48 26.4684 405.952 26.9804C407.456 27.4604 408.544 28.3404 409.216 29.6204C409.92 30.8684 410.272 32.6444 410.272 34.9484C410.272 36.5804 409.952 37.8924 409.312 38.8844C408.672 39.8444 407.744 40.5324 406.528 40.9484C405.344 41.3644 403.936 41.5724 402.304 41.5724H394.768C394.832 43.1724 395.04 44.4524 395.392 45.4124C395.776 46.3404 396.448 47.0124 397.408 47.4284C398.4 47.8444 399.84 48.0524 401.728 48.0524H409.504V51.5564C408.192 51.8124 406.8 52.0364 405.328 52.2284C403.888 52.4204 402.176 52.5164 400.192 52.5164ZM394.72 37.9724H401.728C402.848 37.9724 403.664 37.7644 404.176 37.3484C404.72 36.9004 404.992 36.1004 404.992 34.9484C404.992 33.8284 404.832 32.9484 404.512 32.3084C404.192 31.6684 403.664 31.2204 402.928 30.9644C402.192 30.6764 401.232 30.5324 400.048 30.5324C398.704 30.5324 397.648 30.7404 396.88 31.1564C396.112 31.5724 395.552 32.3244 395.2 33.4124C394.88 34.4684 394.72 35.9884 394.72 37.9724Z" fill="white"/>
<path d="M439.812 52.2764V16.8524H454.452C456.756 16.8524 458.676 17.2684 460.212 18.1004C461.78 18.9004 463.028 20.0844 463.956 21.6524C464.884 23.1884 465.54 25.0444 465.924 27.2204C466.34 29.3964 466.548 31.8444 466.548 34.5644C466.548 38.4684 466.1 41.7324 465.204 44.3564C464.308 46.9484 462.964 48.9164 461.172 50.2604C459.38 51.6044 457.14 52.2764 454.452 52.2764H439.812ZM445.716 46.9484H453.876C455.508 46.9484 456.804 46.4684 457.764 45.5084C458.756 44.5484 459.476 43.1404 459.924 41.2844C460.404 39.4284 460.644 37.1884 460.644 34.5644C460.644 32.1324 460.5 30.1164 460.212 28.5164C459.924 26.9164 459.508 25.6524 458.964 24.7244C458.42 23.7964 457.716 23.1404 456.852 22.7564C456.02 22.3724 455.028 22.1804 453.876 22.1804H445.716V46.9484ZM476.821 52.5644C474.901 52.5644 473.333 51.9884 472.117 50.8364C470.901 49.6844 470.293 48.1004 470.293 46.0844V43.9244C470.293 41.9404 470.965 40.3244 472.309 39.0764C473.685 37.8284 475.781 37.2044 478.597 37.2044H485.941V34.9484C485.941 34.0524 485.781 33.3004 485.461 32.6924C485.141 32.0844 484.565 31.6364 483.733 31.3484C482.901 31.0284 481.637 30.8684 479.941 30.8684H472.165V27.4124C473.349 27.0924 474.741 26.8204 476.341 26.5964C477.941 26.3404 479.845 26.2124 482.053 26.2124C484.165 26.1804 485.957 26.4364 487.429 26.9804C488.901 27.4924 490.005 28.3564 490.741 29.5724C491.509 30.7884 491.893 32.4524 491.893 34.5644V52.2764H487.237L486.229 49.4924C486.005 49.6844 485.605 49.9404 485.029 50.2604C484.453 50.5804 483.733 50.9324 482.869 51.3164C482.005 51.6684 481.045 51.9724 479.989 52.2284C478.965 52.4524 477.909 52.5644 476.821 52.5644ZM479.701 48.3884C480.117 48.3884 480.581 48.3404 481.093 48.2444C481.637 48.1164 482.181 47.9884 482.725 47.8604C483.269 47.7004 483.765 47.5564 484.213 47.4284C484.693 47.2684 485.077 47.1244 485.365 46.9964C485.685 46.8684 485.877 46.7884 485.941 46.7564V40.0364L480.373 40.3244C478.901 40.4524 477.829 40.8364 477.157 41.4764C476.517 42.1164 476.197 42.9644 476.197 44.0204V45.0764C476.197 45.8764 476.357 46.5324 476.677 47.0444C477.029 47.5244 477.461 47.8604 477.973 48.0524C478.517 48.2444 479.093 48.3564 479.701 48.3884ZM507.15 52.2764C505.294 52.2764 503.774 52.0044 502.59 51.4604C501.406 50.8844 500.542 49.9404 499.998 48.6284C499.486 47.3164 499.246 45.5884 499.278 43.4444L499.47 31.3484H495.438V27.5084L499.662 26.5484L500.526 19.3484H505.182V26.5484H511.71V31.3484H505.182V43.3964C505.182 44.2284 505.262 44.9164 505.422 45.4604C505.582 45.9724 505.806 46.3884 506.094 46.7084C506.414 46.9964 506.75 47.2044 507.102 47.3324C507.454 47.4604 507.822 47.5404 508.206 47.5724L511.422 47.9084V52.2764H507.15ZM521.399 52.5644C519.479 52.5644 517.911 51.9884 516.695 50.8364C515.479 49.6844 514.871 48.1004 514.871 46.0844V43.9244C514.871 41.9404 515.543 40.3244 516.887 39.0764C518.263 37.8284 520.359 37.2044 523.175 37.2044H530.519V34.9484C530.519 34.0524 530.359 33.3004 530.039 32.6924C529.719 32.0844 529.143 31.6364 528.311 31.3484C527.479 31.0284 526.215 30.8684 524.519 30.8684H516.743V27.4124C517.927 27.0924 519.319 26.8204 520.919 26.5964C522.519 26.3404 524.423 26.2124 526.631 26.2124C528.743 26.1804 530.535 26.4364 532.007 26.9804C533.479 27.4924 534.583 28.3564 535.319 29.5724C536.087 30.7884 536.471 32.4524 536.471 34.5644V52.2764H531.815L530.807 49.4924C530.583 49.6844 530.183 49.9404 529.607 50.2604C529.031 50.5804 528.311 50.9324 527.447 51.3164C526.583 51.6684 525.623 51.9724 524.567 52.2284C523.543 52.4524 522.487 52.5644 521.399 52.5644ZM524.279 48.3884C524.695 48.3884 525.159 48.3404 525.671 48.2444C526.215 48.1164 526.759 47.9884 527.303 47.8604C527.847 47.7004 528.343 47.5564 528.791 47.4284C529.271 47.2684 529.655 47.1244 529.943 46.9964C530.263 46.8684 530.455 46.7884 530.519 46.7564V40.0364L524.951 40.3244C523.479 40.4524 522.407 40.8364 521.735 41.4764C521.095 42.1164 520.775 42.9644 520.775 44.0204V45.0764C520.775 45.8764 520.935 46.5324 521.255 47.0444C521.607 47.5244 522.039 47.8604 522.551 48.0524C523.095 48.2444 523.671 48.3564 524.279 48.3884Z" fill="#161616"/>
<path d="M135.812 120.276V84.8524H150.452C151.572 84.8524 152.708 84.9964 153.86 85.2844C155.012 85.5404 156.068 86.0684 157.028 86.8684C158.02 87.6684 158.804 88.8524 159.38 90.4204C159.988 91.9884 160.292 94.0844 160.292 96.7084C160.292 99.3324 159.988 101.444 159.38 103.044C158.772 104.644 157.972 105.876 156.98 106.74C156.02 107.572 154.964 108.148 153.812 108.468C152.692 108.756 151.604 108.9 150.548 108.9C150.004 108.9 149.316 108.884 148.484 108.852C147.684 108.788 146.836 108.724 145.94 108.66C145.076 108.564 144.26 108.484 143.492 108.42C142.756 108.324 142.164 108.244 141.716 108.18V120.276H135.812ZM141.716 103.524H149.684C150.612 103.524 151.428 103.316 152.132 102.9C152.836 102.452 153.38 101.748 153.764 100.788C154.148 99.7964 154.34 98.4524 154.34 96.7564C154.34 95.0924 154.132 93.7804 153.716 92.8204C153.332 91.8604 152.804 91.1884 152.132 90.8044C151.492 90.3884 150.74 90.1804 149.876 90.1804H141.716V103.524ZM175.339 120.516C173.323 120.516 171.579 120.308 170.107 119.892C168.635 119.476 167.435 118.772 166.507 117.78C165.579 116.788 164.891 115.444 164.443 113.748C163.995 112.052 163.771 109.924 163.771 107.364C163.771 104.708 163.995 102.532 164.443 100.836C164.891 99.1084 165.579 97.7644 166.507 96.8044C167.467 95.8124 168.683 95.1404 170.155 94.7884C171.627 94.4044 173.355 94.2124 175.339 94.2124C177.387 94.2124 179.147 94.4204 180.619 94.8364C182.091 95.2204 183.291 95.8924 184.219 96.8524C185.147 97.8124 185.835 99.1564 186.283 100.884C186.731 102.58 186.955 104.74 186.955 107.364C186.955 109.956 186.731 112.116 186.283 113.844C185.867 115.54 185.195 116.884 184.267 117.876C183.339 118.836 182.139 119.524 180.667 119.94C179.195 120.324 177.419 120.516 175.339 120.516ZM175.339 115.764C176.331 115.764 177.179 115.684 177.883 115.524C178.587 115.332 179.163 114.964 179.611 114.42C180.091 113.844 180.443 112.996 180.667 111.876C180.891 110.724 181.003 109.204 181.003 107.316C181.003 105.46 180.891 103.972 180.667 102.852C180.443 101.732 180.091 100.9 179.611 100.356C179.163 99.7804 178.587 99.4124 177.883 99.2524C177.179 99.0604 176.331 98.9644 175.339 98.9644C174.378 98.9644 173.547 99.0604 172.843 99.2524C172.139 99.4124 171.563 99.7804 171.115 100.356C170.667 100.9 170.315 101.732 170.059 102.852C169.835 103.972 169.723 105.46 169.723 107.316C169.723 109.204 169.835 110.724 170.059 111.876C170.315 112.996 170.667 113.844 171.115 114.42C171.563 114.964 172.139 115.332 172.843 115.524C173.547 115.684 174.378 115.764 175.339 115.764ZM196.153 120.276L189.001 94.5484H195.097L199.945 114.756L205.513 94.5484H210.505L216.073 114.756L220.633 94.5484H226.729L219.673 120.276H213.097L207.913 102.852L202.585 120.276H196.153ZM240.067 120.516C237.283 120.516 235.059 120.132 233.395 119.364C231.763 118.596 230.579 117.268 229.843 115.38C229.107 113.46 228.739 110.804 228.739 107.412C228.739 103.956 229.091 101.284 229.795 99.3964C230.499 97.4764 231.667 96.1324 233.299 95.3644C234.931 94.5964 237.139 94.2124 239.923 94.2124C242.387 94.2124 244.355 94.4684 245.827 94.9804C247.331 95.4604 248.419 96.3404 249.091 97.6204C249.795 98.8684 250.147 100.644 250.147 102.948C250.147 104.58 249.827 105.892 249.187 106.884C248.547 107.844 247.619 108.532 246.403 108.948C245.219 109.364 243.811 109.572 242.179 109.572H234.643C234.707 111.172 234.915 112.452 235.267 113.412C235.651 114.34 236.323 115.012 237.283 115.428C238.275 115.844 239.715 116.052 241.603 116.052H249.379V119.556C248.067 119.812 246.675 120.036 245.203 120.228C243.763 120.42 242.051 120.516 240.067 120.516ZM234.595 105.972H241.603C242.723 105.972 243.539 105.764 244.051 105.348C244.595 104.9 244.867 104.1 244.867 102.948C244.867 101.828 244.707 100.948 244.387 100.308C244.067 99.6684 243.539 99.2204 242.803 98.9644C242.067 98.6764 241.107 98.5324 239.923 98.5324C238.579 98.5324 237.523 98.7404 236.755 99.1564C235.987 99.5724 235.427 100.324 235.075 101.412C234.755 102.468 234.595 103.988 234.595 105.972ZM255.43 120.276V94.5484H260.038L261.382 98.6764C262.406 97.4284 263.542 96.3724 264.79 95.5084C266.038 94.6444 267.526 94.2124 269.254 94.2124C269.606 94.2124 269.974 94.2444 270.358 94.3084C270.742 94.3404 271.094 94.4044 271.414 94.5004V100.548C270.966 100.484 270.486 100.436 269.974 100.404C269.462 100.372 268.966 100.356 268.486 100.356C267.494 100.356 266.582 100.468 265.75 100.692C264.95 100.916 264.198 101.268 263.494 101.748C262.79 102.196 262.086 102.772 261.382 103.476V120.276H255.43ZM275.54 120.276V83.7004H281.492V97.2364C282.516 96.4684 283.796 95.7644 285.332 95.1244C286.9 94.4524 288.5 94.1164 290.132 94.1164C292.02 94.1164 293.54 94.5004 294.692 95.2684C295.876 96.0364 296.724 97.1084 297.236 98.4844C297.78 99.8284 298.052 101.364 298.052 103.092V120.276H292.1V103.812C292.1 102.916 291.924 102.148 291.572 101.508C291.22 100.836 290.724 100.34 290.084 100.02C289.444 99.6684 288.692 99.4924 287.828 99.4924C286.996 99.4924 286.228 99.5884 285.524 99.7804C284.82 99.9404 284.132 100.18 283.46 100.5C282.82 100.82 282.164 101.188 281.492 101.604V120.276H275.54ZM314.745 120.516C312.729 120.516 310.985 120.308 309.513 119.892C308.041 119.476 306.841 118.772 305.913 117.78C304.985 116.788 304.297 115.444 303.849 113.748C303.401 112.052 303.177 109.924 303.177 107.364C303.177 104.708 303.401 102.532 303.849 100.836C304.297 99.1084 304.985 97.7644 305.913 96.8044C306.873 95.8124 308.089 95.1404 309.561 94.7884C311.033 94.4044 312.761 94.2124 314.745 94.2124C316.793 94.2124 318.553 94.4204 320.025 94.8364C321.497 95.2204 322.697 95.8924 323.625 96.8524C324.553 97.8124 325.241 99.1564 325.689 100.884C326.137 102.58 326.361 104.74 326.361 107.364C326.361 109.956 326.137 112.116 325.689 113.844C325.273 115.54 324.601 116.884 323.673 117.876C322.745 118.836 321.545 119.524 320.073 119.94C318.601 120.324 316.825 120.516 314.745 120.516ZM314.745 115.764C315.737 115.764 316.585 115.684 317.289 115.524C317.993 115.332 318.569 114.964 319.017 114.42C319.497 113.844 319.849 112.996 320.073 111.876C320.297 110.724 320.409 109.204 320.409 107.316C320.409 105.46 320.297 103.972 320.073 102.852C319.849 101.732 319.497 100.9 319.017 100.356C318.569 99.7804 317.993 99.4124 317.289 99.2524C316.585 99.0604 315.737 98.9644 314.745 98.9644C313.785 98.9644 312.953 99.0604 312.249 99.2524C311.545 99.4124 310.969 99.7804 310.521 100.356C310.073 100.9 309.721 101.732 309.465 102.852C309.241 103.972 309.129 105.46 309.129 107.316C309.129 109.204 309.241 110.724 309.465 111.876C309.721 112.996 310.073 113.844 310.521 114.42C310.969 114.964 311.545 115.332 312.249 115.524C312.953 115.684 313.785 115.764 314.745 115.764ZM339.089 120.564C336.721 120.564 334.881 119.908 333.569 118.596C332.257 117.252 331.601 115.3 331.601 112.74V94.5484H337.553V111.012C337.553 112.708 337.937 113.844 338.705 114.42C339.505 114.996 340.577 115.284 341.921 115.284C343.041 115.284 344.129 115.108 345.185 114.756C346.241 114.404 347.233 113.892 348.161 113.22V94.5484H354.113V120.276H349.265L348.161 117.588C346.945 118.356 345.553 119.044 343.985 119.652C342.449 120.26 340.817 120.564 339.089 120.564ZM369.318 120.564C368.582 120.564 367.734 120.532 366.774 120.468C365.846 120.436 364.902 120.372 363.942 120.276C363.014 120.212 362.15 120.116 361.35 119.988C360.55 119.86 359.894 119.716 359.382 119.556V116.052H370.47C371.27 116.052 371.942 115.988 372.486 115.86C373.062 115.732 373.494 115.476 373.782 115.092C374.07 114.708 374.214 114.132 374.214 113.364V112.452C374.214 111.652 373.942 111.028 373.398 110.58C372.886 110.1 371.974 109.86 370.662 109.86H366.774C365.27 109.86 363.926 109.652 362.742 109.236C361.59 108.82 360.678 108.116 360.006 107.124C359.334 106.132 358.998 104.788 358.998 103.092V101.652C358.998 100.02 359.302 98.6764 359.91 97.6204C360.55 96.5324 361.59 95.7164 363.03 95.1724C364.502 94.5964 366.454 94.3084 368.886 94.3084C369.91 94.3084 371.014 94.3564 372.198 94.4524C373.382 94.5484 374.518 94.6764 375.606 94.8364C376.694 94.9644 377.558 95.1244 378.198 95.3164V98.8204H367.734C366.55 98.8204 365.638 99.0284 364.998 99.4444C364.39 99.8284 364.086 100.564 364.086 101.652V102.564C364.086 103.268 364.23 103.796 364.518 104.148C364.806 104.5 365.238 104.74 365.814 104.868C366.39 104.996 367.078 105.06 367.878 105.06H371.862C374.39 105.06 376.262 105.636 377.478 106.788C378.694 107.94 379.302 109.572 379.302 111.684V113.796C379.302 115.524 378.902 116.884 378.102 117.876C377.302 118.868 376.15 119.572 374.646 119.988C373.174 120.372 371.398 120.564 369.318 120.564ZM394.755 120.516C391.971 120.516 389.747 120.132 388.083 119.364C386.451 118.596 385.267 117.268 384.531 115.38C383.795 113.46 383.427 110.804 383.427 107.412C383.427 103.956 383.779 101.284 384.483 99.3964C385.187 97.4764 386.355 96.1324 387.987 95.3644C389.619 94.5964 391.827 94.2124 394.611 94.2124C397.075 94.2124 399.043 94.4684 400.515 94.9804C402.019 95.4604 403.107 96.3404 403.779 97.6204C404.483 98.8684 404.835 100.644 404.835 102.948C404.835 104.58 404.515 105.892 403.875 106.884C403.235 107.844 402.307 108.532 401.091 108.948C399.907 109.364 398.499 109.572 396.867 109.572H389.331C389.395 111.172 389.603 112.452 389.955 113.412C390.339 114.34 391.011 115.012 391.971 115.428C392.963 115.844 394.403 116.052 396.291 116.052H404.067V119.556C402.755 119.812 401.363 120.036 399.891 120.228C398.451 120.42 396.739 120.516 394.755 120.516ZM389.283 105.972H396.291C397.411 105.972 398.227 105.764 398.739 105.348C399.283 104.9 399.555 104.1 399.555 102.948C399.555 101.828 399.395 100.948 399.075 100.308C398.755 99.6684 398.227 99.2204 397.491 98.9644C396.755 98.6764 395.795 98.5324 394.611 98.5324C393.267 98.5324 392.211 98.7404 391.443 99.1564C390.675 99.5724 390.115 100.324 389.763 101.412C389.443 102.468 389.283 103.988 389.283 105.972Z" fill="#161616"/>
</svg>
