<svg width="188" height="57" viewBox="0 0 188 57" fill="none" xmlns="http://www.w3.org/2000/svg">
<rect x="0.5" y="0.276367" width="187" height="56" rx="24" fill="#ECEEFA"/>
<rect x="16.5" y="8.27637" width="40" height="40" rx="20" fill="white"/>
<path d="M46.5626 29.5645C45.9266 28.7797 44.9564 28.2314 43.6197 27.9197C44.4929 27.6187 45.1612 27.1994 45.614 26.6834C46.3039 25.8986 46.6381 24.9633 46.6381 23.8775C46.6381 22.566 46.1638 21.4802 45.2043 20.5987C44.2557 19.7171 42.8759 19.2764 41.0972 19.2764H32.3438C31.2658 19.2764 30.3818 20.1471 30.3818 21.2329V35.5847C30.3818 36.778 31.352 37.7455 32.5486 37.7455H40.2563C40.6767 37.7455 41.5391 37.6595 42.822 37.4875C43.7922 37.3693 44.5144 37.165 44.9995 36.8855C45.7757 36.4447 46.3794 35.832 46.8321 35.0687C47.2741 34.3054 47.5005 33.4454 47.5005 32.4886C47.5005 31.3168 47.1879 30.3385 46.5626 29.5645ZM37.6583 35.8212C34.4998 35.8212 31.9449 34.4129 31.9449 32.6498C31.9449 32.4026 31.9881 32.1553 32.0851 31.9188C32.678 33.3379 34.9418 34.3914 37.6583 34.3914C40.3749 34.3914 42.6387 33.3379 43.2208 31.9188C43.3178 32.1553 43.3717 32.4026 43.3717 32.6498C43.3717 34.4129 40.8169 35.8212 37.6583 35.8212ZM37.6583 31.6178C34.4998 31.6178 31.9449 30.1988 31.9449 28.4464C31.9449 28.1992 31.9881 27.9519 32.0851 27.7154C32.678 29.1345 34.9418 30.188 37.6583 30.188C40.3749 30.188 42.6387 29.1345 43.2208 27.7154C43.3178 27.9519 43.3717 28.1992 43.3717 28.4464C43.3717 30.1988 40.8169 31.6178 37.6583 31.6178ZM37.6583 27.7154C34.4998 27.7154 31.9342 26.2964 31.9342 24.5441C31.9342 22.7917 34.4998 21.3619 37.6583 21.3619C40.8169 21.3619 43.3717 22.7917 43.3717 24.5441C43.3717 26.2964 40.8169 27.7154 37.6583 27.7154Z" fill="#4451CA"/>
<path d="M31.0066 28.2851V21.5231C31.0066 20.9318 30.5215 20.4696 29.9286 20.4696H26.3389C26.2095 19.6955 25.4765 19.1688 24.7003 19.2978C24.0104 19.4053 23.5037 19.9965 23.5037 20.6953C23.5037 21.4801 24.1397 22.1144 24.9267 22.1251C25.6274 22.1251 26.2203 21.6306 26.3389 20.9426H29.9286C30.2628 20.9426 30.5323 21.2006 30.5431 21.5338V24.3827H28.6673C28.5272 23.6087 27.7942 23.0926 27.018 23.2324C26.3389 23.3507 25.8322 23.9419 25.843 24.6407C25.843 25.4255 26.4898 26.0598 27.2767 26.049C27.9774 26.049 28.5703 25.5437 28.6781 24.8557H30.5538V28.2958H26.3389C26.2095 27.5218 25.4765 26.995 24.7003 27.124C24.0104 27.2315 23.5037 27.8228 23.5037 28.5108C23.5037 28.5753 23.5037 28.6291 23.5145 28.6936C23.6115 29.4676 24.323 30.0266 25.0992 29.9299C25.7244 29.8546 26.2203 29.3709 26.3281 28.7581H30.5323V32.1982H28.7105C28.6566 31.8435 28.4733 31.5209 28.1822 31.2952C27.5678 30.8114 26.673 30.9189 26.1879 31.5317C25.9508 31.8327 25.843 32.209 25.8969 32.5852C25.9939 33.37 26.7054 33.9183 27.4815 33.8323C28.1068 33.757 28.6027 33.284 28.7105 32.6605H30.5323V35.5093C30.5323 35.8426 30.252 36.1006 29.9178 36.1006H26.3281C26.2634 35.7566 26.0801 35.4448 25.7999 35.2191C25.498 34.9826 25.1207 34.8858 24.7542 34.9288C23.9888 35.0578 23.4498 35.7458 23.5037 36.5199C23.6007 37.2939 24.3338 37.8529 25.0884 37.7562C25.7244 37.6702 26.2203 37.1864 26.3281 36.5629H29.9178C30.5107 36.5629 30.9958 36.1006 30.9958 35.5093V28.7581" fill="#4451CA"/>
<path d="M74.972 37.2764V20.4764H76.844V37.2764H74.972ZM75.908 29.7884V27.9404H84.404V29.7884H75.908ZM75.908 22.3004V20.4764H85.532V22.3004H75.908ZM93.647 37.5164C92.399 37.5164 91.287 37.2444 90.311 36.7004C89.351 36.1564 88.599 35.3964 88.055 34.4204C87.511 33.4444 87.239 32.3244 87.239 31.0604C87.239 30.0844 87.391 29.2044 87.695 28.4204C87.999 27.6204 88.423 26.9244 88.967 26.3324C89.527 25.7404 90.191 25.2844 90.959 24.9644C91.727 24.6284 92.559 24.4604 93.455 24.4604C94.303 24.4604 95.071 24.6124 95.759 24.9164C96.463 25.2204 97.063 25.6444 97.559 26.1884C98.071 26.7164 98.455 27.3484 98.711 28.0844C98.967 28.8204 99.079 29.6284 99.047 30.5084L99.023 31.3484H88.583L88.319 29.8364H97.655L97.223 30.2444V29.6684C97.191 29.0924 97.023 28.5404 96.719 28.0124C96.415 27.4684 95.983 27.0284 95.423 26.6924C94.879 26.3564 94.223 26.1884 93.455 26.1884C92.559 26.1884 91.783 26.3724 91.127 26.7404C90.471 27.0924 89.967 27.6204 89.615 28.3244C89.263 29.0284 89.087 29.9004 89.087 30.9404C89.087 31.9324 89.279 32.7964 89.663 33.5324C90.047 34.2524 90.591 34.8124 91.295 35.2124C92.015 35.6124 92.879 35.8124 93.887 35.8124C94.479 35.8124 95.063 35.7164 95.639 35.5244C96.231 35.3164 96.879 34.9164 97.583 34.3244L98.519 35.6204C98.151 35.9884 97.711 36.3164 97.199 36.6044C96.687 36.8764 96.127 37.1004 95.519 37.2764C94.911 37.4364 94.287 37.5164 93.647 37.5164ZM106.5 37.5164C105.412 37.5164 104.428 37.2364 103.548 36.6764C102.668 36.1004 101.972 35.3244 101.46 34.3484C100.948 33.3564 100.692 32.2364 100.692 30.9884C100.692 29.7244 100.956 28.6044 101.484 27.6284C102.012 26.6524 102.716 25.8844 103.596 25.3244C104.492 24.7644 105.492 24.4844 106.596 24.4844C107.252 24.4844 107.86 24.5804 108.42 24.7724C108.98 24.9644 109.476 25.2364 109.908 25.5884C110.356 25.9244 110.724 26.3244 111.012 26.7884C111.316 27.2364 111.524 27.7244 111.636 28.2524L111.108 27.9884L111.18 24.7484H112.98V37.2764H111.156V34.2044L111.636 33.8924C111.524 34.3724 111.308 34.8364 110.988 35.2844C110.668 35.7164 110.276 36.1004 109.812 36.4364C109.364 36.7724 108.852 37.0364 108.276 37.2284C107.716 37.4204 107.124 37.5164 106.5 37.5164ZM106.908 35.7884C107.74 35.7884 108.484 35.5884 109.14 35.1884C109.796 34.7724 110.308 34.2044 110.676 33.4844C111.06 32.7484 111.252 31.9164 111.252 30.9884C111.252 30.0604 111.06 29.2364 110.676 28.5164C110.308 27.7964 109.796 27.2284 109.14 26.8124C108.484 26.3964 107.74 26.1884 106.908 26.1884C106.06 26.1884 105.308 26.3964 104.652 26.8124C104.012 27.2284 103.5 27.7964 103.116 28.5164C102.748 29.2364 102.564 30.0604 102.564 30.9884C102.564 31.9004 102.748 32.7244 103.116 33.4604C103.484 34.1804 103.996 34.7484 104.652 35.1644C105.308 35.5804 106.06 35.7884 106.908 35.7884ZM118.214 37.2764V21.4604H120.014V37.2764H118.214ZM115.382 26.4764V24.7484H123.182V26.4764H115.382ZM129.833 37.5164C128.873 37.5164 128.057 37.3244 127.385 36.9404C126.729 36.5404 126.225 35.9644 125.873 35.2124C125.537 34.4604 125.369 33.5244 125.369 32.4044V24.7484H127.193V32.0444C127.193 32.8924 127.305 33.6044 127.529 34.1804C127.769 34.7404 128.121 35.1644 128.585 35.4524C129.065 35.7404 129.649 35.8844 130.337 35.8844C130.865 35.8844 131.353 35.7964 131.801 35.6204C132.249 35.4284 132.641 35.1724 132.977 34.8524C133.313 34.5324 133.577 34.1564 133.769 33.7244C133.961 33.2924 134.057 32.8364 134.057 32.3564V24.7484H135.857V37.2764H134.081L134.009 34.6364L134.297 34.4924C134.105 35.0524 133.785 35.5644 133.337 36.0284C132.889 36.4764 132.353 36.8364 131.729 37.1084C131.121 37.3804 130.489 37.5164 129.833 37.5164ZM139.361 37.2764V24.7484H141.161L141.209 28.0844L141.017 27.6284C141.193 27.0684 141.473 26.5484 141.857 26.0684C142.257 25.5884 142.729 25.2044 143.273 24.9164C143.817 24.6284 144.417 24.4844 145.073 24.4844C145.345 24.4844 145.601 24.5084 145.841 24.5564C146.081 24.5884 146.281 24.6364 146.441 24.7004L145.937 26.7164C145.729 26.6204 145.513 26.5564 145.289 26.5244C145.081 26.4764 144.881 26.4524 144.689 26.4524C144.145 26.4524 143.657 26.5484 143.225 26.7404C142.793 26.9324 142.425 27.2044 142.121 27.5564C141.817 27.8924 141.585 28.2844 141.425 28.7324C141.265 29.1804 141.185 29.6604 141.185 30.1724V37.2764H139.361ZM153.295 37.5164C152.047 37.5164 150.935 37.2444 149.959 36.7004C148.999 36.1564 148.247 35.3964 147.703 34.4204C147.159 33.4444 146.887 32.3244 146.887 31.0604C146.887 30.0844 147.039 29.2044 147.343 28.4204C147.647 27.6204 148.071 26.9244 148.615 26.3324C149.175 25.7404 149.839 25.2844 150.607 24.9644C151.375 24.6284 152.207 24.4604 153.103 24.4604C153.951 24.4604 154.719 24.6124 155.407 24.9164C156.111 25.2204 156.711 25.6444 157.207 26.1884C157.719 26.7164 158.103 27.3484 158.359 28.0844C158.615 28.8204 158.727 29.6284 158.695 30.5084L158.671 31.3484H148.231L147.967 29.8364H157.303L156.871 30.2444V29.6684C156.839 29.0924 156.671 28.5404 156.367 28.0124C156.063 27.4684 155.631 27.0284 155.071 26.6924C154.527 26.3564 153.871 26.1884 153.103 26.1884C152.207 26.1884 151.431 26.3724 150.775 26.7404C150.119 27.0924 149.615 27.6204 149.263 28.3244C148.911 29.0284 148.735 29.9004 148.735 30.9404C148.735 31.9324 148.927 32.7964 149.311 33.5324C149.695 34.2524 150.239 34.8124 150.943 35.2124C151.663 35.6124 152.527 35.8124 153.535 35.8124C154.127 35.8124 154.711 35.7164 155.287 35.5244C155.879 35.3164 156.527 34.9164 157.231 34.3244L158.167 35.6204C157.799 35.9884 157.359 36.3164 156.847 36.6044C156.335 36.8764 155.775 37.1004 155.167 37.2764C154.559 37.4364 153.935 37.5164 153.295 37.5164ZM165.356 37.5164C164.284 37.5164 163.324 37.3164 162.476 36.9164C161.628 36.5164 160.956 35.9884 160.46 35.3324L161.732 34.2284C162.196 34.7884 162.74 35.2124 163.364 35.5004C164.004 35.7884 164.716 35.9324 165.5 35.9324C165.9 35.9324 166.26 35.8924 166.58 35.8124C166.9 35.7164 167.18 35.5804 167.42 35.4044C167.66 35.2284 167.844 35.0204 167.972 34.7804C168.1 34.5404 168.164 34.2764 168.164 33.9884C168.164 33.4604 167.932 33.0204 167.468 32.6684C167.26 32.5244 166.964 32.3804 166.58 32.2364C166.196 32.0764 165.732 31.9244 165.188 31.7804C164.292 31.5244 163.548 31.2684 162.956 31.0124C162.364 30.7404 161.9 30.4284 161.564 30.0764C161.324 29.7884 161.14 29.4764 161.012 29.1404C160.9 28.8044 160.844 28.4364 160.844 28.0364C160.844 27.5244 160.948 27.0524 161.156 26.6204C161.38 26.1884 161.684 25.8124 162.068 25.4924C162.468 25.1564 162.932 24.9084 163.46 24.7484C164.004 24.5724 164.588 24.4844 165.212 24.4844C165.804 24.4844 166.388 24.5644 166.964 24.7244C167.54 24.8844 168.076 25.1164 168.572 25.4204C169.068 25.7244 169.492 26.0844 169.844 26.5004L168.74 27.7004C168.436 27.3804 168.1 27.0924 167.732 26.8364C167.364 26.5804 166.972 26.3804 166.556 26.2364C166.156 26.0924 165.74 26.0204 165.308 26.0204C164.924 26.0204 164.564 26.0684 164.228 26.1644C163.908 26.2604 163.628 26.3964 163.388 26.5724C163.164 26.7324 162.988 26.9324 162.86 27.1724C162.748 27.4124 162.692 27.6764 162.692 27.9644C162.692 28.2044 162.74 28.4204 162.836 28.6124C162.932 28.8044 163.068 28.9724 163.244 29.1164C163.468 29.2924 163.78 29.4604 164.18 29.6204C164.596 29.7644 165.108 29.9164 165.716 30.0764C166.42 30.2684 167.012 30.4684 167.492 30.6764C167.988 30.8684 168.396 31.1004 168.716 31.3724C169.148 31.6924 169.452 32.0604 169.628 32.4764C169.82 32.8924 169.916 33.3644 169.916 33.8924C169.916 34.5964 169.716 35.2204 169.316 35.7644C168.932 36.3084 168.396 36.7404 167.708 37.0604C167.02 37.3644 166.236 37.5164 165.356 37.5164Z" fill="#4451CA"/>
</svg>
