<svg width="41" height="41" viewBox="0 0 41 41" fill="none" xmlns="http://www.w3.org/2000/svg">
<rect x="0.5" y="0.276367" width="40" height="40" rx="20" fill="white"/>
<path d="M30.5626 21.5645C29.9266 20.7797 28.9564 20.2314 27.6197 19.9197C28.4929 19.6187 29.1612 19.1994 29.614 18.6834C30.3039 17.8986 30.6381 16.9633 30.6381 15.8775C30.6381 14.566 30.1638 13.4802 29.2043 12.5987C28.2557 11.7171 26.8759 11.2764 25.0972 11.2764H16.3438C15.2658 11.2764 14.3818 12.1471 14.3818 13.2329V27.5847C14.3818 28.778 15.352 29.7455 16.5486 29.7455H24.2563C24.6767 29.7455 25.5391 29.6595 26.822 29.4875C27.7922 29.3693 28.5144 29.165 28.9995 28.8855C29.7757 28.4447 30.3794 27.832 30.8321 27.0687C31.2741 26.3054 31.5005 25.4454 31.5005 24.4886C31.5005 23.3168 31.1879 22.3385 30.5626 21.5645ZM21.6583 27.8212C18.4998 27.8212 15.9449 26.4129 15.9449 24.6498C15.9449 24.4026 15.9881 24.1553 16.0851 23.9188C16.678 25.3379 18.9418 26.3914 21.6583 26.3914C24.3749 26.3914 26.6387 25.3379 27.2208 23.9188C27.3178 24.1553 27.3717 24.4026 27.3717 24.6498C27.3717 26.4129 24.8169 27.8212 21.6583 27.8212ZM21.6583 23.6178C18.4998 23.6178 15.9449 22.1988 15.9449 20.4464C15.9449 20.1992 15.9881 19.9519 16.0851 19.7154C16.678 21.1345 18.9418 22.188 21.6583 22.188C24.3749 22.188 26.6387 21.1345 27.2208 19.7154C27.3178 19.9519 27.3717 20.1992 27.3717 20.4464C27.3717 22.1988 24.8169 23.6178 21.6583 23.6178ZM21.6583 19.7154C18.4998 19.7154 15.9342 18.2964 15.9342 16.5441C15.9342 14.7917 18.4998 13.3619 21.6583 13.3619C24.8169 13.3619 27.3717 14.7917 27.3717 16.5441C27.3717 18.2964 24.8169 19.7154 21.6583 19.7154Z" fill="#4451CA"/>
<path d="M15.0066 20.2851V13.5231C15.0066 12.9318 14.5215 12.4696 13.9286 12.4696H10.3389C10.2095 11.6955 9.47645 11.1688 8.70029 11.2978C8.01037 11.4053 7.50371 11.9965 7.50371 12.6953C7.50371 13.4801 8.13973 14.1144 8.92667 14.1251C9.62737 14.1251 10.2203 13.6306 10.3389 12.9426H13.9286C14.2628 12.9426 14.5323 13.2006 14.5431 13.5338V16.3827H12.6673C12.5272 15.6087 11.7942 15.0926 11.018 15.2324C10.3389 15.3507 9.83219 15.9419 9.84297 16.6407C9.84297 17.4255 10.4898 18.0598 11.2767 18.049C11.9774 18.049 12.5703 17.5437 12.6781 16.8557H14.5538V20.2958H10.3389C10.2095 19.5218 9.47645 18.995 8.70029 19.124C8.01037 19.2315 7.50371 19.8228 7.50371 20.5108C7.50371 20.5753 7.50371 20.6291 7.51449 20.6936C7.61151 21.4676 8.32299 22.0266 9.09915 21.9299C9.72439 21.8546 10.2203 21.3709 10.3281 20.7581H14.5323V24.1982H12.7105C12.6566 23.8435 12.4733 23.5209 12.1822 23.2952C11.5678 22.8114 10.673 22.9189 10.1879 23.5317C9.95077 23.8327 9.84297 24.209 9.89687 24.5852C9.99389 25.37 10.7054 25.9183 11.4815 25.8323C12.1068 25.757 12.6027 25.284 12.7105 24.6605H14.5323V27.5093C14.5323 27.8426 14.252 28.1006 13.9178 28.1006H10.3281C10.2634 27.7566 10.0801 27.4448 9.79985 27.2191C9.49801 26.9826 9.12071 26.8858 8.75419 26.9288C7.98881 27.0578 7.44981 27.7458 7.50371 28.5199C7.60073 29.2939 8.33377 29.8529 9.08837 29.7562C9.72439 29.6702 10.2203 29.1864 10.3281 28.5629H13.9178C14.5107 28.5629 14.9958 28.1006 14.9958 27.5093V20.7581" fill="#4451CA"/>
</svg>
