<svg width="40" height="40" viewBox="0 0 40 40" fill="none" xmlns="http://www.w3.org/2000/svg">
<rect width="40" height="40" rx="20" fill="white"/>
<path d="M30.0621 21.2881C29.4261 20.5033 28.4559 19.9551 27.1192 19.6433C27.9924 19.3423 28.6607 18.923 29.1135 18.407C29.8034 17.6222 30.1376 16.687 30.1376 15.6012C30.1376 14.2896 29.6633 13.2038 28.7039 12.3223C27.7552 11.4408 26.3754 11 24.5967 11H15.8433C14.7653 11 13.8813 11.8708 13.8813 12.9566V27.3083C13.8813 28.5016 14.8515 29.4692 16.0481 29.4692H23.7558C24.1763 29.4692 25.0387 29.3832 26.3215 29.2111C27.2917 29.0929 28.0139 28.8886 28.499 28.6091C29.2752 28.1684 29.8789 27.5556 30.3316 26.7923C30.7736 26.029 31 25.169 31 24.2122C31 23.0404 30.6874 22.0621 30.0621 21.2881ZM21.1579 27.5448C17.9993 27.5448 15.4444 26.1365 15.4444 24.3735C15.4444 24.1262 15.4876 23.879 15.5846 23.6424C16.1775 25.0615 18.4413 26.115 21.1579 26.115C23.8744 26.115 26.1382 25.0615 26.7203 23.6424C26.8174 23.879 26.8713 24.1262 26.8713 24.3735C26.8713 26.1365 24.3164 27.5448 21.1579 27.5448ZM21.1579 23.3414C17.9993 23.3414 15.4444 21.9224 15.4444 20.1701C15.4444 19.9228 15.4876 19.6756 15.5846 19.439C16.1775 20.8581 18.4413 21.9116 21.1579 21.9116C23.8744 21.9116 26.1382 20.8581 26.7203 19.439C26.8174 19.6756 26.8713 19.9228 26.8713 20.1701C26.8713 21.9224 24.3164 23.3414 21.1579 23.3414ZM21.1579 19.439C17.9993 19.439 15.4337 18.02 15.4337 16.2677C15.4337 14.5154 17.9993 13.0856 21.1579 13.0856C24.3164 13.0856 26.8713 14.5154 26.8713 16.2677C26.8713 18.02 24.3164 19.439 21.1579 19.439Z" fill="#4451CA"/>
<path d="M14.5066 20.0088V13.2468C14.5066 12.6556 14.0215 12.1933 13.4286 12.1933H9.83885C9.70949 11.4193 8.97645 10.8925 8.20029 11.0215C7.51037 11.129 7.00371 11.7203 7.00371 12.4191C7.00371 13.2038 7.63973 13.8381 8.42667 13.8489C9.12737 13.8489 9.72027 13.3543 9.83885 12.6663H13.4286C13.7628 12.6663 14.0323 12.9243 14.0431 13.2576V16.1064H12.1673C12.0272 15.3324 11.2942 14.8164 10.518 14.9562C9.83885 15.0744 9.33219 15.6657 9.34297 16.3645C9.34297 17.1492 9.98977 17.7835 10.7767 17.7728C11.4774 17.7728 12.0703 17.2675 12.1781 16.5795H14.0538V20.0196H9.83885C9.70949 19.2456 8.97645 18.7188 8.20029 18.8478C7.51037 18.9553 7.00371 19.5466 7.00371 20.2346C7.00371 20.2991 7.00371 20.3528 7.01449 20.4173C7.11151 21.1914 7.82299 21.7504 8.59915 21.6536C9.22439 21.5784 9.72027 21.0946 9.82807 20.4818H14.0323V23.922H12.2105C12.1566 23.5672 11.9733 23.2447 11.6822 23.0189C11.0678 22.5352 10.173 22.6427 9.68793 23.2554C9.45077 23.5565 9.34297 23.9327 9.39687 24.309C9.49389 25.0938 10.2054 25.642 10.9815 25.556C11.6068 25.4808 12.1027 25.0078 12.2105 24.3842H14.0323V27.2331C14.0323 27.5664 13.752 27.8244 13.4178 27.8244H9.82807C9.76339 27.4803 9.58013 27.1686 9.29985 26.9428C8.99801 26.7063 8.62071 26.6096 8.25419 26.6526C7.48881 26.7816 6.94981 27.4696 7.00371 28.2436C7.10073 29.0177 7.83377 29.5767 8.58837 29.4799C9.22439 29.3939 9.72027 28.9101 9.82807 28.2866H13.4178C14.0107 28.2866 14.4958 27.8244 14.4958 27.2331V20.4818" fill="#4451CA"/>
</svg>
