<svg width="216" height="174" viewBox="0 0 216 174" fill="none" xmlns="http://www.w3.org/2000/svg">
<rect width="215.535" height="174" rx="8" fill="#C5C9EF"/>
<rect x="60.0581" y="11.7871" width="95.4194" height="11.2258" rx="3.37768" fill="#6974D5"/>
<rect x="17.9614" y="31.9937" width="22.4516" height="8.98065" rx="2.24517" fill="white"/>
<rect x="49.3938" y="31.9937" width="22.4516" height="8.98065" rx="2.24517" fill="white"/>
<rect x="80.8259" y="31.9937" width="22.4516" height="8.98065" rx="2.24517" fill="white"/>
<rect x="112.258" y="31.9937" width="22.4516" height="8.98065" rx="2.24517" fill="white"/>
<rect x="143.691" y="31.9937" width="22.4516" height="8.98065" rx="2.24517" fill="white"/>
<rect x="175.123" y="31.9937" width="22.4516" height="8.98065" rx="2.24517" fill="white"/>
<rect x="17.9614" y="49.9551" width="22.4516" height="17.9613" rx="2.24517" fill="#E6E6E6"/>
<rect x="49.3938" y="49.9551" width="22.4516" height="17.9613" rx="2.24517" fill="#E6E6E6"/>
<rect x="80.8259" y="49.9551" width="22.4516" height="17.9613" rx="2.24517" fill="#E6E6E6"/>
<rect x="112.258" y="49.9551" width="22.4516" height="17.9613" rx="2.24517" fill="#E6E6E6"/>
<rect x="143.691" y="49.9551" width="22.4516" height="17.9613" rx="2.24517" fill="#E6E6E6"/>
<rect x="175.123" y="49.9551" width="22.4516" height="17.9613" rx="2.24517" fill="#E6E6E6"/>
<rect x="17.9614" y="81.3872" width="22.4516" height="17.9613" rx="2.24517" fill="#E6E6E6"/>
<rect x="49.3938" y="81.3872" width="22.4516" height="17.9613" rx="2.24517" fill="#E6E6E6"/>
<rect x="80.8262" y="81.3872" width="22.4516" height="17.9613" rx="2.24517" fill="#E6E6E6"/>
<rect x="112.258" y="81.3872" width="22.4516" height="17.9613" rx="2.24517" fill="#E6E6E6"/>
<rect x="143.691" y="81.3872" width="22.4516" height="17.9613" rx="2.24517" fill="#E6E6E6"/>
<rect x="175.123" y="81.3872" width="22.4516" height="17.9613" rx="2.24517" fill="#E6E6E6"/>
<rect x="17.9614" y="112.82" width="22.4516" height="17.9613" rx="2.24517" fill="#E6E6E6"/>
<rect x="49.3938" y="112.82" width="22.4516" height="17.9613" rx="2.24517" fill="#E6E6E6"/>
<rect x="80.8259" y="112.82" width="22.4516" height="17.9613" rx="2.24517" fill="#E6E6E6"/>
<rect x="112.258" y="112.82" width="22.4516" height="17.9613" rx="2.24517" fill="#E6E6E6"/>
<rect x="143.691" y="112.82" width="22.4516" height="17.9613" rx="2.24517" fill="#E6E6E6"/>
<rect x="175.123" y="112.82" width="22.4516" height="17.9613" rx="2.24517" fill="#E6E6E6"/>
<rect x="17.9614" y="144.252" width="22.4516" height="17.9613" rx="2.24517" fill="#E6E6E6"/>
<rect x="49.3938" y="144.252" width="22.4516" height="17.9613" rx="2.24517" fill="#E6E6E6"/>
<rect x="80.8259" y="144.252" width="22.4516" height="17.9613" rx="2.24517" fill="#E6E6E6"/>
<rect x="112.258" y="144.252" width="22.4516" height="17.9613" rx="2.24517" fill="#E6E6E6"/>
<rect x="143.691" y="144.252" width="22.4516" height="17.9613" rx="2.24517" fill="#E6E6E6"/>
<rect x="175.123" y="144.252" width="22.4516" height="17.9613" rx="2.24517" fill="#E6E6E6"/>
</svg>
