<svg width="1440" height="136" viewBox="0 0 1440 136" fill="none" xmlns="http://www.w3.org/2000/svg">
<g clip-path="url(#clip0_332_13510)">
<rect width="1440" height="60" transform="translate(-0.708496 75.3613) rotate(-3)" fill="#ECEEFA"/>
<path d="M-50.7104 116.893C-51.0939 116.913 -51.5341 116.92 -52.0311 116.914C-52.5113 116.923 -53.0083 116.917 -53.5221 116.896C-54.0199 116.874 -54.5018 116.851 -54.9677 116.828C-55.4176 116.803 -55.8044 116.759 -56.1281 116.696L-56.2261 114.827C-55.809 114.837 -55.312 114.843 -54.7351 114.845C-54.1423 114.846 -53.5179 114.837 -52.8619 114.819C-52.19 114.799 -51.5425 114.773 -50.9193 114.741C-50.2323 114.705 -49.6285 114.609 -49.1079 114.454C-48.5713 114.297 -48.1605 114.035 -47.8753 113.668C-47.5742 113.3 -47.4403 112.796 -47.4738 112.157L-47.5279 111.126C-47.5655 110.407 -47.7941 109.867 -48.2137 109.504C-48.6173 109.141 -49.2185 108.98 -50.0174 109.022L-51.8149 109.116C-53.3488 109.196 -54.5568 108.923 -55.4388 108.296C-56.3048 107.669 -56.7805 106.54 -56.866 104.911L-56.9162 103.952C-57.005 102.258 -56.6128 101.028 -55.7397 100.261C-54.8515 99.4777 -53.5606 99.0415 -51.8669 98.9527C-51.3077 98.9234 -50.7068 98.924 -50.0644 98.9544C-49.4227 98.9688 -48.7962 99.0001 -48.1849 99.0482C-47.5735 99.0962 -47.066 99.1497 -46.6624 99.2087L-46.5644 101.078C-47.2859 101.068 -48.0953 101.062 -48.9926 101.061C-49.8748 101.043 -50.7073 101.055 -51.4902 101.096C-52.1613 101.131 -52.7403 101.242 -53.2273 101.427C-53.6991 101.596 -54.0607 101.88 -54.3123 102.277C-54.5478 102.674 -54.6472 103.224 -54.6103 103.927L-54.5727 104.646C-54.5274 105.509 -54.2644 106.096 -53.7834 106.407C-53.3025 106.719 -52.6465 106.852 -51.8157 106.809L-49.8744 106.707C-48.8677 106.654 -48.0352 106.795 -47.3769 107.129C-46.7025 107.462 -46.1888 107.94 -45.8357 108.562C-45.4827 109.185 -45.2848 109.903 -45.2421 110.718L-45.1768 111.964C-45.1115 113.211 -45.3169 114.183 -45.793 114.881C-46.2691 115.579 -46.9319 116.078 -47.7813 116.379C-48.6316 116.664 -49.6079 116.835 -50.7104 116.893ZM-38.1749 116.236C-39.3732 116.299 -40.3247 116.028 -41.0293 115.424C-41.7187 114.803 -42.0982 113.83 -42.1677 112.504L-42.6412 103.468L-40.2445 103.342L-39.8049 111.731C-39.7546 112.69 -39.505 113.325 -39.056 113.638C-38.591 113.95 -37.9591 114.086 -37.1602 114.044C-36.5211 114.01 -35.9189 113.883 -35.3538 113.661C-34.7735 113.422 -34.2129 113.112 -33.6721 112.731L-34.1808 103.025L-31.7841 102.899L-31.1121 115.721L-33.0295 115.822L-33.5804 114.481C-34.1826 114.913 -34.8832 115.302 -35.6822 115.649C-36.4652 115.994 -37.2961 116.19 -38.1749 116.236ZM-23.0314 115.442C-23.7824 115.482 -24.4824 115.422 -25.1316 115.264C-25.7656 115.089 -26.3349 114.774 -26.8394 114.32C-27.3278 113.865 -27.7221 113.221 -28.0221 112.387C-28.3222 111.554 -28.5061 110.49 -28.5739 109.196C-28.6434 107.87 -28.5805 106.777 -28.3852 105.917C-28.1908 105.042 -27.8824 104.353 -27.4602 103.85C-27.0228 103.33 -26.4815 102.958 -25.8365 102.732C-25.1914 102.506 -24.4615 102.371 -23.6466 102.328C-22.9755 102.293 -22.2708 102.288 -21.5324 102.314C-20.7781 102.338 -20.0457 102.404 -19.3351 102.511L-19.261 103.925L-22.88 104.115C-23.663 104.156 -24.3114 104.318 -24.8252 104.601C-25.34 104.869 -25.7067 105.36 -25.9255 106.077C-26.1452 106.777 -26.2206 107.783 -26.152 109.093C-26.0858 110.355 -25.8989 111.323 -25.5913 111.995C-25.2845 112.652 -24.8692 113.087 -24.3453 113.3C-23.8055 113.512 -23.1441 113.598 -22.3612 113.557L-18.5744 113.358L-18.5028 114.724C-18.8652 114.839 -19.3 114.95 -19.8071 115.057C-20.2991 115.147 -20.8239 115.222 -21.3814 115.284C-21.9222 115.36 -22.4722 115.413 -23.0314 115.442ZM-11.2819 114.826C-12.0329 114.866 -12.7329 114.806 -13.3821 114.648C-14.0161 114.473 -14.5854 114.158 -15.0899 113.704C-15.5783 113.249 -15.9726 112.605 -16.2726 111.771C-16.5727 110.938 -16.7566 109.874 -16.8244 108.58C-16.8939 107.254 -16.831 106.161 -16.6357 105.302C-16.4413 104.426 -16.1329 103.737 -15.7107 103.234C-15.2733 102.715 -14.732 102.342 -14.087 102.116C-13.4419 101.89 -12.712 101.755 -11.8971 101.713C-11.226 101.677 -10.5213 101.673 -9.78294 101.698C-9.02862 101.723 -8.29617 101.788 -7.5856 101.895L-7.51149 103.309L-11.1305 103.499C-11.9135 103.54 -12.5619 103.702 -13.0757 103.985C-13.5905 104.253 -13.9572 104.745 -14.176 105.461C-14.3957 106.162 -14.4711 107.167 -14.4025 108.477C-14.3363 109.739 -14.1494 110.707 -13.8418 111.38C-13.535 112.037 -13.1197 112.471 -12.5958 112.684C-12.056 112.896 -11.3946 112.982 -10.6117 112.941L-6.82487 112.742L-6.75327 114.108C-7.11575 114.224 -7.55054 114.334 -8.05765 114.441C-8.54962 114.531 -9.07438 114.607 -9.63194 114.668C-10.1727 114.744 -10.7227 114.797 -11.2819 114.826ZM0.755203 114.196C-0.602933 114.267 -1.69991 114.124 -2.53573 113.767C-3.35556 113.41 -3.96594 112.769 -4.36687 111.844C-4.75265 110.903 -4.9895 109.594 -5.07743 107.916C-5.16703 106.207 -5.06876 104.872 -4.78262 103.911C-4.48135 102.934 -3.94131 102.233 -3.1625 101.808C-2.38369 101.382 -1.31522 101.134 0.042913 101.063C1.22529 101.001 2.18268 101.079 2.9151 101.297C3.66265 101.498 4.22094 101.909 4.58998 102.531C4.97415 103.136 5.19555 103.997 5.25416 105.116C5.2952 105.899 5.16807 106.53 4.87279 107.01C4.5935 107.49 4.17168 107.848 3.60736 108.086C3.05901 108.323 2.39338 108.462 1.61045 108.503L-2.63173 108.725C-2.56718 109.651 -2.42439 110.389 -2.20334 110.938C-1.96716 111.47 -1.58672 111.851 -1.06202 112.08C-0.522183 112.292 0.251045 112.371 1.25766 112.319L5.26017 112.109L5.33554 113.547C4.6535 113.679 3.95507 113.804 3.24025 113.921C2.52626 114.055 1.69791 114.146 0.755203 114.196ZM-2.73483 107.217L1.31561 107.004C1.95474 106.971 2.41981 106.826 2.71083 106.571C3.00185 106.315 3.13062 105.868 3.09712 105.229C3.06363 104.59 2.94138 104.091 2.73039 103.734C2.53537 103.376 2.22596 103.127 1.80215 102.989C1.37835 102.851 0.822919 102.8 0.135862 102.836C-0.647064 102.877 -1.26393 103.03 -1.71473 103.294C-2.14956 103.557 -2.44693 103.997 -2.60684 104.614C-2.75078 105.231 -2.79344 106.098 -2.73483 107.217ZM13.6984 113.517C12.3402 113.588 11.2433 113.446 10.4074 113.089C9.58761 112.731 8.97723 112.09 8.57631 111.166C8.19053 110.225 7.95367 108.916 7.86575 107.238C7.77615 105.528 7.87442 104.193 8.16055 103.233C8.46183 102.256 9.00187 101.555 9.78067 101.129C10.5595 100.704 11.628 100.456 12.9861 100.385C14.1685 100.323 15.1259 100.401 15.8583 100.619C16.6058 100.82 17.1641 101.231 17.5332 101.853C17.9173 102.457 18.1387 103.319 18.1973 104.437C18.2384 105.22 18.1112 105.852 17.816 106.332C17.5367 106.811 17.1149 107.17 16.5505 107.408C16.0022 107.645 15.3366 107.784 14.5536 107.825L10.3114 108.047C10.376 108.973 10.5188 109.71 10.7398 110.26C10.976 110.792 11.3565 111.173 11.8812 111.401C12.421 111.614 13.1942 111.693 14.2008 111.64L18.2033 111.431L18.2787 112.869C17.5967 113.001 16.8982 113.125 16.1834 113.243C15.4694 113.376 14.6411 113.468 13.6984 113.517ZM10.2083 106.538L14.2588 106.326C14.8979 106.293 15.363 106.148 15.654 105.892C15.945 105.637 16.0738 105.19 16.0403 104.55C16.0068 103.911 15.8846 103.413 15.6736 103.056C15.4785 102.697 15.1691 102.449 14.7453 102.311C14.3215 102.173 13.7661 102.122 13.079 102.158C12.2961 102.199 11.6792 102.352 11.2284 102.616C10.7936 102.879 10.4962 103.319 10.3363 103.936C10.1924 104.552 10.1497 105.42 10.2083 106.538ZM25.7548 112.885C24.7162 112.94 23.8417 112.761 23.1312 112.35C22.4366 111.938 21.8969 111.269 21.5119 110.344C21.1262 109.403 20.8939 108.181 20.8152 106.679C20.7323 105.098 20.8171 103.811 21.0696 102.821C21.3373 101.813 21.8109 101.068 22.4905 100.583C23.1692 100.083 24.1078 99.8017 25.3061 99.7389C25.9772 99.7037 26.6441 99.7409 27.3067 99.8503C27.9853 99.959 28.5769 100.088 29.0814 100.238L28.7674 94.2462L31.1641 94.1206L32.1225 112.408L30.1572 112.511L29.6592 111.263C29.4153 111.5 29.0755 111.742 28.6398 111.989C28.2033 112.22 27.7332 112.421 27.2294 112.592C26.7257 112.762 26.2341 112.86 25.7548 112.885ZM26.4187 110.88C27.0738 110.846 27.6596 110.711 28.176 110.475C28.7083 110.239 29.1764 109.998 29.5801 109.753L29.1719 101.964C28.669 101.846 28.175 101.743 27.6898 101.657C27.2197 101.553 26.6971 101.517 26.1218 101.547C25.3709 101.586 24.7708 101.754 24.3217 102.05C23.8726 102.345 23.5622 102.842 23.3904 103.54C23.2187 104.238 23.1651 105.202 23.2296 106.433C23.2891 107.567 23.4327 108.473 23.6604 109.15C23.8873 109.811 24.224 110.274 24.6705 110.539C25.1329 110.803 25.7157 110.917 26.4187 110.88Z" fill="#4451CA"/>
<path d="M44.3282 98.0102C44.5255 96.6405 46.4642 96.5389 46.8035 97.8804C47.0246 98.7543 48.0635 99.1222 48.7853 98.5822C49.8933 97.7532 51.3359 99.0522 50.6273 100.241C50.1657 101.015 50.6402 102.01 51.5324 102.138C52.902 102.336 53.0036 104.274 51.6621 104.614C50.7882 104.835 50.4203 105.874 50.9603 106.595C51.7893 107.703 50.4903 109.146 49.3017 108.437C48.5275 107.976 47.5328 108.45 47.4042 109.342C47.207 110.712 45.2683 110.814 44.9289 109.472C44.7078 108.598 43.669 108.23 42.9472 108.77C41.8392 109.599 40.3965 108.3 41.1051 107.112C41.5667 106.338 41.0923 105.343 40.2001 105.214C38.8304 105.017 38.7288 103.078 40.0703 102.739C40.9442 102.518 41.3121 101.479 40.7721 100.757C39.9431 99.6493 41.2421 98.2066 42.4307 98.9152C43.205 99.3768 44.1997 98.9024 44.3282 98.0102Z" fill="#C5C9EF"/>
<rect x="80.7703" y="81.8193" width="40" height="40" rx="20" transform="rotate(-3 80.7703 81.8193)" fill="#ECEEFA"/>
<path d="M111.906 101.505C111.229 100.754 110.232 100.258 108.881 100.016C109.737 99.67 110.382 99.2163 110.807 98.6773C111.455 97.8575 111.74 96.906 111.683 95.8217C111.615 94.512 111.084 93.4525 110.08 92.6224C109.086 91.7917 107.685 91.4237 105.909 91.5168L97.1678 91.975C96.0912 92.0314 95.2541 92.9472 95.3109 94.0315L96.062 108.364C96.1245 109.555 97.144 110.471 98.3389 110.408L106.036 110.005C106.456 109.983 107.313 109.852 108.585 109.613C109.547 109.444 110.258 109.202 110.728 108.898C111.48 108.417 112.051 107.773 112.463 106.987C112.864 106.202 113.045 105.331 112.995 104.376C112.934 103.206 112.57 102.245 111.906 101.505ZM103.341 108.219C100.187 108.384 97.5616 107.112 97.4694 105.351C97.4564 105.104 97.4865 104.855 97.5711 104.614C98.2374 106 100.553 106.933 103.266 106.791C105.979 106.649 108.184 105.478 108.692 104.031C108.801 104.262 108.868 104.506 108.881 104.753C108.973 106.514 106.495 108.054 103.341 108.219ZM103.121 104.021C99.9667 104.187 97.3411 102.903 97.2494 101.153C97.2364 100.906 97.2666 100.657 97.3511 100.416C98.0174 101.802 100.333 102.736 103.046 102.593C105.759 102.451 107.964 101.281 108.472 99.8332C108.581 100.064 108.648 100.308 108.661 100.555C108.752 102.305 106.275 103.856 103.121 104.021ZM102.917 100.124C99.7625 100.29 97.1261 99.0068 97.0344 97.2569C96.9427 95.507 99.43 93.9448 102.584 93.7795C105.738 93.6142 108.365 94.9084 108.456 96.6583C108.548 98.4082 106.071 99.959 102.917 100.124Z" fill="#4451CA"/>
<path d="M96.3041 101.041L95.9502 94.2888C95.9193 93.6983 95.4106 93.2621 94.8186 93.2931L91.2337 93.481C91.064 92.7148 90.3044 92.2271 89.5361 92.3965C88.8527 92.54 88.3777 93.157 88.4143 93.8548C88.4554 94.6385 89.1237 95.2386 89.9101 95.2082C90.6099 95.1715 91.1761 94.6466 91.2585 93.9533L94.8433 93.7655C95.177 93.748 95.4597 93.9915 95.4879 94.3238L95.637 97.1687L93.7638 97.2669C93.5834 96.5012 92.8243 96.0243 92.0565 96.2045C91.3845 96.3581 90.9095 96.9751 90.9568 97.6724C90.9979 98.4561 91.677 99.0556 92.4623 99.0037C93.1621 98.967 93.7277 98.4314 93.7993 97.7387L95.6725 97.6405L95.8525 101.076L91.6433 101.297C91.4736 100.53 90.714 100.043 89.9457 100.212C89.2623 100.356 88.7873 100.973 88.8233 101.66C88.8267 101.724 88.8295 101.778 88.8437 101.842C88.981 102.609 89.7208 103.13 90.4908 102.993C91.1113 102.885 91.5812 102.376 91.6568 101.759L95.8552 101.539L96.0352 104.974L94.2159 105.069C94.1435 104.718 93.9436 104.406 93.6412 104.195C93.0022 103.744 92.1143 103.899 91.662 104.536C91.4409 104.849 91.3529 105.23 91.4264 105.603C91.5644 106.382 92.3036 106.892 93.0742 106.766C93.6946 106.658 94.1651 106.159 94.2401 105.531L96.0594 105.436L96.2085 108.281C96.226 108.613 95.9596 108.886 95.6259 108.903L92.041 109.091C91.9584 108.751 91.7591 108.449 91.4674 108.238C91.1536 108.018 90.7717 107.941 90.408 108.003C89.6504 108.172 89.1481 108.888 89.2425 109.658C89.3799 110.426 90.1412 110.945 90.8897 110.809C91.5203 110.69 91.9902 110.181 92.0652 109.553L95.65 109.365C96.2421 109.334 96.7024 108.847 96.6714 108.256L96.3181 101.514" fill="#4451CA"/>
<path d="M136.761 106.923L129.939 89.5687L132.432 89.4381L138.16 104.279L142.33 88.9193L144.799 88.7899L139.829 106.763L136.761 106.923ZM147.641 91.3326C147.354 91.3477 147.203 91.2194 147.189 90.9478L147.083 88.9346C147.068 88.647 147.204 88.4956 147.492 88.4806L149.266 88.3876C149.393 88.3809 149.491 88.4158 149.559 88.4924C149.627 88.5689 149.665 88.6711 149.672 88.7989L149.777 90.8122C149.791 91.0838 149.671 91.2263 149.415 91.2397L147.641 91.3326ZM148.091 106.33L147.419 93.5073L149.816 93.3817L150.488 106.204L148.091 106.33ZM158.338 105.937C158.002 105.954 157.603 105.967 157.138 105.976C156.674 105.984 156.193 105.977 155.695 105.955C155.214 105.948 154.765 105.932 154.347 105.906C153.945 105.879 153.622 105.839 153.379 105.788L153.304 104.35L158.697 104.068C159.16 104.043 159.558 103.99 159.89 103.909C160.221 103.811 160.469 103.638 160.632 103.389C160.811 103.14 160.888 102.783 160.864 102.32L160.837 101.792C160.811 101.313 160.632 100.946 160.298 100.691C159.964 100.436 159.43 100.328 158.695 100.367L156.826 100.464C156.075 100.504 155.398 100.443 154.797 100.282C154.211 100.105 153.738 99.7852 153.377 99.3234C153.032 98.8608 152.839 98.2221 152.796 97.4072L152.76 96.7121C152.717 95.8973 152.834 95.2182 153.109 94.675C153.401 94.131 153.884 93.7132 154.558 93.4215C155.231 93.1139 156.134 92.9303 157.269 92.8709C157.748 92.8458 158.277 92.8421 158.854 92.8599C159.447 92.8609 160.025 92.8787 160.588 92.9133C161.15 92.9479 161.601 92.9963 161.941 93.0586L162.016 94.4966L156.935 94.7629C156.232 94.7998 155.695 94.9481 155.324 95.2079C154.969 95.4668 154.81 95.9318 154.845 96.6029L154.87 97.0822C154.892 97.4976 154.996 97.8126 155.184 98.0271C155.371 98.2416 155.626 98.3724 155.949 98.4195C156.288 98.4659 156.681 98.4773 157.129 98.4539L159.046 98.3534C160.26 98.2897 161.194 98.5292 161.848 99.0718C162.5 99.5983 162.853 100.373 162.907 101.396L162.958 102.378C163.003 103.241 162.839 103.923 162.464 104.423C162.09 104.923 161.548 105.288 160.839 105.517C160.147 105.746 159.313 105.886 158.338 105.937ZM169.626 105.345C168.428 105.408 167.476 105.137 166.772 104.534C166.082 103.913 165.703 102.939 165.633 101.613L165.16 92.5775L167.556 92.4519L167.996 100.84C168.046 101.799 168.296 102.435 168.745 102.748C169.21 103.06 169.842 103.195 170.641 103.153C171.28 103.12 171.882 102.992 172.447 102.77C173.027 102.531 173.588 102.222 174.129 101.841L173.62 92.1341L176.017 92.0085L176.689 104.831L174.771 104.931L174.22 103.59C173.618 104.023 172.918 104.412 172.119 104.758C171.336 105.103 170.505 105.299 169.626 105.345ZM182.564 104.667C181.622 104.717 180.824 104.478 180.172 103.951C179.534 103.408 179.189 102.633 179.137 101.626L179.084 100.62C179.032 99.6292 179.325 98.8047 179.964 98.1464C180.617 97.4712 181.631 97.0977 183.005 97.0256L187.008 96.8159L186.937 95.4737C186.911 94.9784 186.802 94.5676 186.608 94.2413C186.43 93.8981 186.113 93.6504 185.656 93.4981C185.2 93.3458 184.532 93.2926 183.653 93.3387L179.722 93.5447L179.648 92.1306C180.217 91.9726 180.882 91.8256 181.644 91.6896C182.422 91.5527 183.33 91.449 184.367 91.3786C185.422 91.3233 186.308 91.4131 187.025 91.6479C187.758 91.8658 188.315 92.2692 188.699 92.8579C189.081 93.4307 189.299 94.2124 189.35 95.2031L189.819 104.143L187.926 104.242L187.444 102.849C187.351 102.918 187.158 103.049 186.864 103.24C186.568 103.416 186.186 103.612 185.717 103.829C185.264 104.045 184.761 104.232 184.208 104.389C183.672 104.545 183.124 104.638 182.564 104.667ZM183.575 102.86C183.816 102.863 184.094 102.825 184.41 102.744C184.743 102.662 185.066 102.573 185.382 102.477C185.712 102.363 186.011 102.252 186.277 102.141C186.56 102.03 186.787 101.938 186.96 101.865C187.147 101.775 187.249 101.722 187.264 101.705L187.07 98.0142L183.723 98.3339C182.894 98.4254 182.306 98.6645 181.958 99.0512C181.625 99.4372 181.475 99.9257 181.506 100.517L181.536 101.092C181.56 101.555 181.676 101.926 181.883 102.203C182.089 102.465 182.338 102.644 182.632 102.741C182.941 102.837 183.256 102.877 183.575 102.86ZM196.648 103.809C195.865 103.85 195.195 103.749 194.638 103.506C194.096 103.262 193.674 102.851 193.372 102.274C193.084 101.681 192.914 100.872 192.86 99.8498L192.118 85.6852L194.514 85.5596L195.24 99.4126C195.276 100.084 195.367 100.6 195.514 100.96C195.676 101.304 195.881 101.542 196.128 101.673C196.391 101.804 196.692 101.884 197.03 101.914L198.236 101.995L198.326 103.721L196.648 103.809ZM199.812 88.5985C199.524 88.6136 199.373 88.4853 199.359 88.2137L199.254 86.2004C199.239 85.9128 199.375 85.7615 199.663 85.7464L201.436 85.6535C201.564 85.6468 201.662 85.6817 201.73 85.7582C201.798 85.8348 201.835 85.9369 201.842 86.0648L201.948 88.078C201.962 88.3496 201.841 88.4921 201.586 88.5055L199.812 88.5985ZM200.262 103.596L199.59 90.7731L201.986 90.6475L202.658 103.47L200.262 103.596ZM205.516 103.32L205.423 101.547L211.921 92.0975L204.755 92.4731L204.652 90.5078L214.623 89.9853L214.717 91.7828L208.194 101.233L215.193 100.866L215.295 102.808L205.516 103.32ZM223.021 102.547C221.662 102.618 220.565 102.475 219.73 102.119C218.91 101.761 218.299 101.12 217.899 100.196C217.513 99.2547 217.276 97.9453 217.188 96.2676C217.098 94.558 217.197 93.223 217.483 92.2627C217.784 91.2856 218.324 90.5844 219.103 90.159C219.882 89.7337 220.95 89.4854 222.308 89.4142C223.491 89.3523 224.448 89.4303 225.18 89.6482C225.928 89.8494 226.486 90.2607 226.855 90.8823C227.24 91.487 227.461 92.3486 227.52 93.4671C227.561 94.25 227.433 94.8815 227.138 95.3616C226.859 95.8409 226.437 96.1995 225.873 96.4373C225.324 96.6743 224.659 96.8134 223.876 96.8544L219.634 97.0767C219.698 98.0026 219.841 98.7402 220.062 99.2893C220.298 99.8217 220.679 100.202 221.203 100.431C221.743 100.643 222.516 100.723 223.523 100.67L227.526 100.46L227.601 101.898C226.919 102.03 226.22 102.155 225.506 102.273C224.792 102.406 223.963 102.498 223.021 102.547ZM219.531 95.5681L223.581 95.3558C224.22 95.3223 224.685 95.1777 224.976 94.9222C225.267 94.6666 225.396 94.2192 225.362 93.5801C225.329 92.941 225.207 92.4427 224.996 92.0853C224.801 91.727 224.491 91.4788 224.068 91.3408C223.644 91.2028 223.088 91.1518 222.401 91.1878C221.618 91.2288 221.001 91.3813 220.551 91.6453C220.116 91.9084 219.818 92.3486 219.659 92.9658C219.515 93.5822 219.472 94.4496 219.531 95.5681Z" fill="#4451CA"/>
<path d="M240.06 87.7519C240.257 86.3822 242.196 86.2806 242.535 87.6221C242.756 88.496 243.795 88.8639 244.517 88.3239C245.625 87.4949 247.067 88.7939 246.359 89.9825C245.897 90.7568 246.372 91.7515 247.264 91.88C248.633 92.0773 248.735 94.016 247.394 94.3553C246.52 94.5764 246.152 95.6153 246.692 96.3371C247.521 97.445 246.222 98.8877 245.033 98.1791C244.259 97.7175 243.264 98.192 243.136 99.0842C242.938 100.454 241 100.555 240.66 99.2139C240.439 98.34 239.4 97.9721 238.679 98.5121C237.571 99.3411 236.128 98.0421 236.837 96.8535C237.298 96.0793 236.824 95.0846 235.932 94.956C234.562 94.7588 234.46 92.8201 235.802 92.4807C236.676 92.2596 237.044 91.2208 236.504 90.499C235.675 89.391 236.974 87.9483 238.162 88.6569C238.936 89.1185 239.931 88.6441 240.06 87.7519Z" fill="#C5C9EF"/>
<rect x="276.501" y="71.5615" width="40" height="40" rx="20" transform="rotate(-3 276.501 71.5615)" fill="#ECEEFA"/>
<path d="M307.637 91.247C306.961 90.4966 305.963 89.9998 304.612 89.7585C305.468 89.4122 306.113 88.9585 306.539 88.4195C307.187 87.5997 307.471 86.6482 307.414 85.5639C307.346 84.2541 306.815 83.1947 305.811 82.3646C304.818 81.5339 303.417 81.1659 301.64 81.259L292.899 81.7171C291.822 81.7736 290.985 82.6894 291.042 83.7737L291.793 98.1058C291.856 99.2975 292.875 100.213 294.07 100.15L301.767 99.7469C302.187 99.7249 303.044 99.5939 304.316 99.3549C305.279 99.1861 305.989 98.9443 306.459 98.6398C307.211 98.159 307.782 97.5155 308.194 96.7295C308.595 95.9442 308.776 95.0735 308.726 94.118C308.665 92.9478 308.302 91.9872 307.637 91.247ZM299.072 97.9612C295.918 98.1265 293.293 96.8538 293.201 95.0932C293.188 94.8462 293.218 94.5971 293.302 94.3558C293.969 95.7419 296.284 96.6755 298.997 96.5333C301.71 96.3911 303.916 95.2206 304.423 93.773C304.532 94.0041 304.599 94.2482 304.612 94.4951C304.704 96.2558 302.226 97.7959 299.072 97.9612ZM298.852 93.7635C295.698 93.9288 293.072 92.6454 292.981 90.8955C292.968 90.6486 292.998 90.3994 293.082 90.1582C293.749 91.5442 296.064 92.4779 298.777 92.3357C301.49 92.1935 303.696 91.0229 304.203 89.5754C304.312 89.8065 304.379 90.0506 304.392 90.2975C304.483 92.0474 302.006 93.5982 298.852 93.7635ZM298.648 89.8665C295.494 90.0318 292.857 88.749 292.766 86.999C292.674 85.2491 295.161 83.687 298.315 83.5217C301.47 83.3564 304.096 84.6505 304.187 86.4005C304.279 88.1504 301.802 89.7012 298.648 89.8665Z" fill="#4451CA"/>
<path d="M292.035 90.7837L291.681 84.031C291.65 83.4405 291.142 83.0043 290.55 83.0353L286.965 83.2232C286.795 82.457 286.036 81.9693 285.267 82.1387C284.584 82.2822 284.109 82.8992 284.145 83.597C284.187 84.3807 284.855 84.9808 285.641 84.9504C286.341 84.9137 286.907 84.3888 286.99 83.6955L290.575 83.5077C290.908 83.4902 291.191 83.7337 291.219 84.066L291.368 86.9109L289.495 87.0091C289.315 86.2434 288.556 85.7665 287.788 85.9467C287.116 86.1003 286.641 86.7173 286.688 87.4145C286.729 88.1982 287.408 88.7978 288.194 88.7459C288.893 88.7092 289.459 88.1736 289.531 87.4809L291.404 87.3827L291.584 90.8181L287.375 91.0387C287.205 90.2725 286.445 89.7848 285.677 89.9543C284.994 90.0977 284.519 90.7147 284.555 91.4018C284.558 91.4662 284.561 91.5199 284.575 91.5837C284.712 92.3516 285.452 92.8726 286.222 92.7354C286.842 92.6275 287.312 92.1185 287.388 91.5009L291.586 91.2809L291.766 94.7163L289.947 94.8116C289.875 94.4602 289.675 94.1477 289.372 93.9375C288.733 93.4865 287.846 93.6407 287.393 94.278C287.172 94.591 287.084 94.9724 287.158 95.3454C287.296 96.124 288.035 96.6343 288.805 96.5078C289.426 96.3999 289.896 95.9016 289.971 95.2733L291.791 95.1779L291.94 98.0229C291.957 98.3557 291.691 98.628 291.357 98.6455L287.772 98.8334C287.69 98.4932 287.49 98.1915 287.199 97.9807C286.885 97.7603 286.503 97.6834 286.139 97.7455C285.382 97.9144 284.879 98.6297 284.974 99.3999C285.111 100.168 285.872 100.688 286.621 100.552C287.252 100.432 287.721 99.9233 287.796 99.295L291.381 99.1071C291.973 99.0761 292.434 98.5891 292.403 97.9986L292.049 91.2566" fill="#4451CA"/>
<path d="M326.596 96.9746L331.566 79.0019L334.634 78.8411L341.456 96.1959L338.939 96.3278L337.139 91.7837L330.38 92.138L329.089 96.844L326.596 96.9746ZM330.841 89.9268L336.425 89.6341L333.187 81.0319L330.841 89.9268ZM343.822 96.0719L343.15 83.2494L345.067 83.149L345.62 84.5139C346.173 84.0684 346.833 83.6653 347.599 83.3047C348.38 82.9273 349.195 82.7164 350.041 82.672C351 82.6218 351.778 82.7893 352.375 83.1746C352.987 83.543 353.438 84.0561 353.729 84.7138C354.02 85.3715 354.186 86.0918 354.227 86.8747L354.679 95.5029L352.283 95.6285L351.845 87.2879C351.819 86.7766 351.692 86.3427 351.465 85.986C351.253 85.6126 350.966 85.3313 350.603 85.142C350.241 84.9527 349.804 84.8714 349.293 84.8982C348.813 84.9233 348.369 84.9947 347.958 85.1124C347.564 85.2292 347.187 85.3851 346.829 85.5801C346.47 85.7591 346.097 85.979 345.71 86.2396L346.219 95.9462L343.822 96.0719ZM360.531 95.3404C359.588 95.3898 358.791 95.1512 358.138 94.6246C357.501 94.0812 357.156 93.3062 357.103 92.2996L357.05 91.293C356.998 90.3023 357.292 89.4779 357.93 88.8196C358.584 88.1444 359.598 87.7709 360.972 87.6988L364.974 87.4891L364.904 86.1469C364.878 85.6516 364.768 85.2408 364.575 84.9144C364.397 84.5713 364.079 84.3236 363.623 84.1713C363.166 84.0189 362.498 83.9658 361.62 84.0119L357.689 84.2179L357.615 82.8038C358.183 82.6458 358.849 82.4988 359.611 82.3628C360.388 82.2259 361.296 82.1222 362.334 82.0518C363.389 81.9965 364.274 82.0863 364.992 82.3211C365.724 82.539 366.282 82.9424 366.665 83.5311C367.048 84.1039 367.265 84.8856 367.317 85.8763L367.785 94.816L365.892 94.9152L365.411 93.5225C365.318 93.5914 365.125 93.7217 364.83 93.9134C364.535 94.0891 364.153 94.2854 363.683 94.5022C363.23 94.7183 362.727 94.9048 362.175 95.062C361.638 95.2183 361.09 95.3111 360.531 95.3404ZM361.542 93.533C361.782 93.5364 362.061 93.4978 362.377 93.4171C362.709 93.3356 363.033 93.2466 363.348 93.1499C363.679 93.0365 363.977 92.9247 364.244 92.8146C364.526 92.7037 364.754 92.6116 364.926 92.5385C365.114 92.4486 365.215 92.3952 365.23 92.3784L365.037 88.6874L361.689 89.0071C360.861 89.0986 360.272 89.3377 359.924 89.7244C359.592 90.1104 359.441 90.5989 359.472 91.1901L359.502 91.7653C359.527 92.2287 359.642 92.5991 359.849 92.8767C360.055 93.1383 360.305 93.3174 360.598 93.4142C360.908 93.5102 361.222 93.5497 361.542 93.533ZM374.615 94.4821C373.832 94.5231 373.162 94.4221 372.604 94.1789C372.063 93.9349 371.641 93.5244 371.338 92.9475C371.051 92.3537 370.88 91.5455 370.827 90.5229L370.084 76.3584L372.481 76.2328L373.207 90.0858C373.242 90.7568 373.333 91.2728 373.48 91.6336C373.643 91.9776 373.847 92.2152 374.094 92.3464C374.358 92.4768 374.658 92.5572 374.996 92.5875L376.202 92.6685L376.293 94.3942L374.615 94.4821ZM382.145 99.7593L383.405 93.9974C382.893 94.0082 382.4 93.9299 381.927 93.7625C381.452 93.579 381.02 93.2732 380.629 92.8451C380.253 92.4002 379.933 91.8001 379.669 91.0449L376.286 81.5129L378.802 81.381L381.872 90.4247C382.038 90.8486 382.215 91.1678 382.403 91.3823C382.606 91.5959 382.798 91.7461 382.979 91.8327C383.175 91.9026 383.345 91.9417 383.49 91.9502C383.635 91.9586 383.723 91.962 383.755 91.9603L386.184 80.9941L388.653 80.8648L385.088 97.2257L384.062 99.6588L382.145 99.7593ZM390.902 93.6045L390.809 91.8309L397.307 82.3819L390.141 82.7575L390.038 80.7921L400.009 80.2696L400.103 82.0672L393.58 91.5175L400.579 91.1507L400.681 93.092L390.902 93.6045ZM408.407 92.8313C407.048 92.9025 405.951 92.7597 405.116 92.403C404.296 92.0454 403.685 91.4045 403.285 90.4802C402.899 89.5391 402.662 88.2297 402.574 86.552C402.484 84.8423 402.583 83.5073 402.869 82.5471C403.17 81.5699 403.71 80.8687 404.489 80.4434C405.268 80.018 406.336 79.7698 407.694 79.6986C408.877 79.6366 409.834 79.7146 410.566 79.9326C411.314 80.1338 411.872 80.5451 412.241 81.1666C412.626 81.7714 412.847 82.633 412.906 83.7514C412.947 84.5343 412.819 85.1659 412.524 85.646C412.245 86.1253 411.823 86.4838 411.259 86.7217C410.71 86.9587 410.045 87.0977 409.262 87.1388L405.02 87.3611C405.084 88.287 405.227 89.0245 405.448 89.5737C405.684 90.1061 406.065 90.4867 406.589 90.7155C407.129 90.9276 407.902 91.0072 408.909 90.9545L412.912 90.7447L412.987 92.1827C412.305 92.3146 411.606 92.4393 410.892 92.5569C410.178 92.6904 409.349 92.7819 408.407 92.8313ZM404.917 85.8524L408.967 85.6401C409.606 85.6066 410.071 85.4621 410.362 85.2065C410.653 84.9509 410.782 84.5036 410.749 83.8645C410.715 83.2253 410.593 82.7271 410.382 82.3696C410.187 82.0113 409.877 81.7632 409.454 81.6252C409.03 81.4872 408.474 81.4362 407.787 81.4722C407.004 81.5132 406.387 81.6657 405.937 81.9296C405.502 82.1928 405.204 82.6329 405.045 83.2501C404.901 83.8665 404.858 84.7339 404.917 85.8524Z" fill="#4451CA"/>
<path d="M424.806 78.0697C425.003 76.7001 426.942 76.5985 427.281 77.94C427.502 78.8139 428.541 79.1818 429.263 78.6418C430.371 77.8128 431.814 79.1118 431.105 80.3004C430.643 81.0746 431.118 82.0694 432.01 82.1979C433.38 82.3952 433.481 84.3338 432.14 84.6732C431.266 84.8943 430.898 85.9332 431.438 86.6549C432.267 87.7629 430.968 89.2056 429.78 88.497C429.005 88.0354 428.011 88.5098 427.882 89.402C427.685 90.7717 425.746 90.8733 425.407 89.5318C425.186 88.6579 424.147 88.29 423.425 88.83C422.317 89.659 420.874 88.36 421.583 87.1714C422.045 86.3972 421.57 85.4024 420.678 85.2739C419.308 85.0766 419.207 83.138 420.548 82.7986C421.422 82.5775 421.79 81.5386 421.25 80.8169C420.421 79.7089 421.72 78.2662 422.908 78.9748C423.683 79.4364 424.677 78.962 424.806 78.0697Z" fill="#C5C9EF"/>
<rect x="461.248" y="61.8794" width="40" height="40" rx="20" transform="rotate(-3 461.248 61.8794)" fill="#ECEEFA"/>
<path d="M492.383 81.5649C491.707 80.8145 490.71 80.3177 489.358 80.0763C490.215 79.73 490.86 79.2764 491.285 78.7374C491.933 77.9176 492.218 76.9661 492.161 75.8818C492.092 74.572 491.562 73.5125 490.558 72.6824C489.564 71.8518 488.163 71.4838 486.387 71.5769L477.646 72.035C476.569 72.0914 475.732 73.0073 475.789 74.0916L476.54 88.4237C476.602 89.6153 477.622 90.5308 478.817 90.4681L486.514 90.0647C486.934 90.0427 487.79 89.9117 489.062 89.6728C490.025 89.5039 490.736 89.2622 491.206 88.9577C491.958 88.4769 492.528 87.8333 492.941 87.0474C493.342 86.2621 493.523 85.3914 493.473 84.4359C493.412 83.2657 493.048 82.3051 492.383 81.5649ZM483.819 88.279C480.664 88.4443 478.039 87.1717 477.947 85.411C477.934 85.1641 477.964 84.9149 478.049 84.6737C478.715 86.0598 481.031 86.9934 483.744 86.8512C486.457 86.709 488.662 85.5384 489.169 84.0909C489.279 84.322 489.345 84.5661 489.358 84.813C489.451 86.5736 486.973 88.1137 483.819 88.279ZM483.599 84.0814C480.444 84.2467 477.819 82.9633 477.727 81.2134C477.714 80.9665 477.744 80.7173 477.829 80.476C478.495 81.8621 480.811 82.7957 483.524 82.6536C486.237 82.5114 488.442 81.3408 488.949 79.8932C489.059 80.1243 489.125 80.3684 489.138 80.6154C489.23 82.3653 486.753 83.9161 483.599 84.0814ZM483.394 80.1844C480.24 80.3497 477.604 79.0668 477.512 77.3169C477.42 75.567 479.908 74.0049 483.062 73.8396C486.216 73.6743 488.842 74.9684 488.934 76.7183C489.026 78.4682 486.549 80.019 483.394 80.1844Z" fill="#4451CA"/>
<path d="M476.782 81.1016L476.428 74.3488C476.397 73.7584 475.888 73.3221 475.296 73.3532L471.712 73.541C471.542 72.7748 470.782 72.2871 470.014 72.4566C469.331 72.6001 468.856 73.217 468.892 73.9149C468.933 74.6986 469.601 75.2987 470.388 75.2682C471.088 75.2316 471.654 74.7067 471.736 74.0134L475.321 73.8255C475.655 73.808 475.937 74.0516 475.966 74.3838L476.115 77.2288L474.242 77.3269C474.061 76.5613 473.302 76.0844 472.534 76.2645C471.862 76.4182 471.387 77.0352 471.435 77.7324C471.476 78.5161 472.155 79.1157 472.94 79.0637C473.64 79.0271 474.205 78.4915 474.277 77.7987L476.15 77.7006L476.33 81.136L472.121 81.3566C471.951 80.5904 471.192 80.1027 470.423 80.2721C469.74 80.4156 469.265 81.0326 469.301 81.7197C469.304 81.7841 469.307 81.8378 469.321 81.9016C469.459 82.6695 470.199 83.1905 470.969 83.0533C471.589 82.9454 472.059 82.4363 472.135 81.8188L476.333 81.5987L476.513 85.0342L474.694 85.1295C474.621 84.778 474.421 84.4656 474.119 84.2553C473.48 83.8044 472.592 83.9586 472.14 84.5959C471.919 84.9089 471.831 85.2903 471.904 85.6632C472.042 86.4419 472.781 86.9521 473.552 86.8256C474.172 86.7178 474.643 86.2194 474.718 85.5911L476.537 85.4958L476.686 88.3407C476.704 88.6735 476.437 88.9459 476.104 88.9633L472.519 89.1512C472.436 88.8111 472.237 88.5093 471.945 88.2985C471.631 88.0782 471.25 88.0013 470.886 88.0634C470.128 88.2323 469.626 88.9476 469.72 89.7177C469.858 90.4856 470.619 91.0055 471.367 90.8694C471.998 90.7502 472.468 90.2412 472.543 89.6129L476.128 89.425C476.72 89.394 477.18 88.9069 477.149 88.3165L476.796 81.5745" fill="#4451CA"/>
<path d="M517.51 87.1135C517.126 87.1336 516.686 87.1406 516.189 87.1346C515.709 87.1438 515.212 87.1378 514.698 87.1167C514.2 87.0947 513.718 87.0719 513.253 87.0482C512.803 87.0237 512.416 86.9799 512.092 86.9168L511.994 85.0473C512.411 85.0575 512.908 85.0635 513.485 85.0653C514.078 85.0663 514.702 85.0576 515.358 85.0393C516.03 85.0201 516.678 84.9941 517.301 84.9615C517.988 84.9255 518.592 84.8297 519.112 84.6743C519.649 84.518 520.06 84.2561 520.345 83.8887C520.646 83.5204 520.78 83.0167 520.746 82.3776L520.692 81.347C520.655 80.628 520.426 80.0872 520.007 79.7247C519.603 79.3613 519.002 79.2006 518.203 79.2424L516.405 79.3366C514.871 79.417 513.663 79.1439 512.781 78.5172C511.915 77.8896 511.44 76.761 511.354 75.1312L511.304 74.1725C511.215 72.4789 511.607 71.2487 512.48 70.4819C513.369 69.6984 514.66 69.2622 516.353 69.1734C516.913 69.1441 517.513 69.1447 518.156 69.1751C518.797 69.1895 519.424 69.2208 520.035 69.2689C520.647 69.3169 521.154 69.3704 521.558 69.4294L521.656 71.2988C520.934 71.2886 520.125 71.2829 519.228 71.2819C518.345 71.264 517.513 71.2756 516.73 71.3167C516.059 71.3518 515.48 71.4623 514.993 71.648C514.521 71.8169 514.159 72.1003 513.908 72.498C513.672 72.8948 513.573 73.4448 513.61 74.1478L513.648 74.8668C513.693 75.7297 513.956 76.3167 514.437 76.628C514.918 76.9392 515.574 77.0731 516.405 77.0295L518.346 76.9278C519.352 76.875 520.185 77.0156 520.843 77.3496C521.518 77.6828 522.031 78.1606 522.384 78.783C522.738 79.4053 522.935 80.124 522.978 80.9388L523.043 82.1851C523.109 83.4314 522.903 84.4035 522.427 85.1014C521.951 85.7993 521.288 86.2986 520.439 86.5995C519.589 86.8844 518.612 87.0557 517.51 87.1135ZM530.045 86.4565C528.847 86.5193 527.896 86.2488 527.191 85.6448C526.502 85.024 526.122 84.0506 526.053 82.7244L525.579 73.6888L527.976 73.5632L528.415 81.9517C528.466 82.9104 528.715 83.5462 529.164 83.8591C529.629 84.1712 530.261 84.3063 531.06 84.2644C531.699 84.2309 532.301 84.1032 532.866 83.8814C533.447 83.6427 534.007 83.3329 534.548 82.9521L534.039 73.2454L536.436 73.1198L537.108 85.9422L535.191 86.0427L534.64 84.7017C534.038 85.1338 533.337 85.523 532.538 85.8693C531.755 86.2147 530.924 86.4105 530.045 86.4565ZM545.189 85.6629C544.438 85.7023 543.738 85.6428 543.089 85.4846C542.455 85.3095 541.885 84.9949 541.381 84.5407C540.892 84.0856 540.498 83.4413 540.198 82.6079C539.898 81.7745 539.714 80.7106 539.646 79.4164C539.577 78.0902 539.64 76.9974 539.835 76.138C540.029 75.2627 540.338 74.5736 540.76 74.0708C541.197 73.5512 541.739 73.1784 542.384 72.9523C543.029 72.7262 543.759 72.5918 544.574 72.5491C545.245 72.514 545.949 72.5091 546.688 72.5345C547.442 72.559 548.175 72.6248 548.885 72.7317L548.959 74.1458L545.34 74.3355C544.557 74.3765 543.909 74.5386 543.395 74.8219C542.88 75.0892 542.514 75.5811 542.295 76.2975C542.075 76.998 542 78.0033 542.068 79.3135C542.134 80.5758 542.321 81.5433 542.629 82.2161C542.936 82.873 543.351 83.3079 543.875 83.5207C544.415 83.7328 545.076 83.8183 545.859 83.7772L549.646 83.5788L549.717 84.9449C549.355 85.06 548.92 85.1709 548.413 85.2776C547.921 85.3675 547.396 85.4431 546.839 85.5043C546.298 85.5807 545.748 85.6336 545.189 85.6629ZM556.938 85.0471C556.187 85.0865 555.487 85.027 554.838 84.8688C554.204 84.6937 553.635 84.3791 553.13 83.9249C552.642 83.4698 552.248 82.8256 551.948 81.9921C551.648 81.1587 551.464 80.0949 551.396 78.8006C551.326 77.4745 551.389 76.3817 551.584 75.5223C551.779 74.6469 552.087 73.9578 552.51 73.455C552.947 72.9354 553.488 72.5626 554.133 72.3365C554.778 72.1104 555.508 71.9761 556.323 71.9334C556.994 71.8982 557.699 71.8933 558.437 71.9187C559.192 71.9432 559.924 72.009 560.635 72.116L560.709 73.53L557.09 73.7197C556.307 73.7607 555.658 73.9229 555.144 74.2062C554.63 74.4735 554.263 74.9653 554.044 75.6818C553.825 76.3822 553.749 77.3875 553.818 78.6977C553.884 79.96 554.071 80.9276 554.378 81.6004C554.685 82.2572 555.101 82.6921 555.624 82.905C556.164 83.117 556.826 83.2025 557.609 83.1615L561.395 82.963L561.467 84.3291C561.104 84.4443 560.67 84.5552 560.163 84.6619C559.671 84.7517 559.146 84.8273 558.588 84.8886C558.048 84.965 557.498 85.0178 556.938 85.0471ZM568.975 84.4163C567.617 84.4875 566.52 84.3447 565.684 83.9879C564.865 83.6304 564.254 82.9894 563.853 82.0651C563.468 81.124 563.231 79.8146 563.143 78.1369C563.053 76.4273 563.151 75.0923 563.438 74.132C563.739 73.1549 564.279 72.4537 565.058 72.0284C565.837 71.603 566.905 71.3548 568.263 71.2836C569.446 71.2216 570.403 71.2996 571.135 71.5176C571.883 71.7187 572.441 72.1301 572.81 72.7516C573.194 73.3563 573.416 74.2179 573.474 75.3364C573.515 76.1193 573.388 76.7508 573.093 77.2309C572.814 77.7102 572.392 78.0688 571.828 78.3067C571.279 78.5437 570.614 78.6827 569.831 78.7237L565.588 78.9461C565.653 79.8719 565.796 80.6095 566.017 81.1587C566.253 81.691 566.633 82.0716 567.158 82.3005C567.698 82.5125 568.471 82.5922 569.478 82.5394L573.48 82.3297L573.556 83.7677C572.874 83.8996 572.175 84.0243 571.46 84.1419C570.746 84.2754 569.918 84.3669 568.975 84.4163ZM565.485 77.4374L569.536 77.2251C570.175 77.1916 570.64 77.0471 570.931 76.7915C571.222 76.5359 571.351 76.0886 571.317 75.4494C571.284 74.8103 571.162 74.312 570.951 73.9546C570.756 73.5963 570.446 73.3482 570.022 73.2101C569.599 73.0721 569.043 73.0211 568.356 73.0571C567.573 73.0982 566.956 73.2507 566.505 73.5146C566.071 73.7777 565.773 74.2179 565.613 74.8351C565.469 75.4515 565.427 76.3189 565.485 77.4374ZM581.919 83.738C580.56 83.8091 579.463 83.6664 578.628 83.3096C577.808 82.952 577.197 82.3111 576.797 81.3868C576.411 80.4457 576.174 79.1363 576.086 77.4586C575.996 75.749 576.095 74.414 576.381 73.4537C576.682 72.4766 577.222 71.7754 578.001 71.35C578.78 70.9247 579.848 70.6764 581.206 70.6053C582.389 70.5433 583.346 70.6213 584.078 70.8393C584.826 71.0404 585.384 71.4518 585.753 72.0733C586.138 72.678 586.359 73.5396 586.418 74.6581C586.459 75.441 586.331 76.0725 586.036 76.5526C585.757 77.0319 585.335 77.3905 584.771 77.6283C584.222 77.8654 583.557 78.0044 582.774 78.0454L578.532 78.2677C578.596 79.1936 578.739 79.9312 578.96 80.4803C579.196 81.0127 579.577 81.3933 580.101 81.6222C580.641 81.8342 581.414 81.9139 582.421 81.8611L586.424 81.6513L586.499 83.0894C585.817 83.2212 585.118 83.346 584.404 83.4635C583.69 83.5971 582.861 83.6886 581.919 83.738ZM578.429 76.7591L582.479 76.5468C583.118 76.5133 583.583 76.3688 583.874 76.1132C584.165 75.8576 584.294 75.4102 584.261 74.7711C584.227 74.132 584.105 73.6337 583.894 73.2763C583.699 72.918 583.389 72.6698 582.966 72.5318C582.542 72.3938 581.986 72.3428 581.299 72.3788C580.516 72.4198 579.899 72.5723 579.449 72.8363C579.014 73.0994 578.716 73.5396 578.557 74.1568C578.413 74.7732 578.37 75.6406 578.429 76.7591ZM593.975 83.1061C592.936 83.1606 592.062 82.9821 591.351 82.5707C590.657 82.1585 590.117 81.4898 589.732 80.5647C589.346 79.6236 589.114 78.4021 589.035 76.9001C588.953 75.3183 589.037 74.0321 589.29 73.0415C589.557 72.0341 590.031 71.2883 590.711 70.8041C591.389 70.3039 592.328 70.0224 593.526 69.9596C594.197 69.9244 594.864 69.9616 595.527 70.071C596.206 70.1797 596.797 70.3089 597.302 70.4587L596.988 64.4669L599.384 64.3413L600.343 82.6282L598.377 82.7312L597.879 81.4836C597.635 81.7206 597.296 81.9628 596.86 82.2099C596.424 82.4411 595.953 82.6419 595.45 82.8125C594.946 82.9831 594.454 83.081 593.975 83.1061ZM594.639 81.1006C595.294 81.0663 595.88 80.9315 596.396 80.6961C596.929 80.4599 597.397 80.2191 597.8 79.9736L597.392 72.1843C596.889 72.0665 596.395 71.9642 595.91 71.8775C595.44 71.7739 594.917 71.7372 594.342 71.7674C593.591 71.8067 592.991 71.9744 592.542 72.2703C592.093 72.5662 591.782 73.0631 591.611 73.7611C591.439 74.459 591.385 75.4231 591.45 76.6534C591.509 77.7879 591.653 78.6936 591.881 79.3706C592.108 80.0316 592.444 80.4947 592.891 80.7597C593.353 81.0238 593.936 81.1375 594.639 81.1006Z" fill="#4451CA"/>
<path d="M612.548 68.2309C612.746 66.8612 614.684 66.7596 615.024 68.1012C615.245 68.975 616.284 69.3429 617.005 68.8029C618.113 67.9739 619.556 69.2729 618.848 70.4615C618.386 71.2358 618.86 72.2305 619.753 72.359C621.122 72.5563 621.224 74.495 619.882 74.8343C619.008 75.0554 618.641 76.0943 619.181 76.8161C620.01 77.9241 618.711 79.3667 617.522 78.6581C616.748 78.1965 615.753 78.671 615.624 79.5632C615.427 80.9328 613.488 81.0344 613.149 79.6929C612.928 78.819 611.889 78.4511 611.167 78.9911C610.059 79.8201 608.617 78.5211 609.325 77.3325C609.787 76.5583 609.313 75.5636 608.42 75.435C607.051 75.2378 606.949 73.2991 608.291 72.9597C609.164 72.7386 609.532 71.6998 608.992 70.978C608.163 69.87 609.462 68.4273 610.651 69.1359C611.425 69.5975 612.42 69.1231 612.548 68.2309Z" fill="#C5C9EF"/>
<rect x="648.99" y="52.0405" width="40" height="40" rx="20" transform="rotate(-3 648.99 52.0405)" fill="#ECEEFA"/>
<path d="M680.126 71.726C679.45 70.9756 678.452 70.4788 677.101 70.2375C677.957 69.8912 678.603 69.4375 679.028 68.8985C679.676 68.0787 679.96 67.1272 679.903 66.0429C679.835 64.7332 679.304 63.6737 678.3 62.8436C677.307 62.0129 675.906 61.6449 674.129 61.738L665.388 62.1961C664.311 62.2526 663.474 63.1684 663.531 64.2527L664.282 78.5848C664.345 79.7765 665.364 80.6919 666.559 80.6293L674.256 80.2259C674.676 80.2039 675.533 80.0729 676.805 79.834C677.768 79.6651 678.478 79.4233 678.948 79.1188C679.7 78.638 680.271 77.9945 680.683 77.2086C681.084 76.4232 681.265 75.5525 681.215 74.597C681.154 73.4268 680.791 72.4662 680.126 71.726ZM671.561 78.4402C668.407 78.6055 665.782 77.3328 665.69 75.5722C665.677 75.3252 665.707 75.0761 665.791 74.8348C666.458 76.2209 668.773 77.1545 671.486 77.0123C674.199 76.8702 676.405 75.6996 676.912 74.252C677.021 74.4831 677.088 74.7272 677.101 74.9741C677.193 76.7348 674.715 78.2749 671.561 78.4402ZM671.341 74.2425C668.187 74.4078 665.561 73.1244 665.47 71.3745C665.457 71.1276 665.487 70.8784 665.571 70.6372C666.238 72.0232 668.553 72.9569 671.266 72.8147C673.979 72.6725 676.185 71.5019 676.692 70.0544C676.801 70.2855 676.868 70.5296 676.881 70.7765C676.972 72.5264 674.495 74.0772 671.341 74.2425ZM671.137 70.3455C667.983 70.5108 665.346 69.228 665.255 67.4781C665.163 65.7281 667.65 64.166 670.804 64.0007C673.959 63.8354 676.585 65.1295 676.677 66.8795C676.768 68.6294 674.291 70.1802 671.137 70.3455Z" fill="#4451CA"/>
<path d="M664.524 71.2627L664.17 64.51C664.139 63.9195 663.631 63.4833 663.039 63.5143L659.454 63.7022C659.284 62.936 658.525 62.4483 657.756 62.6177C657.073 62.7612 656.598 63.3782 656.635 64.076C656.676 64.8597 657.344 65.4598 658.13 65.4294C658.83 65.3927 659.396 64.8678 659.479 64.1745L663.064 63.9867C663.397 63.9692 663.68 64.2127 663.708 64.545L663.857 67.3899L661.984 67.4881C661.804 66.7224 661.045 66.2455 660.277 66.4257C659.605 66.5793 659.13 67.1963 659.177 67.8935C659.218 68.6772 659.897 69.2768 660.683 69.2249C661.382 69.1882 661.948 68.6526 662.02 67.9599L663.893 67.8617L664.073 71.2971L659.864 71.5177C659.694 70.7515 658.934 70.2638 658.166 70.4333C657.483 70.5767 657.008 71.1937 657.044 71.8808C657.047 71.9452 657.05 71.9989 657.064 72.0627C657.201 72.8306 657.941 73.3517 658.711 73.2144C659.332 73.1065 659.801 72.5975 659.877 71.9799L664.075 71.7599L664.255 75.1953L662.436 75.2906C662.364 74.9392 662.164 74.6267 661.861 74.4165C661.222 73.9655 660.335 74.1197 659.882 74.757C659.661 75.07 659.573 75.4514 659.647 75.8244C659.785 76.603 660.524 77.1133 661.294 76.9868C661.915 76.8789 662.385 76.3806 662.46 75.7523L664.28 75.6569L664.429 78.5019C664.446 78.8347 664.18 79.107 663.846 79.1245L660.261 79.3124C660.179 78.9722 659.979 78.6705 659.688 78.4597C659.374 78.2393 658.992 78.1624 658.628 78.2245C657.871 78.3934 657.368 79.1087 657.463 79.8789C657.6 80.6468 658.361 81.1666 659.11 81.0305C659.741 80.9114 660.21 80.4023 660.285 79.774L663.87 79.5861C664.462 79.5551 664.923 79.0681 664.892 78.4776L664.538 71.7356" fill="#4451CA"/>
<path d="M704.981 77.1446L698.159 59.7899L700.652 59.6592L706.381 74.4998L710.55 59.1405L713.019 59.0111L708.049 76.9839L704.981 77.1446ZM715.862 61.5538C715.574 61.5689 715.423 61.4406 715.409 61.169L715.303 59.1558C715.288 58.8682 715.425 58.7168 715.712 58.7017L717.486 58.6088C717.614 58.6021 717.712 58.637 717.78 58.7136C717.848 58.7901 717.885 58.8923 717.892 59.0201L717.997 61.0333C718.012 61.305 717.891 61.4475 717.635 61.4609L715.862 61.5538ZM716.311 76.5509L715.639 63.7285L718.036 63.6028L718.708 76.4253L716.311 76.5509ZM726.558 76.158C726.223 76.1756 725.823 76.1886 725.359 76.1969C724.894 76.2052 724.413 76.1983 723.916 76.1764C723.435 76.1695 722.985 76.153 722.567 76.1269C722.165 76.0999 721.843 76.0607 721.6 76.0093L721.524 74.5713L726.917 74.2887C727.38 74.2644 727.778 74.2115 728.11 74.13C728.442 74.0325 728.689 73.8594 728.852 73.6105C729.031 73.3608 729.109 73.0042 729.084 72.5409L729.057 72.0136C729.032 71.5342 728.852 71.1671 728.518 70.9123C728.185 70.6574 727.65 70.5492 726.915 70.5877L725.046 70.6857C724.295 70.725 723.619 70.6643 723.017 70.5036C722.431 70.326 721.958 70.0064 721.597 69.5446C721.253 69.082 721.059 68.4433 721.016 67.6284L720.98 66.9333C720.937 66.1185 721.054 65.4394 721.33 64.8962C721.622 64.3522 722.104 63.9344 722.778 63.6427C723.451 63.3351 724.355 63.1515 725.489 63.0921C725.968 63.067 726.497 63.0633 727.075 63.0811C727.667 63.0821 728.245 63.0998 728.808 63.1344C729.37 63.1691 729.821 63.2175 730.161 63.2798L730.237 64.7178L725.156 64.9841C724.452 65.021 723.916 65.1693 723.545 65.429C723.19 65.688 723.03 66.153 723.065 66.8241L723.09 67.3034C723.112 67.7188 723.216 68.0338 723.404 68.2483C723.591 68.4628 723.847 68.5936 724.17 68.6407C724.508 68.6871 724.902 68.6985 725.349 68.6751L727.266 68.5746C728.481 68.5109 729.414 68.7504 730.068 69.2929C730.72 69.8195 731.073 70.5941 731.127 71.6167L731.178 72.5994C731.224 73.4622 731.059 74.1437 730.685 74.644C730.31 75.1443 729.769 75.5091 729.06 75.7385C728.367 75.9671 727.533 76.1069 726.558 76.158ZM737.846 75.5665C736.648 75.6293 735.696 75.3587 734.992 74.7547C734.302 74.134 733.923 73.1605 733.853 71.8343L733.38 62.7987L735.777 62.6731L736.216 71.0616C736.266 72.0203 736.516 72.6561 736.965 72.969C737.43 73.2811 738.062 73.4162 738.861 73.3743C739.5 73.3408 740.102 73.2132 740.667 72.9913C741.248 72.7526 741.808 72.4428 742.349 72.062L741.84 62.3553L744.237 62.2297L744.909 75.0521L742.992 75.1526L742.441 73.8116C741.838 74.2437 741.138 74.6329 740.339 74.9792C739.556 75.3246 738.725 75.5204 737.846 75.5665ZM750.785 74.8884C749.842 74.9378 749.044 74.6992 748.392 74.1726C747.755 73.6292 747.41 72.8542 747.357 71.8476L747.304 70.841C747.252 69.8503 747.545 69.0259 748.184 68.3676C748.837 67.6924 749.851 67.3189 751.225 67.2468L755.228 67.0371L755.158 65.6949C755.132 65.1996 755.022 64.7888 754.829 64.4624C754.65 64.1193 754.333 63.8716 753.876 63.7193C753.42 63.5669 752.752 63.5138 751.873 63.5599L747.943 63.7659L747.869 62.3518C748.437 62.1938 749.102 62.0468 749.864 61.9108C750.642 61.7739 751.55 61.6702 752.588 61.5998C753.642 61.5445 754.528 61.6343 755.245 61.8691C755.978 62.087 756.536 62.4904 756.919 63.0791C757.302 63.6519 757.519 64.4336 757.571 65.4243L758.039 74.364L756.146 74.4632L755.664 73.0705C755.572 73.1394 755.378 73.2697 755.084 73.4614C754.789 73.6371 754.406 73.8334 753.937 74.0502C753.484 74.2663 752.981 74.4528 752.428 74.61C751.892 74.7663 751.344 74.8591 750.785 74.8884ZM751.795 73.081C752.036 73.0844 752.314 73.0458 752.631 72.9651C752.963 72.8836 753.287 72.7946 753.602 72.6979C753.932 72.5845 754.231 72.4727 754.498 72.3626C754.78 72.2517 755.008 72.1596 755.18 72.0865C755.368 71.9966 755.469 71.9432 755.484 71.9264L755.291 68.2354L751.943 68.5551C751.114 68.6466 750.526 68.8857 750.178 69.2724C749.846 69.6583 749.695 70.1469 749.726 70.7381L749.756 71.3133C749.78 71.7767 749.896 72.1471 750.103 72.4247C750.309 72.6863 750.558 72.8654 750.852 72.9622C751.161 73.0581 751.476 73.0977 751.795 73.081ZM764.869 74.0301C764.086 74.0711 763.415 73.9701 762.858 73.7269C762.316 73.4829 761.894 73.0724 761.592 72.4955C761.304 71.9017 761.134 71.0935 761.08 70.0709L760.338 55.9064L762.735 55.7808L763.461 69.6338C763.496 70.3048 763.587 70.8208 763.734 71.1816C763.896 71.5256 764.101 71.7632 764.348 71.8944C764.611 72.0248 764.912 72.1052 765.25 72.1355L766.456 72.2165L766.546 73.9422L764.869 74.0301ZM768.032 58.8197C767.745 58.8348 767.594 58.7065 767.579 58.4349L767.474 56.4216C767.459 56.134 767.595 55.9827 767.883 55.9676L769.656 55.8746C769.784 55.8679 769.882 55.9029 769.95 55.9794C770.018 56.056 770.056 56.1581 770.062 56.286L770.168 58.2992C770.182 58.5708 770.061 58.7133 769.806 58.7267L768.032 58.8197ZM768.482 73.8167L767.81 60.9943L770.206 60.8687L770.878 73.6911L768.482 73.8167ZM773.736 73.5413L773.643 71.7678L780.142 62.3187L772.975 62.6943L772.872 60.729L782.843 60.2065L782.937 62.004L776.415 71.4543L783.413 71.0875L783.515 73.0289L773.736 73.5413ZM791.241 72.7682C789.883 72.8393 788.786 72.6966 787.95 72.3398C787.13 71.9822 786.52 71.3413 786.119 70.417C785.733 69.4759 785.496 68.1665 785.408 66.4888C785.319 64.7792 785.417 63.4442 785.703 62.4839C786.004 61.5068 786.544 60.8056 787.323 60.3802C788.102 59.9549 789.17 59.7066 790.528 59.6354C791.711 59.5735 792.668 59.6515 793.401 59.8694C794.148 60.0706 794.707 60.4819 795.076 61.1035C795.46 61.7082 795.681 62.5698 795.74 63.6883C795.781 64.4712 795.654 65.1027 795.358 65.5828C795.079 66.0621 794.657 66.4207 794.093 66.6585C793.545 66.8955 792.879 67.0346 792.096 67.0756L787.854 67.2979C787.918 68.2238 788.061 68.9613 788.282 69.5105C788.518 70.0429 788.899 70.4235 789.424 70.6524C789.963 70.8644 790.737 70.944 791.743 70.8913L795.746 70.6815L795.821 72.1196C795.139 72.2514 794.441 72.3762 793.726 72.4937C793.012 72.6273 792.183 72.7188 791.241 72.7682ZM787.751 65.7892L791.801 65.577C792.44 65.5435 792.905 65.3989 793.196 65.1434C793.487 64.8878 793.616 64.4404 793.583 63.8013C793.549 63.1622 793.427 62.6639 793.216 62.3064C793.021 61.9482 792.712 61.7 792.288 61.562C791.864 61.424 791.309 61.373 790.621 61.409C789.839 61.45 789.222 61.6025 788.771 61.8665C788.336 62.1296 788.039 62.5698 787.879 63.187C787.735 63.8034 787.692 64.6708 787.751 65.7892Z" fill="#4451CA"/>
<path d="M808.28 57.9731C808.477 56.6034 810.416 56.5018 810.755 57.8433C810.976 58.7172 812.015 59.0851 812.737 58.5451C813.845 57.7161 815.288 59.0151 814.579 60.2037C814.117 60.978 814.592 61.9727 815.484 62.1012C816.854 62.2985 816.955 64.2372 815.614 64.5765C814.74 64.7976 814.372 65.8365 814.912 66.5582C815.741 67.6662 814.442 69.1089 813.253 68.4003C812.479 67.9387 811.484 68.4132 811.356 69.3054C811.159 70.675 809.22 70.7766 808.881 69.4351C808.659 68.5612 807.621 68.1933 806.899 68.7333C805.791 69.5623 804.348 68.2633 805.057 67.0747C805.518 66.3005 805.044 65.3058 804.152 65.1772C802.782 64.9799 802.68 63.0413 804.022 62.7019C804.896 62.4808 805.264 61.442 804.724 60.7202C803.895 59.6122 805.194 58.1695 806.382 58.8781C807.157 59.3397 808.151 58.8653 808.28 57.9731Z" fill="#C5C9EF"/>
<rect x="844.722" y="41.7827" width="40" height="40" rx="20" transform="rotate(-3 844.722 41.7827)" fill="#ECEEFA"/>
<path d="M875.857 61.4682C875.181 60.7178 874.183 60.221 872.832 59.9797C873.688 59.6334 874.334 59.1797 874.759 58.6407C875.407 57.8209 875.692 56.8694 875.635 55.7851C875.566 54.4753 875.036 53.4159 874.032 52.5858C873.038 51.7551 871.637 51.3871 869.861 51.4802L861.119 51.9383C860.043 51.9948 859.206 52.9106 859.263 53.9949L860.014 68.327C860.076 69.5187 861.096 70.4341 862.291 70.3715L869.988 69.9681C870.408 69.9461 871.264 69.815 872.536 69.5761C873.499 69.4073 874.21 69.1655 874.679 68.861C875.431 68.3802 876.002 67.7367 876.414 66.9507C876.816 66.1654 876.997 65.2947 876.947 64.3392C876.885 63.169 876.522 62.2084 875.857 61.4682ZM867.293 68.1824C864.138 68.3477 861.513 67.075 861.421 65.3144C861.408 65.0674 861.438 64.8183 861.523 64.577C862.189 65.9631 864.505 66.8967 867.218 66.7545C869.931 66.6123 872.136 65.4418 872.643 63.9942C872.752 64.2253 872.819 64.4694 872.832 64.7163C872.924 66.477 870.447 68.017 867.293 68.1824ZM867.073 63.9847C863.918 64.15 861.293 62.8666 861.201 61.1167C861.188 60.8698 861.218 60.6206 861.303 60.3794C861.969 61.7654 864.285 62.699 866.998 62.5569C869.711 62.4147 871.916 61.2441 872.423 59.7966C872.532 60.0277 872.599 60.2718 872.612 60.5187C872.704 62.2686 870.227 63.8194 867.073 63.9847ZM866.868 60.0877C863.714 60.253 861.078 58.9702 860.986 57.2202C860.894 55.4703 863.382 53.9082 866.536 53.7429C869.69 53.5776 872.316 54.8717 872.408 56.6216C872.5 58.3716 870.023 59.9224 866.868 60.0877Z" fill="#4451CA"/>
<path d="M860.256 61.0049L859.902 54.2521C859.871 53.6617 859.362 53.2254 858.77 53.2565L855.185 53.4443C855.016 52.6782 854.256 52.1905 853.488 52.3599C852.804 52.5034 852.329 53.1204 852.366 53.8182C852.407 54.6019 853.075 55.202 853.862 55.1715C854.562 55.1349 855.128 54.61 855.21 53.9167L858.795 53.7288C859.129 53.7114 859.411 53.9549 859.44 54.2871L859.589 57.1321L857.715 57.2303C857.535 56.4646 856.776 55.9877 856.008 56.1679C855.336 56.3215 854.861 56.9385 854.908 57.6357C854.95 58.4194 855.629 59.019 856.414 58.9671C857.114 58.9304 857.679 58.3948 857.751 57.7021L859.624 57.6039L859.804 61.0393L855.595 61.2599C855.425 60.4937 854.666 60.006 853.897 60.1755C853.214 60.3189 852.739 60.9359 852.775 61.623C852.778 61.6874 852.781 61.7411 852.795 61.8049C852.933 62.5728 853.672 63.0938 854.443 62.9566C855.063 62.8487 855.533 62.3397 855.608 61.7221L859.807 61.5021L859.987 64.9375L858.168 65.0328C858.095 64.6814 857.895 64.3689 857.593 64.1587C856.954 63.7077 856.066 63.8619 855.614 64.4992C855.393 64.8122 855.305 65.1936 855.378 65.5666C855.516 66.3452 856.255 66.8555 857.026 66.729C857.646 66.6211 858.117 66.1228 858.192 65.4945L860.011 65.3991L860.16 68.2441C860.178 68.5769 859.911 68.8492 859.578 68.8667L855.993 69.0545C855.91 68.7144 855.711 68.4126 855.419 68.2019C855.105 67.9815 854.723 67.9046 854.36 67.9667C853.602 68.1356 853.1 68.8509 853.194 69.621C853.332 70.3889 854.093 70.9088 854.841 70.7727C855.472 70.6535 855.942 70.1445 856.017 69.5162L859.602 69.3283C860.194 69.2973 860.654 68.8103 860.623 68.2198L860.27 61.4778" fill="#4451CA"/>
<path d="M894.817 67.1958L899.787 49.2231L902.855 49.0623L909.676 66.4171L907.16 66.5489L905.359 62.0049L898.601 62.3591L897.309 67.0652L894.817 67.1958ZM899.062 60.148L904.646 59.8553L901.407 51.253L899.062 60.148ZM912.043 66.293L911.371 53.4706L913.288 53.3702L913.84 54.7351C914.394 54.2896 915.053 53.8865 915.82 53.5259C916.601 53.1485 917.415 52.9376 918.262 52.8932C919.22 52.8429 919.998 53.0105 920.595 53.3958C921.207 53.7642 921.659 54.2773 921.95 54.935C922.241 55.5927 922.406 56.313 922.447 57.0959L922.9 65.724L920.503 65.8497L920.066 57.5091C920.039 56.9978 919.912 56.5638 919.685 56.2072C919.473 55.8338 919.186 55.5525 918.824 55.3632C918.461 55.1739 918.025 55.0926 917.513 55.1194C917.034 55.1445 916.589 55.2159 916.179 55.3336C915.784 55.4504 915.408 55.6063 915.05 55.8013C914.69 55.9803 914.317 56.2002 913.931 56.4608L914.439 66.1674L912.043 66.293ZM928.751 65.5616C927.809 65.611 927.011 65.3724 926.359 64.8458C925.721 64.3024 925.376 63.5274 925.324 62.5208L925.271 61.5142C925.219 60.5235 925.512 59.6991 926.151 59.0407C926.804 58.3656 927.818 57.992 929.192 57.92L933.195 57.7103L933.124 56.3681C933.098 55.8728 932.989 55.462 932.795 55.1356C932.617 54.7925 932.3 54.5448 931.843 54.3925C931.387 54.2401 930.719 54.187 929.84 54.2331L925.909 54.4391L925.835 53.025C926.404 52.867 927.069 52.72 927.831 52.584C928.609 52.4471 929.517 52.3434 930.554 52.273C931.609 52.2177 932.495 52.3075 933.212 52.5423C933.945 52.7602 934.502 53.1636 934.886 53.7523C935.268 54.3251 935.486 55.1068 935.537 56.0974L936.006 65.0372L934.113 65.1364L933.631 63.7437C933.538 63.8126 933.345 63.9429 933.051 64.1346C932.755 64.3103 932.373 64.5066 931.904 64.7234C931.451 64.9395 930.948 65.126 930.395 65.2832C929.859 65.4395 929.311 65.5323 928.751 65.5616ZM929.762 63.7542C930.003 63.7576 930.281 63.719 930.597 63.6383C930.93 63.5568 931.253 63.4678 931.569 63.3711C931.899 63.2577 932.198 63.1459 932.464 63.0358C932.747 62.9248 932.974 62.8328 933.147 62.7597C933.334 62.6698 933.436 62.6164 933.451 62.5996L933.257 58.9086L929.91 59.2283C929.081 59.3198 928.493 59.5589 928.145 59.9456C927.812 60.3315 927.662 60.8201 927.693 61.4113L927.723 61.9865C927.747 62.4499 927.863 62.8203 928.07 63.0979C928.276 63.3595 928.525 63.5386 928.819 63.6354C929.128 63.7313 929.443 63.7709 929.762 63.7542ZM942.835 64.7033C942.052 64.7443 941.382 64.6433 940.825 64.4001C940.283 64.1561 939.861 63.7456 939.559 63.1687C939.271 62.5749 939.101 61.7667 939.047 60.7441L938.305 46.5796L940.701 46.454L941.427 60.307C941.463 60.978 941.554 61.494 941.701 61.8548C941.863 62.1988 942.068 62.4364 942.315 62.5676C942.578 62.698 942.879 62.7784 943.217 62.8087L944.423 62.8897L944.513 64.6154L942.835 64.7033ZM950.365 69.9804L951.625 64.2186C951.113 64.2294 950.62 64.1511 950.147 63.9836C949.673 63.8002 949.24 63.4944 948.849 63.0663C948.473 62.6214 948.154 62.0213 947.89 61.2661L944.506 51.7341L947.023 51.6022L950.092 60.6459C950.259 61.0698 950.436 61.389 950.623 61.6035C950.827 61.8171 951.019 61.9673 951.2 62.0539C951.395 62.1238 951.566 62.1629 951.71 62.1713C951.855 62.1798 951.943 62.1832 951.975 62.1815L954.405 51.2153L956.873 51.0859L953.309 67.4469L952.283 69.88L950.365 69.9804ZM959.122 63.8257L959.029 62.0521L965.528 52.6031L958.362 52.9786L958.259 51.0133L968.229 50.4908L968.323 52.2884L961.801 61.7387L968.799 61.3719L968.901 63.3132L959.122 63.8257ZM976.627 63.0525C975.269 63.1237 974.172 62.9809 973.336 62.6242C972.516 62.2666 971.906 61.6256 971.505 60.7014C971.119 59.7603 970.882 58.4509 970.794 56.7732C970.705 55.0635 970.803 53.7285 971.089 52.7682C971.391 51.7911 971.931 51.0899 972.709 50.6646C973.488 50.2392 974.557 49.991 975.915 49.9198C977.097 49.8578 978.055 49.9358 978.787 50.1538C979.534 50.3549 980.093 50.7663 980.462 51.3878C980.846 51.9926 981.067 52.8541 981.126 53.9726C981.167 54.7555 981.04 55.3871 980.745 55.8672C980.465 56.3464 980.044 56.705 979.479 56.9429C978.931 57.1799 978.265 57.3189 977.482 57.36L973.24 57.5823C973.305 58.5082 973.447 59.2457 973.669 59.7949C973.905 60.3273 974.285 60.7079 974.81 60.9367C975.35 61.1488 976.123 61.2284 977.13 61.1756L981.132 60.9659L981.207 62.4039C980.525 62.5358 979.827 62.6605 979.112 62.7781C978.398 62.9116 977.57 63.0031 976.627 63.0525ZM973.137 56.0736L977.187 55.8613C977.827 55.8278 978.292 55.6833 978.583 55.4277C978.874 55.1721 979.002 54.7248 978.969 54.0857C978.935 53.4465 978.813 52.9482 978.602 52.5908C978.407 52.2325 978.098 51.9844 977.674 51.8464C977.25 51.7084 976.695 51.6574 976.008 51.6934C975.225 51.7344 974.608 51.8869 974.157 52.1508C973.722 52.414 973.425 52.8541 973.265 53.4713C973.121 54.0877 973.078 54.9551 973.137 56.0736Z" fill="#4451CA"/>
<path d="M993.026 48.2909C993.224 46.9213 995.162 46.8197 995.502 48.1612C995.723 49.0351 996.762 49.403 997.483 48.863C998.591 48.034 1000.03 49.333 999.326 50.5216C998.864 51.2958 999.338 52.2905 1000.23 52.4191C1001.6 52.6164 1001.7 54.555 1000.36 54.8944C999.486 55.1155 999.119 56.1543 999.659 56.8761C1000.49 57.9841 999.189 59.4268 998 58.7182C997.226 58.2566 996.231 58.731 996.102 59.6232C995.905 60.9929 993.967 61.0945 993.627 59.753C993.406 58.8791 992.367 58.5112 991.645 59.0512C990.537 59.8802 989.095 58.5812 989.803 57.3926C990.265 56.6183 989.791 55.6236 988.898 55.4951C987.529 55.2978 987.427 53.3591 988.769 53.0198C989.642 52.7987 990.01 51.7598 989.47 51.0381C988.641 49.9301 989.94 48.4874 991.129 49.196C991.903 49.6576 992.898 49.1831 993.026 48.2909Z" fill="#C5C9EF"/>
<rect x="1029.47" y="32.1006" width="40" height="40" rx="20" transform="rotate(-3 1029.47 32.1006)" fill="#ECEEFA"/>
<path d="M1060.6 51.7861C1059.93 51.0356 1058.93 50.5389 1057.58 50.2975C1058.43 49.9512 1059.08 49.4976 1059.51 48.9586C1060.15 48.1387 1060.44 47.1873 1060.38 46.103C1060.31 44.7932 1059.78 43.7337 1058.78 42.9036C1057.78 42.0729 1056.38 41.705 1054.61 41.7981L1045.87 42.2562C1044.79 42.3126 1043.95 43.2285 1044.01 44.3128L1044.76 58.6449C1044.82 59.8365 1045.84 60.752 1047.04 60.6893L1054.73 60.2859C1055.15 60.2639 1056.01 60.1329 1057.28 59.894C1058.25 59.7251 1058.96 59.4834 1059.43 59.1788C1060.18 58.6981 1060.75 58.0545 1061.16 57.2686C1061.56 56.4832 1061.74 55.6125 1061.69 54.6571C1061.63 53.4869 1061.27 52.5263 1060.6 51.7861ZM1052.04 58.5002C1048.88 58.6655 1046.26 57.3929 1046.17 55.6322C1046.15 55.3853 1046.18 55.1361 1046.27 54.8949C1046.94 56.2809 1049.25 57.2146 1051.96 57.0724C1054.68 56.9302 1056.88 55.7596 1057.39 54.3121C1057.5 54.5432 1057.57 54.7873 1057.58 55.0342C1057.67 56.7948 1055.19 58.3349 1052.04 58.5002ZM1051.82 54.3026C1048.66 54.4679 1046.04 53.1845 1045.95 51.4346C1045.93 51.1877 1045.96 50.9385 1046.05 50.6972C1046.72 52.0833 1049.03 53.0169 1051.74 52.8747C1054.46 52.7326 1056.66 51.562 1057.17 50.1144C1057.28 50.3455 1057.35 50.5896 1057.36 50.8366C1057.45 52.5865 1054.97 54.1373 1051.82 54.3026ZM1051.61 50.4055C1048.46 50.5709 1045.82 49.288 1045.73 47.5381C1045.64 45.7882 1048.13 44.2261 1051.28 44.0608C1054.44 43.8955 1057.06 45.1896 1057.15 46.9395C1057.25 48.6894 1054.77 50.2402 1051.61 50.4055Z" fill="#4451CA"/>
<path d="M1045 51.3227L1044.65 44.57C1044.62 43.9796 1044.11 43.5433 1043.52 43.5743L1039.93 43.7622C1039.76 42.996 1039 42.5083 1038.23 42.6778C1037.55 42.8213 1037.08 43.4382 1037.11 44.136C1037.15 44.9197 1037.82 45.5199 1038.61 45.4894C1039.31 45.4527 1039.87 44.9279 1039.96 44.2346L1043.54 44.0467C1043.88 44.0292 1044.16 44.2728 1044.19 44.605L1044.33 47.45L1042.46 47.5481C1042.28 46.7825 1041.52 46.3056 1040.75 46.4857C1040.08 46.6394 1039.61 47.2563 1039.65 47.9536C1039.7 48.7373 1040.38 49.3369 1041.16 49.2849C1041.86 49.2483 1042.43 48.7127 1042.5 48.0199L1044.37 47.9218L1044.55 51.3572L1040.34 51.5778C1040.17 50.8116 1039.41 50.3239 1038.64 50.4933C1037.96 50.6368 1037.49 51.2538 1037.52 51.9409C1037.52 52.0053 1037.53 52.059 1037.54 52.1228C1037.68 52.8907 1038.42 53.4117 1039.19 53.2745C1039.81 53.1666 1040.28 52.6575 1040.35 52.04L1044.55 51.8199L1044.73 55.2553L1042.91 55.3507C1042.84 54.9992 1042.64 54.6868 1042.34 54.4765C1041.7 54.0256 1040.81 54.1798 1040.36 54.8171C1040.14 55.1301 1040.05 55.5115 1040.12 55.8844C1040.26 56.663 1041 57.1733 1041.77 57.0468C1042.39 56.939 1042.86 56.4406 1042.94 55.8123L1044.76 55.717L1044.91 58.5619C1044.92 58.8947 1044.66 59.1671 1044.32 59.1845L1040.74 59.3724C1040.66 59.0323 1040.46 58.7305 1040.17 58.5197C1039.85 58.2993 1039.47 58.2225 1039.11 58.2846C1038.35 58.4535 1037.85 59.1688 1037.94 59.9389C1038.08 60.7068 1038.84 61.2267 1039.59 61.0906C1040.22 60.9714 1040.69 60.4624 1040.76 59.834L1044.35 59.6462C1044.94 59.6151 1045.4 59.1281 1045.37 58.5377L1045.02 51.7957" fill="#4451CA"/>
<path d="M1085.73 57.3347C1085.35 57.3548 1084.91 57.3618 1084.41 57.3558C1083.93 57.365 1083.43 57.359 1082.92 57.3378C1082.42 57.3159 1081.94 57.2931 1081.47 57.2694C1081.02 57.2449 1080.64 57.2011 1080.31 57.138L1080.21 55.2685C1080.63 55.2787 1081.13 55.2847 1081.71 55.2865C1082.3 55.2875 1082.92 55.2788 1083.58 55.2604C1084.25 55.2413 1084.9 55.2153 1085.52 55.1827C1086.21 55.1467 1086.81 55.0509 1087.33 54.8955C1087.87 54.7392 1088.28 54.4773 1088.57 54.1099C1088.87 53.7416 1089 53.2379 1088.97 52.5988L1088.91 51.5682C1088.87 50.8492 1088.65 50.3084 1088.23 49.9459C1087.82 49.5825 1087.22 49.4218 1086.42 49.4636L1084.63 49.5578C1083.09 49.6382 1081.88 49.3651 1081 48.7384C1080.14 48.1108 1079.66 46.9822 1079.57 45.3524L1079.52 44.3937C1079.44 42.7001 1079.83 41.4699 1080.7 40.7031C1081.59 39.9195 1082.88 39.4834 1084.57 39.3946C1085.13 39.3653 1085.73 39.3659 1086.38 39.3963C1087.02 39.4107 1087.64 39.442 1088.26 39.4901C1088.87 39.5381 1089.37 39.5916 1089.78 39.6506L1089.88 41.52C1089.15 41.5098 1088.35 41.5041 1087.45 41.5031C1086.57 41.4852 1085.73 41.4968 1084.95 41.5378C1084.28 41.573 1083.7 41.6835 1083.21 41.8692C1082.74 42.0381 1082.38 42.3215 1082.13 42.7192C1081.89 43.116 1081.79 43.666 1081.83 44.369L1081.87 45.088C1081.91 45.9509 1082.18 46.5379 1082.66 46.8491C1083.14 47.1604 1083.79 47.2943 1084.62 47.2507L1086.57 47.149C1087.57 47.0962 1088.41 47.2368 1089.06 47.5708C1089.74 47.904 1090.25 48.3818 1090.6 49.0041C1090.96 49.6265 1091.16 50.3452 1091.2 51.16L1091.26 52.4063C1091.33 53.6526 1091.12 54.6247 1090.65 55.3226C1090.17 56.0204 1089.51 56.5198 1088.66 56.8207C1087.81 57.1056 1086.83 57.2769 1085.73 57.3347ZM1098.27 56.6777C1097.07 56.7405 1096.12 56.47 1095.41 55.866C1094.72 55.2452 1094.34 54.2718 1094.27 52.9456L1093.8 43.91L1096.2 43.7844L1096.64 52.1729C1096.69 53.1315 1096.94 53.7674 1097.38 54.0803C1097.85 54.3924 1098.48 54.5275 1099.28 54.4856C1099.92 54.4521 1100.52 54.3244 1101.09 54.1026C1101.67 53.8639 1102.23 53.5541 1102.77 53.1733L1102.26 43.4666L1104.66 43.341L1105.33 56.1634L1103.41 56.2639L1102.86 54.9229C1102.26 55.355 1101.56 55.7442 1100.76 56.0905C1099.98 56.4359 1099.14 56.6317 1098.27 56.6777ZM1113.41 55.8841C1112.66 55.9234 1111.96 55.864 1111.31 55.7058C1110.67 55.5307 1110.11 55.2161 1109.6 54.7618C1109.11 54.3068 1108.72 53.6625 1108.42 52.8291C1108.12 51.9957 1107.93 50.9318 1107.87 49.6376C1107.8 48.3114 1107.86 47.2186 1108.06 46.3592C1108.25 45.4839 1108.56 44.7948 1108.98 44.292C1109.42 43.7724 1109.96 43.3995 1110.6 43.1735C1111.25 42.9474 1111.98 42.813 1112.79 42.7703C1113.46 42.7351 1114.17 42.7303 1114.91 42.7556C1115.66 42.7802 1116.39 42.846 1117.11 42.9529L1117.18 44.367L1113.56 44.5566C1112.78 44.5977 1112.13 44.7598 1111.62 45.0431C1111.1 45.3104 1110.73 45.8023 1110.51 46.5187C1110.3 47.2192 1110.22 48.2245 1110.29 49.5347C1110.35 50.797 1110.54 51.7645 1110.85 52.4373C1111.16 53.0942 1111.57 53.529 1112.1 53.7419C1112.63 53.954 1113.3 54.0395 1114.08 53.9984L1117.87 53.8L1117.94 55.1661C1117.58 55.2812 1117.14 55.3921 1116.63 55.4988C1116.14 55.5887 1115.62 55.6643 1115.06 55.7255C1114.52 55.8019 1113.97 55.8548 1113.41 55.8841ZM1125.16 55.2683C1124.41 55.3077 1123.71 55.2482 1123.06 55.09C1122.42 54.9149 1121.86 54.6003 1121.35 54.1461C1120.86 53.691 1120.47 53.0468 1120.17 52.2133C1119.87 51.3799 1119.68 50.3161 1119.62 49.0218C1119.55 47.6957 1119.61 46.6029 1119.8 45.7435C1120 44.8681 1120.31 44.179 1120.73 43.6762C1121.17 43.1566 1121.71 42.7838 1122.35 42.5577C1123 42.3316 1123.73 42.1973 1124.54 42.1545C1125.21 42.1194 1125.92 42.1145 1126.66 42.1399C1127.41 42.1644 1128.14 42.2302 1128.85 42.3372L1128.93 43.7512L1125.31 43.9409C1124.53 43.9819 1123.88 44.1441 1123.36 44.4273C1122.85 44.6947 1122.48 45.1865 1122.26 45.903C1122.04 46.6034 1121.97 47.6087 1122.04 48.9189C1122.1 50.1812 1122.29 51.1488 1122.6 51.8216C1122.91 52.4784 1123.32 52.9133 1123.84 53.1262C1124.38 53.3382 1125.05 53.4237 1125.83 53.3827L1129.62 53.1842L1129.69 54.5503C1129.32 54.6655 1128.89 54.7764 1128.38 54.8831C1127.89 54.9729 1127.37 55.0485 1126.81 55.1098C1126.27 55.1862 1125.72 55.239 1125.16 55.2683ZM1137.2 54.6375C1135.84 54.7087 1134.74 54.5659 1133.9 54.2091C1133.08 53.8516 1132.47 53.2106 1132.07 52.2863C1131.69 51.3452 1131.45 50.0358 1131.36 48.3581C1131.27 46.6485 1131.37 45.3135 1131.66 44.3532C1131.96 43.3761 1132.5 42.6749 1133.28 42.2495C1134.06 41.8242 1135.13 41.5759 1136.48 41.5048C1137.67 41.4428 1138.62 41.5208 1139.36 41.7388C1140.1 41.9399 1140.66 42.3513 1141.03 42.9728C1141.41 43.5775 1141.64 44.4391 1141.69 45.5576C1141.74 46.3405 1141.61 46.972 1141.31 47.4521C1141.03 47.9314 1140.61 48.29 1140.05 48.5278C1139.5 48.7649 1138.83 48.9039 1138.05 48.9449L1133.81 49.1672C1133.87 50.0931 1134.02 50.8307 1134.24 51.3799C1134.47 51.9122 1134.85 52.2928 1135.38 52.5217C1135.92 52.7337 1136.69 52.8134 1137.7 52.7606L1141.7 52.5509L1141.78 53.9889C1141.09 54.1208 1140.4 54.2455 1139.68 54.3631C1138.97 54.4966 1138.14 54.5881 1137.2 54.6375ZM1133.71 47.6586L1137.76 47.4463C1138.4 47.4128 1138.86 47.2683 1139.15 47.0127C1139.44 46.7571 1139.57 46.3098 1139.54 45.6706C1139.5 45.0315 1139.38 44.5332 1139.17 44.1758C1138.98 43.8175 1138.67 43.5693 1138.24 43.4313C1137.82 43.2933 1137.26 43.2423 1136.58 43.2783C1135.79 43.3194 1135.18 43.4719 1134.73 43.7358C1134.29 43.9989 1133.99 44.4391 1133.83 45.0563C1133.69 45.6727 1133.65 46.5401 1133.71 47.6586ZM1150.14 53.9592C1148.78 54.0303 1147.68 53.8876 1146.85 53.5308C1146.03 53.1732 1145.42 52.5323 1145.02 51.608C1144.63 50.6669 1144.39 49.3575 1144.31 47.6798C1144.22 45.9702 1144.31 44.6352 1144.6 43.6749C1144.9 42.6978 1145.44 41.9966 1146.22 41.5712C1147 41.1459 1148.07 40.8976 1149.43 40.8264C1150.61 40.7645 1151.57 40.8425 1152.3 41.0604C1153.05 41.2616 1153.6 41.6729 1153.97 42.2945C1154.36 42.8992 1154.58 43.7608 1154.64 44.8793C1154.68 45.6622 1154.55 46.2937 1154.26 46.7738C1153.98 47.2531 1153.56 47.6117 1152.99 47.8495C1152.44 48.0865 1151.78 48.2256 1150.99 48.2666L1146.75 48.4889C1146.82 49.4148 1146.96 50.1524 1147.18 50.7015C1147.42 51.2339 1147.8 51.6145 1148.32 51.8434C1148.86 52.0554 1149.63 52.135 1150.64 52.0823L1154.64 51.8725L1154.72 53.3106C1154.04 53.4424 1153.34 53.5672 1152.62 53.6847C1151.91 53.8183 1151.08 53.9098 1150.14 53.9592ZM1146.65 46.9803L1150.7 46.768C1151.34 46.7345 1151.8 46.5899 1152.09 46.3344C1152.39 46.0788 1152.51 45.6314 1152.48 44.9923C1152.45 44.3532 1152.32 43.8549 1152.11 43.4975C1151.92 43.1392 1151.61 42.891 1151.19 42.753C1150.76 42.615 1150.21 42.564 1149.52 42.6C1148.74 42.641 1148.12 42.7935 1147.67 43.0575C1147.23 43.3206 1146.94 43.7608 1146.78 44.378C1146.63 44.9944 1146.59 45.8618 1146.65 46.9803ZM1162.2 53.3273C1161.16 53.3817 1160.28 53.2033 1159.57 52.7919C1158.88 52.3797 1158.34 51.711 1157.95 50.7859C1157.57 49.8448 1157.33 48.6233 1157.26 47.1213C1157.17 45.5395 1157.26 44.2533 1157.51 43.2627C1157.78 42.2553 1158.25 41.5095 1158.93 41.0253C1159.61 40.5251 1160.55 40.2436 1161.75 40.1808C1162.42 40.1456 1163.08 40.1828 1163.75 40.2922C1164.43 40.4009 1165.02 40.5301 1165.52 40.6799L1165.21 34.6881L1167.6 34.5625L1168.56 52.8494L1166.6 52.9524L1166.1 51.7047C1165.86 51.9418 1165.52 52.184 1165.08 52.4311C1164.64 52.6623 1164.17 52.8631 1163.67 53.0337C1163.17 53.2043 1162.67 53.3022 1162.2 53.3273ZM1162.86 51.3218C1163.51 51.2875 1164.1 51.1526 1164.62 50.9173C1165.15 50.6811 1165.62 50.4403 1166.02 50.1948L1165.61 42.4055C1165.11 42.2877 1164.62 42.1854 1164.13 42.0987C1163.66 41.9951 1163.14 41.9584 1162.56 41.9886C1161.81 42.0279 1161.21 42.1956 1160.76 42.4915C1160.31 42.7874 1160 43.2843 1159.83 43.9822C1159.66 44.6802 1159.61 45.6443 1159.67 46.8746C1159.73 48.0091 1159.87 48.9148 1160.1 49.5918C1160.33 50.2528 1160.66 50.7159 1161.11 50.9808C1161.57 51.245 1162.16 51.3587 1162.86 51.3218Z" fill="#4451CA"/>
<path d="M1180.77 38.4521C1180.97 37.0824 1182.9 36.9808 1183.24 38.3223C1183.47 39.1962 1184.5 39.5641 1185.23 39.0241C1186.33 38.1951 1187.78 39.4941 1187.07 40.6827C1186.61 41.457 1187.08 42.4517 1187.97 42.5802C1189.34 42.7775 1189.44 44.7162 1188.1 45.0555C1187.23 45.2766 1186.86 46.3155 1187.4 47.0372C1188.23 48.1452 1186.93 49.5879 1185.74 48.8793C1184.97 48.4177 1183.97 48.8922 1183.84 49.7844C1183.65 51.154 1181.71 51.2556 1181.37 49.9141C1181.15 49.0402 1180.11 48.6723 1179.39 49.2123C1178.28 50.0413 1176.84 48.7423 1177.55 47.5537C1178.01 46.7795 1177.53 45.7848 1176.64 45.6562C1175.27 45.4589 1175.17 43.5203 1176.51 43.1809C1177.38 42.9598 1177.75 41.921 1177.21 41.1992C1176.38 40.0912 1177.68 38.6485 1178.87 39.3571C1179.65 39.8187 1180.64 39.3443 1180.77 38.4521Z" fill="#C5C9EF"/>
<rect x="1217.21" y="22.2612" width="40" height="40" rx="20" transform="rotate(-3 1217.21 22.2612)" fill="#ECEEFA"/>
<path d="M1248.35 41.9467C1247.67 41.1963 1246.67 40.6996 1245.32 40.4582C1246.18 40.1119 1246.82 39.6582 1247.25 39.1192C1247.9 38.2994 1248.18 37.3479 1248.12 36.2636C1248.06 34.9539 1247.52 33.8944 1246.52 33.0643C1245.53 32.2336 1244.13 31.8656 1242.35 31.9587L1233.61 32.4169C1232.53 32.4733 1231.69 33.3891 1231.75 34.4734L1232.5 48.8055C1232.56 49.9972 1233.58 50.9126 1234.78 50.85L1242.48 50.4466C1242.9 50.4246 1243.75 50.2936 1245.03 50.0547C1245.99 49.8858 1246.7 49.644 1247.17 49.3395C1247.92 48.8587 1248.49 48.2152 1248.9 47.4293C1249.3 46.6439 1249.49 45.7732 1249.44 44.8177C1249.37 43.6475 1249.01 42.687 1248.35 41.9467ZM1239.78 48.6609C1236.63 48.8262 1234 47.5535 1233.91 45.7929C1233.9 45.546 1233.93 45.2968 1234.01 45.0555C1234.68 46.4416 1236.99 47.3752 1239.71 47.233C1242.42 47.0909 1244.62 45.9203 1245.13 44.4727C1245.24 44.7038 1245.31 44.9479 1245.32 45.1948C1245.41 46.9555 1242.94 48.4956 1239.78 48.6609ZM1239.56 44.4632C1236.41 44.6285 1233.78 43.3451 1233.69 41.5952C1233.68 41.3483 1233.71 41.0991 1233.79 40.8579C1234.46 42.2439 1236.77 43.1776 1239.49 43.0354C1242.2 42.8932 1244.4 41.7226 1244.91 40.2751C1245.02 40.5062 1245.09 40.7503 1245.1 40.9972C1245.19 42.7471 1242.72 44.2979 1239.56 44.4632ZM1239.36 40.5662C1236.2 40.7315 1233.57 39.4487 1233.47 37.6988C1233.38 35.9488 1235.87 34.3867 1239.02 34.2214C1242.18 34.0561 1244.81 35.3502 1244.9 37.1002C1244.99 38.8501 1242.51 40.4009 1239.36 40.5662Z" fill="#4451CA"/>
<path d="M1232.74 41.4834L1232.39 34.7307C1232.36 34.1402 1231.85 33.704 1231.26 33.735L1227.67 33.9229C1227.5 33.1567 1226.74 32.669 1225.98 32.8384C1225.29 32.9819 1224.82 33.5989 1224.85 34.2967C1224.9 35.0804 1225.56 35.6805 1226.35 35.6501C1227.05 35.6134 1227.62 35.0885 1227.7 34.3952L1231.28 34.2074C1231.62 34.1899 1231.9 34.4334 1231.93 34.7657L1232.08 37.6106L1230.2 37.7088C1230.02 36.9431 1229.26 36.4662 1228.5 36.6464C1227.82 36.8 1227.35 37.417 1227.4 38.1142C1227.44 38.8979 1228.12 39.4975 1228.9 39.4456C1229.6 39.4089 1230.17 38.8733 1230.24 38.1806L1232.11 38.0824L1232.29 41.5178L1228.08 41.7384C1227.91 40.9722 1227.15 40.4845 1226.39 40.654C1225.7 40.7974 1225.23 41.4144 1225.26 42.1015C1225.27 42.1659 1225.27 42.2196 1225.28 42.2834C1225.42 43.0513 1226.16 43.5724 1226.93 43.4351C1227.55 43.3272 1228.02 42.8182 1228.1 42.2006L1232.3 41.9806L1232.48 45.416L1230.66 45.5113C1230.58 45.1599 1230.38 44.8474 1230.08 44.6372C1229.44 44.1862 1228.55 44.3404 1228.1 44.9777C1227.88 45.2908 1227.79 45.6721 1227.87 46.0451C1228 46.8237 1228.74 47.334 1229.51 47.2075C1230.14 47.0996 1230.61 46.6013 1230.68 45.973L1232.5 45.8776L1232.65 48.7226C1232.67 49.0554 1232.4 49.3277 1232.07 49.3452L1228.48 49.5331C1228.4 49.1929 1228.2 48.8912 1227.91 48.6804C1227.59 48.46 1227.21 48.3831 1226.85 48.4452C1226.09 48.6141 1225.59 49.3294 1225.68 50.0996C1225.82 50.8675 1226.58 51.3873 1227.33 51.2512C1227.96 51.1321 1228.43 50.623 1228.51 49.9947L1232.09 49.8068C1232.68 49.7758 1233.14 49.2888 1233.11 48.6983L1232.76 41.9563" fill="#4451CA"/>
<path d="M1273.2 47.3653L1266.38 30.0106L1268.87 29.8799L1274.6 44.7205L1278.77 29.3612L1281.24 29.2318L1276.27 47.2046L1273.2 47.3653ZM1284.08 31.7745C1283.79 31.7896 1283.64 31.6613 1283.63 31.3897L1283.52 29.3765C1283.51 29.0889 1283.64 28.9375 1283.93 28.9224L1285.71 28.8295C1285.83 28.8228 1285.93 28.8577 1286 28.9343C1286.07 29.0108 1286.11 29.113 1286.11 29.2408L1286.22 31.254C1286.23 31.5257 1286.11 31.6682 1285.86 31.6816L1284.08 31.7745ZM1284.53 46.7716L1283.86 33.9492L1286.26 33.8235L1286.93 46.646L1284.53 46.7716ZM1294.78 46.3787C1294.44 46.3963 1294.04 46.4093 1293.58 46.4176C1293.11 46.4259 1292.63 46.419 1292.14 46.3971C1291.65 46.3902 1291.21 46.3737 1290.79 46.3476C1290.39 46.3206 1290.06 46.2814 1289.82 46.23L1289.74 44.792L1295.14 44.5094C1295.6 44.4851 1296 44.4322 1296.33 44.3507C1296.66 44.2533 1296.91 44.0801 1297.07 43.8312C1297.25 43.5815 1297.33 43.2249 1297.3 42.7616L1297.28 42.2343C1297.25 41.7549 1297.07 41.3878 1296.74 41.133C1296.4 40.8781 1295.87 40.7699 1295.14 40.8084L1293.27 40.9064C1292.52 40.9457 1291.84 40.885 1291.24 40.7243C1290.65 40.5467 1290.18 40.2271 1289.82 39.7653C1289.47 39.3027 1289.28 38.664 1289.24 37.8491L1289.2 37.154C1289.16 36.3392 1289.27 35.6601 1289.55 35.1169C1289.84 34.5729 1290.32 34.1551 1291 33.8634C1291.67 33.5558 1292.57 33.3722 1293.71 33.3128C1294.19 33.2877 1294.72 33.284 1295.29 33.3018C1295.89 33.3028 1296.47 33.3205 1297.03 33.3552C1297.59 33.3898 1298.04 33.4382 1298.38 33.5005L1298.46 34.9385L1293.38 35.2048C1292.67 35.2417 1292.14 35.39 1291.76 35.6497C1291.41 35.9087 1291.25 36.3737 1291.29 37.0448L1291.31 37.5241C1291.33 37.9395 1291.44 38.2545 1291.62 38.469C1291.81 38.6835 1292.07 38.8143 1292.39 38.8614C1292.73 38.9078 1293.12 38.9192 1293.57 38.8958L1295.49 38.7953C1296.7 38.7316 1297.63 38.9711 1298.29 39.5136C1298.94 40.0402 1299.29 40.8148 1299.35 41.8374L1299.4 42.8201C1299.44 43.6829 1299.28 44.3644 1298.9 44.8647C1298.53 45.365 1297.99 45.7298 1297.28 45.9592C1296.59 46.1878 1295.75 46.3276 1294.78 46.3787ZM1306.07 45.7872C1304.87 45.85 1303.92 45.5794 1303.21 44.9754C1302.52 44.3547 1302.14 43.3812 1302.07 42.055L1301.6 33.0194L1304 32.8938L1304.44 41.2823C1304.49 42.241 1304.74 42.8768 1305.19 43.1897C1305.65 43.5018 1306.28 43.6369 1307.08 43.595C1307.72 43.5616 1308.32 43.4339 1308.89 43.212C1309.47 42.9733 1310.03 42.6635 1310.57 42.2827L1310.06 32.576L1312.46 32.4504L1313.13 45.2728L1311.21 45.3733L1310.66 44.0323C1310.06 44.4644 1309.36 44.8536 1308.56 45.1999C1307.78 45.5453 1306.95 45.7411 1306.07 45.7872ZM1319 45.1091C1318.06 45.1585 1317.26 44.9199 1316.61 44.3933C1315.97 43.8499 1315.63 43.0749 1315.58 42.0683L1315.52 41.0617C1315.47 40.071 1315.77 39.2466 1316.4 38.5883C1317.06 37.9131 1318.07 37.5396 1319.45 37.4675L1323.45 37.2578L1323.38 35.9156C1323.35 35.4203 1323.24 35.0095 1323.05 34.6831C1322.87 34.34 1322.55 34.0923 1322.1 33.94C1321.64 33.7876 1320.97 33.7345 1320.09 33.7806L1316.16 33.9866L1316.09 32.5725C1316.66 32.4145 1317.32 32.2675 1318.08 32.1315C1318.86 31.9946 1319.77 31.8909 1320.81 31.8205C1321.86 31.7652 1322.75 31.855 1323.47 32.0898C1324.2 32.3077 1324.76 32.7111 1325.14 33.2998C1325.52 33.8726 1325.74 34.6543 1325.79 35.645L1326.26 44.5847L1324.37 44.6839L1323.88 43.2912C1323.79 43.3601 1323.6 43.4904 1323.3 43.6821C1323.01 43.8578 1322.63 44.0541 1322.16 44.2709C1321.7 44.487 1321.2 44.6735 1320.65 44.8307C1320.11 44.987 1319.56 45.0798 1319 45.1091ZM1320.02 43.3017C1320.26 43.3051 1320.53 43.2665 1320.85 43.1858C1321.18 43.1043 1321.51 43.0153 1321.82 42.9186C1322.15 42.8052 1322.45 42.6934 1322.72 42.5833C1323 42.4724 1323.23 42.3803 1323.4 42.3072C1323.59 42.2173 1323.69 42.1639 1323.7 42.1471L1323.51 38.4561L1320.16 38.7758C1319.33 38.8673 1318.75 39.1064 1318.4 39.4931C1318.07 39.8791 1317.92 40.3676 1317.95 40.9588L1317.98 41.534C1318 41.9974 1318.12 42.3678 1318.32 42.6454C1318.53 42.907 1318.78 43.0861 1319.07 43.1829C1319.38 43.2789 1319.7 43.3184 1320.02 43.3017ZM1333.09 44.2508C1332.31 44.2918 1331.64 44.1908 1331.08 43.9476C1330.54 43.7036 1330.11 43.2931 1329.81 42.7162C1329.52 42.1224 1329.35 41.3142 1329.3 40.2916L1328.56 26.1271L1330.95 26.0015L1331.68 39.8545C1331.72 40.5255 1331.81 41.0415 1331.95 41.4023C1332.12 41.7463 1332.32 41.9839 1332.57 42.1151C1332.83 42.2455 1333.13 42.3259 1333.47 42.3562L1334.68 42.4372L1334.77 44.1629L1333.09 44.2508ZM1336.25 29.0404C1335.96 29.0555 1335.81 28.9272 1335.8 28.6556L1335.69 26.6423C1335.68 26.3547 1335.82 26.2034 1336.1 26.1883L1337.88 26.0954C1338 26.0887 1338.1 26.1236 1338.17 26.2001C1338.24 26.2767 1338.28 26.3788 1338.28 26.5067L1338.39 28.5199C1338.4 28.7915 1338.28 28.934 1338.03 28.9474L1336.25 29.0404ZM1336.7 44.0374L1336.03 31.215L1338.43 31.0894L1339.1 43.9118L1336.7 44.0374ZM1341.96 43.762L1341.86 41.9885L1348.36 32.5394L1341.2 32.915L1341.09 30.9497L1351.06 30.4272L1351.16 32.2247L1344.63 41.675L1351.63 41.3082L1351.73 43.2496L1341.96 43.762ZM1359.46 42.9889C1358.1 43.06 1357.01 42.9173 1356.17 42.5605C1355.35 42.2029 1354.74 41.562 1354.34 40.6377C1353.95 39.6966 1353.72 38.3872 1353.63 36.7095C1353.54 34.9999 1353.64 33.6649 1353.92 32.7046C1354.22 31.7275 1354.76 31.0263 1355.54 30.6009C1356.32 30.1756 1357.39 29.9273 1358.75 29.8561C1359.93 29.7942 1360.89 29.8722 1361.62 30.0901C1362.37 30.2913 1362.93 30.7026 1363.3 31.3242C1363.68 31.9289 1363.9 32.7905 1363.96 33.909C1364 34.6919 1363.87 35.3234 1363.58 35.8035C1363.3 36.2828 1362.88 36.6414 1362.31 36.8792C1361.76 37.1162 1361.1 37.2553 1360.32 37.2963L1356.07 37.5186C1356.14 38.4445 1356.28 39.1821 1356.5 39.7312C1356.74 40.2636 1357.12 40.6442 1357.64 40.8731C1358.18 41.0851 1358.96 41.1647 1359.96 41.112L1363.97 40.9022L1364.04 42.3403C1363.36 42.4721 1362.66 42.5969 1361.95 42.7144C1361.23 42.848 1360.4 42.9395 1359.46 42.9889ZM1355.97 36.01L1360.02 35.7977C1360.66 35.7642 1361.13 35.6196 1361.42 35.3641C1361.71 35.1085 1361.84 34.6611 1361.8 34.022C1361.77 33.3829 1361.65 32.8846 1361.44 32.5271C1361.24 32.1689 1360.93 31.9207 1360.51 31.7827C1360.08 31.6447 1359.53 31.5937 1358.84 31.6297C1358.06 31.6707 1357.44 31.8232 1356.99 32.0872C1356.56 32.3503 1356.26 32.7905 1356.1 33.4077C1355.96 34.0241 1355.91 34.8915 1355.97 36.01Z" fill="#4451CA"/>
<path d="M1376.5 28.1938C1376.7 26.8241 1378.64 26.7225 1378.98 28.064C1379.2 28.9379 1380.24 29.3058 1380.96 28.7658C1382.07 27.9368 1383.51 29.2358 1382.8 30.4244C1382.34 31.1987 1382.81 32.1934 1383.7 32.3219C1385.07 32.5192 1385.18 34.4579 1383.83 34.7972C1382.96 35.0183 1382.59 36.0572 1383.13 36.7789C1383.96 37.8869 1382.66 39.3296 1381.47 38.621C1380.7 38.1594 1379.7 38.6339 1379.58 39.5261C1379.38 40.8957 1377.44 40.9973 1377.1 39.6558C1376.88 38.7819 1375.84 38.414 1375.12 38.954C1374.01 39.783 1372.57 38.484 1373.28 37.2954C1373.74 36.5212 1373.26 35.5265 1372.37 35.3979C1371 35.2006 1370.9 33.262 1372.24 32.9226C1373.12 32.7015 1373.48 31.6627 1372.94 30.9409C1372.11 29.8329 1373.41 28.3902 1374.6 29.0988C1375.38 29.5604 1376.37 29.086 1376.5 28.1938Z" fill="#C5C9EF"/>
<rect x="1412.94" y="12.0034" width="40" height="40" rx="20" transform="rotate(-3 1412.94 12.0034)" fill="#ECEEFA"/>
<path d="M1444.08 31.6889C1443.4 30.9385 1442.4 30.4417 1441.05 30.2004C1441.91 29.8541 1442.55 29.4004 1442.98 28.8614C1443.63 28.0416 1443.91 27.0901 1443.86 26.0058C1443.79 24.696 1443.26 23.6366 1442.25 22.8065C1441.26 21.9758 1439.86 21.6078 1438.08 21.7009L1429.34 22.159C1428.26 22.2155 1427.43 23.1313 1427.48 24.2156L1428.23 38.5477C1428.3 39.7394 1429.32 40.6548 1430.51 40.5922L1438.21 40.1888C1438.63 40.1668 1439.48 40.0357 1440.76 39.7968C1441.72 39.628 1442.43 39.3862 1442.9 39.0817C1443.65 38.6009 1444.22 37.9574 1444.63 37.1714C1445.04 36.3861 1445.22 35.5154 1445.17 34.5599C1445.11 33.3897 1444.74 32.4291 1444.08 31.6889ZM1435.51 38.4031C1432.36 38.5684 1429.73 37.2957 1429.64 35.5351C1429.63 35.2881 1429.66 35.039 1429.74 34.7977C1430.41 36.1838 1432.73 37.1174 1435.44 36.9752C1438.15 36.833 1440.36 35.6625 1440.86 34.2149C1440.97 34.446 1441.04 34.6901 1441.05 34.937C1441.14 36.6977 1438.67 38.2378 1435.51 38.4031ZM1435.29 34.2054C1432.14 34.3707 1429.51 33.0873 1429.42 31.3374C1429.41 31.0905 1429.44 30.8413 1429.52 30.6001C1430.19 31.9861 1432.51 32.9198 1435.22 32.7776C1437.93 32.6354 1440.14 31.4648 1440.64 30.0173C1440.75 30.2484 1440.82 30.4925 1440.83 30.7394C1440.92 32.4893 1438.45 34.0401 1435.29 34.2054ZM1435.09 30.3084C1431.93 30.4737 1429.3 29.1909 1429.21 27.4409C1429.11 25.691 1431.6 24.1289 1434.76 23.9636C1437.91 23.7983 1440.54 25.0924 1440.63 26.8423C1440.72 28.5923 1438.24 30.1431 1435.09 30.3084Z" fill="#4451CA"/>
<path d="M1428.48 31.2256L1428.12 24.4729C1428.09 23.8824 1427.58 23.4461 1426.99 23.4772L1423.41 23.665C1423.24 22.8989 1422.48 22.4112 1421.71 22.5806C1421.02 22.7241 1420.55 23.3411 1420.59 24.0389C1420.63 24.8226 1421.3 25.4227 1422.08 25.3922C1422.78 25.3556 1423.35 24.8307 1423.43 24.1374L1427.02 23.9495C1427.35 23.9321 1427.63 24.1756 1427.66 24.5078L1427.81 27.3528L1425.94 27.451C1425.76 26.6853 1425 26.2084 1424.23 26.3886C1423.56 26.5422 1423.08 27.1592 1423.13 27.8564C1423.17 28.6401 1423.85 29.2397 1424.63 29.1878C1425.33 29.1511 1425.9 28.6155 1425.97 27.9228L1427.84 27.8246L1428.02 31.26L1423.82 31.4806C1423.65 30.7144 1422.89 30.2267 1422.12 30.3962C1421.43 30.5396 1420.96 31.1566 1421 31.8437C1421 31.9081 1421 31.9618 1421.02 32.0256C1421.15 32.7935 1421.89 33.3145 1422.66 33.1773C1423.28 33.0694 1423.75 32.5604 1423.83 31.9428L1428.03 31.7228L1428.21 35.1582L1426.39 35.2535C1426.32 34.9021 1426.12 34.5896 1425.81 34.3794C1425.17 33.9284 1424.29 34.0826 1423.83 34.7199C1423.61 35.0329 1423.52 35.4143 1423.6 35.7873C1423.74 36.5659 1424.48 37.0762 1425.25 36.9497C1425.87 36.8418 1426.34 36.3435 1426.41 35.7152L1428.23 35.6198L1428.38 38.4648C1428.4 38.7976 1428.13 39.0699 1427.8 39.0874L1424.21 39.2752C1424.13 38.9351 1423.93 38.6333 1423.64 38.4226C1423.33 38.2022 1422.94 38.1253 1422.58 38.1874C1421.82 38.3563 1421.32 39.0716 1421.41 39.8418C1421.55 40.6096 1422.31 41.1295 1423.06 40.9934C1423.69 40.8742 1424.16 40.3652 1424.24 39.7369L1427.82 39.549C1428.41 39.518 1428.87 39.031 1428.84 38.4405L1428.49 31.6985" fill="#4451CA"/>
</g>
<defs>
<clipPath id="clip0_332_13510">
<rect width="1440" height="60" fill="white" transform="translate(-0.708496 75.3613) rotate(-3)"/>
</clipPath>
</defs>
</svg>
