<svg width="1440" height="136" viewBox="0 0 1440 136" fill="none" xmlns="http://www.w3.org/2000/svg">
<g clip-path="url(#clip0_330_13092)">
<rect width="1440" height="60" transform="translate(2) rotate(3)" fill="#E6F5FA"/>
<path d="M-67.9178 34.977C-68.3013 34.9569 -68.7398 34.9179 -69.2335 34.86C-69.712 34.8189 -70.2056 34.761 -70.7144 34.6862C-71.2072 34.6123 -71.684 34.5393 -72.1449 34.4671C-72.5898 34.3957 -72.9699 34.3117 -73.2853 34.215L-73.1873 32.3456C-72.7735 32.3993 -72.2799 32.4572 -71.7064 32.5193C-71.1168 32.5823 -70.495 32.6389 -69.8407 32.6892C-69.1705 32.7404 -68.5238 32.7823 -67.9006 32.8149C-67.2136 32.8509 -66.603 32.8188 -66.0691 32.7186C-65.5191 32.6193 -65.0831 32.4018 -64.7611 32.0662C-64.4231 31.7314 -64.2374 31.2445 -64.2039 30.6054L-64.1499 29.5748C-64.1122 28.8558 -64.2831 28.2941 -64.6624 27.8896C-65.0258 27.4861 -65.6069 27.2634 -66.4058 27.2215L-68.2034 27.1273C-69.7373 27.0469 -70.91 26.649 -71.7217 25.9335C-72.5174 25.2189 -72.8725 24.0467 -72.7871 22.4169L-72.7369 21.4582C-72.6481 19.7646 -72.1295 18.5821 -71.1811 17.9108C-70.2158 17.2244 -68.8864 16.9256 -67.1927 17.0143C-66.6335 17.0436 -66.036 17.107 -65.4002 17.2044C-64.7636 17.2858 -64.1438 17.3824 -63.5408 17.4941C-62.9378 17.6058 -62.4387 17.7121 -62.0434 17.8129L-62.1414 19.6823C-62.8579 19.5967 -63.6623 19.5065 -64.5546 19.4117C-65.43 19.3017 -66.2592 19.2262 -67.0421 19.1852C-67.7132 19.15 -68.3006 19.1993 -68.8043 19.3331C-69.2912 19.4518 -69.6805 19.6958 -69.9722 20.065C-70.2479 20.4351 -70.4042 20.9717 -70.4411 21.6747L-70.4787 22.3937C-70.524 23.2565 -70.3237 23.8678 -69.8779 24.2277C-69.4321 24.5875 -68.7938 24.7892 -67.9629 24.8327L-66.0216 24.9345C-65.015 24.9872 -64.2018 25.2141 -63.5819 25.6151C-62.946 26.0169 -62.4851 26.5458 -62.199 27.2016C-61.913 27.8575 -61.7913 28.5929 -61.834 29.4078L-61.8993 30.654C-61.9646 31.9003 -62.2705 32.8456 -62.817 33.4899C-63.3634 34.1342 -64.0748 34.5615 -64.951 34.772C-65.8264 34.9664 -66.8153 35.0348 -67.9178 34.977ZM-55.3822 35.6339C-56.5806 35.5711 -57.4986 35.2026 -58.1362 34.5283C-58.7569 33.8389 -59.0326 32.8311 -58.9631 31.5049L-58.4895 22.4693L-56.0928 22.5949L-56.5324 30.9834C-56.5827 31.9421 -56.4009 32.6005 -55.9871 32.9586C-55.5573 33.3176 -54.9429 33.518 -54.144 33.5599C-53.5049 33.5934 -52.8927 33.5294 -52.3074 33.3678C-51.7054 33.191 -51.1155 32.9416 -50.5378 32.6193L-50.0291 22.9127L-47.6324 23.0383L-48.3044 35.8607L-50.2218 35.7602L-50.6295 34.3689C-51.2736 34.7357 -52.011 35.0496 -52.8418 35.3105C-53.6566 35.5722 -54.5035 35.68 -55.3822 35.6339ZM-40.2388 36.4276C-40.9897 36.3882 -41.6798 36.2559 -42.3088 36.0307C-42.9211 35.7903 -43.4543 35.4179 -43.9086 34.9134C-44.3468 34.4098 -44.6716 33.7279 -44.8828 32.8676C-45.0941 32.0074 -45.1658 30.9302 -45.098 29.636C-45.0285 28.3098 -44.8517 27.2295 -44.5677 26.3953C-44.2828 25.545 -43.9041 24.8919 -43.4316 24.436C-42.9422 23.965 -42.365 23.6508 -41.6999 23.4934C-41.0347 23.336 -40.2947 23.2786 -39.4798 23.3213C-38.8087 23.3565 -38.1074 23.4253 -37.3757 23.5277C-36.6281 23.631 -35.9066 23.773 -35.2111 23.9536L-35.2852 25.3677L-38.9042 25.178C-39.6871 25.137 -40.3489 25.2305 -40.8896 25.4585C-41.4294 25.6705 -41.8456 26.1214 -42.1381 26.811C-42.4297 27.4847 -42.6099 28.4766 -42.6786 29.7868C-42.7447 31.0491 -42.66 32.0308 -42.4244 32.7321C-42.1879 33.4174 -41.8203 33.8933 -41.3216 34.1598C-40.8069 34.4271 -40.158 34.5813 -39.3751 34.6223L-35.5883 34.8208L-35.6599 36.1869C-36.0324 36.2635 -36.4764 36.3283 -36.9919 36.3814C-37.4906 36.4194 -38.0204 36.4397 -38.5813 36.4423C-39.127 36.4618 -39.6795 36.4569 -40.2388 36.4276ZM-28.4893 37.0433C-29.2402 37.004 -29.9303 36.8717 -30.5593 36.6465C-31.1716 36.4061 -31.7048 36.0337 -32.1591 35.5292C-32.5973 35.0256 -32.9221 34.3436 -33.1333 33.4834C-33.3446 32.6232 -33.4163 31.5459 -33.3485 30.2517C-33.279 28.9255 -33.1022 27.8453 -32.8182 27.011C-32.5333 26.1608 -32.1546 25.5077 -31.6821 25.0518C-31.1927 24.5808 -30.6155 24.2666 -29.9504 24.1091C-29.2852 23.9517 -28.5452 23.8944 -27.7303 23.9371C-27.0592 23.9723 -26.3579 24.0411 -25.6262 24.1435C-24.8786 24.2468 -24.157 24.3887 -23.4616 24.5694L-23.5357 25.9834L-27.1547 25.7938C-27.9376 25.7527 -28.5994 25.8462 -29.1401 26.0742C-29.6799 26.2863 -30.0961 26.7371 -30.3886 27.4268C-30.6802 28.1004 -30.8604 29.0924 -30.9291 30.4026C-30.9952 31.6648 -30.9105 32.6466 -30.6749 33.3479C-30.4384 34.0332 -30.0708 34.5091 -29.5721 34.7756C-29.0574 35.0429 -28.4085 35.197 -27.6256 35.2381L-23.8388 35.4365L-23.9104 36.8027C-24.2829 36.8793 -24.7269 36.9441 -25.2424 36.9972C-25.7411 37.0352 -26.2709 37.0555 -26.8318 37.0581C-27.3775 37.0776 -27.93 37.0727 -28.4893 37.0433ZM-16.4522 37.6742C-17.8103 37.603 -18.8863 37.3463 -19.6803 36.9042C-20.4583 36.4629 -20.9983 35.7616 -21.3004 34.8005C-21.5857 33.8242 -21.6844 32.4973 -21.5965 30.8196C-21.5069 29.1099 -21.2696 27.7925 -20.8847 26.8674C-20.4829 25.9271 -19.8725 25.2862 -19.0535 24.9446C-18.2345 24.603 -17.146 24.4678 -15.7878 24.5389C-14.6054 24.6009 -13.6614 24.7786 -12.9558 25.0719C-12.2334 25.3501 -11.7212 25.8175 -11.4191 26.4742C-11.1003 27.1158 -10.9701 27.9958 -11.0287 29.1143C-11.0698 29.8972 -11.2622 30.512 -11.6061 30.9586C-11.9339 31.4061 -12.3909 31.7186 -12.977 31.8961C-13.5471 32.0745 -14.2236 32.1432 -15.0066 32.1022L-19.2488 31.8799C-19.2813 32.8074 -19.2164 33.5559 -19.054 34.1251C-18.8748 34.6793 -18.5362 35.0976 -18.0383 35.38C-17.5236 35.6473 -16.7629 35.8074 -15.7563 35.8601L-11.7538 36.0699L-11.8291 37.5079C-12.5212 37.5678 -13.2289 37.6188 -13.9521 37.661C-14.6761 37.7192 -15.5095 37.7236 -16.4522 37.6742ZM-19.1936 30.3687L-15.1431 30.581C-14.504 30.6145 -14.0264 30.5193 -13.7102 30.2956C-13.3941 30.0718 -13.2193 29.6404 -13.1858 29.0012C-13.1523 28.3621 -13.2218 27.8538 -13.3943 27.4762C-13.5508 27.0995 -13.8325 26.8204 -14.2396 26.6389C-14.6467 26.4573 -15.1937 26.3485 -15.8808 26.3125C-16.6637 26.2715 -17.2931 26.3587 -17.769 26.574C-18.229 26.7903 -18.5707 27.1969 -18.7943 27.7941C-19.0019 28.392 -19.135 29.2502 -19.1936 30.3687ZM-3.509 38.3525C-4.86713 38.2813 -5.94317 38.0247 -6.73712 37.5825C-7.51509 37.1412 -8.05513 36.44 -8.35724 35.4788C-8.64254 34.5026 -8.74123 33.1756 -8.6533 31.4979C-8.5637 29.7882 -8.32643 28.4708 -7.94149 27.5457C-7.53973 26.6055 -6.92935 25.9645 -6.11035 25.6229C-5.29135 25.2813 -4.20278 25.1461 -2.84464 25.2173C-1.66226 25.2792 -0.718267 25.4569 -0.0126515 25.7502C0.709779 26.0284 1.22202 26.4959 1.52406 27.1526C1.84292 27.7941 1.97304 28.6741 1.91443 29.7926C1.8734 30.5755 1.68096 31.1903 1.33711 31.6369C1.00924 32.0844 0.552263 32.3969 -0.0338339 32.5745C-0.603952 32.7529 -1.28047 32.8216 -2.0634 32.7805L-6.30558 32.5582C-6.33817 33.4858 -6.27325 34.2342 -6.11082 34.8035C-5.93158 35.3576 -5.593 35.7759 -5.0951 36.0583C-4.58039 36.3257 -3.81972 36.4857 -2.8131 36.5384L1.18941 36.7482L1.11404 38.1862C0.421961 38.2461 -0.28568 38.2971 -1.00888 38.3393C-1.73292 38.3975 -2.56629 38.4019 -3.509 38.3525ZM-6.25041 31.047L-2.19997 31.2593C-1.56085 31.2928 -1.08322 31.1977 -0.767072 30.9739C-0.450927 30.7501 -0.276108 30.3187 -0.242613 29.6796C-0.209118 29.0404 -0.278609 28.5321 -0.451087 28.1546C-0.607585 27.7779 -0.889363 27.4987 -1.29642 27.3172C-1.70348 27.1356 -2.25053 27.0268 -2.93759 26.9908C-3.72052 26.9498 -4.34994 27.037 -4.82587 27.2524C-5.28581 27.4686 -5.62756 27.8753 -5.85112 28.4724C-6.0587 29.0703 -6.1918 29.9286 -6.25041 31.047ZM8.5474 38.9844C7.50882 38.9299 6.65773 38.661 5.99412 38.1776C5.34649 37.6951 4.8796 36.9736 4.59347 36.0133C4.30817 35.0371 4.20488 33.798 4.28359 32.296C4.36649 30.7142 4.58527 29.4439 4.93994 28.4852C5.31142 27.5113 5.8604 26.8191 6.58688 26.4085C7.3142 25.982 8.27703 25.8001 9.47539 25.8629C10.1465 25.8981 10.8058 26.0048 11.4534 26.1829C12.1169 26.3619 12.6917 26.5522 13.1778 26.7539L13.4918 20.7622L15.8886 20.8878L14.9302 39.1747L12.9649 39.0717L12.6 37.7788C12.3327 37.9891 11.9694 38.1944 11.5103 38.3946C11.0521 38.5789 10.5635 38.7295 10.0447 38.8465C9.52583 38.9635 9.02674 39.0095 8.5474 38.9844ZM9.41734 37.0592C10.0724 37.0936 10.6691 37.0207 11.2072 36.8406C11.7614 36.6614 12.252 36.4708 12.6792 36.2689L13.0874 28.4796C12.5996 28.3098 12.119 28.1564 11.6455 28.0195C11.1888 27.8674 10.6729 27.7762 10.0977 27.7461C9.34672 27.7067 8.73243 27.8107 8.25483 28.0581C7.77723 28.3054 7.41657 28.7672 7.17285 29.4433C6.92913 30.1195 6.77503 31.0728 6.71055 32.3031C6.6511 33.4375 6.69923 34.3533 6.85496 35.0504C7.01153 35.7315 7.29798 36.2272 7.71432 36.5374C8.14663 36.8485 8.71431 37.0224 9.41734 37.0592Z" fill="#545454"/>
<path d="M28.574 26.1321C28.9133 24.7906 30.852 24.8922 31.0493 26.2618C31.1778 27.1541 32.1725 27.6285 32.9468 27.1669C34.1354 26.4583 35.4344 27.901 34.6054 29.009C34.0654 29.7307 34.4333 30.7696 35.3072 30.9907C36.6487 31.33 36.5471 33.2687 35.1774 33.466C34.2852 33.5945 33.8108 34.5893 34.2724 35.3635C34.981 36.5521 33.5383 37.8511 32.4303 37.0221C31.7085 36.4821 30.6697 36.85 30.4486 37.7239C30.1092 39.0654 28.1706 38.9638 27.9733 37.5941C27.8447 36.7019 26.85 36.2275 26.0758 36.6891C24.8872 37.3977 23.5882 35.955 24.4172 34.847C24.9572 34.1253 24.5893 33.0864 23.7154 32.8653C22.3739 32.5259 22.4755 30.5873 23.8451 30.39C24.7373 30.2615 25.2118 29.2667 24.7502 28.4925C24.0416 27.3039 25.4843 26.0049 26.5923 26.8339C27.314 27.3739 28.3529 27.006 28.574 26.1321Z" fill="#545454"/>
<rect x="66.5088" y="13.8394" width="40" height="40" rx="20" transform="rotate(3 66.5088 13.8394)" fill="#E6F5FA"/>
<path d="M95.4158 36.6716C94.8218 35.8546 93.8816 35.2563 92.563 34.8751C93.4507 34.6202 94.1401 34.2364 94.6193 33.7448C95.3493 32.9972 95.732 32.0807 95.7888 30.9964C95.8575 29.6867 95.4406 28.5776 94.5286 27.647C93.6274 26.717 92.2726 26.2047 90.4963 26.1116L81.7549 25.6535C80.6784 25.597 79.7501 26.4204 79.6933 27.5047L78.9421 41.8368C78.8797 43.0284 79.7979 44.0454 80.9929 44.108L88.69 44.5114C89.1098 44.5334 89.9756 44.4927 91.2656 44.388C92.2407 44.3207 92.9727 44.1545 93.4717 43.9008C94.2699 43.5013 94.9048 42.9209 95.3969 42.1824C95.8782 41.4433 96.1493 40.5963 96.1994 39.6408C96.2607 38.4706 95.9997 37.4773 95.4158 36.6716ZM86.1963 42.4538C83.0421 42.2885 80.5644 40.7484 80.6567 38.9877C80.6696 38.7408 80.7256 38.4962 80.8349 38.265C81.3527 39.7132 83.5583 40.8838 86.2711 41.0259C88.984 41.1681 91.2998 40.2345 91.9554 38.8478C92.0399 39.0891 92.0808 39.3388 92.0678 39.5858C91.9756 41.3464 89.3505 42.6191 86.1963 42.4538ZM86.4163 38.2561C83.2621 38.0908 80.785 36.54 80.8767 34.7901C80.8896 34.5432 80.9456 34.2985 81.0549 34.0674C81.5727 35.5155 83.7783 36.6861 86.4911 36.8283C89.204 36.9705 91.5198 36.0368 92.1754 34.6502C92.2599 34.8915 92.3008 35.1412 92.2878 35.3881C92.1961 37.138 89.5705 38.4214 86.4163 38.2561ZM86.6205 34.3591C83.4663 34.1938 80.9784 32.6424 81.0702 30.8925C81.1619 29.1426 83.7988 27.849 86.953 28.0143C90.1072 28.1796 92.5838 29.7412 92.4921 31.4911C92.4004 33.241 89.7747 34.5244 86.6205 34.3591Z" fill="#545454"/>
<path d="M79.9485 34.5797L80.3024 27.8269C80.3334 27.2365 79.8731 26.7495 79.281 26.7184L75.6962 26.5306C75.6075 25.7508 74.9031 25.1864 74.1212 25.2746C73.4266 25.3459 72.8897 25.9098 72.8531 26.6076C72.8121 27.3913 73.414 28.058 74.1993 28.1099C74.899 28.1466 75.517 27.6838 75.6714 27.0029L79.2563 27.1908C79.59 27.2083 79.8456 27.48 79.8389 27.8134L79.6898 30.6584L77.8167 30.5602C77.7173 29.7799 77.0122 29.2262 76.2298 29.3252C75.5454 29.4077 75.0085 29.9717 74.9827 30.67C74.9416 31.4537 75.5543 32.121 76.3408 32.1514C77.0405 32.1881 77.659 31.7146 77.8027 31.0331L79.6759 31.1313L79.4958 34.5667L75.2866 34.3461C75.1979 33.5664 74.4935 33.002 73.7116 33.0902C73.017 33.1614 72.4801 33.7254 72.4441 34.4124C72.4407 34.4769 72.4379 34.5305 72.4453 34.5955C72.5017 35.3736 73.1829 35.969 73.9631 35.913C74.5914 35.8706 75.1119 35.4135 75.2516 34.8072L79.4501 35.0272L79.27 38.4626L77.4507 38.3673C77.4155 38.0102 77.2493 37.6785 76.9705 37.4378C76.3822 36.9226 75.483 36.9831 74.9665 37.5696C74.714 37.8578 74.5866 38.2279 74.6207 38.6065C74.6766 39.3953 75.3584 39.98 76.138 39.9348C76.7663 39.8923 77.2862 39.4459 77.4265 38.8289L79.2459 38.9242L79.0968 41.7692C79.0793 42.102 78.7859 42.345 78.4522 42.3275L74.8674 42.1396C74.8208 41.7927 74.6541 41.4718 74.386 41.2317C74.097 40.9797 73.7252 40.8633 73.357 40.8871C72.5859 40.9758 72.0116 41.6347 72.0249 42.4105C72.0813 43.1885 72.7841 43.7852 73.5427 43.728C74.1824 43.6754 74.7029 43.2183 74.8432 42.6013L78.428 42.7891C79.0201 42.8202 79.5287 42.3839 79.5597 41.7935L79.913 35.0515" fill="#545454"/>
<path d="M119.569 44.6587L114.598 26.686L117.091 26.8166L121.237 42.1746L126.989 27.3354L129.458 27.4647L122.636 44.8195L119.569 44.6587ZM132.019 30.2906C131.732 30.2756 131.595 30.1322 131.609 29.8606L131.715 27.8474C131.73 27.5598 131.881 27.4235 132.169 27.4386L133.942 27.5315C134.07 27.5382 134.164 27.5832 134.224 27.6664C134.283 27.7497 134.31 27.8552 134.303 27.983L134.198 29.9962C134.183 30.2679 134.048 30.397 133.793 30.3836L132.019 30.2906ZM130.899 45.2525L131.571 32.4301L133.967 32.5557L133.295 45.3781L130.899 45.2525ZM141.131 45.9329C140.795 45.9154 140.396 45.8864 139.934 45.8462C139.471 45.8059 138.993 45.7488 138.501 45.6749C138.023 45.6179 137.578 45.5545 137.165 45.4848C136.768 45.4159 136.451 45.3432 136.215 45.2667L136.29 43.8287L141.683 44.1113C142.146 44.1356 142.547 44.1246 142.886 44.0783C143.226 44.016 143.49 43.8696 143.678 43.6391C143.882 43.4095 143.997 43.063 144.021 42.5996L144.049 42.0724C144.074 41.593 143.934 41.2092 143.628 40.9208C143.323 40.6324 142.803 40.469 142.068 40.4304L140.198 40.3325C139.448 40.2931 138.781 40.1621 138.2 39.9394C137.636 39.7015 137.199 39.3341 136.888 38.8372C136.594 38.3411 136.468 37.6856 136.511 36.8707L136.547 36.1757C136.59 35.3608 136.777 34.6977 137.108 34.1863C137.455 33.6758 137.979 33.3107 138.679 33.091C139.381 32.8554 140.299 32.7673 141.433 32.8268C141.912 32.8519 142.438 32.9035 143.011 32.9816C143.601 33.0445 144.173 33.1226 144.729 33.2158C145.285 33.3091 145.729 33.4044 146.06 33.5019L145.985 34.9399L140.904 34.6736C140.201 34.6368 139.651 34.7281 139.255 34.9477C138.875 35.1681 138.667 35.6139 138.632 36.285L138.607 36.7643C138.585 37.1797 138.656 37.5039 138.82 37.7368C138.984 37.9697 139.225 38.1265 139.541 38.2071C139.873 38.2886 140.263 38.3411 140.71 38.3646L142.628 38.465C143.842 38.5287 144.746 38.8644 145.339 39.4723C145.932 40.0642 146.202 40.8714 146.149 41.894L146.097 42.8767C146.052 43.7395 145.817 44.4001 145.393 44.8585C144.968 45.3169 144.391 45.6232 143.662 45.7772C142.949 45.9321 142.105 45.984 141.131 45.9329ZM152.419 46.5245C151.22 46.4617 150.302 46.0932 149.665 45.4189C149.044 44.7294 148.768 43.7216 148.838 42.3955L149.311 33.3598L151.708 33.4855L151.268 41.8739C151.218 42.8326 151.4 43.491 151.814 43.8492C152.244 44.2082 152.858 44.4086 153.657 44.4505C154.296 44.484 154.908 44.4199 155.493 44.2583C156.095 44.0816 156.685 43.8321 157.263 43.5099L157.772 33.8032L160.168 33.9288L159.496 46.7513L157.579 46.6508L157.171 45.2595C156.527 45.6263 155.79 45.9401 154.959 46.201C154.144 46.4627 153.297 46.5706 152.419 46.5245ZM165.357 47.2026C164.414 47.1532 163.646 46.8325 163.052 46.2406C162.475 45.6336 162.213 44.8268 162.266 43.8202L162.319 42.8136C162.371 41.8229 162.748 41.0336 163.452 40.4456C164.173 39.8425 165.22 39.577 166.594 39.649L170.597 39.8587L170.667 38.5166C170.693 38.0213 170.627 37.6012 170.469 37.2565C170.327 36.8966 170.038 36.617 169.599 36.4178C169.161 36.2186 168.503 36.096 167.624 36.0499L163.693 35.8439L163.767 34.4299C164.349 34.3322 165.026 34.2555 165.798 34.1999C166.586 34.145 167.5 34.1368 168.539 34.1753C169.594 34.2305 170.465 34.4124 171.154 34.7209C171.86 35.0142 172.373 35.4737 172.692 36.0993C173.013 36.7089 173.147 37.509 173.095 38.4996L172.627 47.4394L170.733 47.3401L170.4 45.9047C170.301 45.9636 170.095 46.073 169.782 46.2328C169.47 46.3767 169.069 46.532 168.58 46.6986C168.106 46.866 167.587 46.999 167.021 47.0975C166.471 47.1969 165.916 47.2319 165.357 47.2026ZM166.551 45.5108C166.79 45.5393 167.071 45.53 167.394 45.4828C167.733 45.4365 168.064 45.3818 168.388 45.3186C168.728 45.2403 169.037 45.1604 169.314 45.0788C169.606 44.998 169.842 44.9302 170.021 44.8755C170.217 44.8057 170.324 44.7632 170.34 44.748L170.534 41.0571L167.171 41.0251C166.338 41.0294 165.727 41.2058 165.341 41.554C164.97 41.9031 164.769 42.3732 164.738 42.9644L164.708 43.5396C164.684 44.003 164.76 44.3835 164.936 44.6811C165.114 44.9628 165.344 45.1671 165.625 45.294C165.923 45.4218 166.232 45.494 166.551 45.5108ZM179.454 47.8212C178.671 47.7802 178.015 47.6096 177.486 47.3095C176.973 47.0102 176.596 46.5579 176.355 45.9525C176.131 45.3319 176.046 44.5103 176.1 43.4877L176.842 29.3232L179.239 29.4488L178.513 43.3018C178.478 43.9728 178.514 44.4955 178.623 44.8697C178.748 45.2287 178.927 45.4864 179.159 45.6428C179.407 45.8 179.698 45.9114 180.031 45.9769L181.222 46.1835L181.131 47.9091L179.454 47.8212ZM184.19 33.0248C183.902 33.0097 183.765 32.8664 183.78 32.5947L183.885 30.5815C183.9 30.2939 184.052 30.1576 184.339 30.1727L186.113 30.2657C186.241 30.2724 186.334 30.3173 186.394 30.4006C186.454 30.4838 186.48 30.5893 186.474 30.7172L186.368 32.7304C186.354 33.002 186.219 33.1311 185.963 33.1177L184.19 33.0248ZM183.069 47.9866L183.741 35.1642L186.138 35.2898L185.466 48.1123L183.069 47.9866ZM188.324 48.262L188.417 46.4885L195.867 37.7704L188.701 37.3949L188.804 35.4296L198.774 35.9521L198.68 37.7496L191.206 46.4664L198.204 46.8332L198.102 48.7745L188.324 48.262ZM205.813 49.3228C204.455 49.2516 203.379 48.995 202.585 48.5528C201.807 48.1115 201.267 47.4103 200.965 46.4491C200.68 45.4729 200.581 44.1459 200.669 42.4682C200.758 40.7585 200.996 39.4411 201.381 38.516C201.782 37.5758 202.393 36.9348 203.212 36.5932C204.031 36.2516 205.119 36.1164 206.478 36.1876C207.66 36.2495 208.604 36.4272 209.31 36.7205C210.032 36.9987 210.544 37.4662 210.846 38.1229C211.165 38.7644 211.295 39.6445 211.237 40.7629C211.196 41.5458 211.003 42.1606 210.659 42.6072C210.331 43.0547 209.874 43.3672 209.288 43.5448C208.718 43.7232 208.042 43.7919 207.259 43.7508L203.017 43.5285C202.984 44.4561 203.049 45.2045 203.211 45.7738C203.391 46.3279 203.729 46.7462 204.227 47.0287C204.742 47.296 205.502 47.456 206.509 47.5087L210.512 47.7185L210.436 49.1565C209.744 49.2164 209.037 49.2674 208.313 49.3096C207.589 49.3678 206.756 49.3722 205.813 49.3228ZM203.072 42.0173L207.122 42.2296C207.761 42.2631 208.239 42.168 208.555 41.9442C208.871 41.7204 209.046 41.289 209.08 40.6499C209.113 40.0107 209.044 39.5024 208.871 39.1249C208.715 38.7482 208.433 38.469 208.026 38.2875C207.619 38.1059 207.072 37.9971 206.385 37.9611C205.602 37.9201 204.972 38.0073 204.496 38.2227C204.036 38.4389 203.695 38.8456 203.471 39.4427C203.263 40.0406 203.13 40.8989 203.072 42.0173Z" fill="#545454"/>
<path d="M224.305 36.3899C224.645 35.0484 226.583 35.15 226.781 36.5197C226.909 37.4119 227.904 37.8863 228.678 37.4247C229.867 36.7161 231.166 38.1588 230.337 39.2668C229.797 39.9885 230.165 41.0274 231.039 41.2485C232.38 41.5879 232.279 43.5265 230.909 43.7238C230.017 43.8523 229.542 44.8471 230.004 45.6213C230.712 46.8099 229.27 48.1089 228.162 47.2799C227.44 46.7399 226.401 47.1078 226.18 47.9817C225.841 49.3232 223.902 49.2216 223.705 47.852C223.576 46.9597 222.581 46.4853 221.807 46.9469C220.619 47.6555 219.32 46.2128 220.149 45.1048C220.689 44.3831 220.321 43.3442 219.447 43.1231C218.105 42.7837 218.207 40.8451 219.577 40.6478C220.469 40.5193 220.943 39.5245 220.482 38.7503C219.773 37.5617 221.216 36.2627 222.324 37.0917C223.045 37.6317 224.084 37.2638 224.305 36.3899Z" fill="#545454"/>
<rect x="262.24" y="24.0972" width="40" height="40" rx="20" transform="rotate(3 262.24 24.0972)" fill="#E6F5FA"/>
<path d="M291.147 46.9294C290.553 46.1125 289.613 45.5142 288.294 45.1329C289.182 44.878 289.872 44.4943 290.351 44.0026C291.081 43.255 291.463 42.3385 291.52 41.2542C291.589 39.9445 291.172 38.8354 290.26 37.9048C289.359 36.9749 288.004 36.4625 286.228 36.3694L277.486 35.9113C276.41 35.8549 275.482 36.6782 275.425 37.7625L274.674 52.0946C274.611 53.2862 275.529 54.3032 276.724 54.3658L284.421 54.7692C284.841 54.7912 285.707 54.7505 286.997 54.6458C287.972 54.5785 288.704 54.4124 289.203 54.1586C290.001 53.7591 290.636 53.1787 291.128 52.4402C291.61 51.7011 291.881 50.8541 291.931 49.8986C291.992 48.7284 291.731 47.7351 291.147 46.9294ZM281.928 52.7116C278.774 52.5463 276.296 51.0062 276.388 49.2455C276.401 48.9986 276.457 48.754 276.566 48.5229C277.084 49.971 279.29 51.1416 282.003 51.2837C284.715 51.4259 287.031 50.4923 287.687 49.1057C287.771 49.3469 287.812 49.5967 287.799 49.8436C287.707 51.6042 285.082 52.8769 281.928 52.7116ZM282.148 48.5139C278.994 48.3486 276.516 46.7978 276.608 45.0479C276.621 44.801 276.677 44.5563 276.786 44.3252C277.304 45.7734 279.51 46.9439 282.223 47.0861C284.935 47.2283 287.251 46.2947 287.907 44.908C287.991 45.1493 288.032 45.399 288.019 45.6459C287.928 47.3959 285.302 48.6792 282.148 48.5139ZM282.352 44.6169C279.198 44.4516 276.71 42.9002 276.802 41.1503C276.893 39.4004 279.53 38.1068 282.684 38.2721C285.839 38.4374 288.315 39.999 288.224 41.7489C288.132 43.4988 285.506 44.7822 282.352 44.6169Z" fill="#545454"/>
<path d="M275.68 44.8375L276.034 38.0848C276.065 37.4943 275.605 37.0073 275.012 36.9762L271.428 36.7884C271.339 36.0086 270.635 35.4442 269.853 35.5324C269.158 35.6037 268.621 36.1676 268.585 36.8654C268.544 37.6491 269.145 38.3158 269.931 38.3678C270.63 38.4044 271.248 37.9416 271.403 37.2607L274.988 37.4486C275.321 37.4661 275.577 37.7379 275.57 38.0712L275.421 40.9162L273.548 40.818C273.449 40.0377 272.744 39.484 271.961 39.583C271.277 39.6655 270.74 40.2295 270.714 40.9278C270.673 41.7115 271.286 42.3788 272.072 42.4093C272.772 42.4459 273.39 41.9724 273.534 41.2909L275.407 41.3891L275.227 44.8245L271.018 44.6039C270.929 43.8242 270.225 43.2598 269.443 43.348C268.748 43.4192 268.212 43.9832 268.176 44.6703C268.172 44.7347 268.169 44.7883 268.177 44.8533C268.233 45.6314 268.914 46.2269 269.695 46.1709C270.323 46.1284 270.843 45.6713 270.983 45.065L275.182 45.285L275.001 48.7204L273.182 48.6251C273.147 48.268 272.981 47.9363 272.702 47.6956C272.114 47.1804 271.214 47.2409 270.698 47.8275C270.445 48.1156 270.318 48.4857 270.352 48.8643C270.408 49.6531 271.09 50.2378 271.869 50.1926C272.498 50.1502 273.018 49.7037 273.158 49.0867L274.977 49.1821L274.828 52.027C274.811 52.3598 274.517 52.6028 274.184 52.5853L270.599 52.3974C270.552 52.0505 270.386 51.7296 270.117 51.4895C269.828 51.2375 269.457 51.1211 269.088 51.1449C268.317 51.2337 267.743 51.8925 267.756 52.6683C267.813 53.4464 268.516 54.043 269.274 53.9858C269.914 53.9332 270.434 53.4761 270.575 52.8591L274.159 53.0469C274.752 53.078 275.26 52.6417 275.291 52.0513L275.644 45.3093" fill="#545454"/>
<path d="M309.404 54.6075L316.226 37.2528L319.293 37.4135L324.264 55.3863L321.747 55.2544L320.432 50.5471L313.673 50.1929L311.897 54.7382L309.404 54.6075ZM314.362 48.042L319.947 48.3347L317.625 39.441L314.362 48.042ZM326.63 55.5103L327.302 42.6879L329.219 42.7884L329.626 44.2036C330.223 43.8183 330.921 43.4864 331.721 43.2079C332.537 42.9142 333.369 42.7896 334.216 42.834C335.175 42.8842 335.931 43.1321 336.484 43.5777C337.054 44.0081 337.45 44.5656 337.67 45.25C337.891 45.9345 337.98 46.6682 337.939 47.4512L337.487 56.0793L335.09 55.9537L335.528 47.6132C335.554 47.1019 335.474 46.657 335.285 46.2786C335.113 45.8851 334.857 45.5753 334.517 45.3491C334.176 45.123 333.75 44.9965 333.239 44.9697C332.759 44.9446 332.31 44.9691 331.889 45.0432C331.485 45.1181 331.094 45.2339 330.717 45.3904C330.341 45.5309 329.947 45.7105 329.535 45.9292L329.027 55.6359L326.63 55.5103ZM343.324 56.5294C342.381 56.48 341.613 56.1593 341.019 55.5675C340.442 54.9604 340.18 54.1536 340.233 53.147L340.285 52.1404C340.337 51.1497 340.715 50.3604 341.419 49.7724C342.139 49.1693 343.187 48.9038 344.561 48.9758L348.563 49.1855L348.634 47.8434C348.66 47.3481 348.594 46.928 348.435 46.5833C348.294 46.2234 348.004 45.9438 347.566 45.7446C347.128 45.5454 346.469 45.4228 345.591 45.3767L341.66 45.1708L341.734 43.7567C342.316 43.659 342.993 43.5823 343.765 43.5267C344.553 43.4718 345.467 43.4636 346.506 43.5021C347.561 43.5574 348.432 43.7392 349.121 44.0477C349.827 44.341 350.339 44.8005 350.659 45.4261C350.98 46.0357 351.114 46.8358 351.062 47.8264L350.593 56.7662L348.7 56.667L348.367 55.2315C348.267 55.2904 348.061 55.3998 347.749 55.5596C347.437 55.7035 347.036 55.8588 346.547 56.0254C346.073 56.1928 345.554 56.3258 344.988 56.4243C344.438 56.5237 343.883 56.5587 343.324 56.5294ZM344.518 54.8376C344.757 54.8661 345.038 54.8568 345.361 54.8096C345.7 54.7633 346.031 54.7086 346.355 54.6454C346.695 54.5671 347.004 54.4872 347.28 54.4056C347.573 54.3248 347.809 54.257 347.988 54.2023C348.184 54.1325 348.29 54.09 348.307 54.0748L348.501 50.3839L345.138 50.3519C344.304 50.3562 343.694 50.5326 343.307 50.8808C342.937 51.2299 342.736 51.7 342.705 52.2912L342.675 52.8664C342.65 53.3298 342.727 53.7103 342.903 54.0079C343.081 54.2896 343.31 54.4939 343.592 54.6208C343.89 54.7486 344.198 54.8208 344.518 54.8376ZM357.42 57.148C356.637 57.107 355.981 56.9364 355.452 56.6363C354.939 56.337 354.563 55.8847 354.322 55.2793C354.098 54.6587 354.013 53.8371 354.067 52.8145L354.809 38.65L357.206 38.7756L356.48 52.6286C356.444 53.2996 356.481 53.8223 356.59 54.1965C356.715 54.5555 356.894 54.8132 357.126 54.9696C357.374 55.1268 357.665 55.2382 357.998 55.3037L359.188 55.5103L359.098 57.2359L357.42 57.148ZM364.357 63.1833L366.213 57.5848C365.702 57.542 365.221 57.4126 364.767 57.1966C364.315 56.9646 363.916 56.6152 363.572 56.1486C363.245 55.6668 362.99 55.0366 362.806 54.2579L360.438 44.4245L362.954 44.5564L365.062 53.8714C365.183 54.3104 365.325 54.6463 365.489 54.8792C365.669 55.1129 365.845 55.2823 366.016 55.3874C366.203 55.4774 366.368 55.5341 366.511 55.5576C366.654 55.5811 366.742 55.5937 366.774 55.5954L370.336 44.9432L372.805 45.0726L367.549 60.9714L366.275 63.2838L364.357 63.1833ZM373.71 57.9777L373.803 56.2041L381.253 47.4861L374.087 47.1105L374.19 45.1452L384.16 45.6677L384.066 47.4653L376.592 56.182L383.59 56.5488L383.488 58.4901L373.71 57.9777ZM391.199 59.0385C389.841 58.9673 388.765 58.7106 387.971 58.2684C387.193 57.8271 386.653 57.1259 386.351 56.1648C386.066 55.1885 385.967 53.8615 386.055 52.1838C386.145 50.4742 386.382 49.1568 386.767 48.2317C387.169 47.2914 387.779 46.6505 388.598 46.3089C389.417 45.9673 390.506 45.832 391.864 45.9032C393.046 45.9652 393.99 46.1428 394.696 46.4362C395.418 46.7144 395.93 47.1818 396.233 47.8385C396.551 48.4801 396.682 49.3601 396.623 50.4786C396.582 51.2615 396.389 51.8763 396.046 52.3229C395.718 52.7703 395.261 53.0828 394.675 53.2604C394.105 53.4388 393.428 53.5075 392.645 53.4665L388.403 53.2441C388.37 54.1717 388.435 54.9201 388.598 55.4894C388.777 56.0436 389.115 56.4619 389.613 56.7443C390.128 57.0116 390.889 57.1716 391.895 57.2244L395.898 57.4341L395.823 58.8722C395.13 58.932 394.423 58.9831 393.7 59.0253C392.976 59.0835 392.142 59.0879 391.199 59.0385ZM388.458 51.733L392.508 51.9452C393.148 51.9787 393.625 51.8836 393.941 51.6598C394.258 51.4361 394.432 51.0046 394.466 50.3655C394.499 49.7264 394.43 49.2181 394.257 48.8405C394.101 48.4638 393.819 48.1847 393.412 48.0031C393.005 47.8216 392.458 47.7128 391.771 47.6768C390.988 47.6358 390.359 47.7229 389.883 47.9383C389.423 48.1545 389.081 48.5612 388.857 49.1583C388.65 49.7563 388.517 50.6145 388.458 51.733Z" fill="#545454"/>
<path d="M409.052 46.0721C409.391 44.7305 411.33 44.8321 411.527 46.2018C411.656 47.094 412.651 47.5685 413.425 47.1068C414.613 46.3982 415.912 47.8409 415.083 48.9489C414.543 49.6707 414.911 50.7095 415.785 50.9306C417.127 51.27 417.025 53.2087 415.655 53.406C414.763 53.5345 414.289 54.5292 414.75 55.3035C415.459 56.492 414.016 57.791 412.908 56.9621C412.187 56.422 411.148 56.7899 410.927 57.6638C410.587 59.0053 408.649 58.9037 408.451 57.5341C408.323 56.6419 407.328 56.1674 406.554 56.629C405.365 57.3376 404.066 55.895 404.895 54.787C405.435 54.0652 405.067 53.0263 404.193 52.8053C402.852 52.4659 402.954 50.5272 404.323 50.3299C405.215 50.2014 405.69 49.2067 405.228 48.4324C404.52 47.2438 405.962 45.9448 407.07 46.7738C407.792 47.3138 408.831 46.9459 409.052 46.0721Z" fill="#545454"/>
<rect x="446.987" y="33.7793" width="40" height="40" rx="20" transform="rotate(3 446.987 33.7793)" fill="#E6F5FA"/>
<path d="M475.894 56.6116C475.3 55.7946 474.359 55.1963 473.041 54.815C473.929 54.5601 474.618 54.1764 475.097 53.6848C475.827 52.9372 476.21 52.0207 476.267 50.9364C476.335 49.6266 475.918 48.5175 475.006 47.587C474.105 46.657 472.75 46.1446 470.974 46.0515L462.233 45.5934C461.156 45.537 460.228 46.3603 460.171 47.4446L459.42 61.7767C459.357 62.9684 460.276 63.9853 461.471 64.048L469.168 64.4514C469.588 64.4734 470.453 64.4326 471.743 64.328C472.718 64.2607 473.45 64.0945 473.95 63.8407C474.748 63.4412 475.383 62.8609 475.875 62.1223C476.356 61.3832 476.627 60.5362 476.677 59.5808C476.738 58.4106 476.477 57.4173 475.894 56.6116ZM466.674 62.3937C463.52 62.2284 461.042 60.6883 461.134 58.9277C461.147 58.6808 461.203 58.4361 461.313 58.205C461.831 59.6531 464.036 60.8237 466.749 60.9659C469.462 61.108 471.778 60.1744 472.433 58.7878C472.518 59.029 472.559 59.2788 472.546 59.5257C472.453 61.2864 469.828 62.559 466.674 62.3937ZM466.894 58.1961C463.74 58.0308 461.263 56.4799 461.354 54.73C461.367 54.4831 461.423 54.2385 461.533 54.0073C462.05 55.4555 464.256 56.6261 466.969 56.7682C469.682 56.9104 471.998 55.9768 472.653 54.5901C472.738 54.8314 472.779 55.0811 472.766 55.3281C472.674 57.078 470.048 58.3614 466.894 58.1961ZM467.098 54.299C463.944 54.1337 461.456 52.5823 461.548 50.8324C461.64 49.0825 464.277 47.789 467.431 47.9543C470.585 48.1196 473.062 49.6811 472.97 51.431C472.878 53.1809 470.253 54.4643 467.098 54.299Z" fill="#545454"/>
<path d="M460.426 54.5196L460.78 47.7669C460.811 47.1764 460.351 46.6894 459.759 46.6584L456.174 46.4705C456.085 45.6908 455.381 45.1264 454.599 45.2146C453.904 45.2858 453.367 45.8498 453.331 46.5476C453.29 47.3313 453.892 47.998 454.677 48.0499C455.377 48.0866 455.995 47.6237 456.149 46.9429L459.734 47.1307C460.068 47.1482 460.323 47.42 460.317 47.7534L460.168 50.5983L458.294 50.5001C458.195 49.7198 457.49 49.1662 456.708 49.2651C456.023 49.3477 455.486 49.9116 455.46 50.61C455.419 51.3937 456.032 52.0609 456.819 52.0914C457.518 52.1281 458.137 51.6545 458.28 50.9731L460.154 51.0712L459.974 54.5066L455.764 54.286C455.676 53.5063 454.971 52.9419 454.189 53.0301C453.495 53.1014 452.958 53.6653 452.922 54.3524C452.919 54.4168 452.916 54.4705 452.923 54.5355C452.979 55.3135 453.661 55.909 454.441 55.853C455.069 55.8106 455.59 55.3534 455.729 54.7471L459.928 54.9671L459.748 58.4026L457.929 58.3072C457.893 57.9501 457.727 57.6185 457.448 57.3778C456.86 56.8625 455.961 56.923 455.444 57.5096C455.192 57.7978 455.064 58.1679 455.099 58.5464C455.154 59.3352 455.836 59.92 456.616 59.8747C457.244 59.8323 457.764 59.3859 457.904 58.7688L459.724 58.8642L459.575 61.7091C459.557 62.0419 459.264 62.2849 458.93 62.2674L455.345 62.0796C455.299 61.7326 455.132 61.4117 454.864 61.1716C454.575 60.9196 454.203 60.8032 453.835 60.827C453.064 60.9158 452.489 61.5747 452.503 62.3504C452.559 63.1285 453.262 63.7251 454.021 63.668C454.66 63.6154 455.181 63.1582 455.321 62.5412L458.906 62.7291C459.498 62.7601 460.006 62.3239 460.037 61.7334L460.391 54.9914" fill="#545454"/>
<path d="M500.302 64.7563C499.919 64.7362 499.48 64.6972 498.987 64.6393C498.508 64.5982 498.015 64.5402 497.506 64.4655C497.013 64.3916 496.536 64.3186 496.075 64.2464C495.63 64.175 495.25 64.091 494.935 63.9943L495.033 62.1249C495.447 62.1786 495.94 62.2365 496.514 62.2986C497.103 62.3616 497.725 62.4182 498.38 62.4685C499.05 62.5197 499.696 62.5616 500.32 62.5942C501.007 62.6302 501.617 62.5981 502.151 62.4979C502.701 62.3986 503.137 62.1811 503.459 61.8455C503.797 61.5107 503.983 61.0238 504.016 60.3847L504.07 59.3541C504.108 58.6351 503.937 58.0733 503.558 57.6689C503.194 57.2654 502.613 57.0426 501.814 57.0008L500.017 56.9066C498.483 56.8262 497.31 56.4283 496.499 55.7128C495.703 54.9982 495.348 53.826 495.433 52.1962L495.483 51.2375C495.572 49.5439 496.091 48.3614 497.039 47.6901C498.004 47.0037 499.334 46.7048 501.028 46.7936C501.587 46.8229 502.184 46.8863 502.82 46.9837C503.457 47.0651 504.076 47.1617 504.679 47.2734C505.282 47.3851 505.782 47.4914 506.177 47.5922L506.079 49.4616C505.362 49.376 504.558 49.2858 503.666 49.191C502.79 49.081 501.961 49.0055 501.178 48.9645C500.507 48.9293 499.92 48.9786 499.416 49.1124C498.929 49.2311 498.54 49.4751 498.248 49.8443C497.972 50.2144 497.816 50.751 497.779 51.454L497.741 52.173C497.696 53.0358 497.897 53.6471 498.342 54.007C498.788 54.3668 499.426 54.5685 500.257 54.612L502.199 54.7138C503.205 54.7665 504.018 54.9934 504.638 55.3944C505.274 55.7962 505.735 56.325 506.021 56.9809C506.307 57.6368 506.429 58.3722 506.386 59.187L506.321 60.4333C506.256 61.6796 505.95 62.6249 505.403 63.2692C504.857 63.9135 504.145 64.3408 503.269 64.5513C502.394 64.7457 501.405 64.8141 500.302 64.7563ZM512.838 65.4132C511.64 65.3504 510.722 64.9819 510.084 64.3076C509.463 63.6182 509.188 62.6104 509.257 61.2842L509.731 52.2486L512.127 52.3742L511.688 60.7627C511.638 61.7214 511.819 62.3798 512.233 62.7379C512.663 63.0969 513.277 63.2973 514.076 63.3392C514.715 63.3727 515.328 63.3086 515.913 63.1471C516.515 62.9703 517.105 62.7209 517.682 62.3986L518.191 52.692L520.588 52.8176L519.916 65.64L517.998 65.5395L517.591 64.1482C516.947 64.515 516.209 64.8289 515.378 65.0898C514.564 65.3515 513.717 65.4593 512.838 65.4132ZM527.981 66.2069C527.23 66.1675 526.54 66.0352 525.911 65.81C525.299 65.5696 524.766 65.1972 524.312 64.6927C523.873 64.1891 523.549 63.5072 523.337 62.6469C523.126 61.7867 523.054 60.7095 523.122 59.4153C523.192 58.0891 523.369 57.0088 523.653 56.1746C523.937 55.3243 524.316 54.6712 524.789 54.2153C525.278 53.7443 525.855 53.4301 526.52 53.2727C527.186 53.1153 527.926 53.0579 528.74 53.1006C529.411 53.1358 530.113 53.2046 530.844 53.307C531.592 53.4103 532.314 53.5523 533.009 53.7329L532.935 55.147L529.316 54.9573C528.533 54.9163 527.871 55.0098 527.331 55.2378C526.791 55.4498 526.375 55.9007 526.082 56.5903C525.79 57.264 525.61 58.2559 525.542 59.5661C525.475 60.8284 525.56 61.8101 525.796 62.5114C526.032 63.1967 526.4 63.6726 526.899 63.9391C527.413 64.2064 528.062 64.3606 528.845 64.4016L532.632 64.6001L532.56 65.9662C532.188 66.0428 531.744 66.1076 531.228 66.1607C530.73 66.1987 530.2 66.219 529.639 66.2216C529.093 66.2411 528.541 66.2362 527.981 66.2069ZM539.731 66.8226C538.98 66.7833 538.29 66.651 537.661 66.4258C537.049 66.1854 536.515 65.813 536.061 65.3085C535.623 64.8049 535.298 64.1229 535.087 63.2627C534.876 62.4025 534.804 61.3252 534.872 60.031C534.941 58.7048 535.118 57.6246 535.402 56.7903C535.687 55.9401 536.066 55.287 536.538 54.8311C537.027 54.3601 537.605 54.0459 538.27 53.8884C538.935 53.731 539.675 53.6737 540.49 53.7164C541.161 53.7516 541.862 53.8204 542.594 53.9228C543.342 54.0261 544.063 54.168 544.759 54.3487L544.685 55.7627L541.066 55.5731C540.283 55.532 539.621 55.6255 539.08 55.8535C538.54 56.0656 538.124 56.5164 537.832 57.2061C537.54 57.8797 537.36 58.8716 537.291 60.1818C537.225 61.4441 537.31 62.4259 537.545 63.1272C537.782 63.8125 538.149 64.2884 538.648 64.5549C539.163 64.8222 539.812 64.9763 540.595 65.0174L544.381 65.2158L544.31 66.582C543.937 66.6586 543.493 66.7234 542.978 66.7765C542.479 66.8145 541.949 66.8348 541.388 66.8374C540.843 66.8569 540.29 66.8519 539.731 66.8226ZM551.768 67.4535C550.41 67.3823 549.334 67.1256 548.54 66.6835C547.762 66.2422 547.222 65.5409 546.92 64.5798C546.634 63.6035 546.536 62.2765 546.624 60.5989C546.713 58.8892 546.951 57.5718 547.336 56.6467C547.737 55.7064 548.348 55.0655 549.167 54.7239C549.986 54.3823 551.074 54.2471 552.432 54.3182C553.615 54.3802 554.559 54.5579 555.264 54.8512C555.987 55.1294 556.499 55.5968 556.801 56.2535C557.12 56.8951 557.25 57.7751 557.191 58.8936C557.15 59.6765 556.958 60.2913 556.614 60.7379C556.286 61.1854 555.829 61.4979 555.243 61.6754C554.673 61.8538 553.997 61.9225 553.214 61.8815L548.971 61.6592C548.939 62.5867 549.004 63.3352 549.166 63.9044C549.345 64.4586 549.684 64.8769 550.182 65.1593C550.697 65.4266 551.457 65.5867 552.464 65.6394L556.466 65.8492L556.391 67.2872C555.699 67.3471 554.991 67.3981 554.268 67.4403C553.544 67.4985 552.711 67.5029 551.768 67.4535ZM549.027 60.148L553.077 60.3603C553.716 60.3938 554.194 60.2986 554.51 60.0749C554.826 59.8511 555.001 59.4197 555.034 58.7805C555.068 58.1414 554.998 57.6331 554.826 57.2555C554.669 56.8788 554.388 56.5997 553.981 56.4182C553.574 56.2366 553.027 56.1278 552.339 56.0918C551.557 56.0508 550.927 56.138 550.451 56.3533C549.991 56.5696 549.649 56.9762 549.426 57.5734C549.218 58.1713 549.085 59.0295 549.027 60.148ZM564.711 68.1318C563.353 68.0606 562.277 67.804 561.483 67.3618C560.705 66.9205 560.165 66.2193 559.863 65.2581C559.578 64.2819 559.479 62.9549 559.567 61.2772C559.657 59.5675 559.894 58.2501 560.279 57.325C560.68 56.3847 561.291 55.7438 562.11 55.4022C562.929 55.0606 564.017 54.9254 565.376 54.9966C566.558 55.0585 567.502 55.2362 568.208 55.5295C568.93 55.8077 569.442 56.2752 569.744 56.9319C570.063 57.5734 570.193 58.4534 570.135 59.5719C570.094 60.3548 569.901 60.9696 569.557 61.4162C569.229 61.8637 568.772 62.1762 568.186 62.3538C567.616 62.5322 566.94 62.6009 566.157 62.5598L561.915 62.3375C561.882 63.2651 561.947 64.0135 562.109 64.5828C562.289 65.1369 562.627 65.5552 563.125 65.8376C563.64 66.105 564.4 66.265 565.407 66.3177L569.41 66.5275L569.334 67.9655C568.642 68.0254 567.935 68.0764 567.211 68.1186C566.487 68.1768 565.654 68.1812 564.711 68.1318ZM561.97 60.8263L566.02 61.0386C566.659 61.0721 567.137 60.977 567.453 60.7532C567.769 60.5294 567.944 60.098 567.978 59.4589C568.011 58.8197 567.942 58.3114 567.769 57.9339C567.613 57.5572 567.331 57.278 566.924 57.0965C566.517 56.9149 565.97 56.8061 565.283 56.7701C564.5 56.7291 563.87 56.8163 563.394 57.0317C562.934 57.2479 562.593 57.6546 562.369 58.2517C562.162 58.8496 562.028 59.7078 561.97 60.8263ZM576.768 68.7637C575.729 68.7092 574.878 68.4403 574.214 67.9569C573.567 67.4744 573.1 66.7529 572.814 65.7926C572.528 64.8164 572.425 63.5773 572.504 62.0753C572.587 60.4935 572.805 59.2232 573.16 58.2645C573.532 57.2906 574.081 56.5984 574.807 56.1878C575.534 55.7613 576.497 55.5794 577.696 55.6422C578.367 55.6774 579.026 55.7841 579.674 55.9622C580.337 56.1412 580.912 56.3315 581.398 56.5332L581.712 50.5414L584.109 50.6671L583.15 68.954L581.185 68.851L580.82 67.5581C580.553 67.7684 580.19 67.9737 579.731 68.1739C579.272 68.3582 578.784 68.5088 578.265 68.6258C577.746 68.7428 577.247 68.7888 576.768 68.7637ZM577.638 66.8385C578.293 66.8729 578.889 66.8 579.427 66.6199C579.982 66.4407 580.472 66.2501 580.899 66.0482L581.308 58.2589C580.82 58.0891 580.339 57.9357 579.866 57.7988C579.409 57.6467 578.893 57.5555 578.318 57.5254C577.567 57.486 576.953 57.59 576.475 57.8374C575.997 58.0847 575.637 58.5465 575.393 59.2226C575.149 59.8988 574.995 60.852 574.931 62.0824C574.871 63.2168 574.919 64.1326 575.075 64.8297C575.232 65.5108 575.518 66.0065 575.935 66.3167C576.367 66.6277 576.935 66.8017 577.638 66.8385Z" fill="#545454"/>
<path d="M596.794 55.9114C597.134 54.5699 599.072 54.6715 599.27 56.0411C599.398 56.9334 600.393 57.4078 601.167 56.9462C602.356 56.2376 603.655 57.6803 602.826 58.7883C602.286 59.51 602.653 60.5489 603.527 60.77C604.869 61.1093 604.767 63.048 603.398 63.2453C602.505 63.3738 602.031 64.3685 602.493 65.1428C603.201 66.3314 601.759 67.6304 600.651 66.8014C599.929 66.2614 598.89 66.6293 598.669 67.5032C598.329 68.8447 596.391 68.7431 596.193 67.3734C596.065 66.4812 595.07 66.0068 594.296 66.4684C593.107 67.177 591.808 65.7343 592.637 64.6263C593.177 63.9046 592.81 62.8657 591.936 62.6446C590.594 62.3052 590.696 60.3666 592.065 60.1693C592.958 60.0408 593.432 59.046 592.97 58.2718C592.262 57.0832 593.704 55.7842 594.812 56.6132C595.534 57.1532 596.573 56.7853 596.794 55.9114Z" fill="#545454"/>
<rect x="634.729" y="43.6182" width="40" height="40" rx="20" transform="rotate(3 634.729 43.6182)" fill="#E6F5FA"/>
<path d="M663.636 66.4504C663.042 65.6335 662.102 65.0352 660.783 64.6539C661.671 64.399 662.36 64.0153 662.839 63.5236C663.57 62.776 663.952 61.8595 664.009 60.7752C664.078 59.4655 663.661 58.3564 662.749 57.4258C661.848 56.4959 660.493 55.9835 658.717 55.8904L649.975 55.4323C648.899 55.3759 647.97 56.1992 647.913 57.2835L647.162 71.6156C647.1 72.8072 648.018 73.8242 649.213 73.8868L656.91 74.2902C657.33 74.3122 658.196 74.2715 659.486 74.1668C660.461 74.0995 661.193 73.9333 661.692 73.6796C662.49 73.2801 663.125 72.6997 663.617 71.9612C664.098 71.2221 664.37 70.3751 664.42 69.4196C664.481 68.2494 664.22 67.2561 663.636 66.4504ZM654.417 72.2326C651.262 72.0673 648.785 70.5272 648.877 68.7665C648.89 68.5196 648.946 68.275 649.055 68.0439C649.573 69.492 651.779 70.6626 654.491 70.8047C657.204 70.9469 659.52 70.0133 660.176 68.6267C660.26 68.8679 660.301 69.1177 660.288 69.3646C660.196 71.1252 657.571 72.3979 654.417 72.2326ZM654.636 68.0349C651.482 67.8696 649.005 66.3188 649.097 64.5689C649.11 64.322 649.166 64.0773 649.275 63.8462C649.793 65.2943 651.998 66.4649 654.711 66.6071C657.424 66.7493 659.74 65.8157 660.396 64.429C660.48 64.6703 660.521 64.92 660.508 65.1669C660.416 66.9168 657.791 68.2002 654.636 68.0349ZM654.841 64.1379C651.687 63.9726 649.199 62.4212 649.29 60.6713C649.382 58.9214 652.019 57.6278 655.173 57.7931C658.327 57.9584 660.804 59.52 660.712 61.2699C660.621 63.0198 657.995 64.3032 654.841 64.1379Z" fill="#545454"/>
<path d="M648.169 64.3585L648.523 57.6057C648.554 57.0153 648.093 56.5283 647.501 56.4972L643.916 56.3094C643.828 55.5296 643.123 54.9652 642.341 55.0534C641.647 55.1247 641.11 55.6886 641.073 56.3864C641.032 57.1701 641.634 57.8368 642.42 57.8887C643.119 57.9254 643.737 57.4626 643.892 56.7817L647.476 56.9696C647.81 56.9871 648.066 57.2589 648.059 57.5922L647.91 60.4372L646.037 60.339C645.937 59.5587 645.232 59.005 644.45 59.104C643.766 59.1865 643.229 59.7505 643.203 60.4488C643.162 61.2325 643.775 61.8998 644.561 61.9302C645.261 61.9669 645.879 61.4934 646.023 60.8119L647.896 60.9101L647.716 64.3455L643.507 64.1249C643.418 63.3452 642.714 62.7808 641.932 62.869C641.237 62.9402 640.7 63.5042 640.664 64.1912C640.661 64.2557 640.658 64.3093 640.666 64.3743C640.722 65.1524 641.403 65.7479 642.183 65.6919C642.812 65.6494 643.332 65.1923 643.472 64.586L647.67 64.806L647.49 68.2414L645.671 68.1461C645.636 67.789 645.47 67.4573 645.191 67.2166C644.602 66.7014 643.703 66.7619 643.187 67.3484C642.934 67.6366 642.807 68.0067 642.841 68.3853C642.897 69.1741 643.579 69.7588 644.358 69.7136C644.987 69.6712 645.506 69.2247 645.647 68.6077L647.466 68.7031L647.317 71.548C647.3 71.8808 647.006 72.1238 646.672 72.1063L643.088 71.9184C643.041 71.5715 642.874 71.2506 642.606 71.0105C642.317 70.7585 641.945 70.6421 641.577 70.6659C640.806 70.7546 640.232 71.4135 640.245 72.1893C640.302 72.9674 641.004 73.564 641.763 73.5068C642.403 73.4542 642.923 72.9971 643.063 72.3801L646.648 72.5679C647.24 72.599 647.749 72.1627 647.78 71.5723L648.133 64.8303" fill="#545454"/>
<path d="M687.789 74.4375L682.819 56.4648L685.311 56.5954L689.457 71.9534L695.21 57.1142L697.678 57.2435L690.857 74.5983L687.789 74.4375ZM700.239 60.0695C699.952 60.0544 699.815 59.911 699.829 59.6394L699.935 57.6262C699.95 57.3386 700.101 57.2023 700.389 57.2174L702.162 57.3103C702.29 57.317 702.384 57.362 702.444 57.4452C702.503 57.5285 702.53 57.634 702.523 57.7618L702.418 59.7751C702.404 60.0467 702.269 60.1758 702.013 60.1624L700.239 60.0695ZM699.119 75.0313L699.791 62.2089L702.188 62.3345L701.516 75.1569L699.119 75.0313ZM709.351 75.7117C709.015 75.6942 708.616 75.6652 708.154 75.625C707.691 75.5847 707.214 75.5276 706.721 75.4537C706.243 75.3967 705.798 75.3333 705.385 75.2636C704.988 75.1947 704.671 75.122 704.435 75.0456L704.51 73.6075L709.903 73.8901C710.366 73.9144 710.767 73.9034 711.106 73.8571C711.446 73.7948 711.71 73.6484 711.898 73.4179C712.103 73.1883 712.217 72.8418 712.241 72.3785L712.269 71.8512C712.294 71.3718 712.154 70.988 711.849 70.6996C711.543 70.4112 711.023 70.2478 710.288 70.2093L708.419 70.1113C707.668 70.0719 707.002 69.9409 706.421 69.7182C705.856 69.4803 705.419 69.1129 705.108 68.616C704.814 68.1199 704.688 67.4644 704.731 66.6495L704.767 65.9545C704.81 65.1396 704.997 64.4765 705.328 63.9651C705.675 63.4546 706.199 63.0895 706.9 62.8699C707.601 62.6342 708.519 62.5462 709.653 62.6056C710.133 62.6307 710.659 62.6823 711.231 62.7604C711.821 62.8233 712.393 62.9014 712.949 62.9946C713.505 63.0879 713.949 63.1832 714.28 63.2807L714.205 64.7187L709.124 64.4524C708.421 64.4156 707.871 64.507 707.475 64.7265C707.095 64.9469 706.888 65.3927 706.852 66.0638L706.827 66.5431C706.805 66.9585 706.877 67.2827 707.041 67.5156C707.205 67.7485 707.445 67.9053 707.761 67.986C708.093 68.0674 708.483 68.1199 708.93 68.1434L710.848 68.2439C712.062 68.3075 712.966 68.6432 713.559 69.2511C714.153 69.843 714.423 70.6503 714.369 71.6728L714.318 72.6555C714.272 73.5183 714.038 74.1789 713.613 74.6373C713.188 75.0957 712.612 75.402 711.882 75.556C711.169 75.7109 710.326 75.7628 709.351 75.7117ZM720.639 76.3033C719.44 76.2405 718.522 75.872 717.885 75.1977C717.264 74.5082 716.988 73.5004 717.058 72.1743L717.532 63.1387L719.928 63.2643L719.489 71.6528C719.438 72.6114 719.62 73.2699 720.034 73.628C720.464 73.987 721.078 74.1874 721.877 74.2293C722.516 74.2628 723.128 74.1987 723.714 74.0371C724.316 73.8604 724.906 73.6109 725.483 73.2887L725.992 63.582L728.389 63.7077L727.717 76.5301L725.799 76.4296L725.392 75.0383C724.747 75.4051 724.01 75.719 723.179 75.9798C722.364 76.2415 721.518 76.3494 720.639 76.3033ZM733.577 76.9814C732.635 76.932 731.866 76.6113 731.272 76.0195C730.695 75.4124 730.433 74.6056 730.486 73.599L730.539 72.5924C730.591 71.6017 730.969 70.8124 731.672 70.2244C732.393 69.6213 733.44 69.3558 734.814 69.4278L738.817 69.6376L738.887 68.2954C738.913 67.8001 738.847 67.38 738.689 67.0353C738.547 66.6754 738.258 66.3958 737.82 66.1966C737.381 65.9974 736.723 65.8748 735.844 65.8288L731.913 65.6228L731.988 64.2087C732.57 64.111 733.246 64.0343 734.018 63.9787C734.806 63.9238 735.72 63.9156 736.759 63.9541C737.814 64.0094 738.686 64.1912 739.374 64.4997C740.08 64.793 740.593 65.2525 740.912 65.8781C741.233 66.4877 741.367 67.2878 741.315 68.2785L740.847 77.2182L738.953 77.119L738.62 75.6835C738.521 75.7424 738.315 75.8518 738.002 76.0116C737.69 76.1555 737.289 76.3108 736.8 76.4774C736.327 76.6448 735.807 76.7778 735.241 76.8763C734.691 76.9757 734.137 77.0107 733.577 76.9814ZM734.771 75.2896C735.01 75.3181 735.291 75.3088 735.614 75.2616C735.953 75.2153 736.284 75.1606 736.608 75.0974C736.949 75.0192 737.257 74.9392 737.534 74.8576C737.827 74.7768 738.062 74.709 738.241 74.6543C738.437 74.5845 738.544 74.542 738.561 74.5268L738.754 70.8359L735.391 70.8039C734.558 70.8083 733.948 70.9846 733.561 71.3328C733.19 71.6819 732.989 72.152 732.958 72.7432L732.928 73.3184C732.904 73.7818 732.98 74.1623 733.157 74.4599C733.334 74.7416 733.564 74.9459 733.846 75.0728C734.143 75.2006 734.452 75.2728 734.771 75.2896ZM747.674 77.6C746.891 77.559 746.235 77.3884 745.706 77.0883C745.193 76.789 744.816 76.3367 744.575 75.7313C744.352 75.1107 744.266 74.2891 744.32 73.2665L745.062 59.102L747.459 59.2276L746.733 73.0806C746.698 73.7517 746.735 74.2743 746.843 74.6485C746.969 75.0075 747.147 75.2652 747.379 75.4216C747.628 75.5788 747.918 75.6902 748.251 75.7557L749.442 75.9623L749.352 77.6879L747.674 77.6ZM752.41 62.8036C752.122 62.7885 751.986 62.6452 752 62.3735L752.105 60.3603C752.121 60.0727 752.272 59.9364 752.559 59.9515L754.333 60.0445C754.461 60.0512 754.555 60.0961 754.614 60.1794C754.674 60.2626 754.701 60.3681 754.694 60.496L754.588 62.5092C754.574 62.7808 754.439 62.9099 754.184 62.8965L752.41 62.8036ZM751.289 77.7655L751.961 64.9431L754.358 65.0687L753.686 77.8911L751.289 77.7655ZM756.544 78.0408L756.637 76.2673L764.087 67.5492L756.921 67.1737L757.024 65.2084L766.994 65.7309L766.9 67.5284L759.426 76.2452L766.424 76.612L766.322 78.5533L756.544 78.0408ZM774.033 79.1016C772.675 79.0304 771.599 78.7738 770.805 78.3316C770.027 77.8903 769.487 77.1891 769.185 76.2279C768.9 75.2517 768.801 73.9247 768.889 72.247C768.979 70.5373 769.216 69.2199 769.601 68.2948C770.003 67.3546 770.613 66.7136 771.432 66.372C772.251 66.0304 773.34 65.8952 774.698 65.9664C775.88 66.0283 776.824 66.206 777.53 66.4993C778.252 66.7775 778.764 67.245 779.066 67.9017C779.385 68.5432 779.515 69.4233 779.457 70.5417C779.416 71.3246 779.223 71.9394 778.88 72.386C778.552 72.8335 778.095 73.146 777.509 73.3236C776.938 73.502 776.262 73.5707 775.479 73.5296L771.237 73.3073C771.204 74.2349 771.269 74.9833 771.432 75.5526C771.611 76.1067 771.949 76.525 772.447 76.8075C772.962 77.0748 773.723 77.2348 774.729 77.2875L778.732 77.4973L778.656 78.9353C777.964 78.9952 777.257 79.0462 776.534 79.0884C775.809 79.1466 774.976 79.151 774.033 79.1016ZM771.292 71.7961L775.342 72.0084C775.982 72.0419 776.459 71.9468 776.775 71.723C777.091 71.4992 777.266 71.0678 777.3 70.4287C777.333 69.7896 777.264 69.2812 777.091 68.9037C776.935 68.527 776.653 68.2478 776.246 68.0663C775.839 67.8847 775.292 67.776 774.605 67.7399C773.822 67.6989 773.192 67.7861 772.717 68.0015C772.257 68.2177 771.915 68.6244 771.691 69.2215C771.484 69.8195 771.351 70.6777 771.292 71.7961Z" fill="#545454"/>
<path d="M792.526 66.1687C792.865 64.8272 794.804 64.9288 795.001 66.2985C795.129 67.1907 796.124 67.6651 796.898 67.2035C798.087 66.4949 799.386 67.9376 798.557 69.0456C798.017 69.7674 798.385 70.8062 799.259 71.0273C800.6 71.3667 800.499 73.3053 799.129 73.5026C798.237 73.6312 797.762 74.6259 798.224 75.4001C798.933 76.5887 797.49 77.8877 796.382 77.0587C795.66 76.5187 794.621 76.8866 794.4 77.7605C794.061 79.102 792.122 79.0004 791.925 77.6308C791.796 76.7386 790.802 76.2641 790.027 76.7257C788.839 77.4343 787.54 75.9916 788.369 74.8836C788.909 74.1619 788.541 73.123 787.667 72.9019C786.326 72.5626 786.427 70.6239 787.797 70.4266C788.689 70.2981 789.163 69.3034 788.702 68.5291C787.993 67.3405 789.436 66.0415 790.544 66.8705C791.266 67.4105 792.305 67.0426 792.526 66.1687Z" fill="#545454"/>
<rect x="830.46" y="53.876" width="40" height="40" rx="20" transform="rotate(3 830.46 53.876)" fill="#E6F5FA"/>
<path d="M859.367 76.7083C858.773 75.8913 857.833 75.293 856.515 74.9117C857.402 74.6568 858.092 74.2731 858.571 73.7815C859.301 73.0339 859.684 72.1173 859.74 71.033C859.809 69.7233 859.392 68.6142 858.48 67.6836C857.579 66.7537 856.224 66.2413 854.448 66.1482L845.707 65.6901C844.63 65.6337 843.702 66.457 843.645 67.5413L842.894 81.8734C842.831 83.065 843.75 84.082 844.945 84.1446L852.642 84.548C853.062 84.57 853.927 84.5293 855.217 84.4247C856.192 84.3573 856.924 84.1912 857.423 83.9374C858.222 83.5379 858.856 82.9575 859.349 82.219C859.83 81.4799 860.101 80.6329 860.151 79.6774C860.212 78.5072 859.951 77.5139 859.367 76.7083ZM850.148 82.4904C846.994 82.3251 844.516 80.785 844.608 79.0244C844.621 78.7774 844.677 78.5328 844.787 78.3017C845.304 79.7498 847.51 80.9204 850.223 81.0625C852.936 81.2047 855.251 80.2711 855.907 78.8845C855.992 79.1257 856.032 79.3755 856.02 79.6224C855.927 81.383 853.302 82.6557 850.148 82.4904ZM850.368 78.2927C847.214 78.1274 844.737 76.5766 844.828 74.8267C844.841 74.5798 844.897 74.3351 845.007 74.104C845.524 75.5522 847.73 76.7227 850.443 76.8649C853.156 77.0071 855.471 76.0735 856.127 74.6868C856.212 74.9281 856.252 75.1778 856.239 75.4247C856.148 77.1747 853.522 78.4581 850.368 78.2927ZM850.572 74.3957C847.418 74.2304 844.93 72.679 845.022 70.9291C845.114 69.1792 847.75 67.8856 850.905 68.0509C854.059 68.2162 856.535 69.7778 856.444 71.5277C856.352 73.2776 853.726 74.561 850.572 74.3957Z" fill="#545454"/>
<path d="M843.9 74.6163L844.254 67.8636C844.285 67.2731 843.825 66.7861 843.233 66.7551L839.648 66.5672C839.559 65.7874 838.855 65.223 838.073 65.3112C837.378 65.3825 836.841 65.9464 836.805 66.6442C836.764 67.4279 837.366 68.0946 838.151 68.1466C838.851 68.1832 839.469 67.7204 839.623 67.0395L843.208 67.2274C843.542 67.2449 843.797 67.5167 843.791 67.85L843.642 70.695L841.768 70.5968C841.669 69.8165 840.964 69.2628 840.181 69.3618C839.497 69.4443 838.96 70.0083 838.934 70.7067C838.893 71.4904 839.506 72.1576 840.292 72.1881C840.992 72.2247 841.611 71.7512 841.754 71.0697L843.628 71.1679L843.447 74.6033L839.238 74.3827C839.15 73.603 838.445 73.0386 837.663 73.1268C836.969 73.198 836.432 73.762 836.396 74.4491C836.392 74.5135 836.39 74.5672 836.397 74.6321C836.453 75.4102 837.135 76.0057 837.915 75.9497C838.543 75.9072 839.064 75.4501 839.203 74.8438L843.402 75.0638L843.222 78.4992L841.402 78.4039C841.367 78.0468 841.201 77.7151 840.922 77.4744C840.334 76.9592 839.435 77.0197 838.918 77.6063C838.666 77.8944 838.538 78.2646 838.572 78.6431C838.628 79.4319 839.31 80.0167 840.09 79.9714C840.718 79.929 841.238 79.4825 841.378 78.8655L843.198 78.9609L843.048 81.8058C843.031 82.1386 842.738 82.3816 842.404 82.3641L838.819 82.1762C838.772 81.8293 838.606 81.5084 838.338 81.2683C838.049 81.0163 837.677 80.8999 837.309 80.9237C836.538 81.0125 835.963 81.6713 835.977 82.4471C836.033 83.2252 836.736 83.8218 837.494 83.7647C838.134 83.7121 838.655 83.2549 838.795 82.6379L842.38 82.8258C842.972 82.8568 843.48 82.4205 843.511 81.8301L843.865 75.0881" fill="#545454"/>
<path d="M877.624 84.3863L884.446 67.0316L887.514 67.1924L892.484 85.1651L889.967 85.0332L888.652 80.3259L881.893 79.9717L880.117 84.517L877.624 84.3863ZM882.583 77.8209L888.167 78.1135L885.845 69.2198L882.583 77.8209ZM894.85 85.2891L895.522 72.4667L897.44 72.5672L897.846 73.9824C898.443 73.5971 899.141 73.2652 899.941 72.9867C900.758 72.693 901.589 72.5684 902.436 72.6128C903.395 72.663 904.151 72.9109 904.704 73.3565C905.275 73.7869 905.67 74.3444 905.89 75.0289C906.111 75.7133 906.201 76.447 906.16 77.23L905.707 85.8581L903.311 85.7325L903.748 77.392C903.775 76.8807 903.694 76.4358 903.505 76.0574C903.334 75.6639 903.078 75.3541 902.737 75.128C902.396 74.9018 901.97 74.7753 901.459 74.7486C900.98 74.7234 900.53 74.7479 900.109 74.822C899.705 74.8969 899.314 75.0127 898.938 75.1692C898.562 75.3097 898.168 75.4893 897.756 75.708L897.247 85.4147L894.85 85.2891ZM911.544 86.3082C910.601 86.2588 909.833 85.9382 909.239 85.3463C908.662 84.7392 908.4 83.9324 908.453 82.9258L908.506 81.9192C908.558 80.9285 908.935 80.1392 909.639 79.5512C910.36 78.9481 911.407 78.6826 912.781 78.7546L916.784 78.9644L916.854 77.6222C916.88 77.1269 916.814 76.7068 916.656 76.3621C916.514 76.0022 916.224 75.7227 915.786 75.5234C915.348 75.3242 914.69 75.2016 913.811 75.1556L909.88 74.9496L909.954 73.5355C910.536 73.4378 911.213 73.3611 911.985 73.3055C912.773 73.2506 913.687 73.2424 914.726 73.2809C915.781 73.3362 916.652 73.518 917.341 73.8265C918.047 74.1198 918.56 74.5793 918.879 75.2049C919.2 75.8145 919.334 76.6146 919.282 77.6053L918.814 86.545L916.92 86.4458L916.587 85.0103C916.488 85.0692 916.282 85.1786 915.969 85.3385C915.657 85.4823 915.256 85.6376 914.767 85.8042C914.293 85.9716 913.774 86.1046 913.208 86.2031C912.658 86.3025 912.103 86.3375 911.544 86.3082ZM912.738 84.6164C912.977 84.6449 913.258 84.6356 913.581 84.5884C913.92 84.5421 914.251 84.4874 914.575 84.4242C914.915 84.346 915.224 84.266 915.501 84.1844C915.793 84.1036 916.029 84.0358 916.208 83.9811C916.404 83.9113 916.511 83.8688 916.527 83.8536L916.721 80.1627L913.358 80.1307C912.524 80.1351 911.914 80.3114 911.528 80.6596C911.157 81.0087 910.956 81.4788 910.925 82.07L910.895 82.6452C910.871 83.1086 910.947 83.4891 911.123 83.7867C911.301 84.0684 911.531 84.2727 911.812 84.3996C912.11 84.5274 912.419 84.5996 912.738 84.6164ZM925.641 86.9268C924.858 86.8858 924.202 86.7152 923.673 86.4151C923.16 86.1159 922.783 85.6635 922.542 85.0581C922.318 84.4375 922.233 83.6159 922.287 82.5933L923.029 68.4288L925.426 68.5544L924.7 82.4074C924.665 83.0785 924.701 83.6011 924.81 83.9753C924.935 84.3343 925.114 84.5921 925.346 84.7484C925.594 84.9056 925.885 85.017 926.218 85.0825L927.409 85.2891L927.318 87.0147L925.641 86.9268ZM932.578 92.9621L934.433 87.3636C933.923 87.3208 933.441 87.1914 932.987 86.9754C932.535 86.7434 932.137 86.3941 931.793 85.9274C931.465 85.4456 931.21 84.8154 931.027 84.0367L928.658 74.2033L931.174 74.3352L933.282 83.6502C933.403 84.0892 933.546 84.4251 933.71 84.658C933.89 84.8917 934.065 85.0612 934.236 85.1662C934.423 85.2562 934.589 85.3129 934.732 85.3364C934.875 85.3599 934.962 85.3725 934.994 85.3742L938.556 74.722L941.025 74.8514L935.77 90.7502L934.495 93.0626L932.578 92.9621ZM941.93 87.7565L942.023 85.9829L949.474 77.2649L942.307 76.8893L942.41 74.924L952.381 75.4465L952.286 77.2441L944.812 85.9608L951.81 86.3276L951.709 88.2689L941.93 87.7565ZM959.42 88.8173C958.062 88.7461 956.986 88.4894 956.192 88.0473C955.414 87.6059 954.874 86.9047 954.571 85.9436C954.286 84.9673 954.187 83.6403 954.275 81.9626C954.365 80.253 954.602 78.9356 954.987 78.0105C955.389 77.0702 955.999 76.4293 956.818 76.0877C957.637 75.7461 958.726 75.6109 960.084 75.682C961.266 75.744 962.21 75.9216 962.916 76.215C963.638 76.4932 964.151 76.9606 964.453 77.6173C964.772 78.2589 964.902 79.1389 964.843 80.2574C964.802 81.0403 964.61 81.6551 964.266 82.1017C963.938 82.5491 963.481 82.8616 962.895 83.0392C962.325 83.2176 961.648 83.2863 960.865 83.2453L956.623 83.023C956.591 83.9505 956.655 84.6989 956.818 85.2682C956.997 85.8224 957.336 86.2407 957.834 86.5231C958.348 86.7904 959.109 86.9504 960.116 87.0032L964.118 87.213L964.043 88.651C963.351 88.7108 962.643 88.7619 961.92 88.8041C961.196 88.8623 960.362 88.8667 959.42 88.8173ZM956.678 81.5118L960.729 81.724C961.368 81.7575 961.845 81.6624 962.162 81.4386C962.478 81.2149 962.653 80.7834 962.686 80.1443C962.72 79.5052 962.65 78.9969 962.478 78.6193C962.321 78.2426 962.039 77.9635 961.632 77.7819C961.225 77.6004 960.678 77.4916 959.991 77.4556C959.208 77.4146 958.579 77.5017 958.103 77.7171C957.643 77.9334 957.301 78.34 957.078 78.9371C956.87 79.5351 956.737 80.3933 956.678 81.5118Z" fill="#545454"/>
<path d="M977.272 75.8509C977.612 74.5093 979.55 74.6109 979.748 75.9806C979.876 76.8728 980.871 77.3473 981.645 76.8857C982.834 76.177 984.133 77.6197 983.304 78.7277C982.764 79.4495 983.132 80.4883 984.005 80.7094C985.347 81.0488 985.245 82.9875 983.876 83.1848C982.983 83.3133 982.509 84.308 982.971 85.0823C983.679 86.2708 982.237 87.5698 981.129 86.7409C980.407 86.2008 979.368 86.5687 979.147 87.4426C978.807 88.7841 976.869 88.6825 976.672 87.3129C976.543 86.4207 975.548 85.9462 974.774 86.4078C973.585 87.1165 972.286 85.6738 973.115 84.5658C973.655 83.844 973.288 82.8051 972.414 82.5841C971.072 82.2447 971.174 80.306 972.543 80.1087C973.436 79.9802 973.91 78.9855 973.448 78.2112C972.74 77.0226 974.183 75.7236 975.291 76.5526C976.012 77.0926 977.051 76.7248 977.272 75.8509Z" fill="#545454"/>
<rect x="1015.21" y="63.5581" width="40" height="40" rx="20" transform="rotate(3 1015.21 63.5581)" fill="#E6F5FA"/>
<path d="M1044.11 86.3904C1043.52 85.5734 1042.58 84.9751 1041.26 84.5938C1042.15 84.3389 1042.84 83.9552 1043.32 83.4636C1044.05 82.716 1044.43 81.7995 1044.49 80.7152C1044.56 79.4054 1044.14 78.2963 1043.23 77.3658C1042.33 76.4358 1040.97 75.9234 1039.19 75.8303L1030.45 75.3722C1029.38 75.3158 1028.45 76.1391 1028.39 77.2234L1027.64 91.5555C1027.58 92.7472 1028.5 93.7642 1029.69 93.8268L1037.39 94.2302C1037.81 94.2522 1038.67 94.2114 1039.96 94.1068C1040.94 94.0395 1041.67 93.8733 1042.17 93.6196C1042.97 93.22 1043.6 92.6397 1044.09 91.9011C1044.58 91.162 1044.85 90.315 1044.9 89.3596C1044.96 88.1894 1044.7 87.1961 1044.11 86.3904ZM1034.89 92.1725C1031.74 92.0072 1029.26 90.4671 1029.35 88.7065C1029.37 88.4596 1029.42 88.2149 1029.53 87.9838C1030.05 89.4319 1032.26 90.6025 1034.97 90.7447C1037.68 90.8868 1040 89.9532 1040.65 88.5666C1040.74 88.8079 1040.78 89.0576 1040.77 89.3045C1040.67 91.0652 1038.05 92.3378 1034.89 92.1725ZM1035.11 87.9749C1031.96 87.8096 1029.48 86.2588 1029.57 84.5088C1029.59 84.2619 1029.64 84.0173 1029.75 83.7862C1030.27 85.2343 1032.48 86.4049 1035.19 86.547C1037.9 86.6892 1040.22 85.7556 1040.87 84.369C1040.96 84.6102 1041 84.86 1040.99 85.1069C1040.89 86.8568 1038.27 88.1402 1035.11 87.9749ZM1035.32 84.0778C1032.16 83.9125 1029.68 82.3612 1029.77 80.6112C1029.86 78.8613 1032.5 77.5678 1035.65 77.7331C1038.81 77.8984 1041.28 79.4599 1041.19 81.2098C1041.1 82.9597 1038.47 84.2431 1035.32 84.0778Z" fill="#545454"/>
<path d="M1028.65 84.2984L1029 77.5457C1029.03 76.9552 1028.57 76.4682 1027.98 76.4372L1024.39 76.2493C1024.31 75.4696 1023.6 74.9052 1022.82 74.9934C1022.12 75.0646 1021.59 75.6286 1021.55 76.3264C1021.51 77.1101 1022.11 77.7768 1022.9 77.8287C1023.6 77.8654 1024.22 77.4026 1024.37 76.7217L1027.95 76.9095C1028.29 76.927 1028.54 77.1988 1028.54 77.5322L1028.39 80.3771L1026.51 80.2789C1026.42 79.4986 1025.71 78.945 1024.93 79.0439C1024.24 79.1265 1023.71 79.6904 1023.68 80.3888C1023.64 81.1725 1024.25 81.8397 1025.04 81.8702C1025.74 81.9069 1026.36 81.4333 1026.5 80.7519L1028.37 80.85L1028.19 84.2855L1023.98 84.0649C1023.9 83.2851 1023.19 82.7207 1022.41 82.8089C1021.72 82.8802 1021.18 83.4441 1021.14 84.1312C1021.14 84.1956 1021.14 84.2493 1021.14 84.3143C1021.2 85.0923 1021.88 85.6878 1022.66 85.6318C1023.29 85.5894 1023.81 85.1322 1023.95 84.5259L1028.15 84.746L1027.97 88.1814L1026.15 88.086C1026.11 87.7289 1025.95 87.3973 1025.67 87.1566C1025.08 86.6413 1024.18 86.7018 1023.66 87.2884C1023.41 87.5766 1023.28 87.9467 1023.32 88.3252C1023.37 89.114 1024.06 89.6988 1024.84 89.6535C1025.46 89.6111 1025.98 89.1647 1026.12 88.5477L1027.94 88.643L1027.79 91.4879C1027.78 91.8207 1027.48 92.0637 1027.15 92.0462L1023.57 91.8584C1023.52 91.5114 1023.35 91.1905 1023.08 90.9504C1022.79 90.6984 1022.42 90.5821 1022.05 90.6058C1021.28 90.6946 1020.71 91.3535 1020.72 92.1292C1020.78 92.9073 1021.48 93.5039 1022.24 93.4468C1022.88 93.3942 1023.4 92.937 1023.54 92.32L1027.13 92.5079C1027.72 92.5389 1028.23 92.1027 1028.26 91.5122L1028.61 84.7702" fill="#545454"/>
<path d="M1068.52 94.5351C1068.14 94.515 1067.7 94.476 1067.21 94.4181C1066.73 94.377 1066.23 94.3191 1065.73 94.2443C1065.23 94.1704 1064.76 94.0974 1064.3 94.0252C1063.85 93.9538 1063.47 93.8698 1063.16 93.7731L1063.25 91.9037C1063.67 91.9574 1064.16 92.0153 1064.73 92.0774C1065.32 92.1404 1065.95 92.197 1066.6 92.2473C1067.27 92.2985 1067.92 92.3404 1068.54 92.373C1069.23 92.409 1069.84 92.3769 1070.37 92.2767C1070.92 92.1774 1071.36 91.9599 1071.68 91.6243C1072.02 91.2895 1072.2 90.8026 1072.24 90.1635L1072.29 89.1329C1072.33 88.4139 1072.16 87.8522 1071.78 87.4477C1071.41 87.0442 1070.83 86.8215 1070.03 86.7796L1068.24 86.6854C1066.7 86.605 1065.53 86.2071 1064.72 85.4916C1063.92 84.777 1063.57 83.6048 1063.65 81.975L1063.7 81.0163C1063.79 79.3227 1064.31 78.1402 1065.26 77.4689C1066.22 76.7825 1067.55 76.4837 1069.25 76.5724C1069.81 76.6017 1070.4 76.6651 1071.04 76.7625C1071.68 76.8439 1072.3 76.9405 1072.9 77.0522C1073.5 77.1639 1074 77.2702 1074.4 77.371L1074.3 79.2404C1073.58 79.1548 1072.78 79.0646 1071.89 78.9698C1071.01 78.8598 1070.18 78.7843 1069.4 78.7433C1068.73 78.7081 1068.14 78.7574 1067.64 78.8913C1067.15 79.0099 1066.76 79.2539 1066.47 79.6231C1066.19 79.9932 1066.04 80.5298 1066 81.2328L1065.96 81.9518C1065.92 82.8146 1066.12 83.4259 1066.56 83.7858C1067.01 84.1456 1067.65 84.3473 1068.48 84.3908L1070.42 84.4926C1071.43 84.5453 1072.24 84.7722 1072.86 85.1732C1073.49 85.575 1073.96 86.1039 1074.24 86.7597C1074.53 87.4156 1074.65 88.151 1074.61 88.9659L1074.54 90.2121C1074.48 91.4584 1074.17 92.4037 1073.62 93.048C1073.08 93.6923 1072.37 94.1196 1071.49 94.3301C1070.61 94.5245 1069.63 94.5929 1068.52 94.5351ZM1081.06 95.192C1079.86 95.1292 1078.94 94.7607 1078.3 94.0864C1077.68 93.397 1077.41 92.3892 1077.48 91.063L1077.95 82.0274L1080.35 82.153L1079.91 90.5415C1079.86 91.5002 1080.04 92.1586 1080.45 92.5167C1080.88 92.8757 1081.5 93.0761 1082.3 93.118C1082.94 93.1515 1083.55 93.0875 1084.13 92.9259C1084.74 92.7491 1085.32 92.4997 1085.9 92.1775L1086.41 82.4708L1088.81 82.5964L1088.14 95.4188L1086.22 95.3183L1085.81 93.9271C1085.17 94.2938 1084.43 94.6077 1083.6 94.8686C1082.78 95.1303 1081.94 95.2381 1081.06 95.192ZM1096.2 95.9857C1095.45 95.9463 1094.76 95.814 1094.13 95.5888C1093.52 95.3484 1092.99 94.976 1092.53 94.4715C1092.09 93.9679 1091.77 93.286 1091.56 92.4258C1091.35 91.5655 1091.27 90.4883 1091.34 89.1941C1091.41 87.8679 1091.59 86.7877 1091.87 85.9534C1092.16 85.1031 1092.54 84.45 1093.01 83.9942C1093.5 83.5231 1094.08 83.2089 1094.74 83.0515C1095.41 82.8941 1096.15 82.8367 1096.96 82.8794C1097.63 82.9146 1098.33 82.9834 1099.06 83.0858C1099.81 83.1891 1100.53 83.3311 1101.23 83.5117L1101.16 84.9258L1097.54 84.7361C1096.75 84.6951 1096.09 84.7886 1095.55 85.0166C1095.01 85.2286 1094.59 85.6795 1094.3 86.3691C1094.01 87.0428 1093.83 88.0347 1093.76 89.3449C1093.7 90.6072 1093.78 91.5889 1094.02 92.2902C1094.25 92.9755 1094.62 93.4514 1095.12 93.7179C1095.63 93.9852 1096.28 94.1394 1097.07 94.1804L1100.85 94.3789L1100.78 95.745C1100.41 95.8216 1099.96 95.8865 1099.45 95.9395C1098.95 95.9775 1098.42 95.9978 1097.86 96.0005C1097.31 96.0199 1096.76 96.015 1096.2 95.9857ZM1107.95 96.6014C1107.2 96.5621 1106.51 96.4298 1105.88 96.2046C1105.27 95.9642 1104.74 95.5918 1104.28 95.0873C1103.84 94.5837 1103.52 93.9018 1103.31 93.0415C1103.1 92.1813 1103.02 91.1041 1103.09 89.8098C1103.16 88.4836 1103.34 87.4034 1103.62 86.5691C1103.91 85.7189 1104.29 85.0658 1104.76 84.6099C1105.25 84.1389 1105.82 83.8247 1106.49 83.6673C1107.16 83.5099 1107.9 83.4525 1108.71 83.4952C1109.38 83.5304 1110.08 83.5992 1110.81 83.7016C1111.56 83.8049 1112.28 83.9468 1112.98 84.1275L1112.9 85.5415L1109.29 85.3519C1108.5 85.3108 1107.84 85.4043 1107.3 85.6324C1106.76 85.8444 1106.34 86.2952 1106.05 86.9849C1105.76 87.6585 1105.58 88.6505 1105.51 89.9607C1105.45 91.2229 1105.53 92.2047 1105.77 92.906C1106 93.5913 1106.37 94.0672 1106.87 94.3337C1107.38 94.601 1108.03 94.7551 1108.81 94.7962L1112.6 94.9946L1112.53 96.3608C1112.16 96.4374 1111.71 96.5022 1111.2 96.5553C1110.7 96.5933 1110.17 96.6136 1109.61 96.6162C1109.06 96.6357 1108.51 96.6308 1107.95 96.6014ZM1119.99 97.2323C1118.63 97.1611 1117.55 96.9044 1116.76 96.4623C1115.98 96.021 1115.44 95.3197 1115.14 94.3586C1114.85 93.3823 1114.76 92.0554 1114.84 90.3777C1114.93 88.668 1115.17 87.3506 1115.56 86.4255C1115.96 85.4852 1116.57 84.8443 1117.39 84.5027C1118.21 84.1611 1119.29 84.0259 1120.65 84.0971C1121.83 84.159 1122.78 84.3367 1123.48 84.63C1124.21 84.9082 1124.72 85.3756 1125.02 86.0323C1125.34 86.6739 1125.47 87.5539 1125.41 88.6724C1125.37 89.4553 1125.18 90.0701 1124.83 90.5167C1124.51 90.9642 1124.05 91.2767 1123.46 91.4542C1122.89 91.6327 1122.22 91.7013 1121.43 91.6603L1117.19 91.438C1117.16 92.3655 1117.22 93.114 1117.39 93.6833C1117.57 94.2374 1117.9 94.6557 1118.4 94.9381C1118.92 95.2054 1119.68 95.3655 1120.68 95.4182L1124.69 95.628L1124.61 97.066C1123.92 97.1259 1123.21 97.1769 1122.49 97.2191C1121.76 97.2773 1120.93 97.2817 1119.99 97.2323ZM1117.25 89.9268L1121.3 90.1391C1121.94 90.1726 1122.41 90.0774 1122.73 89.8537C1123.05 89.6299 1123.22 89.1985 1123.25 88.5593C1123.29 87.9202 1123.22 87.4119 1123.05 87.0343C1122.89 86.6576 1122.61 86.3785 1122.2 86.197C1121.79 86.0154 1121.25 85.9066 1120.56 85.8706C1119.78 85.8296 1119.15 85.9168 1118.67 86.1322C1118.21 86.3484 1117.87 86.7551 1117.65 87.3522C1117.44 87.9501 1117.31 88.8083 1117.25 89.9268ZM1132.93 97.9106C1131.57 97.8394 1130.5 97.5828 1129.7 97.1406C1128.93 96.6993 1128.39 95.9981 1128.08 95.0369C1127.8 94.0607 1127.7 92.7337 1127.79 91.056C1127.88 89.3463 1128.11 88.0289 1128.5 87.1038C1128.9 86.1636 1129.51 85.5226 1130.33 85.181C1131.15 84.8394 1132.24 84.7042 1133.6 84.7754C1134.78 84.8373 1135.72 85.015 1136.43 85.3083C1137.15 85.5865 1137.66 86.054 1137.96 86.7107C1138.28 87.3522 1138.41 88.2323 1138.35 89.3507C1138.31 90.1336 1138.12 90.7484 1137.78 91.195C1137.45 91.6425 1136.99 91.955 1136.41 92.1326C1135.84 92.311 1135.16 92.3797 1134.38 92.3386L1130.13 92.1163C1130.1 93.0439 1130.17 93.7923 1130.33 94.3616C1130.51 94.9157 1130.85 95.334 1131.35 95.6165C1131.86 95.8838 1132.62 96.0438 1133.63 96.0965L1137.63 96.3063L1137.55 97.7443C1136.86 97.8042 1136.15 97.8552 1135.43 97.8974C1134.71 97.9556 1133.87 97.96 1132.93 97.9106ZM1130.19 90.6051L1134.24 90.8174C1134.88 90.8509 1135.36 90.7558 1135.67 90.532C1135.99 90.3082 1136.16 89.8768 1136.2 89.2377C1136.23 88.5985 1136.16 88.0902 1135.99 87.7127C1135.83 87.336 1135.55 87.0568 1135.14 86.8753C1134.74 86.6937 1134.19 86.585 1133.5 86.5489C1132.72 86.5079 1132.09 86.5951 1131.61 86.8105C1131.15 87.0267 1130.81 87.4334 1130.59 88.0305C1130.38 88.6284 1130.25 89.4867 1130.19 90.6051ZM1144.99 98.5425C1143.95 98.488 1143.1 98.2191 1142.43 97.7357C1141.79 97.2532 1141.32 96.5317 1141.03 95.5715C1140.75 94.5952 1140.65 93.3561 1140.72 91.8541C1140.81 90.2723 1141.03 89.002 1141.38 88.0433C1141.75 87.0694 1142.3 86.3772 1143.03 85.9666C1143.75 85.5401 1144.72 85.3582 1145.92 85.421C1146.59 85.4562 1147.25 85.5629 1147.89 85.741C1148.56 85.92 1149.13 86.1103 1149.62 86.312L1149.93 80.3203L1152.33 80.4459L1151.37 98.7328L1149.41 98.6298L1149.04 97.3369C1148.77 97.5472 1148.41 97.7525 1147.95 97.9527C1147.49 98.137 1147 98.2876 1146.49 98.4046C1145.97 98.5216 1145.47 98.5676 1144.99 98.5425ZM1145.86 96.6173C1146.51 96.6517 1147.11 96.5788 1147.65 96.3987C1148.2 96.2195 1148.69 96.0289 1149.12 95.827L1149.53 88.0377C1149.04 87.8679 1148.56 87.7145 1148.09 87.5776C1147.63 87.4255 1147.11 87.3343 1146.54 87.3042C1145.79 87.2648 1145.17 87.3688 1144.7 87.6162C1144.22 87.8635 1143.86 88.3253 1143.61 89.0014C1143.37 89.6776 1143.22 90.6309 1143.15 91.8612C1143.09 92.9956 1143.14 93.9114 1143.3 94.6085C1143.45 95.2896 1143.74 95.7853 1144.15 96.0955C1144.59 96.4066 1145.15 96.5805 1145.86 96.6173Z" fill="#545454"/>
<path d="M1165.01 85.6902C1165.35 84.3487 1167.29 84.4503 1167.49 85.8199C1167.62 86.7122 1168.61 87.1866 1169.39 86.725C1170.58 86.0164 1171.87 87.4591 1171.05 88.5671C1170.51 89.2888 1170.87 90.3277 1171.75 90.5488C1173.09 90.8882 1172.99 92.8268 1171.62 93.0241C1170.73 93.1526 1170.25 94.1474 1170.71 94.9216C1171.42 96.1102 1169.98 97.4092 1168.87 96.5802C1168.15 96.0402 1167.11 96.4081 1166.89 97.282C1166.55 98.6235 1164.61 98.5219 1164.41 97.1522C1164.29 96.26 1163.29 95.7856 1162.52 96.2472C1161.33 96.9558 1160.03 95.5131 1160.86 94.4051C1161.4 93.6834 1161.03 92.6445 1160.16 92.4234C1158.81 92.084 1158.92 90.1454 1160.29 89.9481C1161.18 89.8196 1161.65 88.8248 1161.19 88.0506C1160.48 86.862 1161.92 85.563 1163.03 86.392C1163.75 86.932 1164.79 86.5641 1165.01 85.6902Z" fill="#545454"/>
<rect x="1202.95" y="73.3975" width="40" height="40" rx="20" transform="rotate(3 1202.95 73.3975)" fill="#E6F5FA"/>
<path d="M1231.86 96.2297C1231.26 95.4127 1230.32 94.8145 1229 94.4332C1229.89 94.1783 1230.58 93.7946 1231.06 93.3029C1231.79 92.5553 1232.17 91.6388 1232.23 90.5545C1232.3 89.2448 1231.88 88.1357 1230.97 87.2051C1230.07 86.2752 1228.71 85.7628 1226.94 85.6697L1218.2 85.2116C1217.12 85.1551 1216.19 85.9785 1216.13 87.0628L1215.38 101.395C1215.32 102.587 1216.24 103.604 1217.43 103.666L1225.13 104.07C1225.55 104.092 1226.42 104.051 1227.71 103.946C1228.68 103.879 1229.41 103.713 1229.91 103.459C1230.71 103.059 1231.35 102.479 1231.84 101.74C1232.32 101.001 1232.59 100.154 1232.64 99.1989C1232.7 98.0287 1232.44 97.0354 1231.86 96.2297ZM1222.64 102.012C1219.48 101.847 1217 100.306 1217.1 98.5458C1217.11 98.2989 1217.17 98.0543 1217.28 97.8231C1217.79 99.2713 1220 100.442 1222.71 100.584C1225.42 100.726 1227.74 99.7926 1228.4 98.4059C1228.48 98.6472 1228.52 98.897 1228.51 99.1439C1228.42 100.905 1225.79 102.177 1222.64 102.012ZM1222.86 97.8142C1219.7 97.6489 1217.23 96.0981 1217.32 94.3482C1217.33 94.1013 1217.39 93.8566 1217.5 93.6255C1218.01 95.0736 1220.22 96.2442 1222.93 96.3864C1225.64 96.5286 1227.96 95.595 1228.62 94.2083C1228.7 94.4496 1228.74 94.6993 1228.73 94.9462C1228.64 96.6961 1226.01 97.9795 1222.86 97.8142ZM1223.06 93.9172C1219.91 93.7519 1217.42 92.2005 1217.51 90.4506C1217.6 88.7007 1220.24 87.4071 1223.39 87.5724C1226.55 87.7377 1229.02 89.2993 1228.93 91.0492C1228.84 92.7991 1226.22 94.0825 1223.06 93.9172Z" fill="#545454"/>
<path d="M1216.39 94.1378L1216.74 87.385C1216.77 86.7946 1216.31 86.3076 1215.72 86.2765L1212.14 86.0887C1212.05 85.3089 1211.34 84.7445 1210.56 84.8327C1209.87 84.904 1209.33 85.4679 1209.29 86.1657C1209.25 86.9494 1209.85 87.6161 1210.64 87.668C1211.34 87.7047 1211.96 87.2419 1212.11 86.561L1215.7 86.7489C1216.03 86.7664 1216.29 87.0382 1216.28 87.3715L1216.13 90.2165L1214.26 90.1183C1214.16 89.338 1213.45 88.7843 1212.67 88.8833C1211.99 88.9658 1211.45 89.5298 1211.42 90.2281C1211.38 91.0118 1211.99 91.6791 1212.78 91.7095C1213.48 91.7462 1214.1 91.2727 1214.24 90.5912L1216.12 90.6894L1215.94 94.1248L1211.73 93.9042C1211.64 93.1245 1210.93 92.5601 1210.15 92.6483C1209.46 92.7195 1208.92 93.2835 1208.88 93.9705C1208.88 94.035 1208.88 94.0886 1208.89 94.1536C1208.94 94.9317 1209.62 95.5272 1210.4 95.4712C1211.03 95.4287 1211.55 94.9716 1211.69 94.3653L1215.89 94.5853L1215.71 98.0207L1213.89 97.9254C1213.86 97.5683 1213.69 97.2366 1213.41 96.9959C1212.82 96.4807 1211.92 96.5412 1211.41 97.1277C1211.15 97.4159 1211.03 97.786 1211.06 98.1646C1211.12 98.9534 1211.8 99.5381 1212.58 99.4929C1213.21 99.4504 1213.73 99.004 1213.87 98.387L1215.69 98.4824L1215.54 101.327C1215.52 101.66 1215.23 101.903 1214.89 101.886L1211.31 101.698C1211.26 101.351 1211.09 101.03 1210.83 100.79C1210.54 100.538 1210.17 100.421 1209.8 100.445C1209.03 100.534 1208.45 101.193 1208.47 101.969C1208.52 102.747 1209.22 103.343 1209.98 103.286C1210.62 103.234 1211.14 102.776 1211.28 102.159L1214.87 102.347C1215.46 102.378 1215.97 101.942 1216 101.352L1216.35 94.6096" fill="#545454"/>
<path d="M1256.01 104.217L1251.04 86.2441L1253.53 86.3747L1257.68 101.733L1263.43 86.8935L1265.9 87.0228L1259.08 104.378L1256.01 104.217ZM1268.46 89.8487C1268.17 89.8337 1268.04 89.6903 1268.05 89.4187L1268.16 87.4055C1268.17 87.1179 1268.32 86.9816 1268.61 86.9967L1270.38 87.0896C1270.51 87.0963 1270.6 87.1413 1270.66 87.2245C1270.72 87.3078 1270.75 87.4133 1270.74 87.5411L1270.64 89.5544C1270.62 89.826 1270.49 89.9551 1270.23 89.9417L1268.46 89.8487ZM1267.34 104.811L1268.01 91.9882L1270.41 92.1138L1269.74 104.936L1267.34 104.811ZM1277.57 105.491C1277.24 105.473 1276.84 105.445 1276.37 105.404C1275.91 105.364 1275.43 105.307 1274.94 105.233C1274.46 105.176 1274.02 105.113 1273.61 105.043C1273.21 104.974 1272.89 104.901 1272.66 104.825L1272.73 103.387L1278.12 103.669C1278.59 103.694 1278.99 103.683 1279.33 103.636C1279.67 103.574 1279.93 103.428 1280.12 103.197C1280.32 102.968 1280.44 102.621 1280.46 102.158L1280.49 101.63C1280.51 101.151 1280.37 100.767 1280.07 100.479C1279.76 100.191 1279.24 100.027 1278.51 99.9886L1276.64 99.8906C1275.89 99.8512 1275.22 99.7202 1274.64 99.4975C1274.08 99.2596 1273.64 98.8922 1273.33 98.3953C1273.03 97.8992 1272.91 97.2437 1272.95 96.4288L1272.99 95.7338C1273.03 94.9189 1273.22 94.2558 1273.55 93.7444C1273.9 93.2339 1274.42 92.8688 1275.12 92.6492C1275.82 92.4135 1276.74 92.3255 1277.87 92.3849C1278.35 92.41 1278.88 92.4616 1279.45 92.5397C1280.04 92.6026 1280.61 92.6807 1281.17 92.7739C1281.73 92.8672 1282.17 92.9625 1282.5 93.06L1282.43 94.498L1277.34 94.2317C1276.64 94.1949 1276.09 94.2863 1275.7 94.5058C1275.32 94.7262 1275.11 95.172 1275.07 95.8431L1275.05 96.3224C1275.03 96.7378 1275.1 97.062 1275.26 97.2949C1275.42 97.5278 1275.67 97.6846 1275.98 97.7652C1276.31 97.8467 1276.7 97.8992 1277.15 97.9227L1279.07 98.0231C1280.28 98.0868 1281.19 98.4225 1281.78 99.0304C1282.37 99.6223 1282.64 100.43 1282.59 101.452L1282.54 102.435C1282.49 103.298 1282.26 103.958 1281.83 104.417C1281.41 104.875 1280.83 105.181 1280.1 105.335C1279.39 105.49 1278.55 105.542 1277.57 105.491ZM1288.86 106.083C1287.66 106.02 1286.74 105.651 1286.11 104.977C1285.48 104.288 1285.21 103.28 1285.28 101.954L1285.75 92.918L1288.15 93.0436L1287.71 101.432C1287.66 102.391 1287.84 103.049 1288.25 103.407C1288.68 103.766 1289.3 103.967 1290.1 104.009C1290.74 104.042 1291.35 103.978 1291.93 103.816C1292.54 103.64 1293.13 103.39 1293.7 103.068L1294.21 93.3613L1296.61 93.487L1295.94 106.309L1294.02 106.209L1293.61 104.818C1292.97 105.184 1292.23 105.498 1291.4 105.759C1290.58 106.021 1289.74 106.129 1288.86 106.083ZM1301.8 106.761C1300.85 106.711 1300.09 106.391 1299.49 105.799C1298.92 105.192 1298.65 104.385 1298.71 103.378L1298.76 102.372C1298.81 101.381 1299.19 100.592 1299.89 100.004C1300.61 99.4006 1301.66 99.1351 1303.03 99.2071L1307.04 99.4168L1307.11 98.0747C1307.13 97.5794 1307.07 97.1593 1306.91 96.8146C1306.77 96.4547 1306.48 96.1751 1306.04 95.9759C1305.6 95.7767 1304.94 95.6541 1304.06 95.608L1300.13 95.4021L1300.21 93.988C1300.79 93.8903 1301.47 93.8136 1302.24 93.758C1303.03 93.7031 1303.94 93.6949 1304.98 93.7334C1306.03 93.7887 1306.91 93.9705 1307.59 94.279C1308.3 94.5723 1308.81 95.0318 1309.13 95.6574C1309.45 96.267 1309.59 97.0671 1309.54 98.0577L1309.07 106.997L1307.17 106.898L1306.84 105.463C1306.74 105.522 1306.54 105.631 1306.22 105.791C1305.91 105.935 1305.51 106.09 1305.02 106.257C1304.55 106.424 1304.03 106.557 1303.46 106.656C1302.91 106.755 1302.36 106.79 1301.8 106.761ZM1302.99 105.069C1303.23 105.097 1303.51 105.088 1303.83 105.041C1304.17 104.995 1304.5 104.94 1304.83 104.877C1305.17 104.798 1305.48 104.718 1305.75 104.637C1306.05 104.556 1306.28 104.488 1306.46 104.434C1306.66 104.364 1306.76 104.321 1306.78 104.306L1306.97 100.615L1303.61 100.583C1302.78 100.588 1302.17 100.764 1301.78 101.112C1301.41 101.461 1301.21 101.931 1301.18 102.522L1301.15 103.098C1301.12 103.561 1301.2 103.942 1301.38 104.239C1301.55 104.521 1301.78 104.725 1302.07 104.852C1302.36 104.98 1302.67 105.052 1302.99 105.069ZM1315.89 107.379C1315.11 107.338 1314.46 107.168 1313.93 106.868C1313.41 106.568 1313.04 106.116 1312.8 105.511C1312.57 104.89 1312.49 104.068 1312.54 103.046L1313.28 88.8813L1315.68 89.0069L1314.95 102.86C1314.92 103.531 1314.95 104.054 1315.06 104.428C1315.19 104.787 1315.37 105.045 1315.6 105.201C1315.85 105.358 1316.14 105.469 1316.47 105.535L1317.66 105.742L1317.57 107.467L1315.89 107.379ZM1320.63 92.5829C1320.34 92.5678 1320.21 92.4245 1320.22 92.1528L1320.33 90.1396C1320.34 89.852 1320.49 89.7157 1320.78 89.7308L1322.55 89.8238C1322.68 89.8305 1322.77 89.8754 1322.83 89.9587C1322.89 90.0419 1322.92 90.1474 1322.91 90.2753L1322.81 92.2885C1322.79 92.5601 1322.66 92.6892 1322.4 92.6758L1320.63 92.5829ZM1319.51 107.545L1320.18 94.7223L1322.58 94.848L1321.91 107.67L1319.51 107.545ZM1324.76 107.82L1324.86 106.047L1332.31 97.3285L1325.14 96.953L1325.24 94.9877L1335.21 95.5102L1335.12 97.3077L1327.65 106.024L1334.64 106.391L1334.54 108.333L1324.76 107.82ZM1342.25 108.881C1340.9 108.81 1339.82 108.553 1339.03 108.111C1338.25 107.67 1337.71 106.968 1337.41 106.007C1337.12 105.031 1337.02 103.704 1337.11 102.026C1337.2 100.317 1337.44 98.9992 1337.82 98.0741C1338.22 97.1339 1338.83 96.4929 1339.65 96.1513C1340.47 95.8097 1341.56 95.6745 1342.92 95.7457C1344.1 95.8076 1345.04 95.9853 1345.75 96.2786C1346.47 96.5568 1346.98 97.0243 1347.29 97.681C1347.61 98.3225 1347.74 99.2026 1347.68 100.321C1347.64 101.104 1347.44 101.719 1347.1 102.165C1346.77 102.613 1346.31 102.925 1345.73 103.103C1345.16 103.281 1344.48 103.35 1343.7 103.309L1339.46 103.087C1339.42 104.014 1339.49 104.763 1339.65 105.332C1339.83 105.886 1340.17 106.304 1340.67 106.587C1341.18 106.854 1341.94 107.014 1342.95 107.067L1346.95 107.277L1346.88 108.715C1346.18 108.774 1345.48 108.826 1344.75 108.868C1344.03 108.926 1343.2 108.93 1342.25 108.881ZM1339.51 101.575L1343.56 101.788C1344.2 101.821 1344.68 101.726 1345 101.502C1345.31 101.279 1345.49 100.847 1345.52 100.208C1345.55 99.5689 1345.48 99.0605 1345.31 98.683C1345.16 98.3063 1344.87 98.0271 1344.47 97.8456C1344.06 97.664 1343.51 97.5553 1342.83 97.5192C1342.04 97.4782 1341.41 97.5654 1340.94 97.7808C1340.48 97.997 1340.14 98.4037 1339.91 99.0008C1339.7 99.5988 1339.57 100.457 1339.51 101.575Z" fill="#545454"/>
<path d="M1360.75 95.948C1361.09 94.6065 1363.02 94.7081 1363.22 96.0778C1363.35 96.97 1364.34 97.4444 1365.12 96.9828C1366.31 96.2742 1367.61 97.7169 1366.78 98.8249C1366.24 99.5466 1366.61 100.586 1367.48 100.807C1368.82 101.146 1368.72 103.085 1367.35 103.282C1366.46 103.41 1365.98 104.405 1366.44 105.179C1367.15 106.368 1365.71 107.667 1364.6 106.838C1363.88 106.298 1362.84 106.666 1362.62 107.54C1362.28 108.881 1360.34 108.78 1360.15 107.41C1360.02 106.518 1359.02 106.043 1358.25 106.505C1357.06 107.214 1355.76 105.771 1356.59 104.663C1357.13 103.941 1356.76 102.902 1355.89 102.681C1354.55 102.342 1354.65 100.403 1356.02 100.206C1356.91 100.077 1357.38 99.0827 1356.92 98.3084C1356.21 97.1198 1357.66 95.8208 1358.76 96.6498C1359.49 97.1898 1360.52 96.8219 1360.75 95.948Z" fill="#545454"/>
<rect x="1398.68" y="83.6553" width="40" height="40" rx="20" transform="rotate(3 1398.68 83.6553)" fill="#E6F5FA"/>
<path d="M1427.59 106.488C1426.99 105.671 1426.05 105.072 1424.73 104.691C1425.62 104.436 1426.31 104.052 1426.79 103.561C1427.52 102.813 1427.9 101.897 1427.96 100.812C1428.03 99.5026 1427.61 98.3935 1426.7 97.4629C1425.8 96.533 1424.44 96.0206 1422.67 95.9275L1413.93 95.4694C1412.85 95.413 1411.92 96.2363 1411.87 97.3206L1411.11 111.653C1411.05 112.844 1411.97 113.861 1413.16 113.924L1420.86 114.327C1421.28 114.349 1422.15 114.309 1423.44 114.204C1424.41 114.137 1425.14 113.97 1425.64 113.717C1426.44 113.317 1427.08 112.737 1427.57 111.998C1428.05 111.259 1428.32 110.412 1428.37 109.457C1428.43 108.287 1428.17 107.293 1427.59 106.488ZM1418.37 112.27C1415.21 112.104 1412.74 110.564 1412.83 108.804C1412.84 108.557 1412.9 108.312 1413.01 108.081C1413.52 109.529 1415.73 110.7 1418.44 110.842C1421.16 110.984 1423.47 110.05 1424.13 108.664C1424.21 108.905 1424.25 109.155 1424.24 109.402C1424.15 111.162 1421.52 112.435 1418.37 112.27ZM1418.59 108.072C1415.43 107.907 1412.96 106.356 1413.05 104.606C1413.06 104.359 1413.12 104.114 1413.23 103.883C1413.74 105.331 1415.95 106.502 1418.66 106.644C1421.38 106.786 1423.69 105.853 1424.35 104.466C1424.43 104.707 1424.47 104.957 1424.46 105.204C1424.37 106.954 1421.74 108.237 1418.59 108.072ZM1418.79 104.175C1415.64 104.01 1413.15 102.458 1413.24 100.708C1413.33 98.9585 1415.97 97.6649 1419.12 97.8302C1422.28 97.9955 1424.76 99.5571 1424.66 101.307C1424.57 103.057 1421.95 104.34 1418.79 104.175Z" fill="#545454"/>
<path d="M1412.12 104.396L1412.47 97.6429C1412.51 97.0524 1412.04 96.5654 1411.45 96.5343L1407.87 96.3465C1407.78 95.5667 1407.07 95.0023 1406.29 95.0905C1405.6 95.1618 1405.06 95.7257 1405.03 96.4235C1404.98 97.2072 1405.59 97.8739 1406.37 97.9259C1407.07 97.9625 1407.69 97.4997 1407.84 96.8188L1411.43 97.0067C1411.76 97.0242 1412.02 97.296 1412.01 97.6293L1411.86 100.474L1409.99 100.376C1409.89 99.5958 1409.18 99.0421 1408.4 99.1411C1407.72 99.2236 1407.18 99.7876 1407.15 100.486C1407.11 101.27 1407.73 101.937 1408.51 101.967C1409.21 102.004 1409.83 101.53 1409.97 100.849L1411.85 100.947L1411.67 104.383L1407.46 104.162C1407.37 103.382 1406.67 102.818 1405.88 102.906C1405.19 102.977 1404.65 103.541 1404.62 104.228C1404.61 104.293 1404.61 104.346 1404.62 104.411C1404.67 105.189 1405.35 105.785 1406.13 105.729C1406.76 105.687 1407.28 105.229 1407.42 104.623L1411.62 104.843L1411.44 108.279L1409.62 108.183C1409.59 107.826 1409.42 107.494 1409.14 107.254C1408.55 106.738 1407.65 106.799 1407.14 107.386C1406.89 107.674 1406.76 108.044 1406.79 108.422C1406.85 109.211 1407.53 109.796 1408.31 109.751C1408.94 109.708 1409.46 109.262 1409.6 108.645L1411.42 108.74L1411.27 111.585C1411.25 111.918 1410.96 112.161 1410.62 112.143L1407.04 111.956C1406.99 111.609 1406.83 111.288 1406.56 111.048C1406.27 110.796 1405.9 110.679 1405.53 110.703C1404.76 110.792 1404.18 111.451 1404.2 112.226C1404.25 113.004 1404.96 113.601 1405.71 113.544C1406.35 113.491 1406.87 113.034 1407.02 112.417L1410.6 112.605C1411.19 112.636 1411.7 112.2 1411.73 111.609L1412.08 104.867" fill="#545454"/>
</g>
<defs>
<clipPath id="clip0_330_13092">
<rect width="1440" height="60" fill="white" transform="translate(2) rotate(3)"/>
</clipPath>
</defs>
</svg>
