<svg width="305" height="62" viewBox="0 0 305 62" fill="none" xmlns="http://www.w3.org/2000/svg">
<path d="M305 48.1282H280.37C280.591 50.1002 281.124 51.5692 281.969 52.535C283.157 53.9235 284.706 54.6178 286.618 54.6178C287.825 54.6178 288.972 54.3159 290.059 53.7122C290.723 53.3299 291.437 52.6558 292.202 51.6899L304.306 52.8067C302.454 56.0263 300.221 58.3405 297.605 59.749C294.989 61.1375 291.236 61.8317 286.346 61.8317C282.1 61.8317 278.76 61.2381 276.325 60.0509C273.89 58.8435 271.868 56.9419 270.258 54.3461C268.668 51.7301 267.874 48.6614 267.874 45.14C267.874 40.1294 269.473 36.0747 272.673 32.9758C275.892 29.8769 280.329 28.3274 285.984 28.3274C290.572 28.3274 294.194 29.0217 296.85 30.4101C299.506 31.7986 301.529 33.8109 302.917 36.4469C304.306 39.083 305 42.5139 305 46.7397V48.1282ZM292.504 42.2423C292.262 39.8678 291.618 38.1674 290.572 37.1412C289.546 36.1149 288.187 35.6018 286.497 35.6018C284.545 35.6018 282.986 36.3765 281.819 37.926C281.074 38.8918 280.601 40.3306 280.4 42.2423H292.504Z" fill="#4451CA"/>
<path d="M250.488 17.3806H262.803V61.6305H250.488V17.3806Z" fill="#4451CA"/>
<path d="M209.92 16.7368H222.326V32.0703C223.553 30.7824 224.942 29.8165 226.491 29.1726C228.061 28.5287 229.791 28.2067 231.683 28.2067C235.587 28.2067 238.816 29.6153 241.372 32.4325C243.928 35.2295 245.205 39.2541 245.205 44.5061C245.205 48.0075 244.622 51.0963 243.455 53.7726C242.288 56.4288 240.668 58.421 238.595 59.7491C236.543 61.057 234.259 61.711 231.743 61.711C229.59 61.711 227.618 61.2482 225.827 60.3226C224.479 59.5981 223.01 58.2398 221.42 56.2477V60.9866H209.92V16.7368ZM222.235 44.8683C222.235 47.6251 222.748 49.6273 223.775 50.8749C224.821 52.1024 226.139 52.7162 227.729 52.7162C229.198 52.7162 230.425 52.1125 231.411 50.9051C232.417 49.6776 232.92 47.6251 232.92 44.7476C232.92 42.2121 232.427 40.3508 231.441 39.1635C230.476 37.9763 229.298 37.3827 227.91 37.3827C226.24 37.3827 224.871 38.0065 223.805 39.2541C222.758 40.4816 222.235 42.353 222.235 44.8683Z" fill="#4451CA"/>
<path d="M180.128 39.4352L168.387 38.1976C168.829 36.1451 169.463 34.5353 170.288 33.3682C171.134 32.1809 172.341 31.1547 173.91 30.2894C175.037 29.6656 176.587 29.1826 178.559 28.8406C180.531 28.4985 182.664 28.3274 184.958 28.3274C188.64 28.3274 191.598 28.5387 193.832 28.9613C196.066 29.3637 197.927 30.219 199.416 31.5269C200.462 32.4325 201.287 33.7203 201.891 35.3905C202.495 37.0406 202.797 38.6202 202.797 40.1294V54.2857C202.797 55.7949 202.887 56.9822 203.068 57.8474C203.27 58.6926 203.692 59.7792 204.336 61.1073H192.806C192.343 60.2823 192.041 59.6585 191.9 59.2359C191.759 58.7932 191.618 58.109 191.478 57.1834C189.868 58.7328 188.268 59.8396 186.678 60.5036C184.505 61.389 181.98 61.8317 179.102 61.8317C175.279 61.8317 172.371 60.9463 170.379 59.1755C168.407 57.4047 167.421 55.2214 167.421 52.6256C167.421 50.1908 168.135 48.1885 169.564 46.619C170.993 45.0494 173.629 43.8823 177.472 43.1176C182.08 42.192 185.069 41.548 186.437 41.1858C187.805 40.8035 189.254 40.3105 190.783 39.7068C190.783 38.1976 190.471 37.1412 189.848 36.5375C189.224 35.9338 188.127 35.632 186.558 35.632C184.545 35.632 183.036 35.9539 182.03 36.5979C181.245 37.1009 180.611 38.0467 180.128 39.4352ZM190.783 45.8946C189.093 46.4982 187.332 47.0315 185.501 47.4943C183.006 48.1584 181.426 48.8123 180.762 49.4563C180.078 50.1203 179.736 50.8749 179.736 51.7201C179.736 52.686 180.068 53.4808 180.732 54.1046C181.416 54.7083 182.412 55.0101 183.72 55.0101C185.089 55.0101 186.356 54.6781 187.523 54.0141C188.711 53.35 189.546 52.5451 190.029 51.5993C190.532 50.6335 190.783 49.3858 190.783 47.8565V45.8946Z" fill="#4451CA"/>
<path d="M128.141 52.2332L140.336 51.0862C140.839 52.535 141.543 53.5714 142.449 54.1952C143.354 54.819 144.561 55.1309 146.071 55.1309C147.721 55.1309 148.999 54.7787 149.904 54.0744C150.608 53.5512 150.961 52.8973 150.961 52.1125C150.961 51.2271 150.498 50.5429 149.572 50.06C148.908 49.7179 147.147 49.2953 144.29 48.7922C140.024 48.0477 137.056 47.3635 135.386 46.7397C133.735 46.0958 132.337 45.0192 131.19 43.51C130.063 42.0008 129.5 40.2803 129.5 38.3485C129.5 36.2357 130.113 34.4145 131.341 32.8852C132.568 31.3559 134.259 30.219 136.412 29.4744C138.565 28.7098 141.453 28.3274 145.075 28.3274C148.898 28.3274 151.715 28.6192 153.526 29.2028C155.357 29.7863 156.877 30.6918 158.084 31.9193C159.311 33.1468 160.328 34.8069 161.133 36.8997L149.481 38.0467C149.18 37.0204 148.677 36.2658 147.972 35.7829C147.006 35.139 145.839 34.817 144.471 34.817C143.082 34.817 142.066 35.0685 141.422 35.5716C140.799 36.0545 140.487 36.6482 140.487 37.3525C140.487 38.1372 140.889 38.7309 141.694 39.1333C142.499 39.5358 144.25 39.898 146.946 40.2199C151.031 40.6828 154.069 41.3267 156.062 42.1517C158.054 42.9768 159.573 44.1539 160.619 45.6833C161.686 47.2126 162.219 48.8928 162.219 50.724C162.219 52.5753 161.656 54.3763 160.529 56.127C159.422 57.8776 157.661 59.2762 155.247 60.3225C152.852 61.3488 149.582 61.8619 145.437 61.8619C139.581 61.8619 135.406 61.0268 132.91 59.3566C130.435 57.6865 128.846 55.312 128.141 52.2332Z" fill="#4451CA"/>
<path d="M98.3498 39.4352L86.6082 38.1976C87.0509 36.1451 87.6848 34.5353 88.5098 33.3682C89.355 32.1809 90.5623 31.1547 92.1319 30.2894C93.2588 29.6656 94.8082 29.1826 96.7803 28.8406C98.7523 28.4985 100.885 28.3274 103.179 28.3274C106.862 28.3274 109.82 28.5387 112.053 28.9613C114.287 29.3637 116.148 30.219 117.637 31.5269C118.684 32.4325 119.509 33.7203 120.113 35.3905C120.716 37.0406 121.018 38.6202 121.018 40.1294V54.2857C121.018 55.7949 121.109 56.9822 121.29 57.8474C121.491 58.6926 121.914 59.7792 122.557 61.1073H111.027C110.564 60.2823 110.262 59.6585 110.122 59.2359C109.981 58.7932 109.84 58.109 109.699 57.1834C108.089 58.7328 106.489 59.8396 104.9 60.5036C102.727 61.389 100.201 61.8317 97.3236 61.8317C93.5003 61.8317 90.5925 60.9463 88.6004 59.1755C86.6283 57.4047 85.6423 55.2214 85.6423 52.6256C85.6423 50.1908 86.3567 48.1885 87.7854 46.619C89.2141 45.0494 91.8502 43.8823 95.6936 43.1176C100.302 42.192 103.29 41.548 104.658 41.1858C106.027 40.8035 107.475 40.3105 109.005 39.7068C109.005 38.1976 108.693 37.1412 108.069 36.5375C107.445 35.9338 106.349 35.632 104.779 35.632C102.767 35.632 101.258 35.9539 100.251 36.5979C99.4666 37.1009 98.8328 38.0467 98.3498 39.4352ZM109.005 45.8946C107.314 46.4982 105.554 47.0315 103.723 47.4943C101.227 48.1584 99.6477 48.8123 98.9837 49.4563C98.2995 50.1203 97.9574 50.8749 97.9574 51.7201C97.9574 52.686 98.2895 53.4808 98.9535 54.1046C99.6377 54.7083 100.634 55.0101 101.942 55.0101C103.31 55.0101 104.578 54.6781 105.745 54.0141C106.932 53.35 107.767 52.5451 108.25 51.5993C108.753 50.6335 109.005 49.3858 109.005 47.8565V45.8946Z" fill="#4451CA"/>
<g clip-path="url(#clip0_367_9505)">
<path d="M77.1326 34.4093C75.005 31.7842 71.7596 29.9502 67.2882 28.9073C70.209 27.9004 72.4448 26.4979 73.9593 24.7718C76.2671 22.1466 77.385 19.018 77.385 15.3859C77.385 10.9987 75.7983 7.36664 72.589 4.41783C69.4157 1.46903 64.8 -0.00537109 58.8501 -0.00537109H29.5693C25.9633 -0.00537109 23.0063 2.90747 23.0063 6.53953V54.5475C23.0063 58.5392 26.2518 61.7757 30.2544 61.7757H56.0374C57.4437 61.7757 60.3286 61.488 64.6197 60.9126C67.8651 60.517 70.2812 59.8338 71.9039 58.8988C74.5002 57.4244 76.5195 55.3746 78.0341 52.8214C79.5125 50.2681 80.2698 47.3912 80.2698 44.1907C80.2698 40.271 79.2241 36.9985 77.1326 34.4093ZM47.3469 55.3386C36.7813 55.3386 28.2351 50.6277 28.2351 44.7301C28.2351 43.903 28.3793 43.0759 28.7038 42.2848C30.6872 47.0316 38.2598 50.5558 47.3469 50.5558C56.4341 50.5558 64.0067 47.0316 65.9539 42.2848C66.2785 43.0759 66.4588 43.903 66.4588 44.7301C66.4588 50.6277 57.9125 55.3386 47.3469 55.3386ZM47.3469 41.2779C36.7813 41.2779 28.2351 36.531 28.2351 30.6694C28.2351 29.8423 28.3793 29.0152 28.7038 28.224C30.6872 32.9709 38.2598 36.4951 47.3469 36.4951C56.4341 36.4951 64.0067 32.9709 65.9539 28.224C66.2785 29.0152 66.4588 29.8423 66.4588 30.6694C66.4588 36.531 57.9125 41.2779 47.3469 41.2779ZM47.3469 28.224C36.7813 28.224 28.199 23.4772 28.199 17.6155C28.199 11.7539 36.7813 6.97107 47.3469 6.97107C57.9125 6.97107 66.4588 11.7539 66.4588 17.6155C66.4588 23.4772 57.9125 28.224 47.3469 28.224Z" fill="#4451CA"/>
<path d="M25.0978 30.1298V7.51034C25.0978 5.53248 23.4751 3.98616 21.4918 3.98616H9.48377C9.05105 1.39696 6.59896 -0.365126 4.00263 0.0664061C1.69478 0.426016 -4.03132e-05 2.40387 -4.03132e-05 4.74134C-4.03132e-05 7.36649 2.12751 9.48819 4.75989 9.52415C7.1038 9.52415 9.08711 7.86995 9.48377 5.56844H21.4918C22.6096 5.56844 23.5111 6.43151 23.5472 7.5463V17.076H17.2727C16.804 14.4868 14.3519 12.7606 11.7556 13.2281C9.48377 13.6237 7.78894 15.6016 7.825 17.939C7.825 20.5642 9.98861 22.6859 12.621 22.6499C14.9649 22.6499 16.9482 20.9598 17.3088 18.6582H23.5833V30.1658H9.48377C9.05105 27.5766 6.59896 25.8145 4.00263 26.246C1.69478 26.6056 -4.03132e-05 28.5835 -4.03132e-05 30.885C-4.03132e-05 31.1008 -4.03132e-05 31.2806 0.0360198 31.4963C0.360561 34.0855 2.74053 35.9555 5.33685 35.6318C7.42834 35.3801 9.08711 33.7619 9.44771 31.7121H23.5111V43.2196H17.417C17.2367 42.0329 16.6237 40.9541 15.65 40.1989C13.5946 38.5807 10.6016 38.9403 8.97893 40.99C8.1856 41.9969 7.825 43.2556 8.0053 44.5142C8.32984 47.1394 10.7098 48.9734 13.3061 48.6857C15.3976 48.434 17.0564 46.8517 17.417 44.7659H23.5111V54.2956C23.5111 55.4104 22.5736 56.2735 21.4557 56.2735H9.44771C9.23135 55.1227 8.61833 54.0798 7.68076 53.3247C6.67108 52.5335 5.40898 52.2099 4.18293 52.3537C1.62266 52.7853 -0.180341 55.0868 -4.03132e-05 57.676C0.324501 60.2651 2.77659 62.1351 5.3008 61.8115C7.42834 61.5238 9.08711 59.9055 9.44771 57.8198H21.4557C23.439 57.8198 25.0617 56.2735 25.0617 54.2956V31.7121" fill="#4451CA"/>
</g>
<defs>
<clipPath id="clip0_367_9505">
<rect width="80.2698" height="61.817" fill="white" transform="translate(0 -0.00537109)"/>
</clipPath>
</defs>
</svg>
