<svg width="480" height="479" viewBox="0 0 480 479" fill="none" xmlns="http://www.w3.org/2000/svg">
<g filter="url(#filter0_f_298_10316)">
<path d="M120.545 202.246C144.973 207.45 169.689 211.66 191.793 223.288C214.716 235.346 237.571 249.86 251.978 271.385C266.332 292.831 267.236 320.039 273.334 345.115C279.388 370.011 292.567 394.656 288.09 419.883C283.611 445.112 260.011 462.119 248.503 485.013C236.731 508.432 237.605 538.678 219.065 557.206C200.605 575.652 171.565 577.214 147.113 586.333C122.387 595.555 98.9377 615.677 72.8431 611.74C46.1118 607.706 30.8119 578.479 7.24792 565.229C-13.7914 553.399 -39.1097 551.245 -59.0163 537.594C-80.1464 523.104 -103.989 507.398 -112.384 483.192C-120.893 458.657 -102.648 432.25 -104.533 406.35C-106.436 380.211 -127.545 356.623 -123.482 330.732C-119.459 305.099 -101.313 283.165 -82.4111 265.39C-64.1127 248.183 -38.4117 242.486 -16.5281 230.156C5.12138 217.958 22.6949 197.408 47.0446 192.45C71.4724 187.477 96.1633 197.052 120.545 202.246Z" fill="#4451CA" fill-opacity="0.5"/>
</g>
<defs>
<filter id="filter0_f_298_10316" x="-315" y="0.0600586" width="795" height="803.184" filterUnits="userSpaceOnUse" color-interpolation-filters="sRGB">
<feFlood flood-opacity="0" result="BackgroundImageFix"/>
<feBlend mode="normal" in="SourceGraphic" in2="BackgroundImageFix" result="shape"/>
<feGaussianBlur stdDeviation="95.5" result="effect1_foregroundBlur_298_10316"/>
</filter>
</defs>
</svg>
