<svg width="40" height="41" viewBox="0 0 40 41" fill="none" xmlns="http://www.w3.org/2000/svg">
<rect y="0.276367" width="40" height="40" rx="20" fill="white"/>
<path d="M30.0626 21.5645C29.4266 20.7797 28.4564 20.2314 27.1197 19.9197C27.9929 19.6187 28.6612 19.1994 29.114 18.6834C29.8039 17.8986 30.1381 16.9633 30.1381 15.8775C30.1381 14.566 29.6638 13.4802 28.7043 12.5987C27.7557 11.7171 26.3759 11.2764 24.5972 11.2764H15.8438C14.7658 11.2764 13.8818 12.1471 13.8818 13.2329V27.5847C13.8818 28.778 14.852 29.7455 16.0486 29.7455H23.7563C24.1767 29.7455 25.0391 29.6595 26.322 29.4875C27.2922 29.3693 28.0144 29.165 28.4995 28.8855C29.2757 28.4447 29.8794 27.832 30.3321 27.0687C30.7741 26.3054 31.0005 25.4454 31.0005 24.4886C31.0005 23.3168 30.6879 22.3385 30.0626 21.5645ZM21.1583 27.8212C17.9998 27.8212 15.4449 26.4129 15.4449 24.6498C15.4449 24.4026 15.4881 24.1553 15.5851 23.9188C16.178 25.3379 18.4418 26.3914 21.1583 26.3914C23.8749 26.3914 26.1387 25.3379 26.7208 23.9188C26.8178 24.1553 26.8717 24.4026 26.8717 24.6498C26.8717 26.4129 24.3169 27.8212 21.1583 27.8212ZM21.1583 23.6178C17.9998 23.6178 15.4449 22.1988 15.4449 20.4464C15.4449 20.1992 15.4881 19.9519 15.5851 19.7154C16.178 21.1345 18.4418 22.188 21.1583 22.188C23.8749 22.188 26.1387 21.1345 26.7208 19.7154C26.8178 19.9519 26.8717 20.1992 26.8717 20.4464C26.8717 22.1988 24.3169 23.6178 21.1583 23.6178ZM21.1583 19.7154C17.9998 19.7154 15.4342 18.2964 15.4342 16.5441C15.4342 14.7917 17.9998 13.3619 21.1583 13.3619C24.3169 13.3619 26.8717 14.7917 26.8717 16.5441C26.8717 18.2964 24.3169 19.7154 21.1583 19.7154Z" fill="#4451CA"/>
<path d="M14.5066 20.2851V13.5231C14.5066 12.9318 14.0215 12.4696 13.4286 12.4696H9.83885C9.70949 11.6955 8.97645 11.1688 8.20029 11.2978C7.51037 11.4053 7.00371 11.9965 7.00371 12.6953C7.00371 13.4801 7.63973 14.1144 8.42667 14.1251C9.12737 14.1251 9.72027 13.6306 9.83885 12.9426H13.4286C13.7628 12.9426 14.0323 13.2006 14.0431 13.5338V16.3827H12.1673C12.0272 15.6087 11.2942 15.0926 10.518 15.2324C9.83885 15.3507 9.33219 15.9419 9.34297 16.6407C9.34297 17.4255 9.98977 18.0598 10.7767 18.049C11.4774 18.049 12.0703 17.5437 12.1781 16.8557H14.0538V20.2958H9.83885C9.70949 19.5218 8.97645 18.995 8.20029 19.124C7.51037 19.2315 7.00371 19.8228 7.00371 20.5108C7.00371 20.5753 7.00371 20.6291 7.01449 20.6936C7.11151 21.4676 7.82299 22.0266 8.59915 21.9299C9.22439 21.8546 9.72027 21.3709 9.82807 20.7581H14.0323V24.1982H12.2105C12.1566 23.8435 11.9733 23.5209 11.6822 23.2952C11.0678 22.8114 10.173 22.9189 9.68793 23.5317C9.45077 23.8327 9.34297 24.209 9.39687 24.5852C9.49389 25.37 10.2054 25.9183 10.9815 25.8323C11.6068 25.757 12.1027 25.284 12.2105 24.6605H14.0323V27.5093C14.0323 27.8426 13.752 28.1006 13.4178 28.1006H9.82807C9.76339 27.7566 9.58013 27.4448 9.29985 27.2191C8.99801 26.9826 8.62071 26.8858 8.25419 26.9288C7.48881 27.0578 6.94981 27.7458 7.00371 28.5199C7.10073 29.2939 7.83377 29.8529 8.58837 29.7562C9.22439 29.6702 9.72027 29.1864 9.82807 28.5629H13.4178C14.0107 28.5629 14.4958 28.1006 14.4958 27.5093V20.7581" fill="#4451CA"/>
</svg>
