<svg width="70" height="71" viewBox="0 0 70 71" fill="none" xmlns="http://www.w3.org/2000/svg">
<path d="M34.9995 36.1517C37.0995 36.1517 39.0245 34.81 39.7829 32.885C40.0162 32.3017 40.1329 31.7184 40.1329 31.0767C40.1329 28.2767 37.8579 25.9434 34.9995 25.9434C32.1412 25.9434 29.8662 28.2184 29.8662 31.0767C29.8662 33.935 32.1995 36.1517 34.9995 36.1517ZM34.9995 26.41C37.5662 26.41 39.6079 28.51 39.6079 31.0184C39.6079 31.6017 39.4912 32.1267 39.3162 32.6517C38.6162 34.4017 36.9245 35.6267 34.9995 35.6267C32.4329 35.6267 30.3912 33.5267 30.3912 31.0184C30.3912 28.51 32.4329 26.41 34.9995 26.41Z" fill="#4451CA"/>
<path d="M30.4502 27.1103C30.5085 27.1686 30.5669 27.1686 30.6252 27.1686C30.6835 27.1686 30.7419 27.1686 30.8002 27.1103C30.9169 26.9936 30.9169 26.8769 30.8002 26.7603L29.5752 25.5353C29.4585 25.4186 29.3419 25.4186 29.2252 25.5353C29.1085 25.6519 29.1085 25.7686 29.2252 25.8853L30.4502 27.1103Z" fill="#4451CA"/>
<path d="M27.0663 31.5433H28.8163C28.933 31.5433 29.0497 31.4267 29.0497 31.31C29.0497 31.1933 28.933 31.0767 28.8163 31.0767H27.0663C26.9497 31.0767 26.833 31.1933 26.833 31.31C26.833 31.4267 26.8913 31.5433 27.0663 31.5433Z" fill="#4451CA"/>
<path d="M29.4002 37.2013C29.4585 37.2013 29.5169 37.2013 29.5752 37.143L30.8002 35.918C30.9169 35.8013 30.9169 35.6846 30.8002 35.568C30.6835 35.4513 30.5669 35.4513 30.4502 35.568L29.2252 36.793C29.1085 36.9096 29.1085 37.0263 29.2252 37.143C29.2835 37.143 29.3419 37.2013 29.4002 37.2013Z" fill="#4451CA"/>
<path d="M34.9999 35.0427C36.6332 35.0427 38.1499 33.9927 38.7332 32.476C38.9082 32.0094 38.9665 31.5427 38.9665 31.076C38.9665 28.8594 37.1582 27.1094 34.9999 27.1094C32.8415 27.1094 31.0332 28.9177 31.0332 31.076C31.0332 33.2344 32.7832 35.0427 34.9999 35.0427ZM34.9999 27.576C36.9249 27.576 38.4999 29.151 38.4999 31.076C38.4999 31.4844 38.4415 31.951 38.2665 32.301C37.7415 33.6427 36.4582 34.5177 34.9999 34.5177C33.0749 34.5177 31.4999 32.9427 31.4999 31.0177C31.4999 29.151 33.0749 27.576 34.9999 27.576Z" fill="#4451CA"/>
<path d="M39.3748 27.1686C39.4331 27.1686 39.4915 27.1686 39.5498 27.1103L40.7748 25.8853C40.8915 25.7686 40.8915 25.6519 40.7748 25.5353C40.6581 25.4186 40.5415 25.4186 40.4248 25.5353L39.1998 26.7603C39.0831 26.8769 39.0831 26.9936 39.1998 27.1103C39.2581 27.1686 39.3165 27.1686 39.3748 27.1686Z" fill="#4451CA"/>
<path d="M34.9999 37.2593C34.8833 37.2593 34.7666 37.3759 34.7666 37.4926V39.2426C34.7666 39.3593 34.8833 39.4759 34.9999 39.4759C35.1166 39.4759 35.2333 39.3593 35.2333 39.2426V37.4926C35.2333 37.3759 35.1166 37.2593 34.9999 37.2593Z" fill="#4451CA"/>
<path d="M41.1835 31.5433H42.9335C43.0502 31.5433 43.1669 31.4267 43.1669 31.31C43.1669 31.1933 43.0502 31.0767 42.9335 31.0767H41.1835C41.0669 31.0767 40.9502 31.1933 40.9502 31.31C40.9502 31.4267 41.0669 31.5433 41.1835 31.5433Z" fill="#4451CA"/>
<path d="M34.4169 20.2845H48.1836C48.3003 20.2845 48.4169 20.1679 48.4169 20.0512C48.4169 19.9345 48.3003 19.8179 48.1836 19.8179H34.4169C34.3003 19.8179 34.1836 19.9345 34.1836 20.0512C34.1836 20.1679 34.2419 20.2845 34.4169 20.2845Z" fill="#4451CA"/>
<path d="M34.9999 31.5432H36.6916C36.8083 31.5432 36.9249 31.4266 36.9249 31.3099C36.9249 31.1932 36.8083 31.0766 36.6916 31.0766H35.2333V28.3349C35.2333 28.2182 35.1166 28.1016 34.9999 28.1016C34.8833 28.1016 34.7666 28.2182 34.7666 28.3349V31.3099C34.7666 31.4266 34.8833 31.5432 34.9999 31.5432Z" fill="#4451CA"/>
<path d="M34.9999 25.3597C35.1166 25.3597 35.2333 25.2431 35.2333 25.1264V23.3764C35.2333 23.2597 35.1166 23.1431 34.9999 23.1431C34.8833 23.1431 34.7666 23.2597 34.7666 23.3764V25.1264C34.7666 25.2431 34.8833 25.3597 34.9999 25.3597Z" fill="#4451CA"/>
<path d="M39.5498 35.5099C39.4331 35.3932 39.3165 35.3932 39.1998 35.5099C39.0831 35.6265 39.0831 35.7432 39.1998 35.8599L40.4248 37.0849C40.4831 37.1432 40.5415 37.1432 40.5998 37.1432C40.6581 37.1432 40.7165 37.1432 40.7748 37.0849C40.8915 36.9682 40.8915 36.8515 40.7748 36.7349L39.5498 35.5099Z" fill="#4451CA"/>
<path d="M50.4586 17.3682H19.5419C19.4253 17.3682 19.3086 17.4848 19.3086 17.6015V40.1182C19.3086 40.2348 19.4253 40.3515 19.5419 40.3515H50.4586C50.5753 40.3515 50.6919 40.2348 50.6919 40.1182V17.6598C50.6919 17.4848 50.5753 17.3682 50.4586 17.3682ZM50.2253 39.9432H19.7753V22.6765H50.2253V39.9432ZM50.2253 22.1515H19.7753V17.8932H50.2253V22.1515Z" fill="#4451CA"/>
<path d="M33.4247 44.201H36.5747C36.6914 44.201 36.8081 44.0844 36.8081 43.9677C36.8081 43.851 36.6914 43.7344 36.5747 43.7344H33.4247C33.3081 43.7344 33.1914 43.851 33.1914 43.9677C33.1914 44.0844 33.3081 44.201 33.4247 44.201Z" fill="#4451CA"/>
<path d="M35 0.276367C15.6917 0.276367 0 15.968 0 35.2764C0 54.5847 15.6917 70.2764 35 70.2764C54.3083 70.2764 70 54.5847 70 35.2764C70 15.968 54.3083 0.276367 35 0.276367ZM17.2083 15.618H52.7917V42.043H17.2083V15.618ZM43.1083 47.9347C43.1083 48.2264 42.875 48.4014 42.6417 48.4014H41.475C41.125 48.4014 40.775 48.6347 40.6583 48.9847V49.043C40.5417 49.393 40.6 49.743 40.8333 50.0347L41.65 50.8514C41.825 51.0264 41.825 51.318 41.65 51.5514L39.9 53.3597C39.725 53.5347 39.4333 53.5347 39.2583 53.418L37.8 52.193L37.0417 52.6014C36.8667 52.6014 36.75 52.7764 36.75 52.9514V54.4097C36.75 54.7014 36.5167 54.9347 36.2833 54.9347H33.7167C33.4833 54.9347 33.25 54.7014 33.25 54.468V53.3014C33.25 52.9514 33.0167 52.6014 32.725 52.4847H32.6667C32.55 52.4264 32.4333 52.4264 32.3167 52.4264C32.0833 52.4264 31.85 52.543 31.675 52.718L30.8583 53.5347C30.6833 53.7097 30.3917 53.7097 30.2167 53.5347L28.35 51.6097C28.175 51.4347 28.175 51.143 28.35 50.9097L29.1667 50.093C29.4 49.8597 29.5167 49.4514 29.3417 49.1014V49.043C29.225 48.693 28.875 48.4597 28.525 48.4597H27.3583C27.125 48.4597 26.95 48.2847 26.95 47.993V46.243H31.2667C31.2667 46.3597 31.2667 46.5347 31.2667 46.6514C31.2667 48.8097 32.9583 50.5597 35.0583 50.5597C37.1583 50.5597 38.85 48.8097 38.85 46.6514C38.85 46.5347 38.85 46.3597 38.85 46.243H43.1667V47.9347H43.1083ZM31.675 46.593C31.675 46.4764 31.675 46.3014 31.675 46.1847H38.2667C38.2667 46.3014 38.2667 46.4764 38.2667 46.593C38.2667 48.4597 36.8083 49.9764 34.9417 49.9764C33.075 49.9764 31.675 48.518 31.675 46.593ZM55.0667 42.743C55.0667 44.3764 53.725 45.718 52.0917 45.718H43.575H38.2083H31.7917H26.425H17.9083C16.275 45.718 14.9333 44.3764 14.9333 42.743V42.568H55.0667V42.743Z" fill="#4451CA"/>
<path d="M21.9911 20.9848H23.6828C23.7995 20.9848 23.9161 20.8682 23.9161 20.7515V19.3515C23.9161 19.2348 23.7995 19.1182 23.6828 19.1182H21.9911C21.8745 19.1182 21.7578 19.2348 21.7578 19.3515V20.7515C21.7578 20.8682 21.8745 20.9848 21.9911 20.9848Z" fill="#4451CA"/>
<path d="M30.3921 20.9848H32.0837C32.2004 20.9848 32.3171 20.8682 32.3171 20.7515V19.3515C32.3171 19.2348 32.2004 19.1182 32.0837 19.1182H30.3921C30.2754 19.1182 30.1587 19.2348 30.1587 19.3515V20.7515C30.1004 20.8682 30.2171 20.9848 30.3921 20.9848Z" fill="#4451CA"/>
<path d="M26.1913 20.9848H27.883C27.9997 20.9848 28.1163 20.8682 28.1163 20.7515V19.3515C28.1163 19.2348 27.9997 19.1182 27.883 19.1182H26.1913C26.0747 19.1182 25.958 19.2348 25.958 19.3515V20.7515C25.958 20.8682 26.0163 20.9848 26.1913 20.9848Z" fill="#4451CA"/>
</svg>
