<svg width="40" height="41" viewBox="0 0 40 41" fill="none" xmlns="http://www.w3.org/2000/svg">
<g clip-path="url(#clip0_367_9541)">
<path d="M37.0472 0.428284H2.95278C2.16965 0.428284 1.4186 0.739379 0.864849 1.29313C0.311096 1.84689 0 2.59794 0 3.38106V37.4755C0 38.2586 0.311096 39.0097 0.864849 39.5634C1.4186 40.1172 2.16965 40.4283 2.95278 40.4283H37.0472C37.8303 40.4283 38.5814 40.1172 39.1352 39.5634C39.6889 39.0097 40 38.2586 40 37.4755V3.38106C40 2.59794 39.6889 1.84689 39.1352 1.29313C38.5814 0.739379 37.8303 0.428284 37.0472 0.428284ZM11.9222 34.5033H5.90833V15.4005H11.9222V34.5033ZM8.91111 12.7533C8.22894 12.7494 7.56319 12.5436 6.99789 12.1618C6.43259 11.7799 5.99307 11.2392 5.7348 10.6078C5.47652 9.97636 5.41108 9.2826 5.54672 8.61404C5.68236 7.94548 6.013 7.33208 6.49693 6.85125C6.98085 6.37043 7.59636 6.04373 8.26578 5.91238C8.9352 5.78104 9.62852 5.85094 10.2583 6.11326C10.888 6.37558 11.4259 6.81856 11.8041 7.3863C12.1823 7.95405 12.3839 8.6211 12.3833 9.30328C12.3898 9.76001 12.3042 10.2133 12.1317 10.6363C11.9592 11.0592 11.7033 11.4431 11.3793 11.7651C11.0553 12.087 10.6697 12.3404 10.2457 12.5102C9.82167 12.68 9.36778 12.7627 8.91111 12.7533ZM34.0889 34.52H28.0778V24.0838C28.0778 21.0061 26.7694 20.0561 25.0806 20.0561C23.2972 20.0561 21.5472 21.4005 21.5472 24.1616V34.52H15.5333V15.4144H21.3167V18.0616H21.3944C21.975 16.8866 24.0083 14.8783 27.1111 14.8783C30.4667 14.8783 34.0917 16.87 34.0917 22.7033L34.0889 34.52Z" fill="#0A66C2"/>
</g>
<defs>
<clipPath id="clip0_367_9541">
<rect width="40" height="40" fill="white" transform="translate(0 0.428284)"/>
</clipPath>
</defs>
</svg>
