<svg width="170" height="57" viewBox="0 0 170 57" fill="none" xmlns="http://www.w3.org/2000/svg">
<rect y="0.276367" width="170" height="56" rx="24" fill="#ECEEFA"/>
<rect x="16" y="8.27637" width="40" height="40" rx="20" fill="white"/>
<path d="M46.0626 29.5645C45.4266 28.7797 44.4564 28.2314 43.1197 27.9197C43.9929 27.6187 44.6612 27.1994 45.114 26.6834C45.8039 25.8986 46.1381 24.9633 46.1381 23.8775C46.1381 22.566 45.6638 21.4802 44.7043 20.5987C43.7557 19.7171 42.3759 19.2764 40.5972 19.2764H31.8438C30.7658 19.2764 29.8818 20.1471 29.8818 21.2329V35.5847C29.8818 36.778 30.852 37.7455 32.0486 37.7455H39.7563C40.1767 37.7455 41.0391 37.6595 42.322 37.4875C43.2922 37.3693 44.0144 37.165 44.4995 36.8855C45.2757 36.4447 45.8794 35.832 46.3321 35.0687C46.7741 34.3054 47.0005 33.4454 47.0005 32.4886C47.0005 31.3168 46.6879 30.3385 46.0626 29.5645ZM37.1583 35.8212C33.9998 35.8212 31.4449 34.4129 31.4449 32.6498C31.4449 32.4026 31.4881 32.1553 31.5851 31.9188C32.178 33.3379 34.4418 34.3914 37.1583 34.3914C39.8749 34.3914 42.1387 33.3379 42.7208 31.9188C42.8178 32.1553 42.8717 32.4026 42.8717 32.6498C42.8717 34.4129 40.3169 35.8212 37.1583 35.8212ZM37.1583 31.6178C33.9998 31.6178 31.4449 30.1988 31.4449 28.4464C31.4449 28.1992 31.4881 27.9519 31.5851 27.7154C32.178 29.1345 34.4418 30.188 37.1583 30.188C39.8749 30.188 42.1387 29.1345 42.7208 27.7154C42.8178 27.9519 42.8717 28.1992 42.8717 28.4464C42.8717 30.1988 40.3169 31.6178 37.1583 31.6178ZM37.1583 27.7154C33.9998 27.7154 31.4342 26.2964 31.4342 24.5441C31.4342 22.7917 33.9998 21.3619 37.1583 21.3619C40.3169 21.3619 42.8717 22.7917 42.8717 24.5441C42.8717 26.2964 40.3169 27.7154 37.1583 27.7154Z" fill="#4451CA"/>
<path d="M30.5066 28.2851V21.5231C30.5066 20.9318 30.0215 20.4696 29.4286 20.4696H25.8389C25.7095 19.6955 24.9765 19.1688 24.2003 19.2978C23.5104 19.4053 23.0037 19.9965 23.0037 20.6953C23.0037 21.4801 23.6397 22.1144 24.4267 22.1251C25.1274 22.1251 25.7203 21.6306 25.8389 20.9426H29.4286C29.7628 20.9426 30.0323 21.2006 30.0431 21.5338V24.3827H28.1673C28.0272 23.6087 27.2942 23.0926 26.518 23.2324C25.8389 23.3507 25.3322 23.9419 25.343 24.6407C25.343 25.4255 25.9898 26.0598 26.7767 26.049C27.4774 26.049 28.0703 25.5437 28.1781 24.8557H30.0538V28.2958H25.8389C25.7095 27.5218 24.9765 26.995 24.2003 27.124C23.5104 27.2315 23.0037 27.8228 23.0037 28.5108C23.0037 28.5753 23.0037 28.6291 23.0145 28.6936C23.1115 29.4676 23.823 30.0266 24.5992 29.9299C25.2244 29.8546 25.7203 29.3709 25.8281 28.7581H30.0323V32.1982H28.2105C28.1566 31.8435 27.9733 31.5209 27.6822 31.2952C27.0678 30.8114 26.173 30.9189 25.6879 31.5317C25.4508 31.8327 25.343 32.209 25.3969 32.5852C25.4939 33.37 26.2054 33.9183 26.9815 33.8323C27.6068 33.757 28.1027 33.284 28.2105 32.6605H30.0323V35.5093C30.0323 35.8426 29.752 36.1006 29.4178 36.1006H25.8281C25.7634 35.7566 25.5801 35.4448 25.2999 35.2191C24.998 34.9826 24.6207 34.8858 24.2542 34.9288C23.4888 35.0578 22.9498 35.7458 23.0037 36.5199C23.1007 37.2939 23.8338 37.8529 24.5884 37.7562C25.2244 37.6702 25.7203 37.1864 25.8281 36.5629H29.4178C30.0107 36.5629 30.4958 36.1006 30.4958 35.5093V28.7581" fill="#4451CA"/>
<path d="M74.472 37.2764V20.4764H81.288C82.264 20.4764 83.104 20.6524 83.808 21.0044C84.528 21.3404 85.08 21.8284 85.464 22.4684C85.848 23.0924 86.04 23.8364 86.04 24.7004C86.04 25.6284 85.776 26.4284 85.248 27.1004C84.72 27.7564 84 28.2124 83.088 28.4684L83.04 28.0124C83.824 28.1564 84.504 28.4364 85.08 28.8524C85.656 29.2524 86.104 29.7484 86.424 30.3404C86.76 30.9324 86.928 31.5964 86.928 32.3324C86.928 33.0844 86.8 33.7644 86.544 34.3724C86.288 34.9804 85.92 35.5004 85.44 35.9324C84.976 36.3644 84.408 36.7004 83.736 36.9404C83.08 37.1644 82.344 37.2764 81.528 37.2764H74.472ZM76.344 35.4524H81.384C82.104 35.4524 82.728 35.3324 83.256 35.0924C83.8 34.8364 84.216 34.4764 84.504 34.0124C84.808 33.5484 84.96 33.0124 84.96 32.4044C84.96 31.8284 84.8 31.3244 84.48 30.8924C84.176 30.4604 83.744 30.1244 83.184 29.8844C82.64 29.6444 82 29.5244 81.264 29.5244H76.344V35.4524ZM76.344 27.7004H81.144C81.72 27.7004 82.232 27.5884 82.68 27.3644C83.128 27.1244 83.48 26.8044 83.736 26.4044C83.992 25.9884 84.12 25.5244 84.12 25.0124C84.12 24.1964 83.84 23.5404 83.28 23.0444C82.736 22.5484 81.968 22.3004 80.976 22.3004H76.344V27.7004ZM95.3501 37.5164C94.1021 37.5164 92.9901 37.2444 92.0141 36.7004C91.0541 36.1564 90.3021 35.3964 89.7581 34.4204C89.2141 33.4444 88.9421 32.3244 88.9421 31.0604C88.9421 30.0844 89.0941 29.2044 89.3981 28.4204C89.7021 27.6204 90.1261 26.9244 90.6701 26.3324C91.2301 25.7404 91.8941 25.2844 92.6621 24.9644C93.4301 24.6284 94.2621 24.4604 95.1581 24.4604C96.0061 24.4604 96.7741 24.6124 97.4621 24.9164C98.1661 25.2204 98.7661 25.6444 99.2621 26.1884C99.7741 26.7164 100.158 27.3484 100.414 28.0844C100.67 28.8204 100.782 29.6284 100.75 30.5084L100.726 31.3484H90.2861L90.0221 29.8364H99.3581L98.9261 30.2444V29.6684C98.8941 29.0924 98.7261 28.5404 98.4221 28.0124C98.1181 27.4684 97.6861 27.0284 97.1261 26.6924C96.5821 26.3564 95.9261 26.1884 95.1581 26.1884C94.2621 26.1884 93.4861 26.3724 92.8301 26.7404C92.1741 27.0924 91.6701 27.6204 91.3181 28.3244C90.9661 29.0284 90.7901 29.9004 90.7901 30.9404C90.7901 31.9324 90.9821 32.7964 91.3661 33.5324C91.7501 34.2524 92.2941 34.8124 92.9981 35.2124C93.7181 35.6124 94.5821 35.8124 95.5901 35.8124C96.1821 35.8124 96.7661 35.7164 97.3421 35.5244C97.9341 35.3164 98.5821 34.9164 99.2861 34.3244L100.222 35.6204C99.8541 35.9884 99.4141 36.3164 98.9021 36.6044C98.3901 36.8764 97.8301 37.1004 97.2221 37.2764C96.6141 37.4364 95.9901 37.5164 95.3501 37.5164ZM103.307 37.2764V24.7484H105.083L105.155 27.3644L104.867 27.4844C105.027 26.9404 105.339 26.4444 105.803 25.9964C106.267 25.5484 106.819 25.1884 107.459 24.9164C108.115 24.6284 108.787 24.4844 109.475 24.4844C110.403 24.4844 111.179 24.6684 111.803 25.0364C112.427 25.4044 112.899 25.9724 113.219 26.7404C113.539 27.5084 113.699 28.4844 113.699 29.6684V37.2764H111.875V29.7644C111.875 28.9324 111.763 28.2524 111.539 27.7244C111.331 27.1804 111.003 26.7804 110.555 26.5244C110.107 26.2684 109.555 26.1484 108.899 26.1644C108.355 26.1644 107.851 26.2604 107.387 26.4524C106.923 26.6284 106.523 26.8764 106.187 27.1964C105.851 27.5164 105.587 27.8844 105.395 28.3004C105.203 28.7164 105.107 29.1644 105.107 29.6444V37.2764H104.219C104.107 37.2764 103.979 37.2764 103.835 37.2764C103.691 37.2764 103.515 37.2764 103.307 37.2764ZM122.655 37.5164C121.407 37.5164 120.295 37.2444 119.319 36.7004C118.359 36.1564 117.607 35.3964 117.063 34.4204C116.519 33.4444 116.247 32.3244 116.247 31.0604C116.247 30.0844 116.399 29.2044 116.703 28.4204C117.007 27.6204 117.431 26.9244 117.975 26.3324C118.535 25.7404 119.199 25.2844 119.967 24.9644C120.735 24.6284 121.567 24.4604 122.463 24.4604C123.311 24.4604 124.079 24.6124 124.767 24.9164C125.471 25.2204 126.071 25.6444 126.567 26.1884C127.079 26.7164 127.463 27.3484 127.719 28.0844C127.975 28.8204 128.087 29.6284 128.055 30.5084L128.031 31.3484H117.591L117.327 29.8364H126.663L126.231 30.2444V29.6684C126.199 29.0924 126.031 28.5404 125.727 28.0124C125.423 27.4684 124.991 27.0284 124.431 26.6924C123.887 26.3564 123.231 26.1884 122.463 26.1884C121.567 26.1884 120.791 26.3724 120.135 26.7404C119.479 27.0924 118.975 27.6204 118.623 28.3244C118.271 29.0284 118.095 29.9004 118.095 30.9404C118.095 31.9324 118.287 32.7964 118.671 33.5324C119.055 34.2524 119.599 34.8124 120.303 35.2124C121.023 35.6124 121.887 35.8124 122.895 35.8124C123.487 35.8124 124.071 35.7164 124.647 35.5244C125.239 35.3164 125.887 34.9164 126.591 34.3244L127.527 35.6204C127.159 35.9884 126.719 36.3164 126.207 36.6044C125.695 36.8764 125.135 37.1004 124.527 37.2764C123.919 37.4364 123.295 37.5164 122.655 37.5164ZM132.051 37.2764V22.8044C132.051 22.1804 132.187 21.6284 132.459 21.1484C132.731 20.6684 133.115 20.2924 133.611 20.0204C134.123 19.7324 134.715 19.5884 135.387 19.5884C135.899 19.5884 136.355 19.6844 136.755 19.8764C137.171 20.0524 137.515 20.3004 137.787 20.6204L137.163 22.0364C136.907 21.7644 136.627 21.5724 136.323 21.4604C136.035 21.3324 135.755 21.2684 135.483 21.2684C135.131 21.2684 134.835 21.3324 134.595 21.4604C134.355 21.5724 134.171 21.7484 134.043 21.9884C133.931 22.2124 133.875 22.4844 133.875 22.8044V37.2764H133.035C132.859 37.2764 132.691 37.2764 132.531 37.2764C132.371 37.2764 132.211 37.2764 132.051 37.2764ZM129.819 26.5244V24.8444H137.067V26.5244H129.819ZM140.163 37.2764V24.7484H141.963V37.2764H140.163ZM141.051 22.0364C140.603 22.0364 140.259 21.9244 140.019 21.7004C139.795 21.4604 139.683 21.1404 139.683 20.7404C139.683 20.3404 139.803 20.0204 140.043 19.7804C140.283 19.5404 140.619 19.4204 141.051 19.4204C141.483 19.4204 141.819 19.5404 142.059 19.7804C142.299 20.0044 142.419 20.3244 142.419 20.7404C142.419 21.1244 142.299 21.4364 142.059 21.6764C141.819 21.9164 141.483 22.0364 141.051 22.0364ZM147.621 37.2764V21.4604H149.421V37.2764H147.621ZM144.789 26.4764V24.7484H152.589V26.4764H144.789Z" fill="#4451CA"/>
</svg>
