<svg width="70" height="70" viewBox="0 0 70 70" fill="none" xmlns="http://www.w3.org/2000/svg">
<g id="team_10870099 1">
<rect y="-0.00537109" width="70" height="70" rx="35" fill="#4451CA"/>
<path id="Vector" d="M25.9223 12.5258C25.9223 12.3599 25.9715 12.1977 26.0636 12.0597C26.1558 11.9218 26.2868 11.8143 26.4401 11.7508C26.5934 11.6873 26.762 11.6707 26.9247 11.703C27.0874 11.7354 27.2369 11.8153 27.3542 11.9326C27.4715 12.0499 27.5514 12.1994 27.5838 12.3621C27.6162 12.5248 27.5995 12.6935 27.5361 12.8468C27.4726 13 27.3651 13.131 27.2271 13.2232C27.0892 13.3154 26.927 13.3646 26.7611 13.3646C26.5386 13.3646 26.3253 13.2762 26.1679 13.1189C26.0106 12.9616 25.9223 12.7482 25.9223 12.5258ZM20.3178 52.2458C20.1519 52.2458 19.9898 52.295 19.8518 52.3871C19.7139 52.4793 19.6064 52.6103 19.5429 52.7636C19.4794 52.9169 19.4628 53.0855 19.4951 53.2482C19.5275 53.411 19.6074 53.5604 19.7247 53.6777C19.842 53.7951 19.9915 53.875 20.1542 53.9073C20.3169 53.9397 20.4856 53.9231 20.6388 53.8596C20.7921 53.7961 20.9231 53.6886 21.0153 53.5506C21.1075 53.4127 21.1567 53.2505 21.1567 53.0846C21.1567 52.8621 21.0683 52.6488 20.911 52.4915C20.7537 52.3342 20.5403 52.2458 20.3178 52.2458ZM22.4589 53.7681C22.293 53.7681 22.1309 53.8173 21.9929 53.9095C21.855 54.0017 21.7475 54.1327 21.684 54.286C21.6205 54.4392 21.6039 54.6079 21.6362 54.7706C21.6686 54.9333 21.7485 55.0828 21.8658 55.2001C21.9831 55.3174 22.1326 55.3973 22.2953 55.4297C22.458 55.462 22.6267 55.4454 22.78 55.3819C22.9332 55.3185 23.0642 55.2109 23.1564 55.073C23.2486 54.9351 23.2978 54.7729 23.2978 54.607C23.2978 54.3846 23.2095 54.1713 23.0523 54.014C22.8951 53.8567 22.6819 53.7683 22.4595 53.7681H22.4589ZM58.9196 33.2431C58.7537 33.2431 58.5915 33.2923 58.4536 33.3845C58.3156 33.4766 58.2081 33.6076 58.1446 33.7609C58.0811 33.9142 58.0645 34.0829 58.0969 34.2456C58.1293 34.4083 58.2092 34.5578 58.3265 34.6751C58.4438 34.7924 58.5932 34.8723 58.756 34.9046C58.9187 34.937 59.0873 34.9204 59.2406 34.8569C59.3939 34.7934 59.5249 34.6859 59.6171 34.548C59.7092 34.41 59.7584 34.2478 59.7584 34.0819C59.7584 33.8595 59.6701 33.6461 59.5127 33.4888C59.3554 33.3315 59.1421 33.2431 58.9196 33.2431ZM58.8806 35.8098C58.7147 35.8098 58.5525 35.859 58.4146 35.9512C58.2766 36.0433 58.1691 36.1744 58.1056 36.3276C58.0421 36.4809 58.0255 36.6496 58.0579 36.8123C58.0903 36.975 58.1701 37.1245 58.2875 37.2418C58.4048 37.3591 58.5542 37.439 58.717 37.4713C58.8797 37.5037 59.0483 37.4871 59.2016 37.4236C59.3549 37.3601 59.4859 37.2526 59.5781 37.1147C59.6702 36.9767 59.7194 36.8145 59.7194 36.6486C59.7193 36.4262 59.6309 36.2129 59.4736 36.0557C59.3163 35.8985 59.103 35.8101 58.8806 35.8101V35.8098ZM24.3725 14.4587C24.5384 14.4587 24.7006 14.4095 24.8386 14.3174C24.9765 14.2252 25.084 14.0942 25.1475 13.9409C25.211 13.7876 25.2276 13.619 25.1952 13.4563C25.1629 13.2935 25.083 13.1441 24.9657 13.0268C24.8484 12.9094 24.6989 12.8296 24.5362 12.7972C24.3735 12.7648 24.2048 12.7814 24.0515 12.8449C23.8982 12.9084 23.7672 13.0159 23.6751 13.1539C23.5829 13.2918 23.5337 13.454 23.5337 13.6199C23.5337 13.8424 23.6221 14.0557 23.7794 14.213C23.9367 14.3704 24.1501 14.4587 24.3725 14.4587ZM16.9596 33.0839C17.6895 35.2411 19.093 37.1069 20.9632 38.4063C21.0411 37.5746 21.4258 36.8018 22.0423 36.2382C22.6589 35.6747 23.4631 35.3608 24.2984 35.3578H24.5815L24.5914 24.3994C24.591 23.8067 24.7478 23.2246 25.0459 22.7125C25.3441 22.2003 25.7728 21.7765 26.2882 21.4841C26.8037 21.1918 27.3876 21.0415 27.9801 21.0486C28.5727 21.0556 29.1528 21.2198 29.6611 21.5244C29.7318 21.0418 29.9153 20.5828 30.1969 20.1846C30.4785 19.7864 30.8501 19.4603 31.2815 19.2328C29.3898 18.4271 27.3235 18.4328 25.1535 18.4385C24.9702 18.439 24.7871 18.4394 24.6041 18.4396C23.6814 18.4396 22.5959 18.1486 21.3025 17.5553L14.4291 29.4624C15.207 30.2005 16.4324 31.5408 16.9596 33.0839ZM43.6905 27.2978C43.4522 27.1613 43.1827 27.0888 42.9082 27.0872C42.6336 27.0856 42.3633 27.1551 42.1235 27.2888C41.6141 27.5824 41.3444 28.1375 41.3437 28.8944V37.5838C41.3437 37.8063 41.2553 38.0196 41.098 38.177C40.9407 38.3343 40.7273 38.4226 40.5048 38.4226C40.2824 38.4226 40.069 38.3343 39.9117 38.177C39.7544 38.0196 39.666 37.8063 39.666 37.5838V24.3747C39.6669 23.5592 39.2614 23.1535 38.9216 22.9566C38.6367 22.8009 38.3174 22.7192 37.9928 22.719C37.6682 22.7187 37.3487 22.7998 37.0636 22.955C36.7225 23.1515 36.3157 23.557 36.315 24.3723V37.5838C36.315 37.8063 36.2266 38.0196 36.0693 38.177C35.912 38.3343 35.6986 38.4226 35.4762 38.4226C35.2537 38.4226 35.0403 38.3343 34.883 38.177C34.7257 38.0196 34.6374 37.8063 34.6374 37.5838V22.1519C34.6384 20.9295 33.7376 20.4952 32.9656 20.4945H32.9637C32.1913 20.4945 31.2901 20.9278 31.289 22.1495L31.2858 37.5839C31.2857 37.8063 31.1972 38.0195 31.0399 38.1767C30.8826 38.3338 30.6694 38.4221 30.447 38.4221H30.4464C30.3362 38.422 30.2271 38.4003 30.1254 38.358C30.0237 38.3158 29.9312 38.2539 29.8534 38.176C29.7756 38.098 29.7139 38.0055 29.6718 37.9037C29.6297 37.8019 29.6081 37.6928 29.6082 37.5827L29.6177 24.4026C29.616 23.9591 29.4393 23.5341 29.126 23.2201C28.8127 22.9061 28.3882 22.7285 27.9447 22.7258C27.5007 22.7264 27.0751 22.9029 26.7611 23.2168C26.4471 23.5306 26.2702 23.956 26.2693 24.4L26.2534 42.1703C26.2532 42.3926 26.1647 42.6058 26.0074 42.7629C25.8501 42.92 25.6369 43.0083 25.4146 43.0083H25.4138C25.3037 43.0082 25.1946 42.9864 25.0929 42.9442C24.9911 42.9019 24.8987 42.8401 24.8209 42.7621C24.7431 42.6841 24.6814 42.5916 24.6393 42.4898C24.5972 42.388 24.5756 42.2789 24.5757 42.1687L24.5803 37.0352H24.3009C23.8582 37.0377 23.4343 37.2144 23.121 37.5272C22.8078 37.84 22.6303 38.2637 22.6272 38.7064L22.6208 44.5688C22.6251 47.1396 23.5635 49.6212 25.2614 51.5515C26.3385 52.7837 26.8873 54.5156 27.1368 55.5569H40.8822C41.0163 54.1397 41.3075 53.0538 41.7678 52.2552C41.859 52.0972 41.9504 51.94 42.0419 51.7834C43.2945 49.6295 44.4775 47.5951 44.4745 45.159L44.484 28.8962C44.4854 28.1621 44.2033 27.5945 43.6905 27.2978ZM12.7257 29.0576L20.1946 16.1198C20.3667 15.8205 20.4131 15.4652 20.3236 15.1318C20.2342 14.7984 20.0161 14.5141 19.7172 14.3412L18.256 13.5001L9.48565 28.6917L10.9466 29.5352C11.2459 29.7075 11.6014 29.7541 11.935 29.6645C12.2686 29.575 12.553 29.3567 12.7257 29.0576ZM41.5732 57.235H26.6326C26.2877 57.2353 25.9569 57.3725 25.713 57.6164C25.469 57.8603 25.3318 58.1911 25.3314 58.536V60.223H42.8744V58.536C42.874 58.1911 42.7368 57.8603 42.4929 57.6164C42.2489 57.3725 41.9182 57.2353 41.5732 57.235ZM46.1553 40.3876L48.7986 38.866C51.0235 37.576 52.7035 35.5212 53.5256 33.0845C54.0532 31.541 55.2786 30.2 56.0565 29.4624L49.1831 17.5552C47.8899 18.1486 46.8039 18.4395 45.8816 18.4395C45.6987 18.4395 45.5156 18.4391 45.3322 18.4384C42.8408 18.4315 40.4885 18.425 38.3798 19.6443L36.1198 20.9484C36.1805 21.123 36.2268 21.3022 36.2582 21.4843C36.7953 21.1884 37.3993 21.0349 38.0126 21.0384C38.6258 21.042 39.228 21.2024 39.7617 21.5045C40.7683 22.087 41.345 23.1335 41.344 24.3754V25.8044C41.8342 25.5372 42.3849 25.4007 42.9432 25.408C43.5014 25.4152 44.0484 25.5659 44.5315 25.8457C45.5696 26.4463 46.1644 27.5587 46.1632 28.8976L46.1553 40.3876ZM57.7603 29.0576C57.9331 29.3564 58.2173 29.5744 58.5507 29.664C58.884 29.7535 59.2392 29.7072 59.5384 29.5352L61 28.6914L52.2298 13.5001L50.7681 14.3416C50.4695 14.5145 50.2517 14.7987 50.1623 15.1319C50.0728 15.4652 50.1192 15.8203 50.2911 16.1194L57.7603 29.0576ZM58.6453 38.3916C58.4269 38.3492 58.2006 38.3952 58.0162 38.5196C57.8318 38.6441 57.7043 38.8366 57.6619 39.055C56.5357 44.8934 53.1646 50.0573 48.2726 53.4372L48.6565 52.6277C48.7047 52.528 48.7328 52.4197 48.739 52.3092C48.7452 52.1986 48.7295 52.0879 48.6927 51.9834C48.656 51.879 48.5989 51.7828 48.5247 51.7005C48.4506 51.6183 48.3609 51.5515 48.2609 51.504C48.1608 51.4566 48.0523 51.4294 47.9417 51.4241C47.8311 51.4188 47.7205 51.4355 47.6164 51.4731C47.5122 51.5108 47.4165 51.5687 47.3349 51.6435C47.2532 51.7183 47.1872 51.8085 47.1406 51.909L45.5559 55.2516C45.4954 55.3795 45.4681 55.5205 45.4767 55.6618C45.4853 55.803 45.5294 55.9397 45.6051 56.0593C45.6807 56.1788 45.7853 56.2773 45.9093 56.3456C46.0332 56.4138 46.1723 56.4496 46.3138 56.4497H46.3406L50.012 56.3331C50.1221 56.3296 50.2304 56.3044 50.3308 56.2591C50.4312 56.2137 50.5217 56.149 50.5971 56.0687C50.6724 55.9884 50.7313 55.894 50.7702 55.7909C50.8091 55.6879 50.8273 55.5782 50.8238 55.4681C50.8203 55.358 50.7952 55.2496 50.7498 55.1493C50.7045 55.0489 50.6398 54.9584 50.5595 54.883C50.4791 54.8076 50.3848 54.7488 50.2817 54.7099C50.1786 54.671 50.0689 54.6528 49.9588 54.6562L49.4216 54.6733C54.5602 51.0335 58.1006 45.5554 59.3086 39.3752C59.351 39.1569 59.305 38.9306 59.1806 38.7462C59.0562 38.5618 58.8636 38.4344 58.6453 38.3919V38.3916ZM29.7084 12.5145C34.0985 11.4215 38.7141 11.6546 42.9717 13.1844L42.3025 13.2727C42.1928 13.2865 42.0868 13.3218 41.9907 13.3766C41.8946 13.4315 41.8103 13.5048 41.7427 13.5924C41.6751 13.68 41.6254 13.78 41.5967 13.8869C41.5679 13.9937 41.5605 14.1052 41.575 14.2149C41.5895 14.3246 41.6255 14.4303 41.681 14.526C41.7366 14.6217 41.8105 14.7055 41.8985 14.7725C41.9865 14.8395 42.0869 14.8885 42.194 14.9165C42.301 14.9446 42.4125 14.9512 42.5221 14.9359L46.1905 14.4515C46.333 14.4327 46.4683 14.3775 46.5834 14.2914C46.6985 14.2052 46.7895 14.0909 46.8477 13.9594C46.9059 13.828 46.9294 13.6837 46.9158 13.5406C46.9022 13.3975 46.852 13.2603 46.7701 13.1421L44.6773 10.1223C44.5499 9.94118 44.356 9.81779 44.1379 9.77905C43.9199 9.74031 43.6954 9.78937 43.5134 9.91552C43.3314 10.0417 43.2066 10.2347 43.1664 10.4524C43.1261 10.6702 43.1736 10.8951 43.2984 11.0779L43.7051 11.6651C39.0903 9.97035 34.0733 9.69911 29.3027 10.8865C29.1958 10.9131 29.0952 10.9605 29.0067 11.0261C28.9181 11.0916 28.8433 11.1739 28.7866 11.2683C28.7298 11.3627 28.6922 11.4674 28.6759 11.5764C28.6596 11.6853 28.665 11.7964 28.6916 11.9033C28.7182 12.0102 28.7657 12.1108 28.8312 12.1994C28.8967 12.2879 28.979 12.3627 29.0734 12.4195C29.1678 12.4762 29.2725 12.5138 29.3815 12.5301C29.4904 12.5464 29.6015 12.5412 29.7084 12.5145ZM12.5116 36.9175L12.9845 37.6022C13.1125 37.7814 13.3057 37.9031 13.5226 37.941C13.7395 37.979 13.9627 37.9301 14.1439 37.805C14.325 37.6798 14.4498 37.4885 14.4911 37.2722C14.5324 37.0559 14.4871 36.8321 14.3648 36.6489L12.2632 33.6053C12.1815 33.4869 12.0708 33.3916 11.9416 33.3284C11.8125 33.2652 11.6693 33.2363 11.5257 33.2444C11.3821 33.2525 11.2431 33.2973 11.1219 33.3746C11.0006 33.452 10.9013 33.5591 10.8334 33.6859L9.09937 36.9238C8.99434 37.1199 8.97152 37.3497 9.03592 37.5627C9.10033 37.7756 9.2467 37.9542 9.44282 38.0593C9.63894 38.1643 9.86876 38.1871 10.0817 38.1227C10.2947 38.0583 10.4733 37.912 10.5783 37.7158L10.8547 37.1998C11.4097 42.6602 13.7909 47.7735 17.6129 51.7124C17.6894 51.792 17.7808 51.8557 17.8819 51.8999C17.9831 51.944 18.0919 51.9678 18.2022 51.9699C18.3126 51.9719 18.4222 51.9522 18.5249 51.9118C18.6276 51.8714 18.7213 51.8111 18.8007 51.7344C18.88 51.6578 18.9435 51.5662 18.9874 51.4649C19.0313 51.3637 19.0548 51.2548 19.0565 51.1444C19.0583 51.0341 19.0382 50.9245 18.9975 50.8219C18.9568 50.7193 18.8963 50.6258 18.8194 50.5466C15.2321 46.8503 13.0078 42.0444 12.5116 36.9175Z" fill="white"/>
</g>
</svg>
