<svg width="70" height="70" viewBox="0 0 70 70" fill="none" xmlns="http://www.w3.org/2000/svg">
<g id="cost-effectiveness_15171209 1">
<rect y="-0.00537109" width="70" height="70" rx="35" fill="#4451CA"/>
<g id="Group">
<path id="Vector" d="M57.9618 28.0526C56.1076 21.9193 51.9758 16.8751 46.3276 13.8493C41.8974 11.4759 36.9289 10.5591 31.9592 11.1982C31.189 11.2972 30.6451 12.0018 30.744 12.7719C30.8432 13.542 31.5464 14.0861 32.3177 13.987C36.703 13.4232 41.0887 14.2324 44.9998 16.3277C49.9859 18.9988 53.6334 23.4517 55.2704 28.8662C56.9073 34.2808 56.3378 40.0086 53.6666 44.9948C52.0611 47.9917 49.805 50.5136 47.0551 52.411L47.0979 52.25C47.2968 51.4995 46.8498 50.7298 46.0993 50.5309C45.3485 50.332 44.579 50.779 44.3801 51.5296L43.4669 54.9747C43.2679 55.7252 43.715 56.4949 44.4655 56.6939L47.9106 57.6072C48.6409 57.807 49.4335 57.3651 49.6298 56.6085C49.8288 55.858 49.3817 55.0883 48.6312 54.8893L48.4749 54.8479C51.6727 52.6845 54.2917 49.7824 56.1453 46.3224C59.1709 40.6743 59.8161 34.186 57.9618 28.0526Z" fill="white"/>
<path id="Vector_2" d="M37.682 56.0024C36.7754 56.119 35.8695 56.1768 34.9671 56.1768C31.5042 56.1767 28.1025 55.3237 24.9998 53.6616C20.0137 50.9906 16.3662 46.5376 14.7292 41.1231C13.0923 35.7085 13.6617 29.9807 16.3329 24.9945C17.9385 21.9977 20.1946 19.4758 22.9444 17.5783L22.9017 17.7393C22.7028 18.4898 23.1498 19.2595 23.9003 19.4585C24.6306 19.6583 25.4232 19.2164 25.6195 18.4598L26.5328 15.0147C26.7408 14.2884 26.268 13.4747 25.5342 13.2955L22.0891 12.3822C21.3385 12.1833 20.5688 12.6304 20.3699 13.3809C20.1709 14.1315 20.618 14.9011 21.3685 15.1001L21.5247 15.1415C18.3269 17.3049 15.7079 20.207 13.8543 23.667C10.8287 29.3149 10.1837 35.8033 12.0379 41.9367C13.8922 48.0701 18.024 53.1142 23.6722 56.14C27.1865 58.0227 31.0395 58.9888 34.9633 58.9888C35.9858 58.9888 37.0132 58.9232 38.0406 58.7911C38.8107 58.6921 39.3547 57.9875 39.2557 57.2174C39.1566 56.4474 38.4527 55.9032 37.682 56.0024Z" fill="white"/>
<path id="Vector_3" d="M46.6893 47.0081C47.3341 47.2541 48.0625 46.9953 48.4076 46.3974L51.5233 41.0011C51.8653 40.4086 51.7312 39.6558 51.2054 39.2179L49.1649 37.5183C49.3122 36.6869 49.3867 35.8414 49.3867 34.9946C49.3867 34.1775 49.3176 33.3619 49.1807 32.5597L51.2484 30.8775C51.7838 30.4418 51.9237 29.6819 51.5785 29.084L48.4629 23.6876C48.1209 23.0951 47.4022 22.8349 46.7598 23.0712L44.2661 23.9891C42.9936 22.9184 41.5366 22.0702 39.9811 21.4948L39.5582 18.8638C39.4486 18.1823 38.8605 17.6812 38.1701 17.6812H31.939C31.2548 17.6812 30.67 18.1737 30.5537 18.8479L30.1022 21.4638C28.544 22.0292 27.0817 22.8684 25.8022 23.9315L23.3091 22.9811C22.664 22.7352 21.936 22.9939 21.5908 23.5918L18.4753 28.9881C18.1332 29.5806 18.2673 30.3334 18.793 30.7712L20.8335 32.4708C20.6862 33.3023 20.6118 34.1477 20.6118 34.9945C20.6118 35.8114 20.6809 36.627 20.8178 37.4294L18.7501 39.1116C18.2147 39.5473 18.0747 40.3073 18.4199 40.905L21.5354 46.3014C21.8774 46.8939 22.5962 47.1542 23.2386 46.9178L25.7325 46C27.0051 47.0708 28.4621 47.9189 30.0175 48.4943L30.4405 51.1253C30.55 51.8068 31.1381 52.308 31.8285 52.308H38.0596C38.7438 52.308 39.3286 51.8155 39.445 51.1412L39.8964 48.5253C41.4546 47.9599 42.9169 47.1208 44.1964 46.0577L46.6893 47.0081ZM36.4052 41.451V41.8525C36.4052 42.6289 35.7757 43.2583 34.9993 43.2583C34.2229 43.2583 33.5935 42.6289 33.5935 41.8525V41.5601C32.7931 41.3876 32.0076 41.0599 31.3298 40.6035C30.6857 40.17 30.5151 39.2964 30.9486 38.6522C31.3823 38.0082 32.2559 37.8374 32.8998 38.271C33.4737 38.6573 34.2054 38.8879 34.8571 38.8879C35.6483 38.8879 36.2489 38.5173 36.4244 37.9206C36.6446 37.1717 36.2572 36.5277 35.388 36.1978C35.0957 36.0868 34.8299 35.9948 34.5728 35.9058C33.6211 35.5761 32.7993 35.2914 32.0062 34.4911C31.1078 33.5845 30.7141 32.3328 30.9533 31.1427C31.1948 29.941 32.0255 28.9646 33.2325 28.4638C33.3521 28.4142 33.4726 28.372 33.5936 28.3362V28.1367C33.5936 27.3603 34.223 26.7309 34.9994 26.7309C35.7758 26.7309 36.4053 27.3603 36.4053 28.1367V28.448C37.1267 28.6722 37.6988 28.9785 37.9707 29.1382C38.6403 29.5313 38.8643 30.3927 38.4711 31.0623C38.078 31.7319 37.2165 31.9558 36.547 31.5628C35.8553 31.1566 34.8362 30.8425 34.3102 31.0609C33.9778 31.1987 33.7647 31.4246 33.71 31.6968C33.6549 31.9711 33.7619 32.2683 34.0035 32.5122C34.3241 32.8357 34.6706 32.9642 35.4933 33.2492C35.7567 33.3404 36.0551 33.4439 36.3859 33.5694C38.6364 34.4236 39.7616 36.5392 39.1219 38.7141C38.7377 40.0198 37.7176 41.0118 36.4052 41.451Z" fill="white"/>
</g>
</g>
</svg>
