<svg width="312" height="688" viewBox="0 0 312 688" fill="none" xmlns="http://www.w3.org/2000/svg">
<g opacity="0.2" clip-path="url(#clip0_350_9494)">
<path d="M333.256 325.85C372.96 301.7 402.924 275.166 423.148 246.251C443.391 217.34 448.251 194.234 437.728 176.933C427.204 159.632 404.451 153.322 369.47 158.002C334.488 162.683 297.154 177.101 257.469 201.256C217.784 225.411 187.748 251.972 167.36 280.939C146.972 309.906 142.056 333.053 152.613 350.383C163.17 367.712 185.978 373.98 221.038 369.187C256.098 364.394 293.494 349.946 333.227 325.843M349.551 353.442C363.992 344.658 377.982 334.571 391.522 323.182C405.068 311.805 417.041 299.873 427.442 287.385C437.842 274.898 446.023 262.289 451.984 249.56C457.945 236.83 460.552 224.719 459.803 213.226L491.861 265.929C492.609 277.422 490.003 289.534 484.042 302.263C478.1 314.998 469.922 327.612 459.51 340.106C449.11 352.594 437.137 364.526 423.59 375.903C410.044 387.281 396.05 397.361 381.609 406.145C367.168 414.929 351.781 422.72 335.449 429.517C319.116 436.314 303.067 441.426 287.303 444.854C271.538 448.282 256.636 449.706 242.595 449.127C228.555 448.547 216.605 445.298 206.746 439.379L174.678 386.657C184.532 392.596 196.485 395.851 210.538 396.423C224.571 396.991 239.474 395.567 255.245 392.151C271.003 388.711 287.051 383.599 303.391 376.813C319.731 370.028 335.117 362.238 349.551 353.442ZM398.271 433.538C412.712 424.754 426.706 414.674 440.252 403.296C453.78 391.914 465.749 379.976 476.162 367.482C486.574 354.987 494.755 342.379 500.704 329.656C506.653 316.934 509.26 304.822 508.523 293.322L540.375 345.687C541.123 357.18 538.517 369.292 532.556 382.021C526.606 394.744 518.429 407.358 508.024 419.865C497.624 432.352 485.651 444.284 472.104 455.662C458.558 467.039 444.564 477.12 430.123 485.904C415.682 494.688 400.295 502.478 383.963 509.275C367.63 516.072 351.582 521.185 335.817 524.612C320.053 528.04 305.15 529.464 291.11 528.885C277.069 528.305 265.116 525.05 255.25 519.119L223.398 466.754C233.264 472.685 245.217 475.94 259.258 476.52C273.298 477.099 288.201 475.675 303.965 472.247C319.73 468.819 335.778 463.707 352.111 456.91C368.443 450.113 383.83 442.322 398.271 433.538Z" fill="#828ADB"/>
</g>
<defs>
<clipPath id="clip0_350_9494">
<rect width="500" height="500" fill="white" transform="translate(0 259.839) rotate(-31.3107)"/>
</clipPath>
</defs>
</svg>
