<svg width="330" height="688" viewBox="0 0 330 688" fill="none" xmlns="http://www.w3.org/2000/svg">
<g id="material-symbols-light:database" opacity="0.2" clip-path="url(#clip0_350_9492)">
<path id="Vector" d="M-24.7442 325.85C14.9599 301.7 44.924 275.166 65.1481 246.251C85.3912 217.34 90.2511 194.234 79.7276 176.933C69.2041 159.632 46.4514 153.322 11.4696 158.002C-23.5122 162.683 -60.8456 177.101 -100.531 201.256C-140.216 225.411 -170.252 251.972 -190.64 280.939C-211.028 309.906 -215.944 333.053 -205.387 350.383C-194.83 367.712 -172.022 373.98 -136.962 369.187C-101.902 364.394 -64.5058 349.946 -24.7728 325.843M-8.4488 353.442C5.99229 344.658 19.9824 334.571 33.5217 323.182C47.0681 311.805 59.0414 299.873 69.4417 287.385C79.842 274.898 88.0228 262.289 93.984 249.56C99.9452 236.83 102.552 224.719 101.803 213.226L133.861 265.929C134.609 277.422 132.003 289.534 126.042 302.263C120.1 314.998 111.922 327.612 101.51 340.106C91.1099 352.594 79.1366 364.526 65.5902 375.903C52.0437 387.281 38.05 397.361 23.6089 406.145C9.1678 414.929 -6.21899 422.72 -22.5515 429.517C-38.884 436.314 -54.9325 441.426 -70.697 444.854C-86.4616 448.282 -101.364 449.706 -115.405 449.127C-129.445 448.547 -141.395 445.298 -151.254 439.379L-183.322 386.657C-173.468 392.596 -161.515 395.851 -147.462 396.423C-133.429 396.991 -118.526 395.567 -102.755 392.151C-86.9974 388.711 -70.9489 383.599 -54.6091 376.813C-38.2694 370.028 -22.8827 362.238 -8.4488 353.442ZM40.2711 433.538C54.7122 424.754 68.7059 414.674 82.2524 403.296C95.7797 391.914 107.749 379.976 118.162 367.482C128.574 354.987 136.755 342.379 142.704 329.656C148.653 316.934 151.26 304.822 150.523 293.322L182.375 345.687C183.123 357.18 180.517 369.292 174.556 382.021C168.606 394.744 160.429 407.358 150.024 419.865C139.624 432.352 127.651 444.284 114.104 455.662C100.558 467.039 86.5641 477.12 72.1231 485.904C57.682 494.688 42.2952 502.478 25.9627 509.275C9.63019 516.072 -6.41833 521.185 -22.1829 524.612C-37.9474 528.04 -52.8499 529.464 -66.8904 528.885C-80.9308 528.305 -92.8842 525.05 -102.75 519.119L-134.602 466.754C-124.736 472.685 -112.783 475.94 -98.7423 476.52C-84.7019 477.099 -69.7994 475.675 -54.0349 472.247C-38.2703 468.819 -22.2218 463.707 -5.88927 456.91C10.4432 450.113 25.83 442.322 40.2711 433.538Z" fill="#828ADB"/>
</g>
<defs>
<clipPath id="clip0_350_9492">
<rect width="500" height="500" fill="white" transform="translate(-358 259.839) rotate(-31.3107)"/>
</clipPath>
</defs>
</svg>
