<svg width="130" height="32" viewBox="0 0 130 32" fill="none" xmlns="http://www.w3.org/2000/svg">
<path d="M129.689 24.4588H119.216C119.31 25.4286 119.537 26.1511 119.896 26.6261C120.401 27.3089 121.06 27.6504 121.873 27.6504C122.386 27.6504 122.874 27.5019 123.336 27.205C123.618 27.017 123.922 26.6855 124.247 26.2104L129.393 26.7597C128.606 28.3431 127.657 29.4812 126.544 30.174C125.432 30.8568 123.836 31.1982 121.757 31.1982C119.952 31.1982 118.531 30.9063 117.496 30.3224C116.461 29.7286 115.601 28.7934 114.916 27.5168C114.24 26.2302 113.902 24.721 113.902 22.9892C113.902 20.525 114.583 18.5308 115.943 17.0068C117.312 15.4827 119.199 14.7207 121.603 14.7207C123.554 14.7207 125.094 15.0621 126.223 15.745C127.353 16.4278 128.213 17.4175 128.803 18.7139C129.393 20.0103 129.689 21.6977 129.689 23.7759V24.4588ZM124.375 21.5641C124.273 20.3963 123.999 19.5601 123.554 19.0553C123.117 18.5506 122.54 18.2983 121.821 18.2983C120.991 18.2983 120.328 18.6793 119.832 19.4413C119.515 19.9163 119.314 20.6239 119.229 21.5641H124.375Z" fill="#4451CA"/>
<path d="M106.508 9.33716H111.744V31.0994H106.508V9.33716Z" fill="#4451CA"/>
<path d="M89.2578 9.02051H94.5328V16.5616C95.0547 15.9282 95.6451 15.4532 96.3039 15.1365C96.9713 14.8198 97.7071 14.6615 98.5114 14.6615C100.171 14.6615 101.545 15.3542 102.631 16.7397C103.718 18.1153 104.261 20.0946 104.261 22.6776C104.261 24.3995 104.013 25.9186 103.517 27.2349C103.021 28.5412 102.332 29.5209 101.451 30.1741C100.578 30.8174 99.6066 31.139 98.5371 31.139C97.6216 31.139 96.7831 30.9114 96.0215 30.4561C95.4483 30.0999 94.8237 29.4319 94.1477 28.4521V30.7827H89.2578V9.02051ZM94.4943 22.8557C94.4943 24.2115 94.7124 25.1962 95.1488 25.8098C95.5937 26.4135 96.1542 26.7153 96.8301 26.7153C97.4547 26.7153 97.9767 26.4184 98.3959 25.8246C98.8237 25.2209 99.0376 24.2115 99.0376 22.7963C99.0376 21.5494 98.828 20.634 98.4088 20.0501C97.998 19.4662 97.4975 19.1742 96.9071 19.1742C96.197 19.1742 95.6151 19.481 95.1616 20.0946C94.7167 20.6983 94.4943 21.6186 94.4943 22.8557Z" fill="#4451CA"/>
<path d="M76.5908 20.1835L71.5982 19.5749C71.7864 18.5655 72.056 17.7737 72.4068 17.1998C72.7661 16.6159 73.2795 16.1111 73.9469 15.6856C74.4261 15.3788 75.0849 15.1413 75.9234 14.9731C76.7619 14.8048 77.6689 14.7207 78.6443 14.7207C80.2101 14.7207 81.4679 14.8246 82.4176 15.0324C83.3674 15.2304 84.1588 15.651 84.792 16.2942C85.2369 16.7396 85.5877 17.3729 85.8444 18.1943C86.1011 19.0059 86.2294 19.7827 86.2294 20.525V27.4871C86.2294 28.2293 86.2679 28.8132 86.3449 29.2387C86.4305 29.6544 86.6102 30.1888 86.884 30.842H81.9812C81.7844 30.4362 81.6561 30.1294 81.5962 29.9216C81.5363 29.7039 81.4764 29.3674 81.4165 28.9122C80.732 29.6742 80.0518 30.2185 79.3759 30.5451C78.4518 30.9805 77.378 31.1982 76.1544 31.1982C74.5287 31.1982 73.2923 30.7628 72.4453 29.8919C71.6068 29.021 71.1875 27.9473 71.1875 26.6706C71.1875 25.4732 71.4912 24.4885 72.0987 23.7165C72.7062 22.9446 73.8271 22.3706 75.4614 21.9946C77.4207 21.5393 78.6914 21.2226 79.2732 21.0445C79.855 20.8565 80.4711 20.614 81.1213 20.3171C81.1213 19.5749 80.9887 19.0553 80.7235 18.7584C80.4582 18.4615 79.9919 18.3131 79.3245 18.3131C78.4689 18.3131 77.8272 18.4714 77.3994 18.7881C77.0657 19.0355 76.7961 19.5007 76.5908 20.1835ZM81.1213 23.3603C80.4026 23.6572 79.6539 23.9194 78.8753 24.147C77.8143 24.4736 77.1427 24.7953 76.8603 25.1119C76.5694 25.4385 76.4239 25.8096 76.4239 26.2253C76.4239 26.7003 76.5651 27.0912 76.8475 27.398C77.1384 27.6949 77.5619 27.8434 78.1181 27.8434C78.6999 27.8434 79.239 27.6801 79.7352 27.3535C80.24 27.0269 80.5951 26.631 80.8005 26.1659C81.0144 25.6909 81.1213 25.0773 81.1213 24.3252V23.3603Z" fill="#4451CA"/>
<path d="M54.4883 26.4776L59.6734 25.9136C59.8873 26.6261 60.1868 27.1358 60.5718 27.4425C60.9568 27.7493 61.4702 27.9027 62.1119 27.9027C62.8135 27.9027 63.3569 27.7295 63.7419 27.3832C64.0414 27.1259 64.1911 26.8042 64.1911 26.4183C64.1911 25.9828 63.9943 25.6463 63.6007 25.4088C63.3184 25.2406 62.5697 25.0328 61.3547 24.7854C59.5408 24.4192 58.2787 24.0827 57.5685 23.7759C56.8669 23.4592 56.2723 22.9298 55.7846 22.1876C55.3054 21.4453 55.0658 20.5992 55.0658 19.6491C55.0658 18.61 55.3268 17.7144 55.8487 16.9622C56.3707 16.2101 57.0894 15.651 58.0049 15.2848C58.9204 14.9087 60.1483 14.7207 61.6884 14.7207C63.3141 14.7207 64.512 14.8642 65.282 15.1512C66.0606 15.4382 66.7066 15.8835 67.22 16.4872C67.742 17.0909 68.174 17.9073 68.5163 18.9366L63.5622 19.5007C63.4339 18.996 63.22 18.6248 62.9205 18.3873C62.5098 18.0706 62.0135 17.9123 61.4317 17.9123C60.8413 17.9123 60.4092 18.036 60.1354 18.2834C59.8702 18.5209 59.7376 18.8129 59.7376 19.1592C59.7376 19.5452 59.9087 19.8372 60.2509 20.0351C60.5932 20.233 61.3376 20.4111 62.4841 20.5695C64.221 20.7971 65.513 21.1138 66.3601 21.5195C67.2072 21.9253 67.8532 22.5042 68.2981 23.2564C68.7516 24.0085 68.9783 24.8348 68.9783 25.7354C68.9783 26.6459 68.7388 27.5316 68.2596 28.3926C67.789 29.2536 67.0403 29.9414 66.0136 30.456C64.9954 30.9607 63.605 31.2131 61.8424 31.2131C59.3525 31.2131 57.5771 30.8024 56.5161 29.981C55.4637 29.1596 54.7878 27.9918 54.4883 26.4776Z" fill="#4451CA"/>
<path d="M41.8174 20.1835L36.8248 19.5749C37.013 18.5655 37.2825 17.7737 37.6333 17.1998C37.9927 16.6159 38.5061 16.1111 39.1735 15.6856C39.6526 15.3788 40.3114 15.1413 41.15 14.9731C41.9885 14.8048 42.8954 14.7207 43.8709 14.7207C45.4367 14.7207 46.6944 14.8246 47.6442 15.0324C48.5939 15.2304 49.3854 15.651 50.0185 16.2942C50.4635 16.7396 50.8143 17.3729 51.071 18.1943C51.3277 19.0059 51.456 19.7827 51.456 20.525V27.4871C51.456 28.2293 51.4945 28.8132 51.5715 29.2387C51.6571 29.6544 51.8368 30.1888 52.1106 30.842H47.2078C47.011 30.4362 46.8827 30.1294 46.8228 29.9216C46.7629 29.7039 46.703 29.3674 46.6431 28.9122C45.9586 29.6742 45.2784 30.2185 44.6024 30.5451C43.6783 30.9805 42.6045 31.1982 41.381 31.1982C39.7553 31.1982 38.5189 30.7628 37.6718 29.8919C36.8333 29.021 36.4141 27.9473 36.4141 26.6706C36.4141 25.4732 36.7178 24.4885 37.3253 23.7165C37.9328 22.9446 39.0537 22.3706 40.6879 21.9946C42.6473 21.5393 43.9179 21.2226 44.4997 21.0445C45.0816 20.8565 45.6976 20.614 46.3479 20.3171C46.3479 19.5749 46.2153 19.0553 45.95 18.7584C45.6848 18.4615 45.2185 18.3131 44.5511 18.3131C43.6955 18.3131 43.0537 18.4714 42.6259 18.7881C42.2922 19.0355 42.0227 19.5007 41.8174 20.1835ZM46.3479 23.3603C45.6292 23.6572 44.8805 23.9194 44.1019 24.147C43.0409 24.4736 42.3692 24.7953 42.0869 25.1119C41.796 25.4385 41.6505 25.8096 41.6505 26.2253C41.6505 26.7003 41.7917 27.0912 42.074 27.398C42.365 27.6949 42.7885 27.8434 43.3446 27.8434C43.9265 27.8434 44.4655 27.6801 44.9618 27.3535C45.4666 27.0269 45.8217 26.631 46.027 26.1659C46.2409 25.6909 46.3479 25.0773 46.3479 24.3252V23.3603Z" fill="#4451CA"/>
<g clip-path="url(#clip0_1957_42192)">
<path d="M32.7999 17.7119C31.8953 16.4208 30.5153 15.5188 28.614 15.006C29.856 14.5108 30.8066 13.821 31.4506 12.9721C32.4319 11.681 32.9072 10.1424 32.9072 8.35612C32.9072 6.19846 32.2326 4.4122 30.8679 2.96197C29.5186 1.51174 27.556 0.786621 25.0261 0.786621H12.5758C11.0425 0.786621 9.78516 2.21917 9.78516 4.00543V27.6159C9.78516 29.579 11.1651 31.1707 12.8671 31.1707H23.8301C24.4281 31.1707 25.6547 31.0292 27.4794 30.7463C28.8593 30.5517 29.8866 30.2157 30.5766 29.7559C31.6806 29.0308 32.5392 28.0227 33.1832 26.767C33.8119 25.5113 34.1339 24.0964 34.1339 22.5224C34.1339 20.5947 33.6892 18.9853 32.7999 17.7119ZM20.1349 28.005C15.6423 28.005 12.0084 25.6882 12.0084 22.7877C12.0084 22.3809 12.0698 21.9741 12.2078 21.5851C13.0511 23.9196 16.271 25.6528 20.1349 25.6528C23.9988 25.6528 27.2187 23.9196 28.0467 21.5851C28.1847 21.9741 28.2613 22.3809 28.2613 22.7877C28.2613 25.6882 24.6274 28.005 20.1349 28.005ZM20.1349 21.0899C15.6423 21.0899 12.0084 18.7553 12.0084 15.8726C12.0084 15.4658 12.0698 15.059 12.2078 14.6699C13.0511 17.0044 16.271 18.7377 20.1349 18.7377C23.9988 18.7377 27.2187 17.0044 28.0467 14.6699C28.1847 15.059 28.2613 15.4658 28.2613 15.8726C28.2613 18.7553 24.6274 21.0899 20.1349 21.0899ZM20.1349 14.6699C15.6423 14.6699 11.9931 12.3354 11.9931 9.45264C11.9931 6.56986 15.6423 4.21766 20.1349 4.21766C24.6274 4.21766 28.2613 6.56986 28.2613 9.45264C28.2613 12.3354 24.6274 14.6699 20.1349 14.6699Z" fill="#4451CA"/>
<path d="M10.6731 15.6073V4.48297C10.6731 3.51026 9.98311 2.74977 9.1398 2.74977H4.03393C3.84994 1.4764 2.8073 0.609793 1.70333 0.822022C0.722019 0.99888 0.00137091 1.9716 0.00137091 3.12117C0.00137091 4.41223 0.906014 5.45569 2.02532 5.47337C3.02196 5.47337 3.86527 4.65983 4.03393 3.52794H9.1398C9.61512 3.52794 9.99845 3.9524 10.0138 4.50066V9.18738H7.34585C7.14652 7.91401 6.10388 7.06509 4.99991 7.29501C4.03393 7.48955 3.31329 8.46226 3.32862 9.61184C3.32862 10.9029 4.24859 11.9464 5.3679 11.9287C6.36454 11.9287 7.20785 11.0974 7.36118 9.96555H10.0291V15.625H4.03393C3.84994 14.3516 2.8073 13.485 1.70333 13.6972C0.722019 13.8741 0.00137091 14.8468 0.00137091 15.9787C0.00137091 16.0848 0.00137091 16.1732 0.0167038 16.2794C0.1547 17.5527 1.16667 18.4724 2.27065 18.3132C3.15996 18.1894 3.86527 17.3936 4.0186 16.3855H9.99845V22.0449H7.40718C7.33051 21.4613 7.06985 20.9307 6.65587 20.5593C5.78189 19.7635 4.50925 19.9403 3.81927 20.9484C3.48195 21.4436 3.32862 22.0626 3.40528 22.6816C3.54328 23.9727 4.55525 24.8746 5.65922 24.7331C6.54853 24.6093 7.25385 23.8312 7.40718 22.8054H9.99845V27.4921C9.99845 28.0404 9.59979 28.4648 9.12447 28.4648H4.0186C3.9266 27.8989 3.66594 27.386 3.26729 27.0146C2.83796 26.6255 2.30131 26.4664 1.77999 26.5371C0.691353 26.7493 -0.0752938 27.8812 0.00137091 29.1546C0.139367 30.428 1.18201 31.3476 2.25531 31.1884C3.15996 31.047 3.86527 30.2511 4.0186 29.2253H9.12447C9.96778 29.2253 10.6578 28.4648 10.6578 27.4921V16.3855" fill="#4451CA"/>
</g>
<defs>
<clipPath id="clip0_1957_42192">
<rect width="34.1311" height="30.4018" fill="white" transform="translate(0 0.786621)"/>
</clipPath>
</defs>
</svg>
