<svg width="28" height="28" viewBox="0 0 28 28" fill="none" xmlns="http://www.w3.org/2000/svg">
<rect width="28" height="28" rx="14" fill="#F7F7F7"/>
<path d="M19.6243 12.0914V11.5042C19.6243 8.28027 17.1062 5.66675 14 5.66675C10.8938 5.66675 8.37573 8.28027 8.37573 11.5042V12.0914C8.37573 12.796 8.17476 13.4849 7.79817 14.0712L6.8753 15.508C6.03235 16.8204 6.67587 18.6042 8.14197 19.0192C11.9773 20.1048 16.0227 20.1048 19.858 19.0192C21.3241 18.6042 21.9676 16.8204 21.1247 15.508L20.2018 14.0712C19.8252 13.4849 19.6243 12.796 19.6243 12.0914Z" stroke="#0A0A0A" stroke-width="1.5"/>
<path d="M10.25 19.8333C10.7959 21.2897 12.2687 22.3333 14 22.3333C15.7313 22.3333 17.2041 21.2897 17.75 19.8333" stroke="#0A0A0A" stroke-width="1.5" stroke-linecap="round"/>
<rect x="14" y="3" width="6" height="6" rx="3" fill="#F90505"/>
</svg>
