<svg width="24" height="24" viewBox="0 0 24 24" fill="none" xmlns="http://www.w3.org/2000/svg">
<rect x="0.5" y="0.5" width="23" height="23" rx="11.5" fill="white"/>
<rect x="0.5" y="0.5" width="23" height="23" rx="11.5" stroke="#E7E7E7"/>
<path d="M17.5276 12.6031C17.2096 12.1492 16.7245 11.8322 16.0562 11.6519C16.4927 11.4778 16.8269 11.2354 17.0533 10.937C17.3982 10.4831 17.5653 9.94227 17.5653 9.31437C17.5653 8.55592 17.3281 7.92802 16.8485 7.41824C16.3742 6.90845 15.6843 6.65356 14.7949 6.65356H10.4184C9.87946 6.65356 9.4375 7.15713 9.4375 7.78503V16.0845C9.4375 16.7746 9.92258 17.3341 10.5208 17.3341H14.3745C14.5847 17.3341 15.0159 17.2844 15.6573 17.1849C16.1424 17.1165 16.5035 16.9984 16.746 16.8367C17.1341 16.5819 17.4359 16.2275 17.6623 15.7861C17.8833 15.3447 17.9965 14.8474 17.9965 14.2941C17.9965 13.6164 17.8402 13.0507 17.5276 12.6031ZM13.0756 16.2213C11.4964 16.2213 10.219 15.4069 10.219 14.3873C10.219 14.2443 10.2406 14.1013 10.2891 13.9646C10.5855 14.7852 11.7174 15.3944 13.0756 15.3944C14.4338 15.3944 15.5657 14.7852 15.8567 13.9646C15.9052 14.1013 15.9322 14.2443 15.9322 14.3873C15.9322 15.4069 14.6548 16.2213 13.0756 16.2213ZM13.0756 13.7905C11.4964 13.7905 10.219 12.9699 10.219 11.9565C10.219 11.8135 10.2406 11.6706 10.2891 11.5338C10.5855 12.3544 11.7174 12.9637 13.0756 12.9637C14.4338 12.9637 15.5657 12.3544 15.8567 11.5338C15.9052 11.6706 15.9322 11.8135 15.9322 11.9565C15.9322 12.9699 14.6548 13.7905 13.0756 13.7905ZM13.0756 11.5338C11.4964 11.5338 10.2136 10.7132 10.2136 9.69982C10.2136 8.68647 11.4964 7.85963 13.0756 7.85963C14.6548 7.85963 15.9322 8.68647 15.9322 9.69982C15.9322 10.7132 14.6548 11.5338 13.0756 11.5338Z" fill="#4451CA"/>
<path d="M9.75315 11.8631V7.95267C9.75315 7.61074 9.51061 7.34342 9.21417 7.34342H7.41937C7.35469 6.89581 6.98819 6.59118 6.60012 6.66578C6.25517 6.72795 6.00186 7.06988 6.00186 7.47397C6.00186 7.9278 6.31985 8.2946 6.71331 8.30081C7.06364 8.30081 7.36008 8.01484 7.41937 7.61696H9.21417C9.38125 7.61696 9.516 7.76616 9.52139 7.95889V9.60635H8.58356C8.5135 9.15874 8.14699 8.86033 7.75893 8.94115C7.41937 9.00953 7.16605 9.35146 7.17144 9.75555C7.17144 10.2094 7.49483 10.5762 7.88828 10.57C8.23862 10.57 8.53505 10.2778 8.58895 9.87989H9.52677V11.8693H7.41937C7.35469 11.4217 6.98819 11.117 6.60012 11.1916C6.25517 11.2538 6.00186 11.5957 6.00186 11.9936C6.00186 12.0309 6.00186 12.062 6.00724 12.0993C6.05575 12.5469 6.41148 12.8702 6.79954 12.8142C7.11215 12.7707 7.36008 12.491 7.41398 12.1366H9.516V14.126H8.60512C8.57817 13.9208 8.48655 13.7343 8.34102 13.6038C8.0338 13.324 7.58645 13.3862 7.34391 13.7405C7.22534 13.9146 7.17144 14.1322 7.19839 14.3498C7.2469 14.8036 7.60262 15.1207 7.99069 15.0709C8.30329 15.0274 8.55122 14.7539 8.60512 14.3933H9.516V16.0408C9.516 16.2335 9.37586 16.3827 9.20878 16.3827H7.41398C7.38164 16.1838 7.29001 16.0035 7.14988 15.8729C6.99897 15.7361 6.81032 15.6802 6.62707 15.7051C6.2444 15.7797 5.97491 16.1775 6.00186 16.6252C6.05036 17.0728 6.41687 17.396 6.79415 17.3401C7.11215 17.2904 7.36008 17.0106 7.41398 16.65H9.20878C9.50522 16.65 9.74776 16.3827 9.74776 16.0408V12.1366" fill="#4451CA"/>
</svg>
