<svg width="56" height="44" viewBox="0 0 56 44" fill="none" xmlns="http://www.w3.org/2000/svg">
<g clip-path="url(#clip0_3166_2825)">
<path d="M53.8118 24.0093C52.3275 22.1779 50.0634 20.8984 46.9439 20.1708C48.9816 19.4684 50.5414 18.4899 51.598 17.2857C53.208 15.4543 53.9879 13.2716 53.9879 10.7377C53.9879 7.67696 52.881 5.14306 50.642 3.08584C48.4281 1.02861 45.208 0 41.0571 0H20.6294C18.1137 0 16.0508 2.03214 16.0508 4.56603V38.0586C16.0508 40.8434 18.3149 43.1014 21.1074 43.1014H39.0948C40.0759 43.1014 42.0885 42.9007 45.0822 42.4992C47.3464 42.2233 49.0319 41.7466 50.164 41.0943C51.9753 40.0657 53.3841 38.6357 54.4407 36.8544C55.4722 35.0732 56.0005 33.0661 56.0005 30.8333C56.0005 28.0987 55.2709 25.8157 53.8118 24.0093ZM33.0319 38.6106C25.6608 38.6106 19.6986 35.324 19.6986 31.2096C19.6986 30.6326 19.7992 30.0555 20.0256 29.5036C21.4093 32.8152 26.6923 35.2739 33.0319 35.2739C39.3715 35.2739 44.6546 32.8152 46.013 29.5036C46.2395 30.0555 46.3652 30.6326 46.3652 31.2096C46.3652 35.324 40.403 38.6106 33.0319 38.6106ZM33.0319 28.8011C25.6608 28.8011 19.6986 25.4895 19.6986 21.4001C19.6986 20.8231 19.7992 20.2461 20.0256 19.6942C21.4093 23.0058 26.6923 25.4644 33.0319 25.4644C39.3715 25.4644 44.6546 23.0058 46.013 19.6942C46.2395 20.2461 46.3652 20.8231 46.3652 21.4001C46.3652 25.4895 40.403 28.8011 33.0319 28.8011ZM33.0319 19.6942C25.6608 19.6942 19.6734 16.3825 19.6734 12.2932C19.6734 8.20381 25.6608 4.86709 33.0319 4.86709C40.403 4.86709 46.3652 8.20381 46.3652 12.2932C46.3652 16.3825 40.403 19.6942 33.0319 19.6942Z" fill="#4451CA"/>
<path d="M17.5103 21.0229V5.24251C17.5103 3.86267 16.3782 2.78388 14.9946 2.78388H6.6172C6.31531 0.977536 4.60462 -0.251781 2.7933 0.0492762C1.18324 0.300157 0.000845901 1.68 0.000845901 3.31073C0.000845901 5.14216 1.48512 6.62236 3.3216 6.64745C4.95682 6.64745 6.34047 5.49339 6.6172 3.88775H14.9946C15.7744 3.88775 16.4034 4.48987 16.4285 5.2676V11.9159H12.0512C11.7241 10.1096 10.0134 8.90537 8.2021 9.23152C6.6172 9.50749 5.43481 10.8873 5.45997 12.5181C5.45997 14.3495 6.9694 15.8297 8.80588 15.8046C10.4411 15.8046 11.8247 14.6255 12.0763 13.0198H16.4537V21.048H6.6172C6.31531 19.2417 4.60462 18.0124 2.7933 18.3134C1.18324 18.5643 0.000845901 19.9441 0.000845901 21.5498C0.000845901 21.7003 0.000845902 21.8257 0.0260031 21.9763C0.252418 23.7826 1.9128 25.0872 3.72412 24.8614C5.18324 24.6858 6.34047 23.5568 6.59204 22.1268H16.4034V30.155H12.1518C12.026 29.3271 11.5983 28.5744 10.9191 28.0476C9.48512 26.9186 7.39707 27.1695 6.265 28.5995C5.71154 29.302 5.45997 30.1801 5.58575 31.0582C5.81217 32.8896 7.47254 34.1691 9.28386 33.9684C10.743 33.7928 11.9002 32.6889 12.1518 31.2338H16.4034V37.8821C16.4034 38.6599 15.7493 39.262 14.9694 39.262H6.59204C6.4411 38.4591 6.01342 37.7316 5.35934 37.2047C4.65493 36.6528 3.77443 36.427 2.91908 36.5274C1.13292 36.8284 -0.12494 38.4341 0.000845901 40.2404C0.227261 42.0468 1.93795 43.3513 3.69896 43.1255C5.18324 42.9248 6.34047 41.7959 6.59204 40.3408H14.9694C16.353 40.3408 17.4851 39.262 17.4851 37.8821V22.1268" fill="#4451CA"/>
</g>
<defs>
<clipPath id="clip0_3166_2825">
<rect width="56" height="43.1264" fill="white"/>
</clipPath>
</defs>
</svg>
