<svg width="164" height="47" viewBox="0 0 164 47" fill="none" xmlns="http://www.w3.org/2000/svg">
<path d="M164.002 25.8814H150.758C150.877 26.9417 151.164 27.7316 151.619 28.251C152.257 28.9976 153.09 29.3709 154.118 29.3709C154.767 29.3709 155.384 29.2086 155.968 28.884C156.325 28.6784 156.709 28.3159 157.121 27.7965L163.629 28.3971C162.633 30.1283 161.432 31.3726 160.026 32.13C158.619 32.8766 156.601 33.2499 153.972 33.2499C151.689 33.2499 149.893 32.9307 148.583 32.2923C147.274 31.6431 146.187 30.6206 145.321 29.2248C144.466 27.8182 144.039 26.1681 144.039 24.2746C144.039 21.5804 144.899 19.4001 146.62 17.7338C148.351 16.0675 150.737 15.2344 153.777 15.2344C156.244 15.2344 158.192 15.6077 159.62 16.3543C161.048 17.1008 162.136 18.1829 162.882 19.6003C163.629 21.0177 164.002 22.8626 164.002 25.1348V25.8814ZM157.283 22.7165C157.153 21.4397 156.807 20.5254 156.244 19.9736C155.692 19.4218 154.962 19.1458 154.053 19.1458C153.003 19.1458 152.165 19.5624 151.537 20.3956C151.137 20.9149 150.883 21.6886 150.775 22.7165H157.283Z" fill="#4451CA"/>
<path d="M134.688 9.34766H141.309V33.1411H134.688V9.34766Z" fill="#4451CA"/>
<path d="M112.875 9.00195H119.546V17.2469C120.206 16.5544 120.952 16.035 121.785 15.6888C122.629 15.3425 123.56 15.1694 124.577 15.1694C126.676 15.1694 128.413 15.9268 129.787 17.4416C131.161 18.9456 131.848 21.1097 131.848 23.9337C131.848 25.8164 131.534 27.4773 130.907 28.9164C130.279 30.3446 129.408 31.4158 128.294 32.13C127.19 32.8333 125.962 33.1849 124.609 33.1849C123.452 33.1849 122.391 32.9361 121.428 32.4383C120.703 32.0488 119.913 31.3184 119.059 30.2473V32.7954H112.875V9.00195ZM119.497 24.1285C119.497 25.6108 119.773 26.6874 120.325 27.3583C120.887 28.0183 121.596 28.3483 122.451 28.3483C123.241 28.3483 123.901 28.0237 124.431 27.3745C124.972 26.7145 125.242 25.6108 125.242 24.0636C125.242 22.7002 124.977 21.6994 124.447 21.061C123.928 20.4226 123.295 20.1034 122.548 20.1034C121.65 20.1034 120.914 20.4388 120.341 21.1097C119.778 21.7697 119.497 22.776 119.497 24.1285Z" fill="#4451CA"/>
<path d="M96.8563 21.2071L90.5428 20.5416C90.7808 19.438 91.1217 18.5724 91.5653 17.9448C92.0197 17.3064 92.6689 16.7546 93.5129 16.2893C94.1188 15.9539 94.952 15.6942 96.0124 15.5103C97.0727 15.3263 98.2196 15.2344 99.4531 15.2344C101.433 15.2344 103.024 15.348 104.225 15.5752C105.426 15.7916 106.427 16.2515 107.227 16.9548C107.79 17.4417 108.234 18.1342 108.558 19.0322C108.883 19.9195 109.045 20.7689 109.045 21.5804V29.1923C109.045 30.0038 109.094 30.6422 109.191 31.1075C109.299 31.5619 109.527 32.1462 109.873 32.8603H103.673C103.424 32.4167 103.262 32.0813 103.186 31.8541C103.11 31.616 103.035 31.2482 102.959 30.7504C102.093 31.5836 101.233 32.1787 100.378 32.5357C99.2097 33.0118 97.8518 33.2499 96.3045 33.2499C94.2487 33.2499 92.6852 32.7738 91.614 31.8216C90.5536 30.8694 90.0234 29.6955 90.0234 28.2997C90.0234 26.9904 90.4076 25.9138 91.1758 25.0699C91.944 24.2259 93.3614 23.5983 95.4281 23.1872C97.9059 22.6894 99.5126 22.3432 100.248 22.1484C100.984 21.9428 101.763 21.6778 102.586 21.3532C102.586 20.5416 102.418 19.9736 102.082 19.649C101.747 19.3244 101.157 19.1621 100.313 19.1621C99.2313 19.1621 98.4198 19.3352 97.8788 19.6814C97.4568 19.9519 97.116 20.4605 96.8563 21.2071ZM102.586 24.6803C101.677 25.0049 100.73 25.2917 99.7453 25.5405C98.4036 25.8976 97.5542 26.2493 97.1972 26.5955C96.8293 26.9526 96.6453 27.3583 96.6453 27.8128C96.6453 28.3321 96.8239 28.7595 97.1809 29.0949C97.5488 29.4196 98.0844 29.5819 98.7877 29.5819C99.5235 29.5819 100.205 29.4033 100.833 29.0463C101.471 28.6892 101.92 28.2564 102.18 27.7478C102.45 27.2285 102.586 26.5576 102.586 25.7353V24.6803Z" fill="#4451CA"/>
<path d="M68.9023 28.0887L75.4593 27.4719C75.7298 28.251 76.1085 28.8082 76.5954 29.1436C77.0823 29.4791 77.7315 29.6468 78.543 29.6468C79.4303 29.6468 80.1174 29.4574 80.6043 29.0787C80.983 28.7974 81.1723 28.4457 81.1723 28.0238C81.1723 27.5477 80.9235 27.1798 80.4257 26.9201C80.0687 26.7362 79.1219 26.5089 77.5855 26.2384C75.2916 25.8381 73.6956 25.4702 72.7976 25.1348C71.9103 24.7885 71.1583 24.2097 70.5416 23.3982C69.9357 22.5866 69.6327 21.6615 69.6327 20.6228C69.6327 19.4867 69.9627 18.5075 70.6227 17.6851C71.2828 16.8628 72.1916 16.2515 73.3494 15.8511C74.5071 15.44 76.0598 15.2344 78.0074 15.2344C80.0633 15.2344 81.5781 15.3913 82.5519 15.7051C83.5365 16.0188 84.3534 16.5057 85.0026 17.1658C85.6627 17.8258 86.2091 18.7185 86.6419 19.8437L80.377 20.4605C80.2147 19.9087 79.9442 19.5029 79.5655 19.2432C79.0462 18.897 78.4186 18.7239 77.6828 18.7239C76.9363 18.7239 76.3898 18.8591 76.0436 19.1296C75.7082 19.3893 75.5405 19.7085 75.5405 20.0872C75.5405 20.5092 75.7569 20.8284 76.1897 21.0448C76.6225 21.2612 77.5638 21.4559 79.0137 21.6291C81.2102 21.8779 82.844 22.2242 83.9152 22.6678C84.9864 23.1114 85.8033 23.7444 86.366 24.5667C86.9394 25.3891 87.2262 26.2925 87.2262 27.2772C87.2262 28.2726 86.9232 29.241 86.3173 30.1824C85.7222 31.1237 84.7754 31.8757 83.477 32.4384C82.1894 32.9902 80.4311 33.2661 78.2022 33.2661C75.0536 33.2661 72.8084 32.8171 71.4667 31.919C70.1358 31.0209 69.281 29.7442 68.9023 28.0887Z" fill="#4451CA"/>
<path d="M52.8837 21.2071L46.5701 20.5416C46.8082 19.438 47.149 18.5724 47.5926 17.9448C48.0471 17.3064 48.6963 16.7546 49.5403 16.2893C50.1462 15.9539 50.9793 15.6942 52.0397 15.5103C53.1001 15.3263 54.247 15.2344 55.4805 15.2344C57.4606 15.2344 59.0511 15.348 60.2521 15.5752C61.4532 15.7916 62.454 16.2515 63.2547 16.9548C63.8174 17.4417 64.261 18.1342 64.5856 19.0322C64.9102 19.9195 65.0725 20.7689 65.0725 21.5804V29.1923C65.0725 30.0038 65.1212 30.6422 65.2186 31.1075C65.3268 31.5619 65.554 32.1462 65.9002 32.8603H59.7003C59.4515 32.4167 59.2892 32.0813 59.2134 31.8541C59.1377 31.616 59.0619 31.2482 58.9862 30.7504C58.1206 31.5836 57.2604 32.1787 56.4056 32.5357C55.237 33.0118 53.8791 33.2499 52.3318 33.2499C50.276 33.2499 48.7125 32.7738 47.6413 31.8216C46.581 30.8694 46.0508 29.6955 46.0508 28.2997C46.0508 26.9904 46.4349 25.9138 47.2031 25.0699C47.9713 24.2259 49.3888 23.5983 51.4554 23.1872C53.9332 22.6894 55.54 22.3432 56.2758 22.1484C57.0115 21.9428 57.7906 21.6778 58.6129 21.3532C58.6129 20.5416 58.4452 19.9736 58.1098 19.649C57.7743 19.3244 57.1846 19.1621 56.3407 19.1621C55.2587 19.1621 54.4472 19.3352 53.9062 19.6814C53.4842 19.9519 53.1433 20.4605 52.8837 21.2071ZM58.6129 24.6803C57.704 25.0049 56.7573 25.2917 55.7726 25.5405C54.4309 25.8976 53.5816 26.2493 53.2245 26.5955C52.8566 26.9526 52.6727 27.3583 52.6727 27.8128C52.6727 28.3321 52.8512 28.7595 53.2083 29.0949C53.5761 29.4196 54.1117 29.5819 54.815 29.5819C55.5508 29.5819 56.2325 29.4033 56.86 29.0463C57.4984 28.6892 57.9475 28.2564 58.2071 27.7478C58.4776 27.2285 58.6129 26.5576 58.6129 25.7353V24.6803Z" fill="#4451CA"/>
<g clip-path="url(#clip0_3170_1901)">
<path d="M41.475 18.507C40.331 17.0954 38.586 16.1092 36.1816 15.5485C37.7522 15.0071 38.9544 14.2529 39.7687 13.3248C41.0097 11.9132 41.6108 10.231 41.6108 8.27797C41.6108 5.91892 40.7576 3.96593 39.0319 2.38034C37.3256 0.794749 34.8438 0.00195312 31.6445 0.00195312H15.9C13.961 0.00195312 12.3711 1.56821 12.3711 3.52119V29.3354C12.3711 31.4817 14.1162 33.222 16.2684 33.222H30.1321C30.8883 33.222 32.4394 33.0673 34.7468 32.7579C36.4919 32.5452 37.791 32.1779 38.6635 31.6751C40.0596 30.8823 41.1454 29.7801 41.9598 28.4072C42.7547 27.0343 43.1619 25.4874 43.1619 23.7665C43.1619 21.6588 42.5996 19.8992 41.475 18.507ZM25.4591 29.7608C19.778 29.7608 15.1826 27.2277 15.1826 24.0565C15.1826 23.6118 15.2602 23.1671 15.4347 22.7417C16.5011 25.2941 20.5729 27.189 25.4591 27.189C30.3453 27.189 34.4172 25.2941 35.4642 22.7417C35.6387 23.1671 35.7357 23.6118 35.7357 24.0565C35.7357 27.2277 31.1403 29.7608 25.4591 29.7608ZM25.4591 22.2002C19.778 22.2002 15.1826 19.6478 15.1826 16.496C15.1826 16.0512 15.2602 15.6065 15.4347 15.1811C16.5011 17.7335 20.5729 19.6285 25.4591 19.6285C30.3453 19.6285 34.4172 17.7335 35.4642 15.1811C35.6387 15.6065 35.7357 16.0512 35.7357 16.496C35.7357 19.6478 31.1403 22.2002 25.4591 22.2002ZM25.4591 15.1811C19.778 15.1811 15.1632 12.6287 15.1632 9.47683C15.1632 6.32498 19.778 3.75323 25.4591 3.75323C31.1403 3.75323 35.7357 6.32498 35.7357 9.47683C35.7357 12.6287 31.1403 15.1811 25.4591 15.1811Z" fill="#4451CA"/>
<path d="M13.4941 16.2061V4.04348C13.4941 2.97997 12.6216 2.1485 11.5551 2.1485H5.09835C4.86568 0.756278 3.54718 -0.19121 2.15112 0.0408279C0.910177 0.234193 -0.00113912 1.2977 -0.00113912 2.55457C-0.00113912 3.96613 1.14285 5.10699 2.5583 5.12632C3.81863 5.12632 4.88507 4.23684 5.09835 2.99931H11.5551C12.1562 2.99931 12.6409 3.46338 12.6603 4.06282V9.18698H9.28653C9.03446 7.79475 7.71596 6.8666 6.3199 7.11798C5.09835 7.33068 4.18704 8.39419 4.20643 9.65106C4.20643 11.0626 5.36981 12.2035 6.78525 12.1841C8.04559 12.1841 9.11202 11.2753 9.30592 10.0378H12.6797V16.2255H5.09835C4.86568 14.8332 3.54718 13.8857 2.15112 14.1178C0.910177 14.3111 -0.00113912 15.3747 -0.00113912 16.6122C-0.00113912 16.7282 -0.00113912 16.8249 0.0182506 16.9409C0.192758 18.3331 1.47248 19.3386 2.86854 19.1646C3.99314 19.0292 4.88506 18.1591 5.07896 17.0569H12.6409V23.2446H9.36409C9.26714 22.6065 8.93751 22.0264 8.41399 21.6203C7.30878 20.7502 5.69943 20.9436 4.8269 22.0457C4.40032 22.5872 4.20643 23.2639 4.30337 23.9407C4.47788 25.3523 5.7576 26.3384 7.15366 26.1837C8.27826 26.0484 9.17019 25.1976 9.36409 24.0761H12.6409V29.2002C12.6409 29.7997 12.1368 30.2637 11.5357 30.2637H5.07896C4.96262 29.645 4.633 29.0842 4.12887 28.6782C3.58596 28.2527 2.90732 28.0787 2.24807 28.1561C0.871397 28.3881 -0.0980876 29.6256 -0.00113912 31.0179C0.173368 32.4101 1.49187 33.4156 2.84915 33.2416C3.99314 33.0869 4.88506 32.2167 5.07896 31.0952H11.5357C12.6022 31.0952 13.4747 30.2637 13.4747 29.2002V17.0569" fill="#4451CA"/>
</g>
<path d="M25.0608 39.8524L25.7636 43.6451L27.8214 39.8524H28.4419L25.9915 44.2656H25.3267L24.4403 39.8524H25.0608ZM30.3717 40.2323C30.2789 40.2323 30.2008 40.2028 30.1375 40.1437C30.0784 40.0803 30.0488 40.0022 30.0488 39.9094C30.0488 39.7827 30.0952 39.6751 30.1881 39.5865C30.281 39.4936 30.3886 39.4472 30.511 39.4472C30.6081 39.4472 30.6862 39.4767 30.7453 39.5358C30.8044 39.5949 30.8339 39.673 30.8339 39.7701C30.8339 39.8967 30.7875 40.0065 30.6946 40.0993C30.6018 40.188 30.4941 40.2323 30.3717 40.2323ZM30.5554 40.7958L29.9412 44.2656H29.365L29.9792 40.7958H30.5554ZM33.2216 44.3226C32.8586 44.3226 32.561 44.2361 32.3288 44.063C32.0967 43.8899 31.9806 43.6578 31.9806 43.3665C31.9806 43.3116 31.9827 43.2715 31.9869 43.2462H32.5504C32.5336 43.4277 32.5863 43.5755 32.7087 43.6894C32.8354 43.8034 33.0169 43.8604 33.2533 43.8604C33.4897 43.8604 33.6796 43.8161 33.8231 43.7274C33.9709 43.6346 34.0447 43.5058 34.0447 43.3412C34.0447 43.2019 33.9856 43.0921 33.8674 43.0119C33.7493 42.9317 33.5677 42.8452 33.3229 42.7523C33.1076 42.6721 32.9304 42.5962 32.7911 42.5244C32.6518 42.4526 32.5336 42.3534 32.4365 42.2268C32.3394 42.0959 32.2908 41.9313 32.2908 41.7329C32.2908 41.5388 32.3457 41.3657 32.4555 41.2137C32.5694 41.0618 32.7256 40.9457 32.924 40.8655C33.1266 40.7811 33.3567 40.7388 33.6142 40.7388C33.9688 40.7388 34.26 40.8275 34.488 41.0048C34.7159 41.1821 34.8299 41.4142 34.8299 41.7013C34.8299 41.7561 34.8278 41.7984 34.8235 41.8279H34.2727L34.279 41.7519C34.279 41.5831 34.2136 41.4501 34.0827 41.353C33.9561 41.2517 33.7872 41.2011 33.5762 41.2011C33.3694 41.2011 33.1984 41.2475 33.0633 41.3404C32.9325 41.4332 32.867 41.5577 32.867 41.7139C32.867 41.8617 32.9282 41.9778 33.0507 42.0622C33.1731 42.1466 33.363 42.2395 33.6205 42.3408C33.8358 42.4252 34.0089 42.5033 34.1397 42.575C34.2706 42.6426 34.3824 42.7376 34.4753 42.86C34.5682 42.9824 34.6146 43.1365 34.6146 43.3222C34.6146 43.5248 34.5534 43.7021 34.431 43.8541C34.3128 44.006 34.1482 44.1221 33.9371 44.2023C33.726 44.2825 33.4875 44.3226 33.2216 44.3226ZM40.0755 40.7958L39.4613 44.2656H38.8851L38.9738 43.7591C38.8345 43.9364 38.6572 44.0736 38.4419 44.1706C38.2266 44.2677 38.0029 44.3163 37.7707 44.3163C37.4077 44.3163 37.1165 44.2192 36.8969 44.025C36.6817 43.8266 36.574 43.5438 36.574 43.1766C36.574 43.0837 36.5846 42.9676 36.6057 42.8283L36.9666 40.7958H37.5365L37.1945 42.7523C37.1777 42.841 37.1692 42.9338 37.1692 43.0309C37.1692 43.2884 37.2389 43.4847 37.3782 43.6198C37.5217 43.7506 37.7201 43.8161 37.9733 43.8161C38.2773 43.8161 38.5348 43.7211 38.7458 43.5311C38.9611 43.3412 39.0983 43.0647 39.1574 42.7017V42.7207L39.4993 40.7958H40.0755ZM41.5992 42.5181C41.6625 42.1635 41.7892 41.8532 41.9791 41.5873C42.1733 41.3171 42.4076 41.1082 42.6819 40.9604C42.9605 40.8127 43.256 40.7388 43.5684 40.7388C43.8723 40.7388 44.1235 40.8043 44.3219 40.9351C44.5203 41.066 44.6575 41.2306 44.7334 41.429L44.8474 40.7958H45.4299L44.8157 44.2656H44.2332L44.3535 43.6198C44.2016 43.8224 44.0011 43.9912 43.752 44.1263C43.503 44.2572 43.2286 44.3226 42.9289 44.3226C42.6587 44.3226 42.4202 44.2656 42.2134 44.1517C42.0066 44.0335 41.8462 43.8667 41.7322 43.6514C41.6182 43.4362 41.5612 43.1871 41.5612 42.9043C41.5612 42.7777 41.5739 42.6489 41.5992 42.5181ZM44.5435 42.5244C44.5604 42.4357 44.5688 42.3408 44.5688 42.2395C44.5688 41.9313 44.4759 41.6886 44.2902 41.5113C44.1087 41.3298 43.8765 41.239 43.5937 41.239C43.3784 41.239 43.1716 41.2897 42.9732 41.391C42.779 41.4923 42.6123 41.6401 42.473 41.8342C42.3337 42.0284 42.2408 42.2563 42.1944 42.5181C42.1775 42.6067 42.1691 42.7038 42.1691 42.8093C42.1691 43.1217 42.2598 43.3686 42.4413 43.5501C42.6228 43.7274 42.855 43.8161 43.1378 43.8161C43.3531 43.8161 43.5578 43.7654 43.752 43.6641C43.9504 43.5586 44.1193 43.4087 44.2585 43.2146C44.4021 43.0162 44.497 42.7861 44.5435 42.5244ZM48.2715 39.5801L47.442 44.2656H46.8658L47.6953 39.5801H48.2715ZM50.5072 40.2323C50.4143 40.2323 50.3362 40.2028 50.2729 40.1437C50.2138 40.0803 50.1843 40.0022 50.1843 39.9094C50.1843 39.7827 50.2307 39.6751 50.3236 39.5865C50.4164 39.4936 50.5241 39.4472 50.6465 39.4472C50.7436 39.4472 50.8217 39.4767 50.8808 39.5358C50.9399 39.5949 50.9694 39.673 50.9694 39.7701C50.9694 39.8967 50.923 40.0065 50.8301 40.0993C50.7373 40.188 50.6296 40.2323 50.5072 40.2323ZM50.6908 40.7958L50.0766 44.2656H49.5004L50.1146 40.7958H50.6908ZM52.6543 43.7907H54.3575L54.2689 44.2656H51.9071L51.9894 43.7907L54.1232 41.2644H52.4516L52.534 40.7958H54.864L54.7817 41.2644L52.6543 43.7907ZM58.214 40.7388C58.5053 40.7388 58.7564 40.7958 58.9675 40.9098C59.1828 41.0195 59.3453 41.1757 59.4551 41.3783C59.569 41.5767 59.626 41.8047 59.626 42.0622C59.626 42.1508 59.6155 42.2585 59.5943 42.3851C59.5775 42.4948 59.55 42.6088 59.512 42.727H56.7387C56.7303 42.8114 56.7261 42.8726 56.7261 42.9106C56.7261 43.2019 56.8126 43.4298 56.9857 43.5945C57.163 43.7549 57.393 43.8351 57.6758 43.8351C57.9249 43.8351 58.1423 43.7781 58.328 43.6641C58.518 43.5459 58.6615 43.3897 58.7586 43.1956H59.3791C59.2271 43.529 58.9928 43.8013 58.6762 44.0124C58.3639 44.2192 58.0009 44.3226 57.5872 44.3226C57.1524 44.3226 56.802 44.1981 56.5361 43.949C56.2744 43.6958 56.1435 43.3517 56.1435 42.917C56.1435 42.7945 56.1562 42.6637 56.1815 42.5244C56.2449 42.1656 56.3736 41.8511 56.5678 41.581C56.7619 41.3108 57.0004 41.104 57.2833 40.9604C57.5703 40.8127 57.8806 40.7388 58.214 40.7388ZM59.0118 42.3091C59.0245 42.2247 59.0308 42.1466 59.0308 42.0748C59.0308 41.8047 58.9443 41.5957 58.7712 41.448C58.6024 41.3003 58.3808 41.2264 58.1064 41.2264C57.8109 41.2264 57.5429 41.3235 57.3023 41.5176C57.0616 41.7076 56.8991 41.9714 56.8147 42.3091H59.0118ZM61.273 44.3036C61.1759 44.3036 61.0957 44.2741 61.0324 44.215C60.9733 44.1559 60.9438 44.0778 60.9438 43.9807C60.9438 43.8541 60.9902 43.7464 61.0831 43.6578C61.1759 43.5649 61.2857 43.5185 61.4123 43.5185C61.5094 43.5185 61.5875 43.548 61.6466 43.6071C61.7057 43.6662 61.7352 43.7443 61.7352 43.8414C61.7352 43.968 61.6888 44.0778 61.5959 44.1706C61.5031 44.2593 61.3954 44.3036 61.273 44.3036ZM69.2498 43.2842H67.3186L66.7931 44.2656H66.1853L68.5533 39.8777H69.2182L70.035 44.2656H69.4271L69.2498 43.2842ZM69.1675 42.8346L68.7623 40.5805L67.5593 42.8346H69.1675ZM74.1242 40.7325C74.483 40.7325 74.77 40.8296 74.9853 41.0238C75.2006 41.2137 75.3082 41.4923 75.3082 41.8596C75.3082 41.9946 75.2977 42.1149 75.2766 42.2205L74.9157 44.2656H74.3458L74.694 42.3028C74.7109 42.2141 74.7194 42.1213 74.7194 42.0242C74.7194 41.7667 74.6476 41.5704 74.5041 41.4353C74.3648 41.3003 74.1685 41.2327 73.9152 41.2327C73.6113 41.2327 73.3517 41.3277 73.1364 41.5176C72.9254 41.7076 72.7882 41.9841 72.7249 42.3471V42.3344L72.383 44.2656H71.8068L72.4209 40.7958H72.9971L72.9085 41.296C73.052 41.1145 73.2314 40.9752 73.4467 40.8781C73.662 40.7811 73.8878 40.7325 74.1242 40.7325ZM77.0219 42.5181C77.0852 42.1635 77.2119 41.8532 77.4018 41.5873C77.596 41.3171 77.8303 41.1082 78.1046 40.9604C78.3832 40.8127 78.6787 40.7388 78.9911 40.7388C79.295 40.7388 79.5462 40.8043 79.7446 40.9351C79.943 41.066 80.0801 41.2306 80.1561 41.429L80.2701 40.7958H80.8526L80.2384 44.2656H79.6559L79.7762 43.6198C79.6243 43.8224 79.4238 43.9912 79.1747 44.1263C78.9257 44.2572 78.6513 44.3226 78.3516 44.3226C78.0814 44.3226 77.8429 44.2656 77.6361 44.1517C77.4293 44.0335 77.2688 43.8667 77.1549 43.6514C77.0409 43.4362 76.9839 43.1871 76.9839 42.9043C76.9839 42.7777 76.9966 42.6489 77.0219 42.5181ZM79.9662 42.5244C79.9831 42.4357 79.9915 42.3408 79.9915 42.2395C79.9915 41.9313 79.8986 41.6886 79.7129 41.5113C79.5314 41.3298 79.2992 41.239 79.0164 41.239C78.8011 41.239 78.5943 41.2897 78.3959 41.391C78.2017 41.4923 78.035 41.6401 77.8957 41.8342C77.7564 42.0284 77.6635 42.2563 77.6171 42.5181C77.6002 42.6067 77.5918 42.7038 77.5918 42.8093C77.5918 43.1217 77.6825 43.3686 77.864 43.5501C78.0455 43.7274 78.2777 43.8161 78.5605 43.8161C78.7758 43.8161 78.9805 43.7654 79.1747 43.6641C79.3731 43.5586 79.5419 43.4087 79.6812 43.2146C79.8248 43.0162 79.9197 42.7861 79.9662 42.5244ZM83.6942 39.5801L82.8647 44.2656H82.2885L83.118 39.5801H83.6942ZM85.7653 40.7958L86.3541 43.5945L87.9307 40.7958H88.5259L85.5373 45.8992H84.9358L85.9172 44.2276L85.1258 40.7958H85.7653ZM90.0865 43.7907H91.7898L91.7011 44.2656H89.3394L89.4217 43.7907L91.5555 41.2644H89.8839L89.9662 40.7958H92.2963L92.214 41.2644L90.0865 43.7907ZM95.6463 40.7388C95.9376 40.7388 96.1887 40.7958 96.3998 40.9098C96.6151 41.0195 96.7776 41.1757 96.8873 41.3783C97.0013 41.5767 97.0583 41.8047 97.0583 42.0622C97.0583 42.1508 97.0477 42.2585 97.0266 42.3851C97.0098 42.4948 96.9823 42.6088 96.9443 42.727H94.171C94.1626 42.8114 94.1584 42.8726 94.1584 42.9106C94.1584 43.2019 94.2449 43.4298 94.418 43.5945C94.5952 43.7549 94.8253 43.8351 95.1081 43.8351C95.3572 43.8351 95.5746 43.7781 95.7603 43.6641C95.9502 43.5459 96.0938 43.3897 96.1908 43.1956H96.8114C96.6594 43.529 96.4251 43.8013 96.1085 44.0124C95.7962 44.2192 95.4331 44.3226 95.0195 44.3226C94.5847 44.3226 94.2343 44.1981 93.9684 43.949C93.7067 43.6958 93.5758 43.3517 93.5758 42.917C93.5758 42.7945 93.5885 42.6637 93.6138 42.5244C93.6771 42.1656 93.8059 41.8511 94.0001 41.581C94.1942 41.3108 94.4327 41.104 94.7155 40.9604C95.0026 40.8127 95.3128 40.7388 95.6463 40.7388ZM96.4441 42.3091C96.4568 42.2247 96.4631 42.1466 96.4631 42.0748C96.4631 41.8047 96.3766 41.5957 96.2035 41.448C96.0347 41.3003 95.813 41.2264 95.5387 41.2264C95.2432 41.2264 94.9751 41.3235 94.7345 41.5176C94.4939 41.7076 94.3314 41.9714 94.247 42.3091H96.4441ZM98.7053 44.3036C98.6082 44.3036 98.528 44.2741 98.4647 44.215C98.4056 44.1559 98.376 44.0778 98.376 43.9807C98.376 43.8541 98.4225 43.7464 98.5153 43.6578C98.6082 43.5649 98.718 43.5185 98.8446 43.5185C98.9417 43.5185 99.0198 43.548 99.0789 43.6071C99.138 43.6662 99.1675 43.7443 99.1675 43.8414C99.1675 43.968 99.1211 44.0778 99.0282 44.1706C98.9353 44.2593 98.8277 44.3036 98.7053 44.3036ZM105.403 44.3099C104.994 44.3099 104.66 44.2129 104.403 44.0187C104.149 43.8203 104.023 43.5565 104.023 43.2272C104.023 43.1639 104.025 43.1175 104.029 43.0879H104.599C104.586 43.2948 104.65 43.472 104.789 43.6198C104.928 43.7675 105.141 43.8414 105.428 43.8414C105.715 43.8414 105.943 43.776 106.112 43.6451C106.281 43.5143 106.366 43.3306 106.366 43.0943C106.366 42.9507 106.323 42.8304 106.239 42.7333C106.159 42.632 106.057 42.5497 105.935 42.4864C105.817 42.4189 105.654 42.345 105.447 42.2648C105.194 42.1635 104.989 42.0685 104.833 41.9799C104.681 41.8912 104.553 41.7709 104.447 41.619C104.341 41.467 104.293 41.2749 104.301 41.0428C104.301 40.7979 104.367 40.5805 104.498 40.3906C104.629 40.2006 104.808 40.055 105.036 39.9537C105.268 39.8482 105.532 39.7954 105.827 39.7954C106.114 39.7954 106.361 39.844 106.568 39.941C106.779 40.0381 106.937 40.1732 107.043 40.3463C107.149 40.5193 107.195 40.7135 107.182 40.9288H106.581C106.589 40.819 106.564 40.7135 106.505 40.6122C106.45 40.5109 106.361 40.4286 106.239 40.3653C106.121 40.3019 105.973 40.2703 105.796 40.2703C105.521 40.2703 105.3 40.3357 105.131 40.4666C104.966 40.5932 104.884 40.7684 104.884 40.9921C104.884 41.123 104.922 41.2369 104.998 41.334C105.078 41.4269 105.177 41.5071 105.295 41.5746C105.414 41.6379 105.576 41.7139 105.783 41.8026C106.032 41.9081 106.235 42.0073 106.391 42.1002C106.551 42.1888 106.686 42.3091 106.796 42.4611C106.906 42.613 106.961 42.803 106.961 43.0309C106.961 43.2758 106.897 43.4953 106.771 43.6894C106.644 43.8794 106.463 44.0314 106.226 44.1453C105.99 44.2551 105.715 44.3099 105.403 44.3099ZM112.349 40.7958L111.735 44.2656H111.159L111.248 43.7591C111.108 43.9364 110.931 44.0736 110.716 44.1706C110.5 44.2677 110.277 44.3163 110.044 44.3163C109.681 44.3163 109.39 44.2192 109.171 44.025C108.955 43.8266 108.848 43.5438 108.848 43.1766C108.848 43.0837 108.858 42.9676 108.879 42.8283L109.24 40.7958H109.81L109.468 42.7523C109.451 42.841 109.443 42.9338 109.443 43.0309C109.443 43.2884 109.513 43.4847 109.652 43.6198C109.795 43.7506 109.994 43.8161 110.247 43.8161C110.551 43.8161 110.809 43.7211 111.02 43.5311C111.235 43.3412 111.372 43.0647 111.431 42.7017V42.7207L111.773 40.7958H112.349ZM113.873 42.5244C113.936 42.1656 114.063 41.8532 114.253 41.5873C114.447 41.3171 114.686 41.1082 114.968 40.9604C115.251 40.8127 115.557 40.7388 115.886 40.7388C116.313 40.7388 116.644 40.8423 116.881 41.0491C117.121 41.2559 117.254 41.543 117.279 41.9102H116.659C116.638 41.6992 116.551 41.5324 116.399 41.41C116.252 41.2876 116.051 41.2264 115.798 41.2264C115.469 41.2264 115.182 41.3404 114.937 41.5683C114.696 41.792 114.54 42.1107 114.468 42.5244C114.447 42.6637 114.436 42.7798 114.436 42.8726C114.436 43.1808 114.519 43.4193 114.683 43.5881C114.848 43.7528 115.068 43.8351 115.342 43.8351C115.595 43.8351 115.815 43.776 116 43.6578C116.19 43.5396 116.336 43.3707 116.437 43.1512H117.058C116.906 43.5058 116.672 43.7907 116.355 44.006C116.038 44.2171 115.671 44.3226 115.253 44.3226C114.818 44.3226 114.472 44.1981 114.215 43.949C113.962 43.7 113.835 43.3602 113.835 42.9296C113.835 42.7988 113.848 42.6637 113.873 42.5244ZM118.795 42.5244C118.859 42.1656 118.985 41.8532 119.175 41.5873C119.369 41.3171 119.608 41.1082 119.891 40.9604C120.174 40.8127 120.48 40.7388 120.809 40.7388C121.235 40.7388 121.567 40.8423 121.803 41.0491C122.044 41.2559 122.177 41.543 122.202 41.9102H121.581C121.56 41.6992 121.474 41.5324 121.322 41.41C121.174 41.2876 120.974 41.2264 120.72 41.2264C120.391 41.2264 120.104 41.3404 119.859 41.5683C119.619 41.792 119.462 42.1107 119.391 42.5244C119.369 42.6637 119.359 42.7798 119.359 42.8726C119.359 43.1808 119.441 43.4193 119.606 43.5881C119.77 43.7528 119.99 43.8351 120.264 43.8351C120.518 43.8351 120.737 43.776 120.923 43.6578C121.113 43.5396 121.258 43.3707 121.36 43.1512H121.98C121.828 43.5058 121.594 43.7907 121.277 44.006C120.961 44.2171 120.594 44.3226 120.176 44.3226C119.741 44.3226 119.395 44.1981 119.137 43.949C118.884 43.7 118.757 43.3602 118.757 42.9296C118.757 42.7988 118.77 42.6637 118.795 42.5244ZM125.75 40.7388C126.042 40.7388 126.293 40.7958 126.504 40.9098C126.719 41.0195 126.882 41.1757 126.991 41.3783C127.105 41.5767 127.162 41.8047 127.162 42.0622C127.162 42.1508 127.152 42.2585 127.131 42.3851C127.114 42.4948 127.086 42.6088 127.048 42.727H124.275C124.267 42.8114 124.262 42.8726 124.262 42.9106C124.262 43.2019 124.349 43.4298 124.522 43.5945C124.699 43.7549 124.929 43.8351 125.212 43.8351C125.461 43.8351 125.679 43.7781 125.864 43.6641C126.054 43.5459 126.198 43.3897 126.295 43.1956H126.915C126.763 43.529 126.529 43.8013 126.213 44.0124C125.9 44.2192 125.537 44.3226 125.123 44.3226C124.689 44.3226 124.338 44.1981 124.072 43.949C123.811 43.6958 123.68 43.3517 123.68 42.917C123.68 42.7945 123.693 42.6637 123.718 42.5244C123.781 42.1656 123.91 41.8511 124.104 41.581C124.298 41.3108 124.537 41.104 124.82 40.9604C125.107 40.8127 125.417 40.7388 125.75 40.7388ZM126.548 42.3091C126.561 42.2247 126.567 42.1466 126.567 42.0748C126.567 41.8047 126.481 41.5957 126.308 41.448C126.139 41.3003 125.917 41.2264 125.643 41.2264C125.347 41.2264 125.079 41.3235 124.839 41.5176C124.598 41.7076 124.435 41.9714 124.351 42.3091H126.548ZM130.753 40.7388C131.044 40.7388 131.296 40.7958 131.507 40.9098C131.722 41.0195 131.884 41.1757 131.994 41.3783C132.108 41.5767 132.165 41.8047 132.165 42.0622C132.165 42.1508 132.155 42.2585 132.133 42.3851C132.117 42.4948 132.089 42.6088 132.051 42.727H129.278C129.269 42.8114 129.265 42.8726 129.265 42.9106C129.265 43.2019 129.352 43.4298 129.525 43.5945C129.702 43.7549 129.932 43.8351 130.215 43.8351C130.464 43.8351 130.681 43.7781 130.867 43.6641C131.057 43.5459 131.201 43.3897 131.298 43.1956H131.918C131.766 43.529 131.532 43.8013 131.215 44.0124C130.903 44.2192 130.54 44.3226 130.126 44.3226C129.692 44.3226 129.341 44.1981 129.075 43.949C128.814 43.6958 128.683 43.3517 128.683 42.917C128.683 42.7945 128.695 42.6637 128.721 42.5244C128.784 42.1656 128.913 41.8511 129.107 41.581C129.301 41.3108 129.54 41.104 129.822 40.9604C130.109 40.8127 130.42 40.7388 130.753 40.7388ZM131.551 42.3091C131.564 42.2247 131.57 42.1466 131.57 42.0748C131.57 41.8047 131.483 41.5957 131.31 41.448C131.142 41.3003 130.92 41.2264 130.646 41.2264C130.35 41.2264 130.082 41.3235 129.841 41.5176C129.601 41.7076 129.438 41.9714 129.354 42.3091H131.551ZM133.723 42.5181C133.787 42.1635 133.913 41.8532 134.103 41.5873C134.298 41.3171 134.534 41.1082 134.813 40.9604C135.091 40.8127 135.387 40.7388 135.699 40.7388C135.965 40.7388 136.203 40.8022 136.414 40.9288C136.626 41.0512 136.775 41.2137 136.864 41.4163L137.187 39.5801H137.769L136.94 44.2656H136.357L136.478 43.6135C136.33 43.8203 136.132 43.9912 135.883 44.1263C135.634 44.2572 135.359 44.3226 135.059 44.3226C134.789 44.3226 134.551 44.2656 134.344 44.1517C134.137 44.0335 133.975 43.8667 133.856 43.6514C133.742 43.4362 133.685 43.1871 133.685 42.9043C133.685 42.7777 133.698 42.6489 133.723 42.5181ZM136.668 42.5244C136.685 42.4357 136.693 42.3408 136.693 42.2395C136.693 41.9313 136.6 41.6886 136.414 41.5113C136.233 41.3298 136.001 41.239 135.718 41.239C135.503 41.239 135.296 41.2897 135.097 41.391C134.903 41.4923 134.737 41.6401 134.597 41.8342C134.458 42.0284 134.365 42.2563 134.319 42.5181C134.302 42.6067 134.293 42.7038 134.293 42.8093C134.293 43.1217 134.384 43.3686 134.566 43.5501C134.747 43.7274 134.979 43.8161 135.262 43.8161C135.477 43.8161 135.682 43.7654 135.876 43.6641C136.075 43.5586 136.244 43.4087 136.383 43.2146C136.526 43.0162 136.621 42.7861 136.668 42.5244ZM139.167 44.3036C139.07 44.3036 138.99 44.2741 138.927 44.215C138.868 44.1559 138.838 44.0778 138.838 43.9807C138.838 43.8541 138.885 43.7464 138.977 43.6578C139.07 43.5649 139.18 43.5185 139.307 43.5185C139.404 43.5185 139.482 43.548 139.541 43.6071C139.6 43.6662 139.63 43.7443 139.63 43.8414C139.63 43.968 139.583 44.0778 139.49 44.1706C139.397 44.2593 139.29 44.3036 139.167 44.3036Z" fill="#4451CA"/>
<defs>
<clipPath id="clip0_3170_1901">
<rect width="43.1615" height="33.2394" fill="white"/>
</clipPath>
</defs>
</svg>
