<svg width="32" height="33" viewBox="0 0 32 33" fill="none" xmlns="http://www.w3.org/2000/svg">
<path fill-rule="evenodd" clip-rule="evenodd" d="M13.3738 9.46086C13.7643 9.85139 13.7643 10.4846 13.3738 10.8751L8.41421 15.8346L19.3333 15.8346C20.6045 15.8346 22.4889 16.2078 24.0843 17.3564C25.7307 18.5418 27 20.5087 27 23.5013C27 24.0536 26.5523 24.5013 26 24.5013C25.4477 24.5013 25 24.0536 25 23.5013C25 21.1606 24.0471 19.7941 22.9157 18.9795C21.7333 18.1282 20.2844 17.8346 19.3333 17.8346L8.41421 17.8346L13.3738 22.7942C13.7643 23.1847 13.7643 23.8179 13.3738 24.2084C12.9832 24.5989 12.3501 24.5989 11.9596 24.2084L5.29289 17.5417C4.90237 17.1512 4.90237 16.5181 5.29289 16.1275L11.9596 9.46086C12.3501 9.07034 12.9832 9.07034 13.3738 9.46086Z" fill="#4451CA"/>
</svg>
