<svg width="275" height="252" viewBox="0 0 275 252" fill="none" xmlns="http://www.w3.org/2000/svg">
<g opacity="0.2" clip-path="url(#clip0_3169_1855)">
<path d="M133.301 107.34C149.183 97.68 161.168 87.0668 169.258 75.5005C177.355 63.9361 179.299 54.6937 175.09 47.7734C170.88 40.8531 161.779 38.329 147.787 40.2011C133.794 42.0733 118.861 47.8404 102.987 57.5025C87.1126 67.1646 75.0979 77.789 66.9427 89.3757C58.7874 100.962 56.8212 110.222 61.044 117.153C65.2668 124.085 74.3902 126.592 88.4141 124.675C102.438 122.758 117.397 116.979 133.29 107.338M139.819 118.377C145.596 114.863 151.192 110.829 156.607 106.273C162.026 101.722 166.815 96.9492 170.976 91.9543C175.136 86.9593 178.408 81.916 180.792 76.8241C183.177 71.7323 184.219 66.8877 183.92 62.2904L196.743 83.3718C197.043 87.9691 196 92.8137 193.615 97.9055C191.239 102.999 187.968 108.045 183.803 113.043C179.643 118.038 174.853 122.811 169.435 127.362C164.016 131.912 158.419 135.945 152.642 139.458C146.866 142.972 140.711 146.088 134.178 148.807C127.645 151.526 121.226 153.571 114.92 154.942C108.614 156.313 102.653 156.883 97.037 156.651C91.4208 156.419 86.6409 155.119 82.6973 152.752L69.8699 131.663C73.8117 134.038 78.593 135.341 84.2139 135.569C89.8272 135.797 95.7882 135.227 102.097 133.86C108.4 132.485 114.819 130.44 121.355 127.726C127.891 125.012 134.046 121.895 139.819 118.377ZM159.307 150.416C165.084 146.902 170.681 142.87 176.1 138.319C181.511 133.766 186.299 128.991 190.463 123.993C194.628 118.995 197.901 113.952 200.28 108.863C202.66 103.774 203.703 98.9292 203.408 94.329L216.149 115.275C216.448 119.872 215.406 124.717 213.021 129.809C210.641 134.898 207.371 139.944 203.209 144.946C199.048 149.941 194.259 154.714 188.841 159.265C183.422 163.816 177.824 167.848 172.048 171.362C166.272 174.875 160.117 177.991 153.584 180.71C147.051 183.429 140.632 185.474 134.326 186.845C128.02 188.216 122.059 188.786 116.443 188.554C110.827 188.322 106.045 187.02 102.099 184.648L89.3578 163.702C93.3044 166.074 98.0857 167.376 103.702 167.608C109.318 167.84 115.279 167.27 121.585 165.899C127.891 164.528 134.31 162.483 140.843 159.764C147.376 157.045 153.531 153.929 159.307 150.416Z" fill="#828ADB"/>
</g>
<defs>
<clipPath id="clip0_3169_1855">
<rect width="200" height="200" fill="white" transform="translate(0 80.9355) rotate(-31.3107)"/>
</clipPath>
</defs>
</svg>
