<svg width="40" height="41" viewBox="0 0 40 41" fill="none" xmlns="http://www.w3.org/2000/svg">
<g clip-path="url(#clip0_367_9549)">
<path fill-rule="evenodd" clip-rule="evenodd" d="M20.0005 1.26161C15.2525 1.26408 10.6603 2.94571 7.04482 6.00582C3.42939 9.06593 1.02655 13.305 0.265948 17.9649C-0.49465 22.6249 0.436585 27.402 2.89316 31.4419C5.34973 35.4818 9.17144 38.5212 13.6749 40.0166C14.6685 40.201 15.0427 39.5852 15.0427 39.0616C15.0427 38.538 15.0228 37.02 15.0162 35.3603C9.45237 36.5622 8.27668 33.0124 8.27668 33.0124C7.36925 30.7073 6.05777 30.1014 6.05777 30.1014C4.2429 28.8699 6.19356 28.8929 6.19356 28.8929C8.20383 29.0345 9.2603 30.9444 9.2603 30.9444C11.0421 33.9839 13.9399 33.1046 15.0791 32.5909C15.258 31.3034 15.7779 30.4274 16.3509 29.9302C11.9064 29.4297 7.23677 27.7239 7.23677 20.104C7.20923 18.1278 7.94675 16.2167 9.29673 14.7661C9.09139 14.2656 8.40584 12.2437 9.49211 9.49733C9.49211 9.49733 11.1712 8.96387 14.993 11.5357C18.2712 10.6443 21.7298 10.6443 25.0079 11.5357C28.8264 8.96387 30.5022 9.49733 30.5022 9.49733C31.5918 12.2371 30.9063 14.259 30.7009 14.7661C32.0552 16.2169 32.7942 18.1314 32.7642 20.1106C32.7642 27.747 28.0846 29.4297 23.6335 29.9203C24.3489 30.5394 24.9881 31.7479 24.9881 33.6052C24.9881 36.2659 24.9649 38.4063 24.9649 39.0616C24.9649 39.5918 25.3259 40.2109 26.3393 40.0166C30.8433 38.521 34.6654 35.4811 37.1219 31.4405C39.5784 27.3999 40.5092 22.6221 39.7477 17.9617C38.9863 13.3013 36.5822 9.0622 32.9656 6.00262C29.349 2.94304 24.7556 1.26251 20.0071 1.26161H20.0005Z" fill="#191717"/>
<path d="M7.5741 29.815C7.53105 29.9137 7.37208 29.9434 7.24292 29.8742C7.11376 29.8051 7.01773 29.6767 7.06409 29.5746C7.11046 29.4725 7.26611 29.4461 7.39527 29.5153C7.52443 29.5844 7.62378 29.7162 7.5741 29.815Z" fill="#191717"/>
<path d="M8.38546 30.7139C8.31688 30.7483 8.23841 30.7579 8.1635 30.7411C8.08858 30.7242 8.02188 30.6821 7.9748 30.6217C7.84564 30.4834 7.81913 30.2924 7.91849 30.2068C8.01784 30.1212 8.19669 30.1607 8.32585 30.299C8.45501 30.4373 8.48482 30.6283 8.38546 30.7139Z" fill="#191717"/>
<path d="M9.1737 31.8566C9.05116 31.9422 8.84251 31.8566 8.7266 31.6854C8.69454 31.6546 8.66906 31.6178 8.65164 31.5771C8.63423 31.5363 8.62524 31.4925 8.62524 31.4483C8.62524 31.404 8.63423 31.3602 8.65164 31.3195C8.66906 31.2787 8.69454 31.2419 8.7266 31.2112C8.84913 31.1288 9.05779 31.2112 9.1737 31.3791C9.28961 31.5471 9.29293 31.771 9.1737 31.8566Z" fill="#191717"/>
<path d="M10.2434 32.963C10.1341 33.0849 9.91219 33.0519 9.73004 32.8873C9.54789 32.7226 9.50482 32.4987 9.61411 32.3802C9.7234 32.2616 9.9453 32.2945 10.1341 32.4559C10.3228 32.6173 10.3593 32.8445 10.2434 32.963Z" fill="#191717"/>
<path d="M11.7437 33.6084C11.694 33.7632 11.4688 33.8324 11.2436 33.7665C11.0184 33.7006 10.8694 33.5162 10.9124 33.3582C10.9555 33.2001 11.184 33.1277 11.4125 33.2001C11.641 33.2726 11.7868 33.4471 11.7437 33.6084Z" fill="#191717"/>
<path d="M13.3797 33.7204C13.3797 33.8818 13.1943 34.0201 12.9558 34.0234C12.7174 34.0266 12.522 33.8949 12.522 33.7336C12.522 33.5722 12.7074 33.4339 12.9459 33.4306C13.1843 33.4273 13.3797 33.5558 13.3797 33.7204Z" fill="#191717"/>
<path d="M14.9031 33.4668C14.9329 33.6282 14.7673 33.7961 14.5288 33.8357C14.2904 33.8752 14.0817 33.7797 14.0519 33.6216C14.0221 33.4636 14.1944 33.2923 14.4262 33.2495C14.658 33.2067 14.8733 33.3055 14.9031 33.4668Z" fill="#191717"/>
</g>
<defs>
<clipPath id="clip0_367_9549">
<rect width="40" height="40" fill="white" transform="translate(0 0.428284)"/>
</clipPath>
</defs>
</svg>
